<svg width="499" height="413" viewBox="0 0 499 413" fill="none" xmlns="http://www.w3.org/2000/svg">
<g clip-path="url(#clip0_3993_4205)">
<path d="M60.706 405.271H418.345C454.6 380.881 475.525 332.388 468.657 289.227C461.789 246.066 428.274 208.306 386.23 196.369C386.482 168.883 382.492 140.411 370.923 115.482C359.354 90.5419 340.653 68.5715 316.633 55.2127C292.612 41.8538 263.179 37.6226 236.969 45.9246C210.758 54.2265 188.537 75.6007 181.348 102.135C154.117 95.2204 124.215 103.775 103.829 123.108C83.4425 142.429 73.8572 172.495 79.3034 200.061C59.5136 201.999 41.5926 209.877 27.3866 223.786C13.1805 237.695 3.90476 256.547 1.54282 276.281C-1.33508 300.384 5.91126 324.82 17.5719 346.103C29.2211 367.396 44.9521 386.833 60.7289 405.283L60.706 405.271Z" fill="#EEF5FF"/>
<g opacity="0.63">
<path d="M230.766 213.122H229.527V215.599H230.766V213.122Z" fill="#A9CBF7"/>
<path d="M230.766 207.87H229.527V202.618H230.766V207.87ZM230.766 197.367H229.527V192.115H230.766V197.367ZM230.766 186.863H229.527V181.611H230.766V186.863ZM230.766 176.359H229.527V171.108H230.766V176.359ZM230.766 165.856H229.527V160.604H230.766V165.856ZM230.766 155.352H229.527V150.1H230.766V155.352Z" fill="#A9CBF7"/>
<path d="M230.766 144.86H229.527V142.991H227.67V141.753H230.766V144.86Z" fill="#A9CBF7"/>
<path d="M223.084 142.991H218.497V141.753H223.084V142.991ZM213.923 142.991H209.336V141.753H213.923V142.991ZM204.761 142.991H200.175V141.753H204.761V142.991ZM195.6 142.991H191.014V141.753H195.6V142.991ZM186.439 142.991H181.853V141.753H186.439V142.991ZM177.278 142.991H172.692V141.753H177.278V142.991Z" fill="#A9CBF7"/>
<path d="M168.082 142.991H164.987V139.895H166.225V141.753H168.082V142.991Z" fill="#A9CBF7"/>
<path d="M166.225 135.285H164.987V130.676H166.225V135.285ZM166.225 126.066H164.987V121.456H166.225V126.066ZM166.225 116.847H164.987V112.237H166.225V116.847Z" fill="#A9CBF7"/>
<path d="M166.225 107.616H164.987V105.747H163.118V104.508H166.225V107.616Z" fill="#A9CBF7"/>
<path d="M157.993 105.747H152.868V104.508H157.993V105.747ZM147.731 105.747H142.606V104.508H147.731V105.747ZM137.469 105.747H132.344V104.508H137.469V105.747ZM127.207 105.747H122.082V104.508H127.207V105.747ZM116.945 105.747H111.82V104.508H116.945V105.747ZM106.684 105.747H101.558V104.508H106.684V105.747ZM96.4217 105.747H91.2965V104.508H96.4217V105.747ZM86.1599 105.747H81.0347V104.508H86.1599V105.747Z" fill="#A9CBF7"/>
<path d="M74.0406 107.616H72.8023V104.508H75.9095V105.747H74.0406V107.616Z" fill="#A9CBF7"/>
<path d="M74.0406 153.3H72.8023V148.736H74.0406V153.3ZM74.0406 144.161H72.8023V139.597H74.0406V144.161ZM74.0406 135.022H72.8023V130.458H74.0406V135.022ZM74.0406 125.883H72.8023V121.319H74.0406V125.883ZM74.0406 116.743H72.8023V112.18H74.0406V116.743Z" fill="#A9CBF7"/>
<path d="M75.9095 160.971H72.8023V157.864H74.0406V159.733H75.9095V160.971Z" fill="#A9CBF7"/>
<path d="M81.4589 159.733H78.6842V160.971H81.4589V159.733Z" fill="#A9CBF7"/>
<path d="M87.3409 162.829H86.1026V160.971H84.2451V159.733H87.3409V162.829Z" fill="#A9CBF7"/>
<path d="M89.2098 233.464H86.1025V230.357H87.3408V232.214H89.2098V233.464Z" fill="#A9CBF7"/>
<path d="M120.878 233.464H115.604V232.226H120.878V233.464ZM110.318 233.464H105.044V232.226H110.318V233.464ZM99.7582 233.464H94.484V232.226H99.7582V233.464Z" fill="#A9CBF7"/>
<path d="M128.64 232.214H126.164V233.453H128.64V232.214Z" fill="#A9CBF7"/>
<path d="M270.449 121.067H267.972V122.305H270.449V121.067Z" fill="#A9CBF7"/>
<path d="M262.984 122.305H257.997V121.067H262.984V122.305ZM252.998 122.305H248.01V121.067H252.998V122.305ZM243.011 122.305H238.023V121.067H243.011V122.305ZM233.024 122.305H228.037V121.067H233.024V122.305ZM223.038 122.305H218.05V121.067H223.038V122.305Z" fill="#A9CBF7"/>
<path d="M211.205 124.163H209.967V121.067H213.074V122.305H211.205V124.163Z" fill="#A9CBF7"/>
<path d="M211.205 216.287H209.967V211.173H211.205V216.287ZM211.205 206.047H209.967V200.933H211.205V206.047ZM211.205 195.807H209.967V190.693H211.205V195.807ZM211.205 185.567H209.967V180.453H211.205V185.567ZM211.205 175.327H209.967V170.213H211.205V175.327ZM211.205 165.088H209.967V159.973H211.205V165.088ZM211.205 154.848H209.967V149.734H211.205V154.848ZM211.205 144.608H209.967V139.494H211.205V144.608ZM211.205 134.368H209.967V129.254H211.205V134.368Z" fill="#A9CBF7"/>
<path d="M211.205 221.413H209.967V223.889H211.205V221.413Z" fill="#A9CBF7"/>
<path d="M303.653 191.003H302.415V193.479H303.653V191.003Z" fill="#A9CBF7"/>
<path d="M303.653 186.37H302.415V181.737H303.653V186.37ZM303.653 177.093H302.415V172.461H303.653V177.093ZM303.653 167.817H302.415V163.184H303.653V167.817ZM303.653 158.54H302.415V153.907H303.653V158.54Z" fill="#A9CBF7"/>
<path d="M303.653 149.275H302.415V146.179H305.522V147.417H303.653V149.275Z" fill="#A9CBF7"/>
<path d="M311.221 146.179H308.366V147.417H311.221V146.179Z" fill="#A9CBF7"/>
<path d="M317.171 147.417H314.076V146.179H315.933V144.31H317.171V147.417Z" fill="#A9CBF7"/>
<path d="M317.171 139.562H315.933V134.815H317.171V139.562ZM317.171 130.068H315.933V125.321H317.171V130.068Z" fill="#A9CBF7"/>
<path d="M317.171 120.573H315.933V117.466H319.029V118.704H317.171V120.573Z" fill="#A9CBF7"/>
<path d="M345.457 118.704H341.055V117.466H345.457V118.704ZM336.652 118.704H332.249V117.466H336.652V118.704ZM327.846 118.704H323.443V117.466H327.846V118.704Z" fill="#A9CBF7"/>
<path d="M352.967 120.573H351.729V118.704H349.86V117.466H352.967V120.573Z" fill="#A9CBF7"/>
<path d="M352.967 146.42H351.729V142.108H352.967V146.42ZM352.967 137.808H351.729V133.497H352.967V137.808ZM352.967 129.197H351.729V124.885H352.967V129.197Z" fill="#A9CBF7"/>
<path d="M354.825 153.827H351.729V150.72H352.967V152.589H354.825V153.827Z" fill="#A9CBF7"/>
<path d="M384.51 153.827H379.556V152.589H384.51V153.827ZM374.615 153.827H369.662V152.589H374.615V153.827ZM364.72 153.827H359.767V152.589H364.72V153.827Z" fill="#A9CBF7"/>
<path d="M392.559 155.685H391.32V153.827H389.463V152.589H392.559V155.685Z" fill="#A9CBF7"/>
<path d="M392.559 251.157H391.32V246.387H392.559V251.157ZM392.559 241.606H391.32V236.835H392.559V241.606ZM392.559 232.054H391.32V227.284H392.559V232.054ZM392.559 222.502H391.32V217.732H392.559V222.502ZM392.559 212.95H391.32V208.18H392.559V212.95ZM392.559 203.398H391.32V198.628H392.559V203.398ZM392.559 193.846H391.32V189.076H392.559V193.846ZM392.559 184.294H391.32V179.524H392.559V184.294ZM392.559 174.743H391.32V169.972H392.559V174.743ZM392.559 165.191H391.32V160.421H392.559V165.191Z" fill="#A9CBF7"/>
<path d="M394.428 259.035H391.32V255.939H392.559V257.797H394.428V259.035Z" fill="#A9CBF7"/>
<path d="M404.196 257.797H399.312V259.035H404.196V257.797Z" fill="#A9CBF7"/>
<path d="M412.188 260.904H410.95V259.035H409.092V257.797H412.188V260.904Z" fill="#A9CBF7"/>
<path d="M412.188 287.805H410.95V283.322H412.188V287.805ZM412.188 278.838H410.95V274.355H412.188V278.838ZM412.188 269.871H410.95V265.388H412.188V269.871Z" fill="#A9CBF7"/>
<path d="M412.188 295.385H409.092V294.146H410.95V292.289H412.188V295.385Z" fill="#A9CBF7"/>
<path d="M404.139 295.385H399.186V294.146H404.139V295.385ZM394.233 295.385H389.279V294.146H394.233V295.385ZM384.326 295.385H379.373V294.146H384.326V295.385ZM374.42 295.385H369.467V294.146H374.42V295.385ZM364.513 295.385H359.56V294.146H364.513V295.385ZM354.607 295.385H349.654V294.146H354.607V295.385Z" fill="#A9CBF7"/>
<path d="M344.724 295.385H341.628V292.289H342.866V294.146H344.724V295.385Z" fill="#A9CBF7"/>
<path d="M342.866 287.071H341.628V281.854H342.866V287.071ZM342.866 276.637H341.628V271.419H342.866V276.637ZM342.866 266.202H341.628V260.984H342.866V266.202Z" fill="#A9CBF7"/>
<path d="M342.866 255.779H341.628V253.91H339.759V252.671H342.866V255.779Z" fill="#A9CBF7"/>
<path d="M334.645 253.91H329.531V252.671H334.645V253.91ZM324.406 253.91H319.281V252.671H324.406V253.91ZM314.167 253.91H309.054V252.671H314.167V253.91ZM303.928 253.91H298.803V252.671H303.928V253.91ZM293.69 253.91H288.576V252.671H293.69V253.91Z" fill="#A9CBF7"/>
<path d="M283.451 252.671H280.974V253.91H283.451V252.671Z" fill="#A9CBF7"/>
<path d="M58.516 259.115H56.0394V260.354H58.516V259.115Z" fill="#A9CBF7"/>
<path d="M40.0333 260.365V259.127H44.0348V260.365H40.0333ZM48.0363 260.365V259.127H52.0379V260.365H48.0363Z" fill="#A9CBF7"/>
<path d="M32.9245 260.365V257.258H34.1743V259.115H36.0317V260.365H32.9245Z" fill="#A9CBF7"/>
<path d="M32.9245 252.648V248.038H34.1628V252.648H32.9245ZM32.9245 243.44V238.831H34.1628V243.44H32.9245Z" fill="#A9CBF7"/>
<path d="M31.0671 232.363V231.125H34.1743V234.221H32.9245V232.363H31.0671Z" fill="#A9CBF7"/>
<path d="M25.3572 231.125H19.6472V232.363H25.3572V231.125Z" fill="#A9CBF7"/>
<path d="M10.8415 232.363V229.267H12.0798V231.125H13.9373V232.363H10.8415Z" fill="#A9CBF7"/>
<path d="M10.8415 224.681V220.094H12.0798V224.681H10.8415ZM10.8415 215.507V210.92H12.0798V215.507H10.8415ZM10.8415 206.334V201.747H12.0798V206.334H10.8415Z" fill="#A9CBF7"/>
<path d="M10.8415 197.172V194.076H13.9373V195.314H12.0798V197.172H10.8415Z" fill="#A9CBF7"/>
<path d="M18.3516 195.314V194.076H22.7659V195.314H18.3516ZM27.1802 195.314V194.076H31.5945V195.314H27.1802ZM36.0088 195.314V194.076H40.4231V195.314H36.0088ZM44.8374 195.314V194.076H49.2517V195.314H44.8374Z" fill="#A9CBF7"/>
<path d="M53.6775 195.314V194.076H55.5464V192.207H56.7847V195.314H53.6775Z" fill="#A9CBF7"/>
<path d="M55.5464 188.239V184.272H56.7847V188.239H55.5464ZM55.5464 180.304V176.337H56.7847V180.304H55.5464Z" fill="#A9CBF7"/>
<path d="M55.5464 172.369V169.261H58.6421V170.511H56.7847V172.369H55.5464Z" fill="#A9CBF7"/>
<path d="M68.0211 169.261H63.3316V170.5H68.0211V169.261Z" fill="#A9CBF7"/>
<path d="M77.4001 169.261H72.7106V170.5H77.4001V169.261Z" fill="#A9CBF7"/>
<path d="M96.1695 169.261H91.48V170.5H96.1695V169.261Z" fill="#A9CBF7"/>
<path d="M86.7905 169.261H82.101V170.5H86.7905V169.261Z" fill="#A9CBF7"/>
<path d="M101.581 169.273H99.1047V170.511H101.581V169.273Z" fill="#A9CBF7"/>
</g>
<path d="M64.8795 243.612C67.3676 247.144 72.252 247.981 75.7834 245.493L78.1454 243.83C80.6793 245.894 83.4655 247.545 86.4236 248.749L85.9994 251.18C85.2656 255.435 88.1206 259.494 92.3858 260.228C96.6396 260.962 100.698 258.106 101.432 253.841L101.925 250.997C105.09 250.687 108.243 249.896 111.258 248.623L112.68 250.641C115.168 254.173 120.053 255.01 123.584 252.522C127.116 250.034 127.952 245.149 125.464 241.617L123.802 239.255C125.866 236.721 127.517 233.934 128.721 230.976L131.151 231.389C135.405 232.123 139.464 229.267 140.198 225.002C140.932 220.747 138.077 216.688 133.811 215.954L130.968 215.461C130.658 212.296 129.867 209.143 128.595 206.127L130.613 204.705C134.144 202.217 134.981 197.332 132.493 193.8C130.005 190.269 125.12 189.432 121.589 191.92L119.227 193.583C116.705 191.507 113.918 189.867 110.949 188.663L111.373 186.232C112.107 181.978 109.252 177.919 104.987 177.185C100.733 176.451 96.674 179.306 95.9402 183.572L95.4472 186.427C92.2826 186.737 89.1295 187.528 86.1141 188.801L84.6923 186.783C82.2042 183.251 77.3198 182.414 73.7884 184.902C70.257 187.391 69.42 192.275 71.908 195.807L73.582 198.169C71.5067 200.692 69.8671 203.478 68.6632 206.437L66.2325 206.013C61.9787 205.279 57.9198 208.134 57.186 212.4C56.4522 216.654 59.3072 220.713 63.5724 221.447L66.4274 221.94C66.737 225.105 67.5281 228.258 68.8008 231.274L66.7828 232.696C63.2514 235.184 62.4144 240.069 64.9025 243.601L64.8795 243.612ZM85.2427 199.671C95.7567 192.252 110.295 194.752 117.714 205.267C125.132 215.782 122.621 230.322 112.118 237.741C101.604 245.16 87.0657 242.649 79.6474 232.145C72.2291 221.63 74.7401 207.09 85.2427 199.671Z" fill="#CFE5FF"/>
<path d="M110.708 210.221C115.398 216.872 113.815 226.057 107.165 230.747C100.515 235.436 91.3195 233.854 86.63 227.215C81.9405 220.564 83.5228 211.368 90.1729 206.678C96.823 201.988 106.007 203.582 110.697 210.221H110.708Z" fill="#CFE5FF"/>
<path d="M128.835 179.696C129.546 181.669 131.725 182.689 133.685 181.967L135.004 181.497C135.921 182.781 137.01 183.916 138.237 184.856L137.733 185.934C136.838 187.826 137.664 190.085 139.556 190.98C141.448 191.874 143.706 191.048 144.601 189.156L145.197 187.884C146.71 188.147 148.293 188.182 149.863 187.975L150.265 189.099C150.976 191.071 153.154 192.092 155.115 191.37C157.087 190.659 158.107 188.48 157.385 186.519L156.915 185.2C158.199 184.283 159.334 183.194 160.274 181.967L161.352 182.471C163.244 183.366 165.503 182.54 166.397 180.648C167.291 178.756 166.466 176.497 164.574 175.603L163.301 175.006C163.565 173.493 163.599 171.91 163.393 170.339L164.517 169.938C166.489 169.227 167.509 167.048 166.787 165.088C166.076 163.115 163.898 162.095 161.937 162.817L160.618 163.299C159.701 162.003 158.612 160.879 157.385 159.939L157.889 158.861C158.784 156.969 157.958 154.71 156.066 153.816C154.175 152.921 151.916 153.747 151.022 155.639L150.425 156.912C148.912 156.648 147.33 156.614 145.759 156.82L145.357 155.696C144.647 153.724 142.468 152.703 140.507 153.426C138.535 154.137 137.515 156.316 138.237 158.276L138.719 159.595C137.423 160.512 136.3 161.602 135.359 162.829L134.27 162.324C132.378 161.43 130.12 162.255 129.225 164.147C128.331 166.039 129.156 168.298 131.048 169.193L132.321 169.789C132.057 171.303 132.023 172.885 132.229 174.456L131.106 174.857C129.133 175.568 128.113 177.747 128.835 179.708V179.696ZM143.982 161.774C149.841 159.652 156.319 162.691 158.44 168.551C160.561 174.41 157.523 180.889 151.664 183.01C145.805 185.132 139.326 182.093 137.205 176.233C135.084 170.374 138.123 163.895 143.982 161.774Z" fill="#CFE5FF"/>
<path d="M154.53 169.973C155.872 173.676 153.957 177.77 150.253 179.112C146.55 180.453 142.457 178.538 141.115 174.834C139.774 171.131 141.7 167.037 145.403 165.695C149.107 164.354 153.2 166.28 154.542 169.984L154.53 169.973Z" fill="#CFE5FF"/>
<path d="M321.184 208.306C322.973 210.84 326.482 211.448 329.016 209.659L330.712 208.467C332.524 209.946 334.531 211.138 336.652 211.998L336.354 213.741C335.826 216.803 337.879 219.704 340.94 220.232C344.001 220.759 346.902 218.706 347.43 215.645L347.785 213.604C350.055 213.374 352.314 212.813 354.481 211.907L355.501 213.351C357.29 215.886 360.799 216.493 363.332 214.705C365.866 212.916 366.474 209.407 364.685 206.873L363.493 205.176C364.972 203.364 366.165 201.357 367.024 199.236L368.767 199.534C371.829 200.061 374.729 198.009 375.257 194.947C375.784 191.886 373.732 188.984 370.671 188.457L368.63 188.102C368.4 185.831 367.838 183.572 366.933 181.405L368.377 180.384C370.911 178.596 371.519 175.087 369.73 172.553C367.942 170.018 364.433 169.411 361.899 171.199L360.202 172.392C358.391 170.901 356.384 169.72 354.263 168.86L354.561 167.117C355.089 164.056 353.036 161.155 349.975 160.627C346.914 160.1 344.013 162.152 343.485 165.214L343.13 167.266C340.86 167.496 338.601 168.058 336.434 168.963L335.413 167.519C333.625 164.984 330.116 164.377 327.582 166.166C325.048 167.954 324.441 171.463 326.229 173.997L327.422 175.694C325.931 177.506 324.75 179.513 323.89 181.634L322.148 181.336C319.086 180.809 316.185 182.861 315.658 185.923C315.131 188.984 317.183 191.886 320.244 192.413L322.297 192.769C322.526 195.039 323.088 197.298 323.994 199.465L322.549 200.486C320.015 202.275 319.407 205.783 321.196 208.318L321.184 208.306ZM335.803 176.749C343.348 171.417 353.793 173.218 359.125 180.774C364.456 188.319 362.656 198.766 355.1 204.098C347.556 209.43 337.11 207.63 331.779 200.073C326.447 192.516 328.247 182.081 335.803 176.749Z" fill="#CFE5FF"/>
<path d="M354.103 184.329C357.473 189.099 356.338 195.704 351.557 199.064C346.787 202.435 340.183 201.3 336.812 196.53C333.441 191.759 334.588 185.155 339.358 181.783C344.127 178.412 350.732 179.559 354.103 184.329Z" fill="#CFE5FF"/>
<path d="M388.744 273.151C388.606 276.763 388.48 280.375 388.342 283.987C388.251 286.406 388.159 288.826 388.079 291.245C388.101 291.452 388.136 291.658 388.159 291.853C387.975 296.016 387.78 300.178 387.597 304.341C387.563 305.212 387.517 306.083 387.482 306.955C387.414 308.514 387.345 310.085 387.276 311.645C387.253 312.104 387.23 312.562 387.219 313.021C387.184 313.709 387.161 314.385 387.127 315.073C394.178 316.679 401.218 318.273 408.258 319.878C410.769 319.878 424.838 319.614 435.937 308.193C436.487 307.632 437.003 307.058 437.496 306.485C446.565 295.935 446.817 283.849 446.817 281.292C444.765 283.471 439.273 288.723 430.444 290.592C426.156 291.498 422.373 291.349 419.529 290.924C418.451 290.764 417.511 290.569 416.731 290.385C416.686 290.385 416.651 290.362 416.605 290.351C420.997 289.296 426.672 287.484 432.806 284.216C438.092 281.395 442.254 278.276 445.361 275.593C445.258 273.231 445.029 269.653 444.547 265.308C444.501 264.895 444.456 264.482 444.41 264.081C444.364 263.737 444.329 263.404 444.284 263.083C444.089 261.558 443.894 260.182 443.699 258.92C443.63 258.496 443.573 258.095 443.504 257.705C442.976 254.529 442.472 252.155 442.094 250.068C442.048 249.827 442.013 249.587 441.967 249.346C441.841 248.589 441.738 247.866 441.658 247.144C441.073 241.789 441.692 233.992 447.414 223.717C447.643 223.305 447.884 222.88 448.136 222.456C447.666 222.685 447.161 222.938 446.611 223.213C437.714 225.346 428.232 228.728 419.242 234.083C419.208 234.106 419.185 234.118 419.151 234.141C418.944 234.267 418.749 234.382 418.543 234.508C418.509 234.531 418.486 234.542 418.451 234.565C417.075 235.414 415.699 236.296 414.358 237.237C414.117 237.409 413.865 237.581 413.624 237.753C409.703 240.551 405.931 243.773 402.399 247.5C401.459 248.497 400.553 249.506 399.682 250.527C399.017 251.329 398.386 252.144 397.801 252.946C397.572 253.256 397.354 253.565 397.136 253.875C392.963 259.872 390.934 265.48 390.074 268.197C389.535 269.883 389.11 271.534 388.766 273.139L388.744 273.151Z" fill="#092C24"/>
<path d="M397.182 291.486C398.42 294.032 399.154 296.761 399.349 299.593C398.054 300.969 396.735 302.345 395.382 303.733C392.665 306.496 389.959 309.134 387.287 311.645C387.264 312.104 387.241 312.562 387.23 313.021C392.389 308.239 397.629 303.056 402.881 297.449C404.83 295.362 406.71 293.287 408.533 291.222C410.322 291.429 412.122 291.521 413.922 291.475C415.802 291.429 417.683 291.245 419.54 290.924C418.463 290.764 417.522 290.569 416.743 290.385C415.802 290.489 414.851 290.546 413.899 290.569C412.34 290.603 410.78 290.546 409.233 290.385C414.232 284.216 418.176 277.703 420.996 270.88C425.308 270.846 429.573 270.204 433.689 268.954C437.473 267.807 441.073 266.179 444.421 264.081C444.375 263.737 444.341 263.404 444.295 263.083C440.912 265.239 437.266 266.913 433.425 268.071C433.299 268.105 433.173 268.151 433.047 268.186C435.489 266.718 437.759 265.009 439.846 263.071C441.222 261.787 442.518 260.4 443.71 258.932C443.641 258.508 443.584 258.106 443.515 257.716C442.208 259.391 440.775 260.962 439.227 262.406C436.349 265.09 433.081 267.337 429.527 269.069C426.855 269.619 424.127 269.917 421.386 269.963C422.533 267.096 423.473 264.253 424.471 261.26C425.181 259.127 425.892 256.971 426.695 254.77C428.701 254.426 430.708 253.978 432.669 253.451C435.89 252.579 439.066 251.444 442.116 250.068C442.07 249.827 442.036 249.587 441.99 249.346C438.917 250.733 435.718 251.88 432.474 252.763C430.674 253.256 428.828 253.669 426.97 254.001C429.103 248.302 431.866 242.328 436.659 235.735C439.812 231.4 443.423 227.375 447.425 223.729C447.654 223.316 447.895 222.892 448.147 222.468C447.677 222.697 447.173 222.949 446.622 223.224C442.655 226.859 439.055 230.873 435.925 235.184C430.926 242.064 428.105 248.268 425.938 254.173C425.869 254.173 425.812 254.196 425.743 254.208L425.801 254.552C424.654 251.731 423.29 249.025 421.719 246.445H421.788C421.868 244.816 421.811 242.684 421.317 240.241C420.802 237.673 419.976 235.597 419.254 234.095C419.219 234.118 419.196 234.129 419.162 234.152C418.956 234.278 418.761 234.393 418.554 234.519C418.52 234.542 418.497 234.554 418.463 234.576C419.173 236.033 419.942 238.005 420.412 240.413C420.767 242.202 420.87 243.807 420.87 245.126C420.263 244.174 419.586 243.177 418.806 242.167C417.316 240.218 415.78 238.59 414.369 237.248C414.128 237.42 413.876 237.592 413.635 237.764C415.08 239.163 416.594 240.803 418.084 242.718C421.776 247.454 423.978 252.144 425.33 255.87C424.723 257.59 424.161 259.287 423.599 260.973C422.544 264.172 421.535 267.2 420.286 270.25C418.6 274.355 416.502 278.357 414.014 282.244C413.372 276.167 411.457 270.25 408.419 265.044C407.329 263.175 406.057 261.42 406.057 261.42C405.082 260.067 403.89 258.588 402.433 257.074C400.828 255.4 399.246 254.036 397.824 252.946C397.801 252.923 397.778 252.912 397.755 252.889C397.503 253.187 397.262 253.485 397.01 253.783C397.056 253.818 397.102 253.852 397.159 253.875C398.386 254.701 399.773 255.744 401.184 257.086C403.041 258.84 404.417 260.595 405.426 262.085C405.426 262.085 406.618 263.737 407.639 265.502C410.792 270.915 412.718 277.13 413.211 283.471C411.675 285.776 409.989 288.035 408.178 290.248C407.948 290.523 407.719 290.798 407.49 291.073C405.277 293.711 402.858 296.279 400.243 298.779C399.968 296.096 399.234 293.504 398.054 291.073C397.595 290.145 397.136 289.353 396.723 288.711C396.701 288.677 396.391 288.195 396.116 287.817C394.878 286.097 393.238 284.927 392.928 284.709C391.231 283.517 389.592 282.921 388.468 282.611C388.445 283.07 388.422 283.528 388.399 283.987C389.821 284.434 393.433 285.73 395.485 288.516C395.921 289.113 396.609 290.213 397.228 291.475L397.182 291.486Z" fill="#245558"/>
<path d="M393.857 323.96C390.509 329.476 387.161 335.003 383.813 340.518C388.904 337.296 393.995 334.074 399.086 330.863C409.405 323.914 442.69 298.045 456.999 274.229C461.092 267.406 466.298 254.999 460.978 247.293C453.387 236.319 437.645 256.398 429.699 266.351C429.034 267.177 428.426 267.945 427.876 268.61C423.324 274.16 419.3 280.352 415.55 286.464C410.23 295.121 403.408 306.794 397.801 316.816C396.403 319.328 395.073 321.736 393.869 323.972L393.857 323.96Z" fill="#3D8E94"/>
<path d="M383.733 340.817C383.733 340.817 383.63 340.771 383.584 340.725C383.469 340.599 383.481 340.404 383.607 340.289C401.516 324.431 417.74 306.703 431.832 287.576C438.826 278.082 445.407 268.094 451.369 257.889C451.461 257.74 451.645 257.694 451.794 257.774C451.943 257.866 451.989 258.049 451.908 258.198C445.923 268.415 439.342 278.426 432.336 287.943C418.222 307.093 401.975 324.866 384.02 340.748C383.939 340.817 383.825 340.839 383.733 340.817Z" fill="#245558"/>
<path d="M383.664 342.33C384.306 342.158 384.96 341.975 385.602 341.791C391.599 340.14 397.607 338.489 403.603 336.837C409.256 335.221 417.672 332.824 427.979 329.854C431.855 328.73 435.73 327.618 439.617 326.506C442.266 325.749 444.914 325.027 447.586 324.327C455.635 322.183 463.718 320.107 471.538 317.229C484.448 312.471 491.431 309.26 494.675 304.49C495.386 303.435 497.198 300.786 496.992 297.346C496.992 297.346 496.9 294.548 495.111 292.117C486.821 280.857 454.522 291.956 443.699 298.194C427.67 307.448 413.246 318.984 398.363 329.9C393.467 334.04 388.572 338.179 383.664 342.319V342.33Z" fill="#317277"/>
<path d="M383.584 342.628C383.515 342.605 383.446 342.559 383.4 342.491C383.309 342.342 383.355 342.158 383.504 342.066C403.018 330.038 423.645 319.591 444.822 311.014C457.309 305.957 470.196 301.474 483.141 297.678C483.301 297.632 483.473 297.724 483.519 297.885C483.565 298.045 483.473 298.217 483.313 298.263C470.391 302.047 457.526 306.531 445.052 311.576C423.909 320.13 403.305 330.565 383.825 342.582C383.744 342.628 383.653 342.64 383.572 342.617L383.584 342.628Z" fill="#3D8E94"/>
<path d="M379.697 337.136C381.188 331.758 383.446 323.754 386.405 314.11C389.604 303.675 394.293 292.954 401.62 271.247C403.156 266.684 410.23 245.665 419.449 242.89C420.309 242.638 422.762 241.892 425.124 242.97C428.576 244.53 429.63 248.944 430.055 250.687C434.285 268.381 415.562 296.784 415.562 296.784C410.574 305.04 403.649 314.695 394.132 324.327C389.191 329.327 384.295 333.569 379.697 337.136Z" fill="#317277"/>
<path d="M379.617 337.434C379.617 337.434 379.56 337.411 379.537 337.399C379.388 337.308 379.353 337.113 379.445 336.975C390.521 319.374 400.347 300.82 408.648 281.843C412.615 272.784 416.296 263.45 419.609 254.127C419.667 253.967 419.839 253.887 419.999 253.944C420.16 254.001 420.24 254.173 420.183 254.334C416.869 263.679 413.177 273.013 409.21 282.095C400.897 301.107 391.06 319.683 379.961 337.308C379.881 337.422 379.743 337.48 379.617 337.445V337.434Z" fill="#3D8E94"/>
<path d="M411.537 347.318C411.537 347.318 427.2 347.57 434.446 347.559C450.624 347.524 469.061 348.614 479.564 338.42C481.983 336.069 484.207 332.847 483.76 328.983C483.485 326.62 482.212 324.373 480.63 322.653C475.253 316.805 461.826 318.078 454.993 318.8C441.601 320.199 402.927 335.931 402.927 335.931C396.024 339.257 389.133 342.594 382.231 345.919C392 346.389 401.769 346.859 411.537 347.318Z" fill="#3D8E94"/>
<path d="M382.139 346.206C382.036 346.171 381.944 346.091 381.921 345.965C381.887 345.793 382.002 345.633 382.162 345.598L471.652 328.295C471.824 328.26 471.985 328.375 472.019 328.535C472.054 328.707 471.939 328.868 471.778 328.902L382.288 346.206C382.288 346.206 382.185 346.206 382.139 346.206Z" fill="#245558"/>
<path d="M93.008 325.462C95.0375 331.586 97.0784 337.72 99.1078 343.844C94.8655 339.567 90.6231 335.301 86.3694 331.024C77.8618 321.953 51.1581 289.319 42.513 262.911C40.0364 255.354 37.7317 242.087 44.6341 235.769C54.4717 226.768 65.3642 249.839 70.8906 261.306C71.3493 262.269 71.7735 263.14 72.1633 263.909C75.3623 270.341 77.9077 277.267 80.2008 284.056C83.4571 293.676 87.5159 306.576 90.7493 317.596C91.5633 320.36 92.3201 322.997 92.9966 325.439L93.008 325.462Z" fill="#3D8E94"/>
<path d="M99.1307 344.153C99.1307 344.153 99.2454 344.13 99.2912 344.096C99.4288 343.993 99.4632 343.798 99.36 343.66C85.4292 324.212 73.5507 303.308 64.08 281.533C59.3676 270.72 55.1826 259.517 51.6397 248.245C51.5938 248.084 51.4104 247.993 51.2498 248.038C51.0893 248.084 50.9976 248.268 51.0435 248.428C54.5978 259.723 58.7943 270.949 63.5067 281.785C73.0003 303.595 84.8903 324.545 98.8555 344.027C98.9243 344.119 99.0275 344.165 99.1193 344.153H99.1307Z" fill="#245558"/>
<path d="M98.8555 345.644C98.2593 345.323 97.6746 345.013 97.0784 344.692C91.5977 341.745 86.1171 338.81 80.625 335.863C75.4769 333.03 67.7949 328.822 58.4044 323.628C54.873 321.667 51.3416 319.717 47.8101 317.768C45.4023 316.438 42.9716 315.154 40.5294 313.869C33.1569 309.982 25.75 306.164 18.756 301.611C7.2329 294.101 1.13313 289.411 -0.965101 284.044C-1.42373 282.863 -2.59323 279.87 -1.63011 276.568C-1.63011 276.568 -0.907772 273.862 1.37391 271.889C11.9568 262.762 40.9765 280.765 50.1377 289.262C63.7016 301.841 75.2017 316.312 87.2866 330.267C91.1391 335.393 94.9916 340.518 98.8441 345.644H98.8555Z" fill="#317277"/>
<path d="M98.8785 345.953C98.9473 345.953 99.0275 345.919 99.0849 345.862C99.1995 345.736 99.1995 345.541 99.0849 345.426C82.7347 329.349 64.9514 314.58 46.2164 301.508C35.1634 293.802 23.5945 286.555 11.8307 279.973C11.6816 279.893 11.4981 279.939 11.4064 280.088C11.3262 280.237 11.372 280.421 11.5211 280.512C23.2734 287.083 34.8194 294.318 45.8495 302.013C64.5615 315.062 82.322 329.82 98.6377 345.862C98.7065 345.93 98.7867 345.953 98.867 345.953H98.8785Z" fill="#3D8E94"/>
<path d="M70.581 344.302C70.581 344.302 55.2514 341.069 48.1999 339.44C32.4346 335.805 14.227 332.767 6.24683 320.486C4.41231 317.665 2.95616 314.018 4.25179 310.349C5.04293 308.101 6.78572 306.209 8.71196 304.879C15.2474 300.373 28.0546 304.604 34.5672 306.829C47.3171 311.175 81.5079 335.129 81.5079 335.129C87.493 339.91 93.4781 344.692 99.4517 349.474C89.8205 347.754 80.1893 346.034 70.5581 344.314L70.581 344.302Z" fill="#3D8E94"/>
<path d="M99.4862 349.772C99.6008 349.772 99.704 349.703 99.7499 349.588C99.8187 349.428 99.7499 349.244 99.5893 349.176L16.1991 312.39C16.0386 312.321 15.8551 312.39 15.7863 312.551C15.7175 312.711 15.7863 312.895 15.9468 312.963L99.3371 349.749C99.3371 349.749 99.4288 349.772 99.4747 349.772H99.4862Z" fill="#245558"/>
<path d="M143.259 308.927H25.403C23.5286 308.927 22.0092 310.447 22.0092 312.321V324.648C22.0092 326.523 23.5286 328.042 25.403 328.042H143.259C145.134 328.042 146.653 326.523 146.653 324.648V312.321C146.653 310.447 145.134 308.927 143.259 308.927Z" fill="#2B478B"/>
<path d="M141.459 328.042H27.2031V347.158H141.459V328.042Z" fill="#4095F2"/>
<path d="M143.259 347.146H25.403C23.5286 347.146 22.0092 348.666 22.0092 350.54V362.867C22.0092 364.742 23.5286 366.261 25.403 366.261H143.259C145.134 366.261 146.653 364.742 146.653 362.867V350.54C146.653 348.666 145.134 347.146 143.259 347.146Z" fill="#2B478B"/>
<path d="M143.259 385.376H25.403C23.5286 385.376 22.0092 386.896 22.0092 388.771V401.097C22.0092 402.972 23.5286 404.492 25.403 404.492H143.259C145.134 404.492 146.653 402.972 146.653 401.097V388.771C146.653 386.896 145.134 385.376 143.259 385.376Z" fill="#2B478B"/>
<path d="M141.459 366.261H27.2031V385.376H141.459V366.261Z" fill="#4095F2"/>
<path d="M401.02 194.477H154.232C153.903 194.477 153.636 194.744 153.636 195.073V368.153C153.636 368.483 153.903 368.75 154.232 368.75H401.02C401.35 368.75 401.617 368.483 401.617 368.153V195.073C401.617 194.744 401.35 194.477 401.02 194.477Z" fill="#739AF0"/>
<path d="M395.815 200.348H159.437V343.247H395.815V200.348Z" fill="#F3FAFF"/>
<path d="M371.141 219.773H184.123C183.832 219.773 183.596 220.009 183.596 220.3V321.644C183.596 321.935 183.832 322.171 184.123 322.171H371.141C371.432 322.171 371.668 321.935 371.668 321.644V220.3C371.668 220.009 371.432 219.773 371.141 219.773Z" fill="#A9CBF7"/>
<path d="M192.092 226.148C192.092 224.979 191.14 224.027 189.971 224.027C188.801 224.027 187.849 224.979 187.849 226.148C187.849 227.318 188.801 228.27 189.971 228.27C191.14 228.27 192.092 227.318 192.092 226.148Z" fill="white"/>
<path d="M199.774 226.148C199.774 224.979 198.822 224.027 197.653 224.027C196.483 224.027 195.531 224.979 195.531 226.148C195.531 227.318 196.483 228.27 197.653 228.27C198.822 228.27 199.774 227.318 199.774 226.148Z" fill="white"/>
<path d="M207.444 226.148C207.444 224.979 206.493 224.027 205.323 224.027C204.154 224.027 203.202 224.979 203.202 226.148C203.202 227.318 204.154 228.27 205.323 228.27C206.493 228.27 207.444 227.318 207.444 226.148Z" fill="white"/>
<path d="M258.685 366.525L241.417 403.161C241.417 403.161 241.624 405.73 243.309 405.73H321.632V403.161H287.028L304.433 365.814L258.696 366.525H258.685Z" fill="#2B478B"/>
<path d="M287.017 403.23H244.513C244.249 403.23 244.043 403.024 244.043 402.76C244.043 402.496 244.249 402.29 244.513 402.29H287.017C287.28 402.29 287.487 402.496 287.487 402.76C287.487 403.024 287.28 403.23 287.017 403.23Z" fill="#9BB8BC"/>
<path d="M255.05 129.002C254.614 128.669 254.144 128.405 253.628 128.21V95.0139H249.168V128.21C248.664 128.417 248.182 128.68 247.746 129.002C246.267 130.102 245.316 131.868 245.316 133.852C245.316 137.212 248.033 139.929 251.381 139.929C254.729 139.929 257.458 137.212 257.458 133.852C257.458 131.868 256.506 130.114 255.027 129.013L255.05 129.002ZM251.393 136.753C249.787 136.753 248.48 135.446 248.48 133.841C248.48 132.235 249.787 130.928 251.393 130.928C253.009 130.928 254.305 132.235 254.305 133.841C254.305 135.446 253.009 136.753 251.393 136.753ZM270.712 115.551L270.15 114.244C267.513 108.086 265.965 101.63 265.495 95.0024H261.012C261.494 102.238 263.179 109.29 266.057 116.01L266.619 117.317C265.507 118.418 264.807 119.931 264.807 121.617C264.807 124.977 267.525 127.694 270.873 127.694C274.232 127.694 276.95 124.977 276.95 121.617C276.95 119.633 275.998 117.879 274.53 116.778C273.51 116.01 272.249 115.551 270.873 115.551C270.815 115.551 270.77 115.551 270.712 115.551ZM273.785 121.617C273.785 123.222 272.478 124.529 270.873 124.529C269.268 124.529 267.961 123.222 267.961 121.617C267.961 120.012 269.268 118.704 270.873 118.704C272.478 118.704 273.785 120.012 273.785 121.617ZM220.962 129.002C220.527 128.669 220.057 128.405 219.541 128.21V95.0139H215.081V128.21C214.576 128.417 214.095 128.68 213.659 129.002C212.18 130.102 211.228 131.868 211.228 133.852C211.228 137.212 213.945 139.929 217.293 139.929C220.641 139.929 223.37 137.212 223.37 133.852C223.37 131.868 222.419 130.114 220.94 129.013L220.962 129.002ZM217.305 136.753C215.7 136.753 214.393 135.446 214.393 133.841C214.393 132.235 215.7 130.928 217.305 130.928C218.922 130.928 220.217 132.235 220.217 133.841C220.217 135.446 218.922 136.753 217.305 136.753ZM197.836 127.683C201.184 127.683 203.901 124.965 203.901 121.605C203.901 119.92 203.202 118.395 202.09 117.305L202.652 115.998C205.53 109.279 207.215 102.238 207.697 94.991H203.214C202.743 101.619 201.196 108.075 198.558 114.232L197.997 115.539C197.997 115.539 197.893 115.539 197.836 115.539C196.46 115.539 195.199 115.998 194.179 116.766C192.711 117.867 191.759 119.622 191.759 121.605C191.759 124.965 194.477 127.683 197.836 127.683ZM197.836 118.693C199.441 118.693 200.748 120 200.748 121.605C200.748 123.211 199.441 124.518 197.836 124.518C196.231 124.518 194.924 123.211 194.924 121.605C194.924 120 196.231 118.693 197.836 118.693Z" fill="#2B478B"/>
<path d="M238.012 135.354C237.576 135.022 237.106 134.758 236.59 134.551V95.0024H232.13V134.551C231.626 134.758 231.144 135.022 230.708 135.343C229.241 136.443 228.278 138.209 228.278 140.193C228.278 143.553 230.995 146.271 234.343 146.271C237.691 146.271 240.42 143.553 240.42 140.193C240.42 138.209 239.468 136.455 237.989 135.354H238.012ZM234.354 143.106C232.749 143.106 231.442 141.798 231.442 140.193C231.442 138.588 232.749 137.281 234.354 137.281C235.96 137.281 237.267 138.588 237.267 140.193C237.267 141.798 235.971 143.106 234.354 143.106Z" fill="#2B478B"/>
<path d="M287.716 31.8892C285.881 14.4596 271.137 0.871477 253.227 0.871477C246.657 0.871477 240.512 2.6947 235.283 5.871C230.009 2.16723 223.6 0 216.674 0C200.141 0 186.508 12.3727 184.49 28.3574C170.536 32.7492 160.423 45.787 160.423 61.1983C160.423 80.2103 175.833 95.6217 194.844 95.6217H275.23C293.506 95.6217 308.308 80.8066 308.308 62.54C308.308 48.6881 299.789 36.8314 287.716 31.9007V31.8892Z" fill="#F78248"/>
<path d="M271.538 62.1501C270.838 57.3455 269.245 52.7702 266.78 48.5619C264.326 44.3536 261.127 40.7186 257.286 37.7487C253.296 34.6756 248.79 32.474 243.894 31.1782C238.987 29.8939 233.976 29.6073 229 30.3182C224.196 31.0177 219.621 32.6116 215.413 35.0769C211.205 37.5308 207.571 40.7301 204.601 44.5829C201.528 48.5619 199.327 53.0684 198.031 57.9762C196.747 62.8725 196.46 67.8949 197.183 72.8715C197.882 77.6761 199.476 82.2514 201.941 86.4597C204.406 90.668 207.605 94.303 211.446 97.2729C215.425 100.346 219.931 102.548 224.838 103.843C229.734 105.128 234.756 105.414 239.732 104.703C244.536 104.004 249.111 102.41 253.319 99.9447C257.527 97.4793 261.161 94.2801 264.131 90.4387C267.204 86.4597 269.405 81.9533 270.701 77.0455C271.985 72.1491 272.272 67.1267 271.549 62.1501H271.538ZM260.152 74.282C256.415 88.5008 241.819 97.0436 227.59 93.3054C213.372 89.5672 204.83 74.97 208.568 60.7397C212.306 46.5208 226.902 37.978 241.131 41.7162C248.022 43.528 253.789 47.9083 257.389 54.0545C260.989 60.2007 261.964 67.3904 260.164 74.282H260.152Z" fill="white"/>
<path d="M223.508 85.2443C223.508 85.7144 223.118 86.1043 222.648 86.1043C222.178 86.1043 221.788 85.7144 221.788 85.2443C221.788 84.7741 222.178 84.3843 222.648 84.3843C223.118 84.3843 223.508 84.7741 223.508 85.2443Z" fill="white"/>
<path d="M228.197 85.2443C228.197 85.7144 227.808 86.1043 227.337 86.1043C226.867 86.1043 226.478 85.7144 226.478 85.2443C226.478 84.7741 226.867 84.3843 227.337 84.3843C227.808 84.3843 228.197 84.7741 228.197 85.2443Z" fill="white"/>
<path d="M232.875 85.2443C232.875 85.7144 232.486 86.1043 232.015 86.1043C231.545 86.1043 231.156 85.7144 231.156 85.2443C231.156 84.7741 231.545 84.3843 232.015 84.3843C232.486 84.3843 232.875 84.7741 232.875 85.2443Z" fill="white"/>
<path d="M237.565 85.2443C237.565 85.7144 237.175 86.1043 236.705 86.1043C236.235 86.1043 235.845 85.7144 235.845 85.2443C235.845 84.7741 236.235 84.3843 236.705 84.3843C237.175 84.3843 237.565 84.7741 237.565 85.2443Z" fill="white"/>
<path d="M242.541 85.2442C242.541 85.8749 242.025 86.3909 241.394 86.3909C240.764 86.3909 240.248 85.8749 240.248 85.2442C240.248 84.6135 240.764 84.0975 241.394 84.0975C242.025 84.0975 242.541 84.6135 242.541 85.2442Z" fill="white"/>
<path d="M246.932 85.2443C246.932 85.7144 246.543 86.1043 246.072 86.1043C245.602 86.1043 245.213 85.7144 245.213 85.2443C245.213 84.7741 245.602 84.3843 246.072 84.3843C246.543 84.3843 246.932 84.7741 246.932 85.2443Z" fill="white"/>
<path d="M23.1442 166.475H19.6931V163.012C19.6931 162.267 19.0854 161.671 18.3401 161.671C17.5948 161.671 16.9986 162.267 16.9986 163.012V166.475H13.5474C12.8022 166.475 12.2059 167.071 12.2059 167.817C12.2059 168.562 12.8022 169.17 13.5474 169.17H16.9986V172.61C16.9986 173.355 17.5948 173.963 18.3401 173.963C19.0854 173.963 19.6931 173.355 19.6931 172.61V169.17H23.1442C23.8895 169.17 24.4972 168.562 24.4972 167.817C24.4972 167.071 23.8895 166.475 23.1442 166.475Z" fill="#AEC3FF"/>
<path d="M444.602 151.396H441.15V147.933C441.15 147.188 440.543 146.592 439.797 146.592C439.052 146.592 438.456 147.188 438.456 147.933V151.396H435.005C434.259 151.396 433.663 151.993 433.663 152.738C433.663 153.483 434.259 154.091 435.005 154.091H438.456V157.531C438.456 158.276 439.052 158.884 439.797 158.884C440.543 158.884 441.15 158.276 441.15 157.531V154.091H444.602C445.347 154.091 445.954 153.483 445.954 152.738C445.954 151.993 445.347 151.396 444.602 151.396Z" fill="#AEC3FF"/>
<path d="M386.883 63.3541C386.883 66.668 389.589 69.3741 392.903 69.3741C396.216 69.3741 398.922 66.668 398.922 63.3541C398.922 60.0402 396.228 57.334 392.903 57.334C389.578 57.334 386.883 60.0402 386.883 63.3541ZM389.188 63.3541C389.188 61.313 390.85 59.6388 392.891 59.6388C394.932 59.6388 396.595 61.3015 396.595 63.3541C396.595 65.4066 394.932 67.0578 392.891 67.0578C390.85 67.0578 389.188 65.3951 389.188 63.3541Z" fill="#AEC3FF"/>
<path d="M136.54 57.334C136.54 60.6479 139.246 63.3541 142.56 63.3541C145.873 63.3541 148.579 60.6479 148.579 57.334C148.579 54.0201 145.885 51.314 142.56 51.314C139.235 51.314 136.54 54.0201 136.54 57.334ZM138.845 57.334C138.845 55.2929 140.507 53.6188 142.548 53.6188C144.589 53.6188 146.252 55.2815 146.252 57.334C146.252 59.3866 144.589 61.0378 142.548 61.0378C140.507 61.0378 138.845 59.3751 138.845 57.334Z" fill="#AEC3FF"/>
<path d="M17.5031 112.317C17.5031 115.631 20.209 118.338 23.5226 118.338C26.8362 118.338 29.5421 115.631 29.5421 112.317C29.5421 109.004 26.8477 106.297 23.5226 106.297C20.1976 106.297 17.5031 109.004 17.5031 112.317ZM19.8077 112.317C19.8077 110.276 21.4703 108.602 23.5112 108.602C25.5521 108.602 27.2146 110.265 27.2146 112.317C27.2146 114.37 25.5521 116.021 23.5112 116.021C21.4703 116.021 19.8077 114.359 19.8077 112.317Z" fill="#AEC3FF"/>
<path d="M387.479 96.4817C386.642 96.4817 385.966 97.1697 385.966 98.0068C385.966 98.8439 386.642 99.5204 387.479 99.5204H402.648C403.485 99.5204 404.173 98.8553 404.173 98.0068C404.173 97.1582 403.497 96.4817 402.648 96.4817H387.479Z" fill="#AEC3FF"/>
<path d="M409.149 96.4817C408.312 96.4817 407.636 97.1697 407.636 98.0068C407.636 98.8439 408.324 99.5204 409.149 99.5204H411.936C412.773 99.5204 413.449 98.8553 413.449 98.0068C413.449 97.1582 412.773 96.4817 411.936 96.4817H409.149Z" fill="#AEC3FF"/>
<path d="M56.9338 81.6207C56.0968 81.6207 55.4203 82.3087 55.4203 83.1458C55.4203 83.9829 56.0968 84.6594 56.9338 84.6594H72.1029C72.9399 84.6594 73.6279 83.9944 73.6279 83.1458C73.6279 82.2973 72.9514 81.6207 72.1029 81.6207H56.9338Z" fill="#AEC3FF"/>
<path d="M78.604 81.6207C77.767 81.6207 77.0905 82.3087 77.0905 83.1458C77.0905 83.9829 77.7785 84.6594 78.604 84.6594H81.3902C82.2272 84.6594 82.9036 83.9944 82.9036 83.1458C82.9036 82.2973 82.2272 81.6207 81.3902 81.6207H78.604Z" fill="#AEC3FF"/>
<path d="M453.384 205.737C452.582 205.737 451.94 206.425 451.94 207.263C451.94 208.1 452.582 208.776 453.384 208.776H467.854C468.657 208.776 469.31 208.111 469.31 207.263C469.31 206.414 468.657 205.737 467.854 205.737H453.384Z" fill="#AEC3FF"/>
<path d="M479.4 205.737C478.609 205.737 477.955 206.425 477.955 207.263C477.955 208.1 478.609 208.776 479.4 208.776H482.06C482.863 208.776 483.505 208.111 483.505 207.263C483.505 206.414 482.863 205.737 482.06 205.737H479.4Z" fill="#AEC3FF"/>
<path d="M424.536 257.51V352.364C424.536 354.852 422.518 356.87 420.03 356.87H259.499C257.011 356.87 254.993 354.852 254.993 352.364V257.51C254.993 255.022 257.011 253.004 259.499 253.004H420.03C422.518 253.004 424.536 255.022 424.536 257.51Z" fill="white"/>
<path d="M325.828 311.244C325.828 318.949 322.916 325.967 318.135 331.265C312.665 337.319 304.754 341.126 295.948 341.126C279.449 341.126 266.069 327.756 266.069 311.244C266.069 307.15 266.894 303.251 268.385 299.696L295.948 311.244L294.538 281.407C294.997 281.384 295.478 281.373 295.948 281.373C312.448 281.373 325.828 294.754 325.828 311.255V311.244Z" fill="#F78248"/>
<path d="M291.557 276.476C282.625 276.889 274.737 281.224 269.531 287.794C267.857 289.904 266.47 292.255 265.404 294.777L292.967 306.324L291.546 276.488L291.557 276.476Z" fill="#2B478B"/>
<path d="M397.753 290.672H393.648V294.777H397.753V290.672Z" fill="#EA642F"/>
<path d="M415.215 292.209H400.516C400.491 292.209 400.47 292.229 400.47 292.255V293.195C400.47 293.22 400.491 293.241 400.516 293.241H415.215C415.24 293.241 415.261 293.22 415.261 293.195V292.255C415.261 292.229 415.24 292.209 415.215 292.209Z" fill="#2B478B"/>
<path d="M397.752 283.356H393.648V287.461H397.752V283.356Z" fill="#2B478B"/>
<path d="M415.215 284.893H400.516C400.491 284.893 400.47 284.913 400.47 284.939V285.879C400.47 285.904 400.491 285.925 400.516 285.925H415.215C415.24 285.925 415.261 285.904 415.261 285.879V284.939C415.261 284.913 415.24 284.893 415.215 284.893Z" fill="#2B478B"/>
<path d="M397.753 297.988H393.648V302.093H397.753V297.988Z" fill="#F78248"/>
<path d="M415.215 299.524H400.516C400.491 299.524 400.47 299.545 400.47 299.57V300.511C400.47 300.536 400.491 300.556 400.516 300.556H415.215C415.24 300.556 415.261 300.536 415.261 300.511V299.57C415.261 299.545 415.24 299.524 415.215 299.524Z" fill="#2B478B"/>
<path d="M414.745 314.947H394.152C393.866 314.947 393.636 314.718 393.636 314.431C393.636 314.145 393.866 313.915 394.152 313.915H414.745C415.031 313.915 415.261 314.145 415.261 314.431C415.261 314.718 415.031 314.947 414.745 314.947Z" fill="#2B478B"/>
<path d="M414.745 319.167H394.152C393.866 319.167 393.636 318.938 393.636 318.651C393.636 318.364 393.866 318.135 394.152 318.135H414.745C415.031 318.135 415.261 318.364 415.261 318.651C415.261 318.938 415.031 319.167 414.745 319.167Z" fill="#2B478B"/>
<path d="M414.745 323.387H394.152C393.866 323.387 393.636 323.157 393.636 322.871C393.636 322.584 393.866 322.355 394.152 322.355H414.745C415.031 322.355 415.261 322.584 415.261 322.871C415.261 323.157 415.031 323.387 414.745 323.387Z" fill="#2B478B"/>
<path d="M414.745 327.607H394.152C393.866 327.607 393.636 327.377 393.636 327.091C393.636 326.804 393.866 326.575 394.152 326.575H414.745C415.031 326.575 415.261 326.804 415.261 327.091C415.261 327.377 415.031 327.607 414.745 327.607Z" fill="#2B478B"/>
<path d="M414.745 331.826H394.152C393.866 331.826 393.636 331.597 393.636 331.31C393.636 331.024 393.866 330.794 394.152 330.794H414.745C415.031 330.794 415.261 331.024 415.261 331.31C415.261 331.597 415.031 331.826 414.745 331.826Z" fill="#2B478B"/>
<path d="M414.745 336.035H394.152C393.866 336.035 393.636 335.805 393.636 335.519C393.636 335.232 393.866 335.003 394.152 335.003H414.745C415.031 335.003 415.261 335.232 415.261 335.519C415.261 335.805 415.031 336.035 414.745 336.035Z" fill="#2B478B"/>
<path d="M414.745 340.254H394.152C393.866 340.254 393.636 340.025 393.636 339.738C393.636 339.452 393.866 339.222 394.152 339.222H414.745C415.031 339.222 415.261 339.452 415.261 339.738C415.261 340.025 415.031 340.254 414.745 340.254Z" fill="#2B478B"/>
<path d="M424.537 257.51V265.422H254.981V257.51C254.981 255.022 256.999 253.004 259.487 253.004H420.019C422.507 253.004 424.525 255.022 424.525 257.51H424.537Z" fill="#184785"/>
<path d="M406.673 259.219C406.673 260.377 405.733 261.306 404.586 261.306C403.44 261.306 402.499 260.365 402.499 259.219C402.499 258.072 403.44 257.132 404.586 257.132C405.733 257.132 406.673 258.072 406.673 259.219Z" fill="#2B478B"/>
<path d="M413.449 259.219C413.449 260.377 412.509 261.306 411.362 261.306C410.216 261.306 409.276 260.365 409.276 259.219C409.276 258.072 410.216 257.132 411.362 257.132C412.509 257.132 413.449 258.072 413.449 259.219Z" fill="#EA642F"/>
<path d="M419.927 259.219C419.927 260.377 418.987 261.306 417.841 261.306C416.694 261.306 415.754 260.365 415.754 259.219C415.754 258.072 416.694 257.132 417.841 257.132C418.987 257.132 419.927 258.072 419.927 259.219Z" fill="#F78248"/>
<path d="M325.828 311.244C325.828 318.949 322.916 325.967 318.135 331.265L295.948 311.244L294.538 281.407C294.997 281.384 295.478 281.373 295.948 281.373C312.448 281.373 325.828 294.754 325.828 311.255V311.244Z" fill="#EA642F"/>
<path d="M364.433 303.698H354.917V344.463H364.433V303.698Z" fill="#2B478B"/>
<path d="M354.917 333.707C358.288 332.664 361.452 330.795 364.433 328.788V344.452H354.917V333.696V333.707Z" fill="#F78248"/>
<path d="M348.886 315.028H339.369V344.463H348.886V315.028Z" fill="#2B478B"/>
<path d="M347.12 334.407C347.716 334.487 348.301 334.544 348.886 334.567V344.463H339.369V334.659C341.055 334.109 343.52 333.879 347.12 334.407Z" fill="#F78248"/>
<path d="M379.98 291.521H370.464V344.463H379.98V291.521Z" fill="#2B478B"/>
<path d="M379.969 320.532V344.463H370.453V324.602C373.835 322.309 376.988 320.532 379.969 320.543V320.532Z" fill="#F78248"/>
<path d="M379.591 276.086L371.003 277.933L373.308 280.192L360.168 293.596L355.559 289.067L339.254 305.694C338.635 306.324 338.647 307.345 339.277 307.964C339.908 308.583 340.928 308.572 341.548 307.941L355.605 293.608L360.214 298.137L375.612 282.439L377.917 284.698L379.591 276.086Z" fill="#EA642F"/>
<path d="M194.672 405.787H63.7903V394.091C63.7903 392.784 64.8451 391.718 66.1637 391.718H192.31C193.617 391.718 194.683 392.772 194.683 394.091V405.787H194.672Z" fill="#2B478B"/>
<path d="M192.516 221.332H169.092C167.901 221.332 166.936 222.297 166.936 223.488V253.141C166.936 254.332 167.901 255.297 169.092 255.297H192.516C193.706 255.297 194.672 254.332 194.672 253.141V223.488C194.672 222.297 193.706 221.332 192.516 221.332Z" fill="#2B478B"/>
<path d="M176.59 221.332H65.8082C64.6938 221.332 63.7903 222.236 63.7903 223.35V253.279C63.7903 254.393 64.6938 255.297 65.8082 255.297H176.59C177.705 255.297 178.608 254.393 178.608 253.279V223.35C178.608 222.236 177.705 221.332 176.59 221.332Z" fill="#366BB1"/>
<path d="M169.355 228.465H72.3437C71.6915 228.465 71.1628 228.993 71.1628 229.646V248.44C71.1628 249.092 71.6915 249.621 72.3437 249.621H169.355C170.007 249.621 170.536 249.092 170.536 248.44V229.646C170.536 228.993 170.007 228.465 169.355 228.465Z" fill="white"/>
<path d="M74.8777 239.255C74.8777 238.074 75.8178 237.122 76.9759 237.122C78.1339 237.122 79.0741 238.074 79.0741 239.255C79.0741 240.436 78.1339 241.388 76.9759 241.388C75.8178 241.388 74.8777 240.436 74.8777 239.255Z" fill="#2B478B"/>
<path d="M81.9176 239.255C81.9176 238.074 82.8578 237.122 84.0158 237.122C85.1739 237.122 86.1141 238.074 86.1141 239.255C86.1141 240.436 85.1739 241.388 84.0158 241.388C82.8578 241.388 81.9176 240.436 81.9176 239.255Z" fill="#F78248"/>
<path d="M88.9576 239.255C88.9576 238.074 89.8977 237.122 91.0558 237.122C92.2138 237.122 93.154 238.074 93.154 239.255C93.154 240.436 92.2138 241.388 91.0558 241.388C89.8977 241.388 88.9576 240.436 88.9576 239.255Z" fill="#2B478B"/>
<path d="M95.9975 239.255C95.9975 238.074 96.9377 237.122 98.0957 237.122C99.2538 237.122 100.194 238.074 100.194 239.255C100.194 240.436 99.2538 241.388 98.0957 241.388C96.9377 241.388 95.9975 240.436 95.9975 239.255Z" fill="#2B478B"/>
<path d="M165.491 232.833H155.298C155.083 232.833 154.908 233.008 154.908 233.223V245.286C154.908 245.502 155.083 245.676 155.298 245.676H165.491C165.707 245.676 165.881 245.502 165.881 245.286V233.223C165.881 233.008 165.707 232.833 165.491 232.833Z" fill="#2B478B"/>
<path d="M175.558 255.297H71.9768V264.39H175.558V255.297Z" fill="#2B478B"/>
<path d="M180.099 255.297H175.455V264.39H180.099V255.297Z" fill="#4095F2"/>
<path d="M147.02 232.833H145.163C144.985 232.833 144.842 232.977 144.842 233.155V245.355C144.842 245.533 144.985 245.676 145.163 245.676H147.02C147.197 245.676 147.341 245.533 147.341 245.355V233.155C147.341 232.977 147.197 232.833 147.02 232.833Z" fill="#2B478B"/>
<path d="M138.077 232.833H136.219C136.042 232.833 135.898 232.977 135.898 233.155V245.355C135.898 245.533 136.042 245.676 136.219 245.676H138.077C138.254 245.676 138.398 245.533 138.398 245.355V233.155C138.398 232.977 138.254 232.833 138.077 232.833Z" fill="#2B478B"/>
<path d="M129.133 232.833H127.276C127.099 232.833 126.955 232.977 126.955 233.155V245.355C126.955 245.533 127.099 245.676 127.276 245.676H129.133C129.311 245.676 129.455 245.533 129.455 245.355V233.155C129.455 232.977 129.311 232.833 129.133 232.833Z" fill="#2B478B"/>
<path d="M120.19 232.833H118.333C118.155 232.833 118.012 232.977 118.012 233.155V245.355C118.012 245.533 118.155 245.676 118.333 245.676H120.19C120.368 245.676 120.511 245.533 120.511 245.355V233.155C120.511 232.977 120.368 232.833 120.19 232.833Z" fill="#2B478B"/>
<path d="M111.247 232.833H109.389C109.212 232.833 109.068 232.977 109.068 233.155V245.355C109.068 245.533 109.212 245.676 109.389 245.676H111.247C111.424 245.676 111.568 245.533 111.568 245.355V233.155C111.568 232.977 111.424 232.833 111.247 232.833Z" fill="#2B478B"/>
<path d="M175.444 255.297H71.9768V258.485H175.444V255.297Z" fill="#4095F2"/>
<path d="M192.516 264.161H169.092C167.901 264.161 166.936 265.126 166.936 266.317V295.97C166.936 297.16 167.901 298.126 169.092 298.126H192.516C193.706 298.126 194.672 297.16 194.672 295.97V266.317C194.672 265.126 193.706 264.161 192.516 264.161Z" fill="#2B478B"/>
<path d="M176.59 264.161H65.8082C64.6938 264.161 63.7903 265.064 63.7903 266.179V296.107C63.7903 297.222 64.6938 298.126 65.8082 298.126H176.59C177.705 298.126 178.608 297.222 178.608 296.107V266.179C178.608 265.064 177.705 264.161 176.59 264.161Z" fill="#366BB1"/>
<path d="M169.355 271.293H72.3437C71.6915 271.293 71.1628 271.822 71.1628 272.474V291.268C71.1628 291.921 71.6915 292.449 72.3437 292.449H169.355C170.007 292.449 170.536 291.921 170.536 291.268V272.474C170.536 271.822 170.007 271.293 169.355 271.293Z" fill="white"/>
<path d="M175.558 298.125H71.9768V307.219H175.558V298.125Z" fill="#2B478B"/>
<path d="M180.099 298.125H175.455V307.219H180.099V298.125Z" fill="#4095F2"/>
<path d="M166.007 282.084C166.007 280.902 165.067 279.951 163.909 279.951C162.751 279.951 161.811 280.902 161.811 282.084C161.811 283.265 162.751 284.216 163.909 284.216C165.067 284.216 166.007 283.265 166.007 282.084Z" fill="#2B478B"/>
<path d="M158.967 282.084C158.967 280.902 158.027 279.951 156.869 279.951C155.711 279.951 154.771 280.902 154.771 282.084C154.771 283.265 155.711 284.216 156.869 284.216C158.027 284.216 158.967 283.265 158.967 282.084Z" fill="#F78248"/>
<path d="M151.927 282.084C151.927 280.902 150.987 279.951 149.829 279.951C148.671 279.951 147.731 280.902 147.731 282.084C147.731 283.265 148.671 284.216 149.829 284.216C150.987 284.216 151.927 283.265 151.927 282.084Z" fill="#2B478B"/>
<path d="M144.887 282.084C144.887 280.902 143.947 279.951 142.789 279.951C141.631 279.951 140.691 280.902 140.691 282.084C140.691 283.265 141.631 284.216 142.789 284.216C143.947 284.216 144.887 283.265 144.887 282.084Z" fill="#2B478B"/>
<path d="M85.5866 275.662H75.3936C75.1783 275.662 75.0038 275.837 75.0038 276.052V288.115C75.0038 288.33 75.1783 288.505 75.3936 288.505H85.5866C85.8019 288.505 85.9765 288.33 85.9765 288.115V276.052C85.9765 275.837 85.8019 275.662 85.5866 275.662Z" fill="#2B478B"/>
<path d="M95.7223 275.662H93.8649C93.6876 275.662 93.5438 275.806 93.5438 275.983V288.184C93.5438 288.361 93.6876 288.505 93.8649 288.505H95.7223C95.8996 288.505 96.0434 288.361 96.0434 288.184V275.983C96.0434 275.806 95.8996 275.662 95.7223 275.662Z" fill="#2B478B"/>
<path d="M104.666 275.662H102.808C102.631 275.662 102.487 275.806 102.487 275.983V288.184C102.487 288.361 102.631 288.505 102.808 288.505H104.666C104.843 288.505 104.987 288.361 104.987 288.184V275.983C104.987 275.806 104.843 275.662 104.666 275.662Z" fill="#2B478B"/>
<path d="M113.609 275.662H111.751C111.574 275.662 111.43 275.806 111.43 275.983V288.184C111.43 288.361 111.574 288.505 111.751 288.505H113.609C113.786 288.505 113.93 288.361 113.93 288.184V275.983C113.93 275.806 113.786 275.662 113.609 275.662Z" fill="#2B478B"/>
<path d="M122.552 275.662H120.695C120.517 275.662 120.374 275.806 120.374 275.983V288.184C120.374 288.361 120.517 288.505 120.695 288.505H122.552C122.729 288.505 122.873 288.361 122.873 288.184V275.983C122.873 275.806 122.729 275.662 122.552 275.662Z" fill="#2B478B"/>
<path d="M131.495 275.662H129.638C129.461 275.662 129.317 275.806 129.317 275.983V288.184C129.317 288.361 129.461 288.505 129.638 288.505H131.495C131.673 288.505 131.816 288.361 131.816 288.184V275.983C131.816 275.806 131.673 275.662 131.495 275.662Z" fill="#2B478B"/>
<path d="M175.444 298.125H71.9768V301.313H175.444V298.125Z" fill="#4095F2"/>
<path d="M192.516 306.989H169.092C167.901 306.989 166.936 307.954 166.936 309.145V338.798C166.936 339.989 167.901 340.954 169.092 340.954H192.516C193.706 340.954 194.672 339.989 194.672 338.798V309.145C194.672 307.954 193.706 306.989 192.516 306.989Z" fill="#2B478B"/>
<path d="M176.59 306.989H65.8082C64.6938 306.989 63.7903 307.893 63.7903 309.007V338.936C63.7903 340.05 64.6938 340.954 65.8082 340.954H176.59C177.705 340.954 178.608 340.05 178.608 338.936V309.007C178.608 307.893 177.705 306.989 176.59 306.989Z" fill="#366BB1"/>
<path d="M169.355 314.122H72.3437C71.6915 314.122 71.1628 314.65 71.1628 315.303V334.097C71.1628 334.749 71.6915 335.278 72.3437 335.278H169.355C170.007 335.278 170.536 334.749 170.536 334.097V315.303C170.536 314.65 170.007 314.122 169.355 314.122Z" fill="white"/>
<path d="M74.8777 324.912C74.8777 323.731 75.8178 322.779 76.9759 322.779C78.1339 322.779 79.0741 323.731 79.0741 324.912C79.0741 326.093 78.1339 327.045 76.9759 327.045C75.8178 327.045 74.8777 326.093 74.8777 324.912Z" fill="#2B478B"/>
<path d="M81.9176 324.912C81.9176 323.731 82.8578 322.779 84.0158 322.779C85.1739 322.779 86.1141 323.731 86.1141 324.912C86.1141 326.093 85.1739 327.045 84.0158 327.045C82.8578 327.045 81.9176 326.093 81.9176 324.912Z" fill="#F78248"/>
<path d="M88.9576 324.912C88.9576 323.731 89.8977 322.779 91.0558 322.779C92.2138 322.779 93.154 323.731 93.154 324.912C93.154 326.093 92.2138 327.045 91.0558 327.045C89.8977 327.045 88.9576 326.093 88.9576 324.912Z" fill="#2B478B"/>
<path d="M95.9975 324.912C95.9975 323.731 96.9377 322.779 98.0957 322.779C99.2538 322.779 100.194 323.731 100.194 324.912C100.194 326.093 99.2538 327.045 98.0957 327.045C96.9377 327.045 95.9975 326.093 95.9975 324.912Z" fill="#F78248"/>
<path d="M165.491 318.49H155.298C155.083 318.49 154.908 318.665 154.908 318.88V330.943C154.908 331.159 155.083 331.333 155.298 331.333H165.491C165.707 331.333 165.881 331.159 165.881 330.943V318.88C165.881 318.665 165.707 318.49 165.491 318.49Z" fill="#2B478B"/>
<path d="M175.558 340.954H71.9768V350.047H175.558V340.954Z" fill="#2B478B"/>
<path d="M180.099 340.954H175.455V350.047H180.099V340.954Z" fill="#4095F2"/>
<path d="M147.02 318.49H145.163C144.985 318.49 144.842 318.634 144.842 318.812V331.012C144.842 331.19 144.985 331.333 145.163 331.333H147.02C147.197 331.333 147.341 331.19 147.341 331.012V318.812C147.341 318.634 147.197 318.49 147.02 318.49Z" fill="#2B478B"/>
<path d="M138.077 318.49H136.219C136.042 318.49 135.898 318.634 135.898 318.812V331.012C135.898 331.19 136.042 331.333 136.219 331.333H138.077C138.254 331.333 138.398 331.19 138.398 331.012V318.812C138.398 318.634 138.254 318.49 138.077 318.49Z" fill="#2B478B"/>
<path d="M129.133 318.49H127.276C127.099 318.49 126.955 318.634 126.955 318.812V331.012C126.955 331.19 127.099 331.333 127.276 331.333H129.133C129.311 331.333 129.455 331.19 129.455 331.012V318.812C129.455 318.634 129.311 318.49 129.133 318.49Z" fill="#2B478B"/>
<path d="M120.19 318.49H118.333C118.155 318.49 118.012 318.634 118.012 318.812V331.012C118.012 331.19 118.155 331.333 118.333 331.333H120.19C120.368 331.333 120.511 331.19 120.511 331.012V318.812C120.511 318.634 120.368 318.49 120.19 318.49Z" fill="#2B478B"/>
<path d="M111.247 318.49H109.389C109.212 318.49 109.068 318.634 109.068 318.812V331.012C109.068 331.19 109.212 331.333 109.389 331.333H111.247C111.424 331.333 111.568 331.19 111.568 331.012V318.812C111.568 318.634 111.424 318.49 111.247 318.49Z" fill="#2B478B"/>
<path d="M175.444 340.954H71.9768V344.142H175.444V340.954Z" fill="#4095F2"/>
<path d="M192.516 349.818H169.092C167.901 349.818 166.936 350.783 166.936 351.974V381.627C166.936 382.817 167.901 383.783 169.092 383.783H192.516C193.706 383.783 194.672 382.817 194.672 381.627V351.974C194.672 350.783 193.706 349.818 192.516 349.818Z" fill="#2B478B"/>
<path d="M176.59 349.818H65.8082C64.6938 349.818 63.7903 350.721 63.7903 351.836V381.764C63.7903 382.879 64.6938 383.783 65.8082 383.783H176.59C177.705 383.783 178.608 382.879 178.608 381.764V351.836C178.608 350.721 177.705 349.818 176.59 349.818Z" fill="#366BB1"/>
<path d="M169.355 356.95H72.3437C71.6915 356.95 71.1628 357.479 71.1628 358.131V376.925C71.1628 377.578 71.6915 378.106 72.3437 378.106H169.355C170.007 378.106 170.536 377.578 170.536 376.925V358.131C170.536 357.479 170.007 356.95 169.355 356.95Z" fill="white"/>
<path d="M175.558 383.782H71.9768V392.876H175.558V383.782Z" fill="#2B478B"/>
<path d="M180.099 383.782H175.455V392.876H180.099V383.782Z" fill="#4095F2"/>
<path d="M77.446 369.873C78.6048 369.873 79.5442 368.918 79.5442 367.741C79.5442 366.563 78.6048 365.608 77.446 365.608C76.2872 365.608 75.3477 366.563 75.3477 367.741C75.3477 368.918 76.2872 369.873 77.446 369.873Z" fill="#2B478B"/>
<path d="M82.3877 367.741C82.3877 366.559 83.3279 365.608 84.4859 365.608C85.644 365.608 86.5842 366.559 86.5842 367.741C86.5842 368.922 85.644 369.873 84.4859 369.873C83.3279 369.873 82.3877 368.922 82.3877 367.741Z" fill="#F78248"/>
<path d="M91.5259 369.873C92.6847 369.873 93.6241 368.918 93.6241 367.741C93.6241 366.563 92.6847 365.608 91.5259 365.608C90.3671 365.608 89.4277 366.563 89.4277 367.741C89.4277 368.918 90.3671 369.873 91.5259 369.873Z" fill="#2B478B"/>
<path d="M96.4676 367.741C96.4676 366.559 97.4078 365.608 98.5659 365.608C99.7239 365.608 100.664 366.559 100.664 367.741C100.664 368.922 99.7239 369.873 98.5659 369.873C97.4078 369.873 96.4676 368.922 96.4676 367.741Z" fill="#2B478B"/>
<path d="M165.961 361.319H155.768C155.553 361.319 155.379 361.494 155.379 361.709V373.772C155.379 373.987 155.553 374.162 155.768 374.162H165.961C166.177 374.162 166.351 373.987 166.351 373.772V361.709C166.351 361.494 166.177 361.319 165.961 361.319Z" fill="#2B478B"/>
<path d="M147.502 361.319H145.644C145.467 361.319 145.323 361.463 145.323 361.64V373.841C145.323 374.018 145.467 374.162 145.644 374.162H147.502C147.679 374.162 147.823 374.018 147.823 373.841V361.64C147.823 361.463 147.679 361.319 147.502 361.319Z" fill="#2B478B"/>
<path d="M138.558 361.319H136.701C136.524 361.319 136.38 361.463 136.38 361.64V373.841C136.38 374.018 136.524 374.162 136.701 374.162H138.558C138.736 374.162 138.879 374.018 138.879 373.841V361.64C138.879 361.463 138.736 361.319 138.558 361.319Z" fill="#2B478B"/>
<path d="M129.615 361.319H127.758C127.58 361.319 127.437 361.463 127.437 361.64V373.841C127.437 374.018 127.58 374.162 127.758 374.162H129.615C129.792 374.162 129.936 374.018 129.936 373.841V361.64C129.936 361.463 129.792 361.319 129.615 361.319Z" fill="#2B478B"/>
<path d="M120.672 361.319H118.814C118.637 361.319 118.493 361.463 118.493 361.64V373.841C118.493 374.018 118.637 374.162 118.814 374.162H120.672C120.849 374.162 120.993 374.018 120.993 373.841V361.64C120.993 361.463 120.849 361.319 120.672 361.319Z" fill="#2B478B"/>
<path d="M111.729 361.319H109.871C109.694 361.319 109.55 361.463 109.55 361.64V373.841C109.55 374.018 109.694 374.162 109.871 374.162H111.729C111.906 374.162 112.05 374.018 112.05 373.841V361.64C112.05 361.463 111.906 361.319 111.729 361.319Z" fill="#2B478B"/>
<path d="M175.444 383.782H71.9768V386.97H175.444V383.782Z" fill="#4095F2"/>
<path d="M178.62 405.787H63.7903V394.091C63.7903 392.784 64.8451 391.718 66.1637 391.718H176.246C177.553 391.718 178.62 392.772 178.62 394.091V405.787Z" fill="#366BB1"/>
<path d="M517.697 405.066H-46.1044C-46.599 405.066 -47 405.467 -47 405.961V407.102C-47 407.597 -46.599 407.998 -46.1044 407.998H517.697C518.192 407.998 518.593 407.597 518.593 407.102V405.961C518.593 405.467 518.192 405.066 517.697 405.066Z" fill="#2E3552"/>
<path d="M330.449 96.6766H344.322C344.322 96.6766 360.558 111.561 361.957 122.076C363.355 132.591 357.164 174.834 338.028 172.644C318.891 170.454 312 111.182 330.449 96.6766Z" fill="white"/>
<path d="M355.134 124.369C355.134 124.369 347.911 130.091 341.605 132.854C335.299 135.618 331.137 134.127 333.671 143.656C340.584 169.64 356.396 161.992 356.396 161.992C356.396 161.992 367.196 122.924 355.146 124.38L355.134 124.369Z" fill="#F9EFE8"/>
<path d="M330.449 96.6766C330.449 96.6766 331.274 137.498 327.64 168.574L350.812 168.757C350.812 168.757 341.055 130.905 344.322 96.6766C344.322 96.6766 357.152 97.7316 365.327 109.038C373.938 120.94 381.712 132.143 387.124 144.688L373.48 160.925C370.407 155.616 365.786 146.374 365.786 146.374L369.272 165.982C369.272 165.982 336.549 179.123 309.008 164.881L313.181 146.741C313.181 146.741 307.242 158.678 305.74 159.95L291.213 146.076C304.743 111.985 315.704 98.5457 330.46 96.6881L330.449 96.6766Z" fill="#4095F2"/>
<path d="M313.17 146.729L317.768 125.55C317.768 125.55 308.48 140.732 297.485 151.488C297.485 151.488 302.3 156.487 305.729 159.939C305.729 159.939 310.521 153.265 313.17 146.729Z" fill="#2B478B"/>
<path d="M365.431 146.144L360.833 124.965C360.833 124.965 371.336 141.707 382.343 152.463C382.343 152.463 376.896 157.462 373.468 160.914C373.468 160.914 368.079 152.692 365.431 146.144Z" fill="#2B478B"/>
<path d="M387.124 197.539L373.319 195.532L374.076 184.856L393.029 188.755C393.029 188.755 395.907 196.266 387.124 197.539Z" fill="#F7BBA6"/>
<path d="M388.511 186.817C388.511 186.817 407.223 184.168 412.486 185.9C417.76 187.62 416.247 191.886 411.982 194.523C407.716 197.16 390.139 197.791 387.124 197.539C387.124 197.539 390.621 195.784 388.374 194.018C386.126 192.252 384.234 186.978 388.5 186.817H388.511Z" fill="#F78248"/>
<path d="M382.698 197.539C382.698 197.539 307.437 196.037 287.636 188.939C267.834 181.841 273.957 161.281 286.73 158.185C299.503 155.089 384.269 179.742 384.269 179.742L382.698 197.539Z" fill="#D9501A"/>
<path d="M294.183 196.197L307.987 194.19L307.231 183.515L288.278 187.413C288.278 187.413 285.4 194.924 294.183 196.197Z" fill="#F7BBA6"/>
<path d="M292.807 185.476C292.807 185.476 274.095 182.827 268.832 184.558C263.558 186.278 265.071 190.544 269.336 193.181C273.602 195.819 291.179 196.449 294.194 196.197C294.194 196.197 290.697 194.443 292.944 192.677C295.18 190.922 297.083 185.636 292.818 185.476H292.807Z" fill="#F78248"/>
<path d="M299.594 197.539C299.594 197.539 374.856 196.392 394.691 189.386C414.527 182.38 408.496 161.785 395.735 158.632C382.973 155.478 298.092 179.731 298.092 179.731L299.583 197.539H299.594Z" fill="#EA642F"/>
<path d="M338.154 158.345L338.463 165.088C338.463 165.088 307.873 169.078 296.166 159.928C285.239 151.385 292.681 135.262 302.965 137.9C307.277 139.001 338.154 158.345 338.154 158.345Z" fill="#4095F2"/>
<path d="M338.154 158.345C338.154 158.345 345.251 158.701 347.888 159.412C350.525 160.122 355.742 163.23 354.481 166.143C354.045 167.14 352.291 166.98 350.239 166.418C346.868 165.489 344.059 164.422 338.463 165.099L338.154 158.357V158.345Z" fill="#F8C2AB"/>
<path d="M340.745 158.345L340.435 165.088C340.435 165.088 371.026 169.078 382.732 159.928C393.659 151.385 386.218 135.262 375.933 137.9C371.622 139.001 340.745 158.345 340.745 158.345Z" fill="#4095F2"/>
<path d="M340.745 158.345C340.745 158.345 333.648 158.701 331.011 159.412C328.373 160.111 323.157 163.23 324.418 166.143C324.853 167.14 326.608 166.98 328.66 166.418C332.031 165.489 334.84 164.422 340.435 165.099L340.745 158.357V158.345Z" fill="#F8C2AB"/>
<path d="M363.676 137.625H312.379C311.144 137.625 310.143 138.626 310.143 139.861V172.793C310.143 174.028 311.144 175.029 312.379 175.029H363.676C364.911 175.029 365.912 174.028 365.912 172.793V139.861C365.912 138.626 364.911 137.625 363.676 137.625Z" fill="#124072"/>
<path d="M338.028 159.962C340.035 159.962 341.662 158.335 341.662 156.327C341.662 154.319 340.035 152.692 338.028 152.692C336.02 152.692 334.393 154.319 334.393 156.327C334.393 158.335 336.02 159.962 338.028 159.962Z" fill="#F9EFE8"/>
<path d="M341.972 86.54C342.74 86.4712 344.46 81.8501 344.46 81.8501L342.774 82.9394C342.774 82.9394 342.167 84.6365 341.926 85.7373C341.685 86.8382 341.628 86.5744 341.972 86.54Z" fill="#2B478B"/>
<path d="M342.74 81.5176C341.387 94.7617 343.302 100.289 343.302 100.289C343.302 100.289 340.619 103.534 337.454 103.534C334.29 103.534 331.951 100.977 331.951 100.977V88.7417L342.74 81.529V81.5176Z" fill="#F7BBA6"/>
<path d="M334.359 92.4224C339.369 92.5027 342.694 87.6981 342.774 82.9394L342.901 75.3942C342.981 70.6355 339.358 66.7253 334.794 66.645C330.242 66.5648 326.482 70.3603 326.401 75.119L326.47 82.6412C326.39 87.4 329.337 92.3422 334.359 92.4224Z" fill="#F7BBA6"/>
<g style="mix-blend-mode:multiply">
<path d="M340.275 88.5237C340.206 88.6269 338.819 93.8672 331.951 93.0187V91.9752C332.031 91.9981 333.223 92.3307 335.39 91.6885C337.764 90.9776 339.048 90.0717 340.275 88.5352V88.5237Z" fill="#DEAC93"/>
</g>
<path d="M345.366 81.208C344.712 82.5611 343.359 83.2491 342.339 82.756C340.447 81.8386 341.204 80.3594 341.857 79.0063C342.511 77.6533 343.428 77.2175 344.701 77.8597C345.71 78.3757 346.019 79.8434 345.366 81.1965V81.208Z" fill="#F7BBA6"/>
<g style="mix-blend-mode:multiply">
<path d="M344.907 79.8204C344.896 79.4535 344.781 78.9948 344.448 78.7769C344.162 78.5935 343.692 78.6967 343.6 79.0636C343.589 79.1324 343.692 79.1783 343.726 79.1095C343.783 78.9375 343.967 78.8687 344.139 78.9031C344.322 78.9375 344.448 79.1095 344.529 79.27C344.689 79.614 344.678 80.0383 344.575 80.3938C344.471 80.7607 344.254 81.1162 343.955 81.3455C343.818 81.4487 343.646 81.529 343.462 81.5519C343.313 81.5634 343.107 81.5404 342.992 81.4372C342.946 81.4028 342.843 81.4372 342.878 81.5175C342.946 81.6666 343.05 81.7927 343.222 81.8271C343.394 81.873 343.588 81.8271 343.76 81.7812C344.139 81.6436 344.437 81.334 344.632 81.0015C344.838 80.6575 344.941 80.2447 344.93 79.8434L344.907 79.8204Z" fill="#DEAC93"/>
</g>
<path d="M329.921 69.8214C329.921 69.8214 334.599 71.9657 339.209 71.8166C342.316 71.7249 340.883 75.3369 340.986 76.1855C341.089 77.034 341.823 78.777 341.823 78.777L341.857 78.9719C341.926 79.3388 342.453 79.3274 342.511 78.9719L342.671 78.0316L342.729 77.9169C342.958 77.7335 343.256 77.6073 343.554 77.6073C344.047 77.6073 345.079 77.7449 345.538 78.9146C345.538 78.9146 346.65 75.0388 346.604 72.1606C346.547 68.7894 343.852 64.1797 337.397 63.8013C328.373 63.2738 329.91 69.8329 329.91 69.8329L329.921 69.8214Z" fill="#2B478B"/>
<path d="M332.845 65.4869C332.845 65.4869 330.701 65.3608 327.777 66.9662C323.81 69.1449 326.493 78.2495 326.493 78.2495C326.493 78.2495 327.066 71.5299 328.213 70.5323C329.36 69.5347 331.504 70.1081 331.504 70.1081L332.857 65.4869H332.845Z" fill="#2B478B"/>
<path d="M330.506 66.4158C330.632 66.668 330.793 66.9088 330.965 67.1382C331.137 67.3675 331.32 67.5854 331.527 67.7918C331.721 67.9982 331.939 68.1931 332.157 68.3881C332.375 68.5715 332.604 68.755 332.845 68.9155C333.315 69.2481 333.831 69.5233 334.347 69.7641C334.875 70.0049 335.425 70.1883 335.987 70.3374C336.549 70.4865 337.11 70.5897 337.684 70.6585C337.97 70.6929 338.257 70.7158 338.544 70.7273C338.693 70.7273 338.83 70.7502 338.979 70.7502H339.415C340.562 70.7502 341.708 70.5897 342.832 70.3374C341.697 70.4979 340.562 70.5782 339.415 70.5553C338.28 70.5323 337.145 70.4062 336.044 70.1081C334.943 69.8214 333.9 69.3742 332.948 68.755C332.478 68.4454 332.02 68.1014 331.607 67.7C331.194 67.3102 330.816 66.8859 330.506 66.4043V66.4158Z" fill="#573B2D"/>
<path d="M222.102 74.7922H218L223.328 59H228.41L233.738 74.7922H229.636L225.927 62.9789H225.804L222.102 74.7922ZM221.555 68.5771H230.129V71.4765H221.555V68.5771Z" fill="white"/>
<path d="M235.439 74.7922V59H241.962C243.144 59 244.165 59.2313 245.023 59.694C245.887 60.1515 246.553 60.7915 247.02 61.614C247.488 62.4314 247.722 63.3824 247.722 64.4671C247.722 65.557 247.483 66.5106 247.005 67.3279C246.532 68.1402 245.856 68.7699 244.977 69.2171C244.098 69.6644 243.054 69.888 241.846 69.888H237.821V66.8807H241.137C241.713 66.8807 242.193 66.7804 242.579 66.58C242.97 66.3795 243.265 66.0993 243.466 65.7394C243.666 65.3745 243.766 64.9504 243.766 64.4671C243.766 63.9788 243.666 63.5572 243.466 63.2025C243.265 62.8427 242.97 62.5651 242.579 62.3697C242.188 62.1744 241.708 62.0767 241.137 62.0767H239.255V74.7922H235.439Z" fill="white"/>
<path d="M253.421 59V74.7922H249.604V59H253.421Z" fill="white"/>
</g>
<defs>
<clipPath id="clip0_3993_4205">
<rect width="499" height="413" fill="white"/>
</clipPath>
</defs>
</svg>
