<svg width="570" height="410" viewBox="0 0 570 410" fill="none" xmlns="http://www.w3.org/2000/svg">
<path d="M10.3778 409.998L196.359 409.032L245.934 409.017L262.358 409.011L312.027 408.997L538.946 408.935C538.946 408.935 590.848 342.303 535.407 279.019C477.925 213.405 449.975 266.841 432.305 174.481C387.828 -58.0054 -51.9006 77.3075 63.4363 275.142C104.966 346.376 -18.3108 308.515 10.3778 410V409.998Z" fill="#EBF3FA"/>
<path d="M188.312 354.433L187.159 353.801C185.929 353.126 185.477 351.576 186.151 350.347L191.444 340.673C192.118 339.441 193.666 338.988 194.894 339.663L196.543 340.566C196.784 340.699 196.873 341.001 196.741 341.244C196.609 341.484 196.308 341.574 196.065 341.442L194.415 340.538C193.666 340.128 192.726 340.404 192.316 341.154L187.023 350.829C186.613 351.576 186.888 352.52 187.638 352.931L188.79 353.563C189.539 353.973 190.48 353.697 190.89 352.947L194.404 346.526C194.536 346.285 194.837 346.195 195.08 346.327C195.32 346.46 195.41 346.762 195.278 347.005L191.764 353.426C191.09 354.657 189.542 355.11 188.314 354.436L188.312 354.433Z" fill="#AFCDFB"/>
<path d="M183.403 364.592L181.338 363.459C179.422 362.41 178.777 359.881 179.901 357.826L187.857 343.282C187.989 343.041 188.29 342.952 188.533 343.084C188.774 343.216 188.863 343.518 188.731 343.761L180.775 358.307C179.915 359.881 180.382 361.803 181.817 362.589L183.881 363.721C185.316 364.509 187.185 363.867 188.048 362.294L197.111 345.726C197.971 344.152 197.505 342.23 196.07 341.444C195.829 341.312 195.74 341.01 195.872 340.767C196.004 340.526 196.305 340.437 196.548 340.569C198.464 341.619 199.11 344.148 197.986 346.202L188.924 362.77C187.8 364.828 185.326 365.644 183.407 364.594L183.403 364.592Z" fill="#AFCDFB"/>
<path opacity="0.6" d="M382.314 65.088H128.858C122.628 65.088 117.577 70.1441 117.577 76.3811V289.334C117.577 295.571 122.628 300.627 128.858 300.627H382.314C388.545 300.627 393.596 295.571 393.596 289.334V76.3811C393.596 70.1441 388.545 65.088 382.314 65.088Z" fill="white"/>
<path d="M126 65.088H385.173C389.823 65.088 393.596 68.865 393.596 73.5195V91.2246H117.577V73.5195C117.577 68.865 121.35 65.088 126 65.088Z" fill="#699DEE"/>
<path d="M128.74 77.997C128.74 76.2702 130.138 74.8712 131.863 74.8712C133.588 74.8712 134.986 76.2702 134.986 77.997C134.986 79.7239 133.588 81.1229 131.863 81.1229C130.138 81.1229 128.74 79.7239 128.74 77.997Z" fill="#DDE7FE"/>
<path d="M141.841 77.997C141.841 76.2702 143.239 74.8712 144.964 74.8712C146.689 74.8712 148.086 76.2702 148.086 77.997C148.086 79.7239 146.689 81.1229 144.964 81.1229C143.239 81.1229 141.841 79.7239 141.841 77.997Z" fill="#DDE7FE"/>
<path d="M154.942 77.997C154.942 76.2702 156.339 74.8712 158.064 74.8712C159.789 74.8712 161.187 76.2702 161.187 77.997C161.187 79.7239 159.789 81.1229 158.064 81.1229C156.339 81.1229 154.942 79.7239 154.942 77.997Z" fill="#DDE7FE"/>
<path opacity="0.5" d="M217.694 111.961H139.451V190.286H217.694V111.961Z" fill="#CDE0FB"/>
<path opacity="0.5" d="M301.204 117.8H238.967C237.334 117.8 236.01 116.474 236.01 114.839C236.01 113.204 237.334 111.879 238.967 111.879H301.204C302.837 111.879 304.161 113.204 304.161 114.839C304.161 116.474 302.837 117.8 301.204 117.8Z" fill="#7C9AF2"/>
<path opacity="0.5" d="M375.626 113.83H313.39C311.757 113.83 310.432 112.504 310.432 110.869C310.432 109.234 311.757 107.908 313.39 107.908H375.626C377.259 107.908 378.584 109.234 378.584 110.869C378.584 112.504 377.259 113.83 375.626 113.83Z" fill="#7C9AF2"/>
<g opacity="0.3">
<path d="M313.524 140.587H237.928C236.87 140.587 236.012 139.728 236.012 138.669C236.012 137.61 236.87 136.751 237.928 136.751H313.524C314.582 136.751 315.44 137.61 315.44 138.669C315.44 139.728 314.582 140.587 313.524 140.587Z" fill="#BDD1F9"/>
<path d="M342.261 140.587H322.305C321.247 140.587 320.389 139.728 320.389 138.669C320.389 137.61 321.247 136.751 322.305 136.751H342.261C343.319 136.751 344.177 137.61 344.177 138.669C344.177 139.728 343.319 140.587 342.261 140.587Z" fill="#BDD1F9"/>
<path d="M266.45 152.486H237.928C236.87 152.486 236.012 151.627 236.012 150.568C236.012 149.509 236.87 148.65 237.928 148.65H266.45C267.509 148.65 268.366 149.509 268.366 150.568C268.366 151.627 267.509 152.486 266.45 152.486Z" fill="#BDD1F9"/>
<path d="M312.65 152.486H273.565C272.507 152.486 271.649 151.627 271.649 150.568C271.649 149.509 272.507 148.65 273.565 148.65H312.65C313.708 148.65 314.566 149.509 314.566 150.568C314.566 151.627 313.708 152.486 312.65 152.486Z" fill="#BDD1F9"/>
<path d="M342.261 152.486H322.305C321.247 152.486 320.389 151.627 320.389 150.568C320.389 149.509 321.247 148.65 322.305 148.65H342.261C343.319 148.65 344.177 149.509 344.177 150.568C344.177 151.627 343.319 152.486 342.261 152.486Z" fill="#BDD1F9"/>
<path d="M276.631 162.774H237.928C236.87 162.774 236.012 161.916 236.012 160.856C236.012 159.797 236.87 158.938 237.928 158.938H276.631C277.689 158.938 278.547 159.797 278.547 160.856C278.547 161.916 277.689 162.774 276.631 162.774Z" fill="#BDD1F9"/>
<path d="M350.538 162.774H287.238C286.18 162.774 285.322 161.916 285.322 160.856C285.322 159.797 286.18 158.938 287.238 158.938H350.538C351.596 158.938 352.453 159.797 352.453 160.856C352.453 161.916 351.596 162.774 350.538 162.774Z" fill="#BDD1F9"/>
</g>
<g opacity="0.3">
<path d="M313.524 178.387H237.928C236.87 178.387 236.012 177.528 236.012 176.469C236.012 175.41 236.87 174.551 237.928 174.551H313.524C314.582 174.551 315.44 175.41 315.44 176.469C315.44 177.528 314.582 178.387 313.524 178.387Z" fill="#BDD1F9"/>
<path d="M342.261 178.387H322.305C321.247 178.387 320.389 177.528 320.389 176.469C320.389 175.41 321.247 174.551 322.305 174.551H342.261C343.319 174.551 344.177 175.41 344.177 176.469C344.177 177.528 343.319 178.387 342.261 178.387Z" fill="#BDD1F9"/>
<path d="M266.45 190.286H237.928C236.87 190.286 236.012 189.428 236.012 188.368C236.012 187.309 236.87 186.45 237.928 186.45H266.45C267.509 186.45 268.366 187.309 268.366 188.368C268.366 189.428 267.509 190.286 266.45 190.286Z" fill="#BDD1F9"/>
<path d="M312.65 190.286H273.565C272.507 190.286 271.649 189.428 271.649 188.368C271.649 187.309 272.507 186.45 273.565 186.45H312.65C313.708 186.45 314.566 187.309 314.566 188.368C314.566 189.428 313.708 190.286 312.65 190.286Z" fill="#BDD1F9"/>
</g>
<path d="M174.532 123.636H182.613L204.445 173.659H195.231L190.199 161.668H166.739L161.634 173.659H152.703L174.535 123.636H174.532ZM187.008 153.935L178.432 134.068L169.927 153.935H187.011H187.008Z" fill="#BDD1F9"/>
<path d="M183.158 206.064H139.451V214.51H183.158V206.064Z" fill="#F99746"/>
<path d="M183.158 214.51H139.451V222.955H183.158V214.51Z" fill="#ED7D2B"/>
<path d="M183.158 222.958H139.451V231.403H183.158V222.958Z" fill="#474FEA"/>
<path d="M215.363 210.846H191.316C190.31 210.846 189.495 210.03 189.495 209.022C189.495 208.015 190.31 207.199 191.316 207.199H215.363C216.37 207.199 217.185 208.015 217.185 209.022C217.185 210.03 216.37 210.846 215.363 210.846Z" fill="#BDD1F9"/>
<path d="M207.261 217.275H191.314C190.308 217.275 189.492 216.458 189.492 215.451C189.492 214.444 190.308 213.627 191.314 213.627H207.261C208.268 213.627 209.083 214.444 209.083 215.451C209.083 216.458 208.268 217.275 207.261 217.275Z" fill="#BDD1F9"/>
<path d="M183.158 249.736H139.451V266.995H183.158V249.736Z" fill="#F99746"/>
<path d="M183.158 262.732H139.451V275.075H183.158V262.732Z" fill="#B5453C"/>
<path d="M139.451 249.736L155.132 262.921L139.451 275.077V249.736Z" fill="#474FEA"/>
<path d="M215.363 254.518H191.316C190.31 254.518 189.495 253.702 189.495 252.694C189.495 251.687 190.31 250.871 191.316 250.871H215.363C216.37 250.871 217.185 251.687 217.185 252.694C217.185 253.702 216.37 254.518 215.363 254.518Z" fill="#BDD1F9"/>
<path d="M207.261 260.949H191.314C190.308 260.949 189.492 260.132 189.492 259.125C189.492 258.118 190.308 257.302 191.314 257.302H207.261C208.268 257.302 209.083 258.118 209.083 259.125C209.083 260.132 208.268 260.949 207.261 260.949Z" fill="#BDD1F9"/>
<path d="M287.512 315.218H424.294C435.341 315.218 444.311 324.197 444.311 335.256V346.575C444.311 357.885 435.136 367.069 423.839 367.069H287.512V315.218Z" fill="#FCECDB"/>
<path d="M561.259 336.551V344.353C561.259 348.521 560.213 352.423 558.384 355.78C554.71 362.532 547.878 367.069 540.056 367.069H283.315C281.616 367.069 280.24 365.594 280.24 363.775V362.608C280.24 360.791 281.616 359.314 283.315 359.314H439.824C440.66 358.222 441.398 357.038 442.02 355.778C443.486 352.82 444.313 349.446 444.313 345.865V335.95C444.313 334.126 444.094 332.357 443.679 330.672C442.979 327.818 441.723 325.204 440.05 322.972H283.315C281.616 322.972 280.24 321.498 280.24 319.676V318.511C280.24 316.69 281.616 315.215 283.315 315.215H541.35C550.442 315.215 558.113 321.748 560.493 330.67C560.993 332.538 561.261 334.511 561.261 336.549L561.259 336.551Z" fill="#699DEE"/>
<path d="M560.491 330.672H443.677C442.977 327.818 441.721 325.204 440.048 322.972H283.313C281.613 322.972 280.237 321.498 280.237 319.676V318.511C280.237 316.69 281.613 315.215 283.313 315.215H541.348C550.44 315.215 558.11 321.748 560.491 330.67V330.672Z" fill="#548EE2"/>
<path d="M287.512 341.142L306.523 342.015L287.512 342.539V341.142Z" fill="#F4D2B8"/>
<path d="M287.512 349.279L332.738 350.149L287.512 350.675V349.279Z" fill="#F4D2B8"/>
<path d="M401.42 407.292H267.594C256.923 407.292 248.26 398.619 248.26 387.937V385.135C248.26 375.104 256.395 366.96 266.416 366.96H401.422V407.292H401.42Z" fill="#F99746"/>
<path d="M547.496 407.292H394.972C384.554 407.292 376.096 398.825 376.096 388.395V385.439C376.096 375.241 384.368 366.96 394.555 366.96H547.499V407.292H547.496Z" fill="#FCECDB"/>
<path d="M366.016 407.292H552.641C554.19 407.292 555.445 406.035 555.445 404.484V404.067C555.445 402.516 554.19 401.259 552.641 401.259H366.016C364.468 401.259 363.212 402.516 363.212 404.067V404.484C363.212 406.035 364.468 407.292 366.016 407.292Z" fill="#F99746"/>
<path d="M366.016 372.992H552.641C554.19 372.992 555.445 371.736 555.445 370.185V369.768C555.445 368.217 554.19 366.96 552.641 366.96H366.016C364.468 366.96 363.212 368.217 363.212 369.768V370.185C363.212 371.736 364.468 372.992 366.016 372.992Z" fill="#F99746"/>
<path d="M547.496 387.124L526.715 387.803L547.496 388.211V387.124Z" fill="#F4D2B8"/>
<path d="M547.496 377.843L498.059 378.52L547.496 378.928V377.843Z" fill="#F4D2B8"/>
<path d="M498.568 378.385C498.568 378.385 500.686 380.119 501.389 382.967C501.513 383.465 501.591 383.998 501.608 384.559C501.725 388.343 501.608 396.909 501.608 396.909L507.862 392.627L514.1 396.909V385.3C514.1 383.106 513.565 380.969 512.571 379.572C512.09 378.895 511.506 378.385 510.843 378.385H498.568Z" fill="#699DEE"/>
<path d="M498.568 378.385C498.568 378.385 500.686 380.119 501.389 382.967L513.923 383.137C513.923 383.137 513.431 379.058 510.846 378.385H498.57H498.568Z" fill="#568CDB"/>
<path d="M253.112 256.07H385.31C396.992 256.07 406.475 265.563 406.475 277.257V293.66C406.475 305.619 396.777 315.326 384.832 315.326H253.115V256.072L253.112 256.07Z" fill="#FCECDB"/>
<path d="M406.55 279.062V291.815C406.517 297.263 403.996 301.988 400.291 304.515C398.467 305.753 396.358 306.463 394.119 306.463H249.08C247.381 306.463 246.002 308.11 246.002 310.143V311.648C246.002 313.68 247.381 315.329 249.08 315.329H499.638C506.828 315.329 513.181 311.056 517.018 304.517C519.438 300.396 520.859 295.378 520.859 289.959V279.897C520.859 276.184 520.15 272.669 518.879 269.538C515.658 261.572 508.833 256.077 500.934 256.077H249.08C247.381 256.077 246.002 257.721 246.002 259.753V261.258C246.002 263.289 247.381 264.938 249.08 264.938H394.562C398.038 264.938 401.187 266.707 403.385 269.538C405.332 272.046 406.534 275.387 406.553 279.067L406.55 279.062Z" fill="#AFCDFB"/>
<path d="M246 310.143V311.648C246 313.68 247.379 315.329 249.078 315.329H499.635C506.825 315.329 513.179 311.056 517.015 304.517H400.291C398.467 305.755 396.358 306.465 394.119 306.465H249.08C247.381 306.465 246.002 308.112 246.002 310.146L246 310.143Z" fill="#A4C4F4"/>
<path d="M253.112 285.698L271.706 286.694L253.112 287.295V285.698Z" fill="#F4D2B8"/>
<path d="M253.112 272.062L297.349 273.058L253.112 273.657V272.062Z" fill="#F4D2B8"/>
<path d="M296.892 272.86C296.892 272.86 293.972 274.738 293.005 277.828C292.836 278.368 292.725 278.946 292.701 279.555C292.541 283.658 292.701 292.945 292.701 292.945L284.083 288.303L275.486 292.945V280.359C275.486 277.979 276.224 275.665 277.593 274.148C278.258 273.414 279.064 272.86 279.973 272.86H296.889H296.892Z" fill="#F99746"/>
<path d="M296.892 272.86C296.892 272.86 293.972 274.738 293.005 277.828L275.734 278.012C275.734 278.012 276.412 273.589 279.976 272.86H296.892Z" fill="#ED7D2B"/>
<path d="M105.881 310.084C105.881 310.084 132.881 321.859 137.781 321.646C142.682 321.432 172.88 312.439 172.88 312.439L172.112 317.638C172.112 317.638 148.807 331.057 140.658 331.817C132.636 332.567 105.207 324.61 102.558 322.93C99.9095 321.25 98.1844 311.783 105.879 310.084H105.881Z" fill="#ED985F"/>
<path d="M101.823 266.766C101.823 266.766 91.8616 264.872 86.9033 268.498C77.9174 275.068 77.4343 297.716 74.0667 301.089C70.699 304.463 62.5804 303.024 61.8569 320.481C61.1335 337.938 65.0879 339.396 60.3793 347.189C55.6684 354.981 62.373 362.78 62.373 362.78C62.373 362.78 59.6276 358.479 60.8035 355.372C60.8035 355.372 61.9465 362.226 66.2945 363.832C70.6425 365.439 71.2858 366.616 71.9811 368.973C71.9811 368.973 109.082 349.942 109.122 336.445C109.162 322.949 116.422 309.577 112.857 303.727C112.857 303.727 114.445 306.23 114.639 309.013C114.639 309.013 116.778 304.911 113.069 301.091C109.362 297.272 117.419 289.367 116.225 280.213C115.404 273.929 111 267.042 101.821 266.769L101.823 266.766Z" fill="#233862"/>
<path d="M109.162 322.946C106.791 324.593 103.817 325.952 100.084 326.813C86.0926 330.05 80.7312 318.212 78.7163 310.084C80.6252 308.992 82.4186 308.752 83.4555 308.626C84.4665 308.506 85.5293 308.428 86.4107 308.383C87.9826 307.178 90.3227 302.25 90.8412 294.594L91.4987 294.771L102.525 297.793C102.525 297.793 102.021 301.301 101.774 304.618C101.583 307.213 101.552 309.693 102.042 310.301C102.902 310.488 103.419 310.611 103.419 310.611C103.419 310.611 103.419 310.615 103.423 310.62C103.572 310.863 106.77 316.128 109.157 322.946H109.162Z" fill="#FFB27D"/>
<path d="M102.528 297.796C102.528 297.796 102.021 301.301 101.776 304.621C95.5286 303.995 92.6299 298.041 91.5011 294.774L102.528 297.793V297.796Z" fill="#ED985F"/>
<path d="M104.394 301.089C104.394 301.089 89.5663 300.27 90.2167 291.034C90.8695 281.799 89.3942 275.471 98.8891 275.606C108.384 275.738 109.972 279.392 110.505 282.527C111.038 285.663 108.269 301.065 104.394 301.089Z" fill="#FFB27D"/>
<path d="M110.432 277.359C108.342 274.417 106.567 274.903 105.54 275.667C97.7626 270.63 92.0761 276.842 92.0761 276.842C90.6102 283.398 85.5647 286.852 85.5647 286.852C85.5647 286.852 88.1452 288.715 94.4822 287.559C96.4194 287.206 98.2128 285.976 99.7728 284.438C96.952 288.484 93.3062 291.282 93.3062 291.282C100.987 288.376 104.712 278.241 105.089 277.168C105.935 278.045 107.592 279.939 108.009 281.709C108.58 284.113 111.038 287.873 112.459 287.809C112.459 287.809 113.569 281.77 110.434 277.359H110.432Z" fill="#233862"/>
<path d="M74.4933 353.124C73.1547 346.271 68.7879 318.893 73.1547 310.084C74.7219 306.918 80.8751 306.633 87.6268 306.911C89.7266 308.268 97.7321 313.399 101.02 312.76C101.055 312.753 101.119 312.738 101.203 312.717C102.752 312.33 103.336 311.24 102.045 310.301C102.042 310.301 105.389 309.978 109.541 310.761C111.886 311.203 118.211 314.479 118.211 314.479C118.211 314.479 115.025 320.24 110.328 322.229C111.127 329.382 109.939 332.536 102.528 349.057C96.2639 363.021 103.374 375.592 103.374 375.592C103.374 375.592 66.5019 405.268 66.2969 390.157C66.1437 378.782 76.2065 361.881 74.4933 353.124Z" fill="#F9DDBF"/>
<path d="M105.2 407.86C107.206 407.634 109.011 406.534 110.133 404.855C110.309 404.588 110.5 404.303 110.703 403.996C114.9 397.636 116.533 378.159 125.974 357.408C128.274 352.357 136.527 351.449 138.778 345.738C138.778 345.738 144.318 327.228 128.175 326.681C112.032 326.136 84.9426 378.183 84.516 383.642C84.1012 388.931 73.8428 411.401 105.203 407.86H105.2Z" fill="#DD6D22"/>
<path d="M169.36 407.436H146.385C146.385 407.436 145.527 403.767 147.035 401.271C148.371 399.063 147.858 397.803 146.87 395.977C147.912 396.404 149.258 396.791 150.74 396.706C151.885 396.64 153.094 396.121 154.157 395.503C155.147 396.631 159.379 401.436 160.704 402.387C162.205 403.468 168.9 403.083 169.362 407.436H169.36Z" fill="#233862"/>
<path d="M139.301 332.031C140.684 342.414 146.088 375.184 155.618 391.172C158.691 396.326 147.877 399.216 147.818 399.2C146.368 398.82 143.95 396.506 142.838 395.501C135.101 388.52 119.394 368.756 119.394 352.909C119.394 345.183 119.258 330.427 124.871 326.676C128.328 324.366 138.752 327.907 139.301 332.031Z" fill="#ED7D2B"/>
<path d="M91.5011 407.436C91.5011 407.436 92.3518 406.249 93.8365 403.996C95.604 401.316 97.5576 396.046 99.9307 389.287C102.424 382.193 105.379 373.464 109.074 364.382C110.215 361.579 111.426 358.741 112.713 355.908C115.013 350.857 121.338 351.555 123.589 345.844C123.589 345.844 132.37 326.046 116.229 325.501C100.086 324.956 69.4123 378.461 67.6496 383.644C65.7195 389.318 56.3047 412.873 91.5011 407.438V407.436Z" fill="#F99746"/>
<path d="M152.493 407.436H129.518C129.518 407.436 128.661 403.767 130.169 401.271C131.505 399.063 130.991 397.803 130.004 395.977C131.045 396.404 132.391 396.791 133.873 396.706C135.019 396.64 136.228 396.121 137.291 395.503C138.28 396.631 142.513 401.436 143.837 402.387C145.338 403.468 152.034 403.083 152.496 407.436H152.493Z" fill="#2B478B"/>
<path d="M99.9307 389.287C102.424 382.193 105.379 373.464 109.074 364.382C108.111 357.5 106.027 351.482 102.528 349.055C102.528 349.055 94.0368 375.385 99.9307 389.285V389.287Z" fill="#ED7D2B"/>
<path d="M125.889 331.295C127.272 341.678 129.221 375.184 138.752 391.172C141.825 396.327 131.01 399.216 130.951 399.2C129.502 398.82 127.084 396.506 125.972 395.501C118.235 388.52 102.528 368.756 102.528 352.909C102.528 345.183 111.587 331.045 117.198 327.294C120.655 324.985 125.338 327.169 125.889 331.293V331.295Z" fill="#F99746"/>
<path d="M107.17 295.776C107.17 295.776 105.768 295.222 101.823 295.541C101.823 295.541 102.033 297.081 104.941 297.234C106.588 297.322 107.168 295.776 107.168 295.776H107.17Z" fill="white"/>
<path d="M175.763 301.559L171 292.955L160.694 321.738L166.774 328.273L175.763 301.559Z" fill="#163560"/>
<path d="M150.891 306.598L141.313 333.989L166.774 328.273L175.763 301.559L150.891 306.598Z" fill="#1C468A"/>
<path d="M141.82 332.609L141.375 331.828L150.438 305.904L150.891 306.598L141.82 332.609Z" fill="#EFDECE"/>
<path d="M150.438 305.904L174.577 301.202L175.763 301.559L150.891 306.598L150.438 305.904Z" fill="#FCECDB"/>
<path d="M175.763 301.559L170.611 293.375L167.328 302.613L174.577 301.202L175.763 301.559Z" fill="#EFDECE"/>
<path d="M158.243 310.563C157.416 310.403 155.639 309.733 153.841 309.238C154.378 308.82 154.975 308.308 155.142 307.782C155.463 306.768 155.677 306.442 154.607 306.763C153.537 307.084 149.795 308.803 149.795 308.803C149.795 308.803 149.802 308.808 149.804 308.808C147.679 309.431 145.718 312.439 145.718 312.439C145.718 312.439 119.394 321.703 116.227 321.861C111.327 322.107 78.7163 310.087 78.7163 310.087C71.0195 311.788 72.747 321.253 75.3958 322.932C78.0447 324.612 101.51 333.157 115.416 333.317C122.46 333.4 148.082 316.914 148.082 316.914C148.082 316.914 151.077 315.543 153.429 315.973C155.781 316.402 161.236 315.973 162.412 314.045C163.588 312.118 159.631 310.832 158.241 310.566L158.243 310.563Z" fill="#FFB27D"/>
<path d="M95.5192 316.013C95.5192 316.013 92.6017 325.256 82.586 327.358C82.586 327.358 66.0447 322.257 74.2812 310.976C74.2812 310.976 82.4234 304.92 95.5192 316.013Z" fill="#F9DDBF"/>
<path d="M175.334 311.259C175.341 311.005 175.315 310.752 175.246 310.509C175.246 310.509 172.887 306.772 172.114 306.621C169.76 306.157 169.76 309.259 170.26 311.259C170.609 312.654 171.492 313.991 172.209 314.713L172.114 317.636C176.09 315.449 175.336 311.257 175.336 311.257L175.334 311.259Z" fill="#FFB27D"/>
<path d="M401.807 304.93C406.133 312.592 411.622 315.579 411.622 315.579L434.543 315.741C434.543 315.741 398.505 299.086 401.804 304.932L401.807 304.93Z" fill="#233862"/>
<path d="M418.994 364.106C419.585 364.795 419.656 365.561 419.356 366.378C419.356 366.38 419.356 366.387 419.349 366.389C418.791 367.897 416.974 369.574 414.865 371.244C414.596 371.459 414.356 371.655 414.146 371.837C414.092 371.884 414.035 371.931 413.986 371.98C413.943 372.018 413.903 372.056 413.861 372.091C411.891 373.882 412.626 374.302 409.084 377.94C405.047 382.085 402.287 382.141 401.505 381.754C400.843 381.426 402.207 379.221 403.72 376.744C403.793 376.623 403.866 376.503 403.939 376.383C404.14 376.052 404.34 375.72 404.54 375.387C406.312 372.405 405.874 370.997 405.49 366.536C405.179 362.912 400.004 346.261 400.004 346.261L407.693 344.992C407.693 344.992 409.913 358.236 412.447 360.291C413.802 361.386 415.327 361.412 416.632 362.226C416.724 362.282 416.816 362.341 416.903 362.4C417.643 362.9 418.4 363.415 418.994 364.106Z" fill="#FFB27D"/>
<path d="M418.994 364.106C419.585 364.795 419.656 365.561 419.356 366.378C419.356 366.38 419.356 366.387 419.349 366.39C418.668 367.895 416.896 369.563 414.858 371.23C414.591 371.45 414.356 371.65 414.146 371.837C414.092 371.884 414.035 371.931 413.986 371.981C413.943 372.018 413.903 372.056 413.861 372.092C411.891 373.882 412.626 374.302 409.084 377.94C405.047 382.085 402.287 382.141 401.505 381.754C400.843 381.427 402.207 379.221 403.72 376.744C404.503 376.463 408.137 375.014 410.901 371.525C413.335 368.458 414.973 364.509 416.632 362.228C416.724 362.285 416.816 362.344 416.903 362.403C417.643 362.903 418.4 363.417 418.994 364.108V364.106Z" fill="#233862"/>
<path d="M357.099 358.866C356.609 361.237 353.232 360.817 349.463 359.867C345.695 358.916 346.583 360.02 341.215 359.388C335.847 358.755 334.232 356.738 334.074 355.936C333.933 355.226 336.589 354.995 339.441 354.686C339.799 354.648 340.159 354.606 340.52 354.566C343.739 354.183 346.107 352.124 349.039 350.44C351.818 348.842 355.991 342.289 355.991 342.289L363.356 342.926C363.356 342.926 359.446 348.779 357.933 351.324C357.042 352.822 357.075 354.811 357.174 356.347C357.226 357.182 357.273 358.036 357.099 358.869V358.866Z" fill="#FFB27D"/>
<path d="M349.463 359.866C345.695 358.916 346.583 360.02 341.215 359.388C335.847 358.755 334.232 356.738 334.074 355.936C333.933 355.226 336.589 354.995 339.441 354.686L339.466 354.74C339.466 354.74 342.674 357.05 347.144 357.189C350.79 357.304 354.657 356.285 357.174 356.344C357.226 357.179 357.273 358.033 357.099 358.866C356.609 361.237 353.232 360.817 349.463 359.866Z" fill="#233862"/>
<path d="M385.671 311.899L392.429 330.502L401.253 354.794C401.253 354.794 403.692 355.047 406.034 354.391C408.191 353.785 410.672 352.171 410.672 352.171C410.672 352.171 408.358 326.138 403.805 311.172C402.638 307.331 401.321 304.22 399.858 302.464C392.696 293.87 385.673 311.896 385.673 311.896L385.671 311.899Z" fill="#233862"/>
<path d="M392.882 282.478C397.404 281.053 410.265 283.014 423.177 285.639L425.915 281.188L453.858 279.201C453.858 279.201 462.928 299.725 457.793 312.727C457.039 314.637 455.196 315.432 452.684 315.456C452.684 315.456 452.684 315.458 452.682 315.461C452.682 315.461 436.013 315.751 430.616 315.713C416.726 315.614 401.29 305.949 399.287 305.531C396.009 304.852 394.649 311.415 391.317 318.292C387.985 325.171 360.24 348.637 360.24 348.637C360.24 348.637 356.001 348.649 354.254 347.979C352.376 347.259 351.695 346.337 351.695 346.337C351.695 346.337 382.682 285.691 392.882 282.478Z" fill="#2B478B"/>
<path d="M426.351 242.689C436.258 248.24 456.353 259.748 456.459 259.675C456.459 259.675 463.854 262.525 468.082 259.757C475.126 255.145 478.974 242.626 466.227 231.738C459.869 226.308 455.335 224.965 454.706 216.364C454.364 211.698 448.103 196.257 437.509 197.607C436.623 197.72 435.733 197.798 434.842 197.762C433.607 197.713 431.564 197.88 429.462 199.112C423.447 202.639 411.457 240.462 426.351 242.689Z" fill="#233862"/>
<path d="M434.719 238.082C434.675 238.11 439.6 239.832 442.911 238.391C446.026 237.039 448.416 231.941 448.369 231.939C446.957 231.863 445.414 230.615 444.278 222.495L443.675 222.708L433.534 226.279C433.534 226.279 434.243 229.532 434.696 232.63C435.078 235.23 435.273 237.719 434.719 238.082Z" fill="#FFB27D"/>
<path d="M433.534 226.277C433.534 226.277 433.965 228.558 434.566 231.816C440.382 230.811 442.833 225.843 443.675 222.705L433.534 226.277Z" fill="#ED975D"/>
<path d="M432.004 229.492C432.004 229.492 445.857 227.73 444.627 219.112C443.399 210.494 444.358 204.462 435.462 205.222C426.565 205.981 425.319 209.515 425.031 212.492C424.741 215.47 428.368 229.728 432.002 229.492H432.004Z" fill="#FFB27D"/>
<path d="M425.571 207.777C425.571 207.777 434.375 215.482 440.396 216.14C446.418 216.798 448.713 214.878 448.713 214.878C448.713 214.878 445.183 211.9 443.078 207.121C442.458 205.712 441.134 204.738 439.602 204.597C435.301 204.196 427.147 203.967 425.568 207.777H425.571Z" fill="#233862"/>
<path d="M431.114 207.13C431.114 207.13 428.13 209.978 427.18 212.099C426.266 214.146 425.96 219.053 426.664 221.009C426.664 221.009 422.109 211.988 424.755 207.64C427.56 203.03 431.114 207.13 431.114 207.13Z" fill="#233862"/>
<path d="M422.922 258.406C423.144 286.451 422.88 280.588 425.927 283.273C426.66 283.92 428.733 284.316 431.465 284.516C440.05 285.149 455.161 283.837 455.745 282.252C457.765 276.767 456.379 275.049 458.09 266.644C458.269 265.75 458.488 264.782 458.748 263.728C460.166 257.955 461.521 255.999 456.697 246.674C452.321 238.228 447.763 231.368 447.348 231.611C435.601 238.481 434.698 232.63 434.698 232.63C434.698 232.63 422.814 244.725 422.924 258.406H422.922Z" fill="#F9DDBF"/>
<path d="M392.429 330.502L401.253 354.794C401.253 354.794 403.692 355.047 406.034 354.391C408.191 353.785 410.672 352.171 410.672 352.171C410.672 352.171 408.358 326.138 403.805 311.172L392.432 330.5L392.429 330.502Z" fill="#2B478B"/>
<path d="M434.696 232.628C434.696 232.628 422.644 234.586 421.192 239.764C419.743 244.942 411.209 275.387 411.209 275.387C411.209 275.387 417.323 276.531 420.169 273.721C423.016 270.911 430.192 247.535 430.192 247.535L434.698 232.63L434.696 232.628Z" fill="#F9DDBF"/>
<path d="M431.465 284.514C440.05 285.146 455.161 283.835 455.745 282.249C457.765 276.764 456.379 275.047 458.09 266.641L454.03 254.933C454.03 254.933 454.623 267.944 450.768 271.336C446.917 274.728 435.035 277.828 433.152 280.673C432.245 282.039 431.644 283.41 431.462 284.514H431.465Z" fill="#F2CCAA"/>
<path d="M441.344 279.114C441.344 279.114 432.883 277.165 431.51 277.908C430.138 278.652 426.775 281.369 426.351 282.32C425.927 283.271 429.4 281.617 430.529 281.322C431.26 281.131 433.176 281.813 434.123 282.136C438.113 283.5 440.568 282.83 440.568 282.83L441.344 279.112V279.114Z" fill="#FFB27D"/>
<path d="M447.356 231.604C447.356 231.604 458.729 232.387 462.629 237.914C468.12 245.695 478.887 278.767 472.55 283.124C465.417 288.029 440.229 284.193 440.229 284.193C440.229 284.193 439.418 280.261 440.599 278.371C441.78 276.481 460.772 273.546 461.653 272.676C462.535 271.805 450.829 255.509 450.848 252.878C450.867 250.248 447.353 231.606 447.353 231.606L447.356 231.604Z" fill="#F9DDBF"/>
<path d="M431.083 280.268C431.083 280.268 429.292 282.549 428.708 282.818C428.123 283.087 427.748 283.016 427.748 283.016L428.96 280.869L431.083 280.268Z" fill="#FFB27D"/>
<path d="M431.51 277.908L426.33 280.381C426.33 280.381 426.547 280.742 427.183 280.718C427.819 280.695 429.426 280.119 429.426 280.119L431.51 277.908Z" fill="#FFB27D"/>
<path d="M429.813 286.517L388.975 286.229L376.906 255.563L417.681 255.851L429.813 286.517Z" fill="#F99746"/>
<path d="M388.506 285.035L442.43 285.415L442.423 286.607L388.975 286.229L388.506 285.035Z" fill="#ED7D2B"/>
<path d="M399.391 271.013C399.092 269.935 399.719 269.069 400.791 269.076C401.865 269.083 402.978 269.963 403.279 271.041C403.579 272.119 402.952 272.985 401.88 272.978C400.807 272.971 399.693 272.091 399.391 271.013Z" fill="white"/>
<path d="M210.785 383.006L210.781 407.699L334.858 407.721L334.862 383.028L210.785 383.006Z" fill="#C65447"/>
<path d="M210.789 407.709L192.554 399.901L181.946 395.359L192.803 390.714L210.796 383.017C210.796 383.017 213.198 389.03 213.233 394.682C213.29 403.555 210.789 407.709 210.789 407.709Z" fill="#FCECDB"/>
<path d="M349.293 391.233V399.04C349.293 403.841 345.402 407.733 340.604 407.733H334.866L334.871 383.04H341.113C345.633 383.04 349.296 386.711 349.293 391.233Z" fill="#FCECDB"/>
<path d="M192.803 390.712C193.256 393.208 193.647 397.03 192.554 399.898L181.946 395.357L192.803 390.712Z" fill="#2B478B"/>
<path d="M237.466 254.454C237.466 254.454 239.689 264.108 246.167 264.108C251.719 264.108 259.338 251.543 259.338 251.543L237.466 254.454Z" fill="#F99746"/>
<path d="M311.844 397.037L307.682 399.901C307.682 399.901 287.665 378.541 282.831 358.069C281.969 354.412 281.62 350.808 281.99 347.387C281.99 347.387 281.698 346.46 281.187 344.82C281.163 344.749 281.142 344.674 281.118 344.601C280.894 343.881 280.626 343.034 280.329 342.076C279.358 338.984 278.024 334.749 276.506 329.929C273.007 318.837 265.006 293.821 261.586 283.417L286.161 274.516C286.161 274.516 288.952 280.888 292.963 298.206C293.58 300.466 294.2 302.967 294.777 305.689C295.432 308.775 296.045 312.146 296.554 315.791C297.417 321.965 297.992 328.91 298.027 336.528C298.041 339.628 297.966 342.841 297.782 346.155C297.648 348.588 298.008 351.827 298.685 355.512C301.781 372.36 311.844 397.032 311.844 397.032V397.037Z" fill="#2B478B"/>
<path d="M324.935 407.329H305.066C305.066 407.329 304.324 404.156 305.627 401.998C306.782 400.087 306.339 398.999 305.483 397.419C306.384 397.787 307.548 398.124 308.83 398.049C309.82 397.992 310.866 397.541 311.785 397.008C312.641 397.985 316.303 402.139 317.446 402.96C318.744 403.895 324.535 403.562 324.933 407.325L324.935 407.329Z" fill="#233862"/>
<path d="M296.554 315.794L281.118 344.601C280.894 343.881 280.626 343.034 280.329 342.076C279.358 338.984 278.024 334.749 276.506 329.929C273.007 318.837 265.006 293.821 261.586 283.417L286.161 274.516C286.161 274.516 288.952 280.888 292.963 298.206C293.58 300.466 294.2 302.967 294.777 305.689C295.432 308.775 296.045 312.146 296.554 315.791V315.794Z" fill="#233862"/>
<path d="M261.186 401.104C261.186 401.104 259.81 404.482 261.106 407.33H271.913C271.913 407.33 272.137 404.76 268.216 401.783C265.244 399.528 261.186 401.104 261.186 401.104Z" fill="#233862"/>
<path d="M272.945 181.194C272.953 180.656 273.228 174.848 282.042 174.334C282.042 174.334 277.718 174.957 277.013 176.884C277.013 176.884 279.909 174.454 282.334 175.155C284.757 175.856 286.272 180.041 286.319 181.428C286.366 182.815 285.139 187.321 283.621 187.736C283.046 187.894 282.379 187.87 281.773 187.783C282.195 188.408 282.61 189.1 283.008 189.871C286.701 197.019 283.515 205.439 280.517 204.729C278.594 204.273 277.425 207.609 277.425 207.609L258.931 191.688C258.931 191.688 265.409 177.398 272.948 181.194H272.945Z" fill="#2C3A64"/>
<path d="M261.32 229.573C263.37 230.998 265.941 232.17 269.17 232.915C281.269 235.713 285.907 225.477 287.648 218.449C285.999 217.503 284.446 217.296 283.55 217.19C282.676 217.086 281.757 217.017 280.993 216.98C279.634 215.937 277.609 211.674 277.164 205.054L276.593 205.208L267.058 207.819C267.058 207.819 267.494 210.853 267.709 213.722C267.874 215.965 267.9 218.112 267.476 218.636C266.731 218.796 266.286 218.902 266.286 218.902C266.286 218.902 266.286 218.905 266.281 218.912C266.154 219.122 263.387 223.677 261.322 229.57L261.32 229.573Z" fill="#FFB27D"/>
<path d="M267.056 207.824C267.056 207.824 267.495 210.855 267.707 213.726C273.108 213.186 275.615 208.036 276.591 205.212L267.054 207.824H267.056Z" fill="#ED985F"/>
<path d="M266.945 212.379C266.945 212.379 279.384 209.18 277.275 201.457C275.165 193.733 275.349 188.118 267.318 189.836C259.286 191.551 258.556 194.919 258.634 197.668C258.711 200.416 263.656 213.012 266.945 212.379Z" fill="#FFB27D"/>
<path d="M257.825 193.273C259.103 190.423 260.689 190.536 261.69 191.013C267.436 185.426 273.308 189.737 273.308 189.737C275.656 195.049 280.517 197.125 280.517 197.125C280.517 197.125 278.644 199.142 273.073 199.232C271.371 199.26 269.641 198.52 268.06 197.479C271.136 200.433 274.699 202.19 274.699 202.19C267.695 201.023 262.826 193.056 262.326 192.209C261.756 193.096 260.672 194.981 260.615 196.554C260.538 198.689 261.37 202.813 260.154 202.999C260.154 202.999 255.909 197.545 257.825 193.273Z" fill="#2C3A64"/>
<path d="M263.368 218.263C263.368 218.263 284.257 213.186 293.34 220.686L288.801 284.059L247.946 274.179C247.946 274.179 249.096 270.168 256.93 259.505C264.763 248.842 261.355 233.201 263.368 218.263Z" fill="#FFB27D"/>
<path d="M275.545 277.005C275.545 277.005 275.521 277.22 275.479 277.63C275.46 277.807 275.436 278.019 275.41 278.267C275.234 279.909 274.901 283.061 274.473 287.159C273.351 297.907 271.593 315.168 270.393 328.795C269.455 339.448 268.859 347.88 269.182 349.234C270.148 353.308 269.182 402.01 269.182 402.01C265.711 403.678 260.446 402.01 260.446 402.01C260.446 402.01 251.196 358.121 252.492 352.022C253.786 345.922 251.627 340.715 251.627 340.715C244.447 307.237 245.231 288.68 246.66 279.798C247.074 277.215 247.543 275.45 247.887 274.375C248.177 273.459 248.38 273.042 248.38 273.042C264.221 268.774 275.55 277.007 275.55 277.007L275.545 277.005Z" fill="#2B478B"/>
<path d="M296.156 238.761C295.147 246.386 291.113 255.714 289.673 260.736C289.673 260.736 292.081 278.17 289.781 282.959C289.52 283.507 289.197 283.886 288.801 284.059C280.282 287.774 247.107 284.167 245.707 273.452C245.198 269.56 258.344 255.867 259.11 254.206C259.428 253.52 259.767 251.291 258.226 246.676C256.041 253.418 243.985 251.479 243.985 251.479C245.399 249.054 248.927 232.286 252.862 224.715C255.822 219.025 263.724 218.199 263.724 218.199C263.724 218.199 267.014 223.422 274.967 222.682C282.921 221.941 284.377 217.067 284.377 217.067C284.377 217.067 291.433 218.006 293.606 219.761C293.983 220.065 297.483 228.773 296.158 238.761H296.156Z" fill="#F99746"/>
<path d="M289.673 260.736C289.673 260.736 292.081 278.17 289.781 282.959C283.574 279.84 278.684 271.404 279.813 262.008C280.647 255.06 281.889 253.477 285.601 249.502C288.33 246.582 294.636 246.417 294.141 247.806C292.67 251.944 290.432 258.087 289.67 260.739L289.673 260.736Z" fill="#ED7D2B"/>
<path d="M263.766 240.12L277.991 262.963H253.786L240.235 240.613L263.766 240.12Z" fill="#1C468A"/>
<path d="M277.251 261.817L277.496 261.02L264.035 239.401L263.766 240.12L277.251 261.817Z" fill="#EFDECE"/>
<path d="M264.035 239.401L241.235 240.049L240.235 240.613L263.766 240.12L264.035 239.401Z" fill="#FCECDB"/>
<path d="M240.235 240.613L227.443 233.682L242.354 257.122L253.786 262.963L240.235 240.613Z" fill="#163560"/>
<path d="M307.923 256.622C306.553 257.25 303.035 261.395 301.781 261.817C296.137 263.707 272.118 258.677 272.118 258.677L272.863 254.466C272.863 254.466 296.439 255.094 299.029 254.398C299.516 254.265 302.064 250.276 303.044 249.705L307.925 256.622H307.923Z" fill="#FFB27D"/>
<path d="M272.863 254.464C272.863 254.464 270.021 252.147 268.1 252.671C266.18 253.194 263.352 255.627 262.303 256.202C261.254 256.778 258.403 258.837 259.847 260.083C261.292 261.329 265.793 260.26 267.575 259.304C269.356 258.349 272.121 258.675 272.121 258.675L272.865 254.461L272.863 254.464Z" fill="#FFB27D"/>
<path d="M268.642 252.597C268.642 252.597 265.187 252.185 264.242 252.204C263.3 252.222 263.554 252.43 264.075 253.164C264.596 253.897 266.394 254.178 266.476 254.433C266.559 254.688 268.64 252.597 268.64 252.597H268.642Z" fill="#FFB27D"/>
<path d="M284.375 217.067C284.375 217.067 294.622 218.284 297.443 222.682C301.011 228.242 309.428 250.392 309.157 255.973C309.157 255.973 303.002 266.46 281.898 264.78C281.898 264.78 279.702 257.016 284.142 254.452C284.142 254.452 294.982 252.522 296.231 251.42L287.394 235.341L284.38 217.064L284.375 217.067Z" fill="#F99746"/>
<path d="M243.511 248.964C243.193 247.672 240.379 248.478 239.429 249.224C239.198 249.406 238.951 249.712 238.708 250.073C238.678 249.856 238.654 249.651 238.64 249.488C238.586 248.882 237.881 247.794 237.704 248.608C237.53 249.422 237.24 252.843 237.24 252.843C237.205 255.598 238.974 256.735 240.11 255.839C241.246 254.942 243.827 250.26 243.511 248.967V248.964Z" fill="#FFB27D"/>
<path d="M0.730303 407H567.27C567.673 407 568 407.169 568 407.377V407.623C568 407.831 567.673 408 567.27 408H0.730303C0.326878 408 0 407.831 0 407.623V407.377C0 407.169 0.326878 407 0.730303 407Z" fill="#2E3552"/>
</svg>
