<svg width="561" height="410" viewBox="0 0 561 410" fill="none" xmlns="http://www.w3.org/2000/svg">
<g clip-path="url(#clip0_3990_3094)">
<path d="M23.8583 409.745C23.8583 409.745 -17.8194 357.236 8.99587 282.492C31.5815 219.539 96.0712 260.005 78.4111 180.422C62.3906 108.232 78.6923 45.6651 227.627 13.092C323.759 -7.9336 473.757 -15.1662 440.095 143.954C428.111 200.604 620.391 153.511 539.776 409.747H23.8583V409.745Z" fill="#EBF3FA"/>
<g opacity="0.5">
<g opacity="0.5">
<path d="M393.48 168.891C393.48 168.891 385.784 107.897 407.31 64.9844C410.173 59.2818 418.634 60.3458 420.047 66.5684C420.071 66.673 420.095 66.7776 420.116 66.8822C422.357 77.5461 399.5 130.588 393.48 168.891Z" fill="#AEC3FF"/>
</g>
<g opacity="0.5">
<path d="M394.018 186.767C394.018 186.767 405.796 105.195 449.27 59.5688C451.92 56.7862 456.366 56.4455 459.243 58.9949C461.116 60.6537 462.514 63.6275 462.189 68.8937C461.319 82.9408 414.654 141.141 394.018 186.767Z" fill="#AEC3FF"/>
</g>
</g>
<g opacity="0.4">
<path d="M55.4234 239.479H33.6234C31.7068 239.479 30.1487 237.923 30.1487 236.004L30.1487 144.216C30.1487 142.299 31.7042 140.741 33.6234 140.741H55.4234C57.34 140.741 58.8981 142.297 58.8981 144.216L58.8981 236.004C58.8981 237.921 57.3426 239.479 55.4234 239.479Z" fill="#8C9DF4"/>
<path d="M51.2594 218.185C51.2594 214.461 48.2417 211.445 44.5221 211.445C40.8025 211.445 37.7849 214.464 37.7849 218.185C37.7849 221.906 40.8025 224.924 44.5221 224.924C48.2417 224.924 51.2594 221.906 51.2594 218.185Z" fill="#505ABA"/>
<path d="M44.5221 225.677C40.4136 225.677 37.0703 222.333 37.0703 218.223C37.0703 214.113 40.4136 210.768 44.5221 210.768C48.6306 210.768 51.974 214.113 51.974 218.223C51.974 222.333 48.6306 225.677 44.5221 225.677ZM44.5221 212.195C41.199 212.195 38.497 214.898 38.497 218.223C38.497 221.547 41.199 224.25 44.5221 224.25C47.8453 224.25 50.5472 221.547 50.5472 218.223C50.5472 214.898 47.8453 212.195 44.5221 212.195Z" fill="white"/>
<path d="M51.6533 200.762H37.3834C36.6764 200.762 36.1006 200.186 36.1006 199.479L36.1006 146.548C36.1006 145.841 36.6764 145.265 37.3834 145.265H51.6533C52.3604 145.265 52.9361 145.841 52.9361 146.548L52.9361 199.482C52.9361 200.189 52.3604 200.765 51.6533 200.765V200.762Z" fill="#AEC3FF"/>
<path d="M39.0955 149.496H49.5978C50.1626 149.496 50.6205 149.038 50.6205 148.473V148.294C50.6205 147.729 50.1626 147.271 49.5978 147.271H39.0955C38.5307 147.271 38.0728 147.729 38.0728 148.294V148.473C38.0728 149.038 38.5307 149.496 39.0955 149.496Z" fill="#F99746"/>
<path d="M46.6686 182.739V194.18C46.6686 194.488 46.9186 194.735 47.2241 194.735C47.5322 194.735 47.7797 194.485 47.7797 194.18V182.739C47.7797 182.431 47.5297 182.183 47.2241 182.183C46.9161 182.183 46.6686 182.433 46.6686 182.739Z" fill="#505ABA"/>
<path d="M46.6686 167.002V178.442C46.6686 178.75 46.9186 178.998 47.2241 178.998C47.5322 178.998 47.7797 178.748 47.7797 178.442V167.002C47.7797 166.693 47.5297 166.446 47.2241 166.446C46.9161 166.446 46.6686 166.696 46.6686 167.002Z" fill="#505ABA"/>
<path d="M40.2899 182.739V194.18C40.2899 194.488 40.5399 194.735 40.8455 194.735C41.1536 194.735 41.401 194.485 41.401 194.18V182.739C41.401 182.431 41.151 182.183 40.8455 182.183C40.5374 182.183 40.2899 182.433 40.2899 182.739Z" fill="#505ABA"/>
<path d="M40.2899 167.002V178.442C40.2899 178.75 40.5399 178.998 40.8455 178.998C41.1536 178.998 41.401 178.748 41.401 178.442V167.002C41.401 166.693 41.151 166.446 40.8455 166.446C40.5374 166.446 40.2899 166.696 40.2899 167.002Z" fill="#505ABA"/>
<path d="M43.6081 179.511V194.18C43.6081 194.488 43.8581 194.735 44.1636 194.735C44.4717 194.735 44.7191 194.485 44.7191 194.18V179.511C44.7191 179.203 44.4691 178.955 44.1636 178.955C43.8555 178.955 43.6081 179.205 43.6081 179.511Z" fill="#505ABA"/>
<path d="M43.6081 159.724V174.393C43.6081 174.701 43.8581 174.949 44.1636 174.949C44.4717 174.949 44.7191 174.699 44.7191 174.393V159.724C44.7191 159.416 44.4691 159.168 44.1636 159.168C43.8555 159.168 43.6081 159.418 43.6081 159.724Z" fill="#505ABA"/>
<path d="M69.4736 239.479H91.2736C93.1926 239.479 94.7483 237.923 94.7483 236.004L94.7483 144.219C94.7483 142.299 93.1926 140.743 91.2736 140.743H69.4736C67.5546 140.743 65.9989 142.299 65.9989 144.219L65.9989 236.004C65.9989 237.923 67.5546 239.479 69.4736 239.479Z" fill="#8C9DF4"/>
<path d="M87.1121 218.185C87.1121 214.461 84.0945 211.445 80.3749 211.445C76.6552 211.445 73.6376 214.464 73.6376 218.185C73.6376 221.906 76.6552 224.924 80.3749 224.924C84.0945 224.924 87.1121 221.906 87.1121 218.185Z" fill="#505ABA"/>
<path d="M80.3748 225.677C76.2663 225.677 72.923 222.333 72.923 218.223C72.923 214.113 76.2663 210.768 80.3748 210.768C84.4833 210.768 87.8267 214.113 87.8267 218.223C87.8267 222.333 84.4833 225.677 80.3748 225.677ZM80.3748 212.195C77.0517 212.195 74.3497 214.898 74.3497 218.223C74.3497 221.547 77.0517 224.25 80.3748 224.25C83.698 224.25 86.3999 221.547 86.3999 218.223C86.3999 214.898 83.698 212.195 80.3748 212.195Z" fill="white"/>
<path d="M73.2361 200.762H87.506C88.2145 200.762 88.7888 200.188 88.7888 199.479V146.545C88.7888 145.837 88.2145 145.262 87.506 145.262H73.2361C72.5276 145.262 71.9533 145.837 71.9533 146.545V199.479C71.9533 200.188 72.5276 200.762 73.2361 200.762Z" fill="#AEC3FF"/>
<path d="M74.9482 149.496H85.4505C86.0153 149.496 86.4732 149.038 86.4732 148.473V148.294C86.4732 147.729 86.0153 147.271 85.4505 147.271H74.9482C74.3834 147.271 73.9255 147.729 73.9255 148.294V148.473C73.9255 149.038 74.3834 149.496 74.9482 149.496Z" fill="#F99746"/>
<path d="M82.5212 182.739V194.179C82.5212 194.488 82.7712 194.735 83.0768 194.735C83.3849 194.735 83.6323 194.485 83.6323 194.179V182.739C83.6323 182.431 83.3823 182.183 83.0768 182.183C82.7687 182.183 82.5212 182.433 82.5212 182.739Z" fill="#505ABA"/>
<path d="M82.5212 167.002V178.442C82.5212 178.75 82.7712 178.998 83.0768 178.998C83.3849 178.998 83.6323 178.748 83.6323 178.442V167.002C83.6323 166.693 83.3823 166.446 83.0768 166.446C82.7687 166.446 82.5212 166.696 82.5212 167.002Z" fill="#505ABA"/>
<path d="M76.1426 182.739V194.179C76.1426 194.488 76.3926 194.735 76.6981 194.735C77.0062 194.735 77.2537 194.485 77.2537 194.179V182.739C77.2537 182.431 77.0037 182.183 76.6981 182.183C76.3901 182.183 76.1426 182.433 76.1426 182.739Z" fill="#505ABA"/>
<path d="M76.1426 167.002V178.442C76.1426 178.75 76.3926 178.998 76.6981 178.998C77.0062 178.998 77.2537 178.748 77.2537 178.442V167.002C77.2537 166.693 77.0037 166.446 76.6981 166.446C76.3901 166.446 76.1426 166.696 76.1426 167.002Z" fill="#505ABA"/>
<path d="M79.4607 179.511V194.179C79.4607 194.488 79.7107 194.735 80.0163 194.735C80.3243 194.735 80.5718 194.485 80.5718 194.179V179.511C80.5718 179.202 80.3218 178.955 80.0163 178.955C79.7082 178.955 79.4607 179.205 79.4607 179.511Z" fill="#505ABA"/>
<path d="M79.4607 159.724V174.393C79.4607 174.701 79.7107 174.949 80.0163 174.949C80.3243 174.949 80.5718 174.698 80.5718 174.393V159.724C80.5718 159.416 80.3218 159.168 80.0163 159.168C79.7082 159.168 79.4607 159.418 79.4607 159.724Z" fill="#505ABA"/>
<path d="M106.011 239.479H127.811C129.73 239.479 131.285 237.923 131.285 236.004V144.219C131.285 142.299 129.73 140.743 127.811 140.743H106.011C104.092 140.743 102.536 142.299 102.536 144.219L102.536 236.004C102.536 237.923 104.092 239.479 106.011 239.479Z" fill="#8C9DF4"/>
<path d="M123.652 218.185C123.652 214.461 120.634 211.445 116.914 211.445C113.195 211.445 110.177 214.464 110.177 218.185C110.177 221.906 113.195 224.924 116.914 224.924C120.634 224.924 123.652 221.906 123.652 218.185Z" fill="#505ABA"/>
<path d="M116.912 225.677C112.803 225.677 109.46 222.333 109.46 218.223C109.46 214.113 112.803 210.768 116.912 210.768C121.02 210.768 124.364 214.113 124.364 218.223C124.364 222.333 121.02 225.677 116.912 225.677ZM116.912 212.195C113.589 212.195 110.887 214.898 110.887 218.223C110.887 221.547 113.589 224.25 116.912 224.25C120.235 224.25 122.937 221.547 122.937 218.223C122.937 214.898 120.235 212.195 116.912 212.195Z" fill="white"/>
<path d="M109.773 200.762H124.043C124.752 200.762 125.326 200.188 125.326 199.479V146.545C125.326 145.837 124.752 145.262 124.043 145.262H109.773C109.065 145.262 108.49 145.837 108.49 146.545V199.479C108.49 200.188 109.065 200.762 109.773 200.762Z" fill="#AEC3FF"/>
<path d="M111.485 149.496H121.988C122.552 149.496 123.01 149.038 123.01 148.473V148.294C123.01 147.729 122.552 147.271 121.988 147.271H111.485C110.92 147.271 110.463 147.729 110.463 148.294V148.473C110.463 149.038 110.92 149.496 111.485 149.496Z" fill="#F99746"/>
<path d="M119.061 182.739V194.179C119.061 194.488 119.311 194.735 119.616 194.735C119.924 194.735 120.172 194.485 120.172 194.179V182.739C120.172 182.431 119.922 182.183 119.616 182.183C119.308 182.183 119.061 182.433 119.061 182.739Z" fill="#505ABA"/>
<path d="M119.061 167.002V178.442C119.061 178.75 119.311 178.998 119.616 178.998C119.924 178.998 120.172 178.748 120.172 178.442V167.002C120.172 166.693 119.922 166.446 119.616 166.446C119.308 166.446 119.061 166.696 119.061 167.002Z" fill="#505ABA"/>
<path d="M112.68 182.739V194.179C112.68 194.488 112.93 194.735 113.235 194.735C113.543 194.735 113.791 194.485 113.791 194.179V182.739C113.791 182.431 113.541 182.183 113.235 182.183C112.927 182.183 112.68 182.433 112.68 182.739Z" fill="#505ABA"/>
<path d="M112.68 167.002V178.442C112.68 178.75 112.93 178.998 113.235 178.998C113.543 178.998 113.791 178.748 113.791 178.442V167.002C113.791 166.693 113.541 166.446 113.235 166.446C112.927 166.446 112.68 166.696 112.68 167.002Z" fill="#505ABA"/>
<path d="M116 179.511V194.179C116 194.488 116.25 194.735 116.556 194.735C116.864 194.735 117.111 194.485 117.111 194.179V179.511C117.111 179.202 116.861 178.955 116.556 178.955C116.248 178.955 116 179.205 116 179.511Z" fill="#505ABA"/>
<path d="M116 159.724V174.393C116 174.701 116.25 174.949 116.556 174.949C116.864 174.949 117.111 174.698 117.111 174.393V159.724C117.111 159.416 116.861 159.168 116.556 159.168C116.248 159.168 116 159.418 116 159.724Z" fill="#505ABA"/>
<path d="M165.441 239.48H143.639C141.722 239.48 140.166 237.923 140.166 236.006V144.219C140.166 142.302 141.722 140.743 143.641 140.743H165.441C167.358 140.743 168.916 142.299 168.916 144.219V236.006C168.916 237.923 167.36 239.482 165.441 239.482V239.48Z" fill="#8C9DF4"/>
<path d="M161.671 200.762H147.401C146.692 200.762 146.118 200.187 146.118 199.479V146.548C146.118 145.841 146.694 145.265 147.401 145.265H161.671C162.378 145.265 162.954 145.841 162.954 146.548V199.479C162.954 200.187 162.378 200.762 161.671 200.762Z" fill="#AEC3FF"/>
<path d="M159.618 149.496H149.113C148.55 149.496 148.09 149.039 148.09 148.473V148.291C148.09 147.728 148.548 147.268 149.113 147.268H159.618C160.181 147.268 160.641 147.725 160.641 148.291V148.473C160.641 149.036 160.184 149.496 159.618 149.496Z" fill="#F99746"/>
<path d="M201.753 239.479H179.953C178.037 239.479 176.479 237.923 176.479 236.004V144.216C176.479 142.299 178.034 140.741 179.953 140.741H201.753C203.67 140.741 205.228 142.297 205.228 144.216V236.004C205.228 237.921 203.673 239.479 201.753 239.479Z" fill="#8C9DF4"/>
<path d="M197.983 200.762H183.713C183.006 200.762 182.431 200.187 182.431 199.479V146.548C182.431 145.841 183.006 145.265 183.713 145.265H197.983C198.69 145.265 199.266 145.841 199.266 146.548V199.479C199.266 200.187 198.69 200.762 197.983 200.762Z" fill="#AEC3FF"/>
<path d="M185.428 149.496H195.93C196.495 149.496 196.953 149.038 196.953 148.473V148.294C196.953 147.729 196.495 147.271 195.93 147.271H185.428C184.863 147.271 184.405 147.729 184.405 148.294V148.473C184.405 149.038 184.863 149.496 185.428 149.496Z" fill="#F99746"/>
<path d="M55.4234 351.159H33.6234C31.7068 351.159 30.1487 349.603 30.1487 347.684L30.1487 255.896C30.1487 253.979 31.7043 252.423 33.6209 252.423H55.4234C57.34 252.423 58.8981 253.979 58.8981 255.899L58.8981 347.686C58.8981 349.603 57.3426 351.162 55.4234 351.162V351.159Z" fill="#8C9DF4"/>
<path d="M44.5221 336.604C48.243 336.604 51.2594 333.587 51.2594 329.865C51.2594 326.143 48.243 323.125 44.5221 323.125C40.8013 323.125 37.7849 326.143 37.7849 329.865C37.7849 333.587 40.8013 336.604 44.5221 336.604Z" fill="#505ABA"/>
<path d="M44.5221 337.357C40.4136 337.357 37.0703 334.013 37.0703 329.903C37.0703 325.793 40.4136 322.448 44.5221 322.448C48.6306 322.448 51.974 325.793 51.974 329.903C51.974 334.013 48.6306 337.357 44.5221 337.357ZM44.5221 323.875C41.199 323.875 38.497 326.578 38.497 329.903C38.497 333.227 41.199 335.93 44.5221 335.93C47.8453 335.93 50.5472 333.227 50.5472 329.903C50.5472 326.578 47.8453 323.875 44.5221 323.875Z" fill="white"/>
<path d="M51.6533 312.44H37.3834C36.6764 312.44 36.1006 311.864 36.1006 311.157L36.1006 258.225C36.1006 257.518 36.6764 256.942 37.3834 256.942H51.6533C52.3604 256.942 52.9361 257.518 52.9361 258.225L52.9361 311.159C52.9361 311.866 52.3604 312.442 51.6533 312.442V312.44Z" fill="#AEC3FF"/>
<path d="M49.5978 261.173H39.093C38.5299 261.173 38.0703 260.716 38.0703 260.15V259.968C38.0703 259.405 38.5273 258.945 39.093 258.945H49.5978C50.1609 258.945 50.6205 259.403 50.6205 259.968V260.15C50.6205 260.714 50.1634 261.173 49.5978 261.173Z" fill="#F99746"/>
<path d="M46.6686 294.419V305.859C46.6686 306.168 46.9186 306.415 47.2241 306.415C47.5322 306.415 47.7797 306.165 47.7797 305.859V294.419C47.7797 294.111 47.5297 293.863 47.2241 293.863C46.9161 293.863 46.6686 294.113 46.6686 294.419Z" fill="#505ABA"/>
<path d="M46.6686 278.681V290.122C46.6686 290.43 46.9186 290.678 47.2241 290.678C47.5322 290.678 47.7797 290.428 47.7797 290.122V278.681C47.7797 278.373 47.5297 278.126 47.2241 278.126C46.9161 278.126 46.6686 278.376 46.6686 278.681Z" fill="#505ABA"/>
<path d="M40.2899 294.419V305.859C40.2899 306.168 40.5399 306.415 40.8455 306.415C41.1536 306.415 41.401 306.165 41.401 305.859V294.419C41.401 294.111 41.151 293.863 40.8455 293.863C40.5374 293.863 40.2899 294.113 40.2899 294.419Z" fill="#505ABA"/>
<path d="M40.2899 278.681V290.122C40.2899 290.43 40.5399 290.678 40.8455 290.678C41.1536 290.678 41.401 290.428 41.401 290.122V278.681C41.401 278.373 41.151 278.126 40.8455 278.126C40.5374 278.126 40.2899 278.376 40.2899 278.681Z" fill="#505ABA"/>
<path d="M43.6081 291.191V305.859C43.6081 306.168 43.8581 306.415 44.1636 306.415C44.4717 306.415 44.7191 306.165 44.7191 305.859V291.191C44.7191 290.882 44.4691 290.635 44.1636 290.635C43.8555 290.635 43.6081 290.885 43.6081 291.191Z" fill="#505ABA"/>
<path d="M43.6081 271.404V286.073C43.6081 286.381 43.8581 286.628 44.1636 286.628C44.4717 286.628 44.7191 286.378 44.7191 286.073V271.404C44.7191 271.096 44.4691 270.848 44.1636 270.848C43.8555 270.848 43.6081 271.098 43.6081 271.404Z" fill="#505ABA"/>
<path d="M91.2761 351.159H69.4736C67.557 351.159 65.9989 349.603 65.9989 347.684L65.9989 255.896C65.9989 253.979 67.5544 252.423 69.4711 252.423H91.2736C93.1902 252.423 94.7483 253.979 94.7483 255.899L94.7483 347.686C94.7483 349.603 93.1927 351.162 91.2736 351.162L91.2761 351.159Z" fill="#8C9DF4"/>
<path d="M87.1121 329.865C87.1121 326.141 84.0945 323.125 80.3749 323.125C76.6552 323.125 73.6376 326.144 73.6376 329.865C73.6376 333.586 76.6552 336.604 80.3749 336.604C84.0945 336.604 87.1121 333.586 87.1121 329.865Z" fill="#505ABA"/>
<path d="M80.3748 337.357C76.2663 337.357 72.923 334.013 72.923 329.903C72.923 325.793 76.2663 322.448 80.3748 322.448C84.4833 322.448 87.8267 325.793 87.8267 329.903C87.8267 334.013 84.4833 337.357 80.3748 337.357ZM80.3748 323.875C77.0517 323.875 74.3497 326.578 74.3497 329.903C74.3497 333.227 77.0517 335.93 80.3748 335.93C83.698 335.93 86.3999 333.227 86.3999 329.903C86.3999 326.578 83.698 323.875 80.3748 323.875Z" fill="white"/>
<path d="M73.2361 312.44H87.506C88.2145 312.44 88.7888 311.865 88.7888 311.157V258.223C88.7888 257.514 88.2145 256.94 87.506 256.94H73.2361C72.5276 256.94 71.9533 257.514 71.9533 258.223V311.157C71.9533 311.865 72.5276 312.44 73.2361 312.44Z" fill="#AEC3FF"/>
<path d="M85.4505 261.173H74.9457C74.3825 261.173 73.923 260.716 73.923 260.15V259.968C73.923 259.405 74.38 258.945 74.9457 258.945H85.4505C86.0136 258.945 86.4732 259.403 86.4732 259.968V260.15C86.4732 260.714 86.0161 261.173 85.4505 261.173Z" fill="#F99746"/>
<path d="M82.5212 294.419V305.859C82.5212 306.168 82.7712 306.415 83.0768 306.415C83.3849 306.415 83.6323 306.165 83.6323 305.859V294.419C83.6323 294.111 83.3823 293.863 83.0768 293.863C82.7687 293.863 82.5212 294.113 82.5212 294.419Z" fill="#505ABA"/>
<path d="M82.5212 278.681V290.122C82.5212 290.43 82.7712 290.678 83.0768 290.678C83.3849 290.678 83.6323 290.428 83.6323 290.122V278.681C83.6323 278.373 83.3823 278.126 83.0768 278.126C82.7687 278.126 82.5212 278.376 82.5212 278.681Z" fill="#505ABA"/>
<path d="M76.1426 294.419V305.859C76.1426 306.168 76.3926 306.415 76.6981 306.415C77.0062 306.415 77.2537 306.165 77.2537 305.859V294.419C77.2537 294.111 77.0037 293.863 76.6981 293.863C76.3901 293.863 76.1426 294.113 76.1426 294.419Z" fill="#505ABA"/>
<path d="M76.1426 278.681V290.122C76.1426 290.43 76.3926 290.678 76.6981 290.678C77.0062 290.678 77.2537 290.428 77.2537 290.122V278.681C77.2537 278.373 77.0037 278.126 76.6981 278.126C76.3901 278.126 76.1426 278.376 76.1426 278.681Z" fill="#505ABA"/>
<path d="M79.4607 291.191V305.859C79.4607 306.168 79.7107 306.415 80.0163 306.415C80.3243 306.415 80.5718 306.165 80.5718 305.859V291.191C80.5718 290.882 80.3218 290.635 80.0163 290.635C79.7082 290.635 79.4607 290.885 79.4607 291.191Z" fill="#505ABA"/>
<path d="M79.4607 271.404V286.073C79.4607 286.381 79.7107 286.628 80.0163 286.628C80.3243 286.628 80.5718 286.378 80.5718 286.073V271.404C80.5718 271.096 80.3218 270.848 80.0163 270.848C79.7082 270.848 79.4607 271.098 79.4607 271.404Z" fill="#505ABA"/>
<path d="M127.813 351.159H106.011C104.094 351.159 102.536 349.603 102.536 347.683L102.536 255.896C102.536 253.979 104.092 252.423 106.008 252.423H127.811C129.727 252.423 131.285 253.979 131.285 255.899V347.686C131.285 349.603 129.73 351.162 127.811 351.162L127.813 351.159Z" fill="#8C9DF4"/>
<path d="M165.441 351.159H143.639C141.722 351.159 140.166 349.603 140.166 347.686V255.899C140.166 253.982 141.722 252.426 143.639 252.426H165.441C167.358 252.426 168.916 253.982 168.916 255.902V347.689C168.916 349.606 167.36 351.165 165.441 351.165V351.159Z" fill="#8C9DF4"/>
<path d="M201.753 351.159H179.953C178.037 351.159 176.479 349.603 176.479 347.683V255.896C176.479 253.979 178.034 252.423 179.951 252.423H201.753C203.67 252.423 205.228 253.979 205.228 255.899V347.686C205.228 349.603 203.673 351.162 201.753 351.162V351.159Z" fill="#8C9DF4"/>
<path d="M22.457 408.999C20.5479 408.999 19 407.45 19 405.541V130.525C19 128.615 20.5479 127.067 22.457 127.067C24.366 127.067 25.914 128.615 25.914 130.525V405.541C25.914 407.45 24.366 408.999 22.457 408.999Z" fill="#BDD1F9"/>
<path d="M19.0025 242.271L218.705 242.271V239.495L19.0025 239.495V242.271Z" fill="#BDD1F9"/>
<path d="M19.0025 353.893H231.104V351.116H19.0025V353.893Z" fill="#BDD1F9"/>
</g>
<path d="M219.3 221.721L204.538 397.31C204.538 397.31 202.99 407.953 210.905 407.974C223.916 408.003 275.676 407.974 275.676 407.974C275.676 407.974 265.882 405.759 266.001 400.774C266.142 394.898 283.255 220.062 283.255 220.062L219.303 221.724L219.3 221.721Z" fill="#798EE8"/>
<path d="M280.548 404.782C277.988 404.791 227.881 404.874 215.21 404.71C209.689 404.641 208.718 399.796 208.673 396.664C208.649 395.161 208.84 394.049 208.84 394.049L209.226 389.485L210.206 377.853L211.069 367.578L212.18 354.373L213.116 343.228L223.605 218.46L287.561 216.801C287.561 216.801 280.354 289.969 275.254 343.228C274.684 349.161 274.143 354.851 273.644 360.162C273.482 361.857 273.327 363.516 273.175 365.13C272.703 370.169 272.269 374.795 271.893 378.881C271.696 381.036 271.511 383.035 271.346 384.867C270.695 392.049 270.315 396.637 270.31 397.51C270.31 398.018 270.351 398.49 270.435 398.933C271.484 404.528 279.595 404.782 280.554 404.782H280.548Z" fill="#AEC3FF"/>
<path d="M63.9835 126.098L99.9437 270.584L104.867 290.372L121.614 357.67H432.758L371.029 126.098H63.9835Z" fill="#AEC3FF"/>
<path d="M63.9835 126.098L59 127.76L114.99 362.697L121.614 357.67L63.9835 126.098Z" fill="#798EE8"/>
<path d="M114.99 362.697H424.219L432.758 357.67H121.614L114.99 362.697Z" fill="#849DEF"/>
<path d="M223.582 407.962H290.533V404.779H223.582V407.962Z" fill="#AEC3FF"/>
<path d="M273.512 362.697L273.169 365.13L210.203 377.853L211.066 367.578L211.478 362.697H273.512Z" fill="#8C9DF4"/>
<g opacity="0.5">
<path d="M280.548 404.782C277.988 404.791 227.881 404.874 215.21 404.71C209.689 404.641 208.718 399.796 208.673 396.664L271.34 384.87C270.689 392.052 270.31 396.64 270.304 397.513C270.304 398.021 270.345 398.493 270.429 398.936C271.478 404.531 279.589 404.785 280.548 404.785V404.782Z" fill="#8C9DF4"/>
</g>
<path d="M63.9835 126.098H371.029L420.849 312.208H110.299L63.9835 126.098Z" fill="#8C9DF4"/>
<path d="M406.367 304.144H118.88L108.605 263.204L104.631 247.364L103.009 240.905L92.4505 198.833L91.9038 196.642L86.3227 174.403L83.825 164.453L81.6947 155.962L79.9559 149.04L76.7022 136.069H360.046L363.622 149.04L365.528 155.962L367.868 164.453L370.607 174.403L388.677 239.958V239.961L390.204 245.514L390.918 248.093L403.389 293.349L406.367 304.144Z" fill="#505ABA"/>
<path d="M140.801 185.548L138.148 181.632C135.303 177.433 130.478 174.684 125.952 174.684H96.7857L101.847 193.196L121.927 266.653C122.827 269.947 125.817 272.23 129.229 272.23H234.176C239.172 272.23 242.796 267.478 241.478 262.661L222.488 193.196H154.216C149.232 193.196 143.923 190.171 140.795 185.548H140.801Z" fill="#F99746"/>
<g opacity="0.5">
<path d="M314.435 180.27L305.789 169.22L305.379 168.7L304.892 168.61L264.982 161.264L251.553 234.288L303.291 243.81L314.779 181.342L314.874 180.831L314.435 180.27Z" fill="#8C9DF4"/>
</g>
<path d="M288.475 157.612L288.496 158.132L290.958 221.601L238.389 223.642L235.512 149.447L276.061 147.874L276.557 147.854L277.068 148.275L287.925 157.163L288.475 157.612Z" fill="#8C9DF4"/>
<path d="M253.895 175.786L166.167 180.676C165.99 180.685 165.853 180.837 165.865 181.014L172.267 295.931C172.276 296.108 172.429 296.245 172.605 296.233L260.208 291.35C260.384 291.341 260.522 291.188 260.51 291.012L254.101 175.969C254.095 175.861 254.003 175.778 253.895 175.784V175.786Z" fill="#233862"/>
<path d="M253.734 287.724L179.426 292.39C177.197 292.53 175.276 290.836 175.136 288.606L168.799 187.601C168.658 185.371 170.352 183.45 172.581 183.309L246.889 178.644C249.118 178.503 251.039 180.198 251.179 182.428L257.516 283.432C257.657 285.662 255.963 287.584 253.734 287.724Z" fill="#EBF3FA"/>
<path d="M224.409 195.306L177.663 198.241C177.639 198.241 177.618 198.223 177.618 198.199L177.544 197.031C177.544 197.007 177.559 196.986 177.583 196.986L224.329 194.051C224.352 194.051 224.373 194.069 224.373 194.093L224.448 195.261C224.448 195.285 224.43 195.306 224.406 195.306H224.409Z" fill="#BDD1F9"/>
<path d="M225.04 205.345L178.294 208.28C178.27 208.28 178.249 208.262 178.249 208.241L178.174 207.073C178.174 207.049 178.192 207.028 178.216 207.028L224.962 204.093C224.986 204.093 225.007 204.111 225.007 204.135L225.081 205.303C225.081 205.327 225.063 205.348 225.04 205.348V205.345Z" fill="#BDD1F9"/>
<path d="M242.584 199.203L177.977 203.259C177.953 203.259 177.932 203.241 177.932 203.217L177.858 202.049C177.858 202.025 177.875 202.004 177.899 202.004L242.503 197.948C242.527 197.948 242.548 197.966 242.548 197.987L242.622 199.156C242.622 199.179 242.604 199.2 242.581 199.2L242.584 199.203Z" fill="#BDD1F9"/>
<path d="M213.74 237.262L181.936 239.259C181.915 239.259 181.9 239.244 181.897 239.226L181.822 238.042C181.822 238.021 181.837 238.006 181.855 238.003L213.659 236.007C213.68 236.007 213.695 236.022 213.698 236.04L213.773 237.223C213.773 237.244 213.758 237.259 213.74 237.262Z" fill="#BDD1F9"/>
<path d="M225.583 231.479L181.622 234.238C181.601 234.238 181.586 234.223 181.583 234.205L181.509 233.021C181.509 233 181.523 232.985 181.541 232.982L225.503 230.224C225.524 230.224 225.539 230.239 225.542 230.257L225.616 231.44C225.616 231.461 225.601 231.476 225.583 231.479Z" fill="#BDD1F9"/>
<path d="M228.822 241.925L182.076 244.86C182.052 244.86 182.031 244.842 182.031 244.821L181.957 243.652C181.957 243.628 181.975 243.607 181.998 243.607L228.744 240.672C228.768 240.672 228.789 240.69 228.789 240.714L228.864 241.883C228.864 241.907 228.846 241.928 228.822 241.928V241.925Z" fill="#BDD1F9"/>
<path d="M234.367 246.617L182.39 249.881C182.369 249.881 182.351 249.866 182.348 249.845L182.273 248.667C182.273 248.646 182.288 248.628 182.309 248.625L234.287 245.362C234.308 245.362 234.325 245.377 234.328 245.398L234.403 246.575C234.403 246.596 234.388 246.614 234.367 246.617Z" fill="#BDD1F9"/>
<path d="M216.677 256.575L183.223 258.677C183.203 258.677 183.188 258.662 183.185 258.641L183.11 257.46C183.11 257.439 183.125 257.421 183.146 257.421L216.599 255.32C216.62 255.32 216.638 255.335 216.638 255.356L216.713 256.537C216.713 256.558 216.698 256.575 216.68 256.575H216.677Z" fill="#BDD1F9"/>
<path d="M217.307 266.618L183.854 268.719C183.833 268.719 183.815 268.704 183.815 268.686L183.74 267.505C183.74 267.484 183.755 267.466 183.773 267.466L217.227 265.365C217.248 265.365 217.266 265.38 217.266 265.401L217.34 266.582C217.34 266.603 217.325 266.618 217.307 266.621V266.618Z" fill="#BDD1F9"/>
<path d="M229.778 260.796L183.54 263.698C183.519 263.698 183.501 263.683 183.501 263.662L183.427 262.481C183.427 262.46 183.442 262.445 183.462 262.442L229.7 259.54C229.721 259.54 229.736 259.555 229.739 259.573L229.814 260.754C229.814 260.775 229.799 260.793 229.781 260.793L229.778 260.796Z" fill="#BDD1F9"/>
<path d="M229.996 170.78L189.085 173.061C186.387 173.21 184.314 175.365 184.454 177.87L184.798 184.053C184.831 184.633 185.363 185.073 185.984 185.04L234.406 182.341C235.031 182.305 235.509 181.809 235.476 181.229L235.132 175.045C234.992 172.541 232.694 170.631 229.996 170.78Z" fill="#FF8C64"/>
<path d="M489.296 188.136C489.296 188.136 466.832 207.644 470.719 211.601C474.606 215.558 494.184 188.058 494.184 188.058C494.184 188.058 523.598 194.684 531.316 202.114C531.316 202.114 500.381 214.033 505.122 216.912C509.864 219.79 542.627 208.884 542.627 208.884C542.627 208.884 567.67 222.139 560.924 237.863C554.181 253.587 543.392 255.571 539.517 253.82C535.642 252.065 515.095 235.349 513.5 238.473C511.905 241.596 522.508 257.021 532.248 260.787C532.248 260.787 506.751 275.258 496.282 265.207C485.813 255.156 487.859 245.368 481.277 239.274C474.695 233.179 468.078 231.01 470.088 235.675C472.099 240.34 484.967 248.47 486.817 257.771C488.666 267.072 490.901 273.671 478.678 267.496C466.455 261.325 448.648 245.024 451.281 233.942C451.394 233.457 451.505 232.997 451.609 232.555C451.308 233.404 451.281 233.942 451.281 233.942C448.445 233.535 441.263 236.628 435.966 239.172C435.12 239.65 433.892 240.263 432.168 241.052C431.421 241.434 430.812 241.748 430.39 241.972C419.339 248.314 408.619 265.888 408.619 265.888L405.894 264.711C413.698 244.62 432.933 238.275 432.933 238.275C446.922 232.244 453.913 222.859 453.913 222.859C453.913 222.859 442.661 195.512 464.268 187.616C464.268 187.616 479.291 184.158 489.302 188.139L489.296 188.136Z" fill="#D2E2F9"/>
<path d="M446.496 348.913H465.818V286.561H446.496V348.913Z" fill="#35488B"/>
<path d="M399.902 348.913H446.496V286.561H399.902V348.913Z" fill="#2C3A64"/>
<path d="M459.382 294.35C459.382 292.569 457.939 291.125 456.158 291.125C454.378 291.125 452.935 292.569 452.935 294.35C452.935 296.132 454.378 297.575 456.158 297.575C457.939 297.575 459.382 296.132 459.382 294.35Z" fill="#DDE7FE"/>
<path d="M458.438 294.35C458.438 293.089 457.416 292.07 456.158 292.07C454.9 292.07 453.879 293.092 453.879 294.35C453.879 295.609 454.9 296.631 456.158 296.631C457.416 296.631 458.438 295.609 458.438 294.35Z" fill="#6C7AFF"/>
<path d="M451.542 318.544H460.631V302.121H451.542V318.544Z" fill="#8FADEF"/>
<path d="M410.452 348.913H429.774V286.561H410.452V348.913Z" fill="#35488B"/>
<path d="M363.862 348.913H410.455V286.561H363.862V348.913Z" fill="#2C3A64"/>
<path d="M423.338 294.35C423.338 292.569 421.895 291.125 420.114 291.125C418.334 291.125 416.891 292.569 416.891 294.35C416.891 296.132 418.334 297.575 420.114 297.575C421.895 297.575 423.338 296.132 423.338 294.35Z" fill="#DDE7FE"/>
<path d="M422.394 294.35C422.394 293.089 421.372 292.07 420.114 292.07C418.857 292.07 417.835 293.092 417.835 294.35C417.835 295.609 418.857 296.631 420.114 296.631C421.372 296.631 422.394 295.609 422.394 294.35Z" fill="#6C7AFF"/>
<path d="M415.498 318.544H424.587V302.121H415.498V318.544Z" fill="#8FADEF"/>
<path d="M377.495 348.913H396.816V286.561H377.495V348.913Z" fill="#35488B"/>
<path d="M330.901 348.913H377.495V286.561H330.901V348.913Z" fill="#2C3A64"/>
<path d="M390.381 294.35C390.381 292.569 388.938 291.125 387.157 291.125C385.376 291.125 383.933 292.569 383.933 294.35C383.933 296.132 385.376 297.575 387.157 297.575C388.938 297.575 390.381 296.132 390.381 294.35Z" fill="#DDE7FE"/>
<path d="M389.437 294.35C389.437 293.089 388.415 292.07 387.157 292.07C385.899 292.07 384.877 293.092 384.877 294.35C384.877 295.609 385.899 296.631 387.157 296.631C388.415 296.631 389.437 295.609 389.437 294.35Z" fill="#6C7AFF"/>
<path d="M382.541 318.544H391.63V302.121H382.541V318.544Z" fill="#8FADEF"/>
<path d="M328 407.848H437.162V327.167H328V407.848Z" fill="#F77D48"/>
<path d="M386.497 407.848H473.048V327.167H386.497V407.848Z" fill="#FF8C64"/>
<path d="M423.5 340.341H445.916C447.311 340.341 448.441 339.21 448.441 337.816V337.49C448.441 336.095 447.311 334.964 445.916 334.964H423.5C422.105 334.964 420.975 336.095 420.975 337.49V337.816C420.975 339.21 422.105 340.341 423.5 340.341Z" fill="#2C3A64"/>
<path d="M156.382 226.081C156.382 226.081 157.132 217.907 148.002 217.907C148.002 217.907 150.768 218.657 152.199 220.16C152.199 220.16 146.376 216.741 140.039 221.996C133.702 227.25 137.64 240.43 135.713 242.932C133.786 245.433 126.281 245.935 127.198 254.026C128.115 262.117 151.016 272.251 149.546 278.946C149.546 278.946 158.521 265.748 152.104 259.726C152.104 259.726 155.232 262.673 155.551 266.175C155.551 266.175 156.4 259.334 152.05 257.146C148.199 255.21 145.044 248.129 145.378 246.865C145.713 245.601 156.385 226.081 156.385 226.081H156.382Z" fill="#2C3A64"/>
<path d="M147.392 265.329C147.392 265.329 154.213 293.558 160.908 299.201C164.933 302.593 176.902 310.376 176.902 310.376L171.924 312.184C171.924 312.184 155.324 306.577 151.611 302.208C147.894 297.838 137.721 275.937 137.721 275.937L147.395 265.329H147.392Z" fill="#FFB27D"/>
<path d="M186.776 320.696L185.172 316.724C183.454 312.465 179.322 309.68 174.733 309.68H145.16V408.586H267.486V328.452H198.264C193.212 328.452 188.667 325.385 186.773 320.699L186.776 320.696Z" fill="#F99746"/>
<path d="M83.2815 314.925C83.3413 315.032 83.404 315.143 83.4697 315.257C84.9636 317.851 88.3875 324.211 92.158 331.172C93.9417 334.474 95.809 337.911 97.5807 341.145C100.634 346.725 103.413 351.699 105.032 354.323C106.681 356.995 107.894 358.872 108.384 359.622H108.387C108.534 359.858 108.567 360.13 108.549 360.399C108.378 362.754 108.426 365.094 108.656 367.398C110.93 390.038 126.194 402.173 126.194 402.173L130.732 402.842C130.732 402.842 124.312 379.043 122.418 365.587C122.098 363.307 121.958 361.46 122.071 360.252C122.406 356.747 121.784 351.6 120.607 345.691C118.513 335.192 114.668 322.304 111.327 311.987C111.115 311.329 104.733 288.235 104.733 288.235C99.3764 292.919 79.8426 294.849 79.8426 294.849C79.8426 294.849 76.5293 302.907 83.2815 314.919V314.925Z" fill="#2F539B"/>
<path d="M140.257 408.583H121.318C121.318 408.583 120.864 405.696 121.853 403.505C122.8 401.404 124.151 401.336 122.026 398.042C123.23 399.282 127.099 399.793 129.836 399.426C130.171 399.97 131.999 403.619 133.12 404.426C134.357 405.317 139.875 405 140.257 408.583Z" fill="#233862"/>
<path d="M83.2815 314.925C83.3412 315.032 83.404 315.143 83.4697 315.257C84.9636 317.851 93.0364 332.768 96.8069 339.726C92.4359 321.739 95.4774 303.753 95.4774 303.753L83.2845 314.925H83.2815Z" fill="#233862"/>
<path d="M153.798 224.931C153.92 224.434 142.979 229.877 142.426 230.493C137.297 236.186 138.758 243.616 141.694 243.688C143.577 243.733 143.212 246.865 143.212 246.865L164.189 237.988C164.189 237.988 161.661 223.254 153.798 224.931Z" fill="#2C3A64"/>
<path d="M146.75 261.089C146.75 261.089 149.941 267.466 149.543 272.646C149.543 272.646 145.695 278.725 135.71 280.264C135.71 280.264 144.294 261.086 146.75 261.091V261.089Z" fill="#6385DB"/>
<path d="M98.0468 296.263L98.1096 292.718C91.0526 293.609 73.7746 284.281 73.7746 284.281C73.7746 284.281 66.3919 289.195 65.3821 303.224C64.8891 310.071 61.7669 339.029 61.4233 347.676C61.2979 350.811 61.256 353.046 61.2411 353.94C61.2411 353.943 61.2411 353.946 61.2411 353.949C61.2381 354.221 61.1096 354.463 60.9423 354.678C59.4813 356.534 58.2145 358.501 57.118 360.542C46.3503 380.585 51.9792 407.821 51.9792 407.821L54.4799 407.185C54.4799 407.185 63.5865 378.953 69.538 366.738C70.5478 364.667 71.4651 363.056 72.2329 362.123C74.4707 359.403 76.831 354.789 79.1555 349.23C83.5504 338.724 98.0438 296.26 98.0438 296.26L98.0468 296.263Z" fill="#2F539B"/>
<path d="M67.0432 408.583H48.1041C48.1041 408.583 47.6499 405.696 48.6389 403.505C49.586 401.404 51.0709 400.448 50.7154 397.905C51.9194 399.145 53.8794 400.532 56.6191 400.164C56.9537 400.708 58.7852 403.619 59.9056 404.426C61.1425 405.317 66.6608 405 67.0432 408.583Z" fill="#233862"/>
<path d="M134.431 284.332C131.889 284.765 134.847 286.789 131.348 287.168C126.367 287.712 121.226 288.083 118.534 289.159C117.551 289.55 116.893 290.035 116.69 290.653C115.522 294.165 108.127 300.199 108.127 300.199C75.1489 298.699 73.0247 283.994 73.0247 283.994C94.4287 263.199 112.636 251.865 127.685 250.463C131.348 250.123 136.284 250.58 138.602 251.611C143.867 253.954 146.75 261.088 146.75 261.088C146.75 261.088 144.1 282.682 134.431 284.329V284.332Z" fill="#739AF0"/>
<path d="M131.348 287.168C126.367 287.712 121.226 288.083 118.534 289.159C117.434 272.706 125.193 260.329 125.193 260.329C125.193 260.329 130.257 280.943 131.348 287.168Z" fill="#6385DB"/>
<path d="M135.644 257.547C135.644 257.547 123.12 256.862 120.897 264.729C118.671 272.595 125.071 303.989 126.451 307.229C128.964 313.129 141.623 330.699 141.623 330.699L145.68 328.595C145.68 328.595 137.53 302.874 135.71 300.328C132.854 296.332 139.394 260.969 135.644 257.547Z" fill="#FFB27D"/>
<path d="M145.68 328.592C145.68 328.592 146.726 329.504 147.568 330.532C148.411 331.56 147.67 331.934 150.09 336.596C150.09 336.596 149.967 337.245 149.442 337.125C148.916 337.009 147.09 335.2 146.155 335.329C146.155 335.329 145.486 335.879 145.414 337.708C145.345 339.418 145.339 343.198 145.044 343.91C144.745 344.621 142.573 340.933 141.503 338.267C140.565 335.93 141.479 328.045 141.479 328.045L145.683 328.592H145.68Z" fill="#FFB27D"/>
<path d="M118.426 275.243C118.459 275.429 130.278 277.419 137.67 273.665C137.67 273.665 143.846 254.313 135.02 255.24C126.194 256.166 120.969 258.946 120.748 263.172C120.523 267.398 118.426 275.243 118.426 275.243Z" fill="#739AF0"/>
<path d="M138.318 252.968C138.447 254.534 138.647 256.369 140.694 258.479C142.262 260.096 144.533 261.357 146.125 259.764C146.938 258.952 148.034 257.741 148.59 256.785C149.967 254.418 151.608 251.997 151.608 251.997L144.521 245.783L144.097 245.412C142.241 248.655 140.416 250.215 138.817 251.405C138.333 251.767 138.268 252.364 138.318 252.962V252.968Z" fill="#FFB27D"/>
<path d="M151.608 252.003C151.608 252.003 149.97 254.418 148.593 256.788C144.186 254.071 144.183 248.613 144.521 245.789L151.608 252.003Z" fill="#ED985F"/>
<path d="M151.805 255.114C151.805 255.114 141.109 249.16 144.918 242.552C148.728 235.944 149.914 230.726 156.902 234.249C163.893 237.773 163.756 241.052 163.018 243.565C162.283 246.079 154.685 256.492 151.802 255.111L151.805 255.114Z" fill="#FFB27D"/>
<path d="M164.828 239.713C164.338 236.778 162.851 236.5 161.811 236.694C157.861 230.158 151.408 232.71 151.408 232.71C147.96 237.038 142.976 237.776 142.976 237.776C142.976 237.776 144.216 240.087 149.331 241.518C150.894 241.955 152.665 241.691 154.377 241.115C150.828 243.093 147.117 243.852 147.117 243.852C153.857 244.471 160.269 238.305 160.935 237.645C161.246 238.601 161.793 240.601 161.464 242.062C161.019 244.05 159.256 247.648 160.335 248.114C160.335 248.114 165.563 244.112 164.828 239.713Z" fill="#2C3A64"/>
<path d="M178.859 310.391C178.859 310.391 175.874 312.629 178.124 314.094C180.373 315.558 184.389 315.953 184.407 314.994C184.464 311.769 182.853 309.476 178.859 310.391Z" fill="#FFB27D"/>
<path d="M641.709 407.986H-54.7706C-55.226 407.986 -55.5952 408.355 -55.5952 408.81V409.172C-55.5952 409.628 -55.226 409.997 -54.7706 409.997H641.709C642.165 409.997 642.534 409.628 642.534 409.172V408.81C642.534 408.355 642.165 407.986 641.709 407.986Z" fill="#233862"/>
<path d="M212.266 163.512C211.809 164.035 211.749 164.62 211.976 165.248C211.976 165.248 211.976 165.254 211.979 165.257C212.397 166.414 213.781 167.708 215.385 168.999C215.591 169.166 215.774 169.316 215.932 169.456C215.974 169.492 216.016 169.528 216.054 169.567C216.087 169.597 216.117 169.624 216.15 169.654C217.647 171.034 217.082 171.351 219.774 174.155C222.843 177.35 224.955 177.406 225.555 177.116C226.063 176.868 225.033 175.174 223.888 173.27C223.831 173.177 223.778 173.085 223.721 172.992C223.569 172.738 223.416 172.481 223.267 172.227C221.925 169.934 222.272 168.862 222.592 165.451C222.851 162.681 226.906 149.973 226.906 149.973L221.026 148.956C221.026 148.956 219.251 159.076 217.3 160.633C216.258 161.464 215.089 161.473 214.086 162.089C214.014 162.131 213.945 162.176 213.876 162.221C213.306 162.597 212.726 162.989 212.266 163.515V163.512Z" fill="#FFB27D"/>
<path d="M212.266 163.512C211.809 164.035 211.749 164.62 211.976 165.248C211.976 165.248 211.976 165.254 211.979 165.257C212.49 166.414 213.838 167.699 215.391 168.987C215.594 169.154 215.774 169.31 215.932 169.456C215.974 169.492 216.016 169.528 216.054 169.567C216.087 169.597 216.117 169.624 216.15 169.653C217.647 171.034 217.082 171.351 219.774 174.155C222.843 177.35 224.955 177.406 225.555 177.116C226.063 176.868 225.033 175.174 223.888 173.27C223.291 173.052 220.518 171.922 218.421 169.235C216.64 166.961 215.433 164.065 214.223 162.286C214.088 162.262 214.011 162.247 213.876 162.22C213.306 162.597 212.726 162.989 212.266 163.515V163.512Z" fill="#233862"/>
<path d="M259.678 159.853C260.04 161.671 262.627 161.369 265.519 160.66C268.408 159.955 267.724 160.795 271.835 160.341C275.949 159.886 277.195 158.353 277.321 157.74C277.434 157.196 275.399 157.005 273.221 156.754C272.947 156.724 272.672 156.688 272.397 156.655C269.935 156.345 268.133 154.755 265.899 153.451C263.78 152.214 260.622 147.178 260.622 147.178L254.981 147.623C254.981 147.623 257.939 152.122 259.084 154.079C259.756 155.23 259.72 156.751 259.636 157.926C259.591 158.565 259.55 159.217 259.678 159.856V159.853Z" fill="#FFB27D"/>
<path d="M265.519 160.663C268.408 159.958 267.724 160.798 271.835 160.344C275.949 159.889 277.195 158.356 277.321 157.743C277.434 157.199 275.399 157.008 273.221 156.757L273.201 156.799C273.201 156.799 270.733 158.547 267.309 158.628C264.518 158.694 261.56 157.896 259.633 157.926C259.588 158.565 259.547 159.217 259.675 159.856C260.037 161.674 262.624 161.372 265.516 160.663H265.519Z" fill="#233862"/>
<path d="M238.071 123.761L232.792 137.955L225.899 156.488C225.899 156.488 224.032 156.667 222.242 156.153C220.596 155.675 218.705 154.429 218.705 154.429C218.705 154.429 220.623 134.527 224.193 123.104C225.107 120.172 226.132 117.799 227.264 116.466C232.795 109.932 238.068 123.761 238.068 123.761H238.071Z" fill="#ED7D2B"/>
<path d="M232.717 101.214C229.714 100.246 221.883 101.196 213.386 102.729C211.038 103.154 208.672 102.081 207.438 100.039L186.058 98.3628C186.058 98.3628 178.998 114.012 182.855 123.985C183.423 125.45 184.668 126.367 186.589 126.397C186.589 126.397 199.508 126.418 203.64 126.421C214.274 126.424 226.147 119.117 227.683 118.809C230.195 118.307 231.199 123.337 233.712 128.618C236.225 133.899 257.33 152.008 257.33 152.008C257.33 152.008 260.574 152.041 261.916 151.539C263.356 150.998 263.885 150.295 263.885 150.295C263.885 150.295 240.506 103.728 232.717 101.208V101.214Z" fill="#F99746"/>
<path d="M205.185 37.2309C203.599 36.2834 202.051 36.14 201.101 36.1669C200.441 36.1848 199.78 36.143 199.129 36.0473C190.969 34.8488 186.052 46.7022 185.762 50.2857C185.23 56.864 181.752 57.8652 176.855 61.9837C167.035 70.2386 169.909 79.8385 175.278 83.4071C178.499 85.547 184.175 83.4071 184.175 83.4071C184.256 83.4639 199.706 74.7756 207.321 70.5853C218.737 68.9654 209.771 39.9626 205.188 37.2309H205.185Z" fill="#233862"/>
<path d="M200.94 67.0138C200.972 67.0348 197.193 68.3259 194.665 67.2051C192.287 66.1531 190.488 62.2408 190.524 62.2378C191.606 62.187 192.795 61.2425 193.709 55.0349L194.169 55.1993L201.914 57.9908C201.914 57.9908 201.352 60.4774 200.987 62.8415C200.68 64.8291 200.515 66.7329 200.94 67.0138Z" fill="#FFB27D"/>
<path d="M201.913 57.9908C201.913 57.9908 201.603 59.3327 201.152 61.8373C196.703 61.0363 194.797 57.6082 194.169 55.2023L201.913 57.9938V57.9908Z" fill="#ED975D"/>
<path d="M203.067 60.4565C203.067 60.4565 192.472 59.0309 193.461 52.4437C194.45 45.8564 193.751 41.2388 200.557 41.8695C207.363 42.5031 208.295 45.2109 208.501 47.4913C208.705 49.7687 205.848 60.6567 203.067 60.4565Z" fill="#FFB27D"/>
<path d="M208.113 43.8808C208.113 43.8808 201.328 49.7268 196.715 50.196C192.102 50.6652 190.354 49.1828 190.354 49.1828C190.354 49.1828 193.073 46.9263 194.71 43.28C195.194 42.2071 196.213 41.4689 197.384 41.3672C200.68 41.0833 206.924 40.9548 208.11 43.8778L208.113 43.8808Z" fill="#233862"/>
<path d="M203.873 43.3578C203.873 43.3578 206.141 45.5546 206.855 47.1804C207.545 48.7525 207.748 52.5094 207.199 54.0008C207.199 54.0008 210.736 47.1266 208.737 43.7852C206.616 40.2406 203.873 43.3578 203.873 43.3578Z" fill="#233862"/>
<path d="M209.855 82.627C209.526 104.08 209.762 99.5971 207.414 101.632C206.849 102.123 205.26 102.413 203.168 102.55C196.592 102.983 185.033 101.895 184.594 100.682C183.079 96.4739 184.148 95.1678 182.888 88.727C182.756 88.0426 182.592 87.3014 182.401 86.4944C181.346 82.0711 180.321 80.5648 184.068 73.4605C187.465 67.0257 190.993 61.8014 191.31 61.9897C200.264 67.3126 200.987 62.8415 200.987 62.8415C200.987 62.8415 210.016 72.1634 209.855 82.627Z" fill="#2F539B"/>
<path d="M232.792 137.955L225.899 156.488C225.899 156.488 224.032 156.667 222.242 156.153C220.596 155.675 218.705 154.429 218.705 154.429C218.705 154.429 220.623 134.527 224.193 123.104L232.792 137.955Z" fill="#F99746"/>
<path d="M200.987 62.8415C200.987 62.8415 210.201 64.4076 211.283 68.3767C212.365 72.3457 215.917 96.441 215.917 96.441C215.917 96.441 213.318 98.9785 211.155 96.8116C208.991 94.6448 204.351 74.2675 204.351 74.2675L200.987 62.8385V62.8415Z" fill="#2F539B"/>
<path d="M203.168 102.553C196.592 102.986 185.033 101.898 184.594 100.685C183.079 96.4769 184.149 95.1708 182.888 88.73L186.064 79.7966C186.064 79.7966 185.535 89.7462 188.469 92.3643C191.397 94.9825 200.476 97.4213 201.902 99.6061C202.589 100.655 203.04 101.707 203.171 102.553H203.168Z" fill="#233862"/>
<path d="M195.636 98.3657C195.636 98.3657 202.126 96.9222 203.171 97.499C204.217 98.0758 206.775 100.174 207.094 100.903C207.414 101.632 204.764 100.347 203.903 100.117C203.345 99.9677 201.875 100.479 201.146 100.721C198.083 101.74 196.207 101.214 196.207 101.214L195.633 98.3657H195.636Z" fill="#FFB27D"/>
<path d="M191.304 61.9867C191.304 61.9867 182.592 62.5217 179.574 66.7269C175.329 72.6476 166.897 97.8876 171.723 101.256C177.157 105.049 196.458 102.257 196.458 102.257C196.458 102.257 197.1 99.2534 196.207 97.8009C195.314 96.3484 180.793 93.9962 180.121 93.3267C179.452 92.6573 188.505 80.254 188.505 78.2425C188.505 76.2311 191.301 61.9897 191.301 61.9897L191.304 61.9867Z" fill="#2F539B"/>
<path d="M203.485 99.3073C203.485 99.3073 204.844 101.062 205.29 101.271C205.735 101.48 206.022 101.429 206.022 101.429L205.107 99.7795L203.485 99.3073Z" fill="#FFB27D"/>
<path d="M203.171 97.499L207.124 99.4208C207.124 99.4208 206.957 99.6958 206.47 99.6748C205.983 99.6539 204.755 99.2026 204.755 99.2026L203.171 97.499Z" fill="#FFB27D"/>
<path d="M236.918 102.024L195.633 102.009V102.921L236.553 102.936L236.918 102.024Z" fill="#233862"/>
<path d="M205.287 102.924L236.553 102.936L245.964 79.5427L214.749 79.5337L205.287 102.924Z" fill="#233862"/>
<path d="M228.663 91.2346C228.899 90.4127 228.424 89.7462 227.602 89.7462C226.78 89.7462 225.923 90.4127 225.687 91.2346C225.451 92.0565 225.926 92.723 226.747 92.723C227.569 92.723 228.427 92.0565 228.663 91.2346Z" fill="white"/>
<path d="M313.071 220.453C313.071 220.453 312.219 218.541 311.67 217.635C311.12 216.729 308.766 214.075 308.365 214.676C307.965 215.277 306.363 219.321 307.215 220.453C308.066 221.586 307.158 223.556 311.392 224.748L313.071 220.453Z" fill="#FFB27D"/>
<path d="M360.104 208.373C360.104 208.373 338.44 226.464 329.99 224.79C323.384 223.481 312.942 220.166 312.942 220.166C312.942 220.166 310.185 222.79 310.964 225.932C310.964 225.932 324.269 238.455 333.749 238.535C348.565 238.661 355.553 231.189 355.553 231.189L360.104 208.37V208.373Z" fill="#ED7D2B"/>
<path d="M398.101 399.196C398.101 399.196 397.471 409.345 395.508 409.492C395.248 409.51 385.553 409.51 385.553 409.51L373.178 409.438C373.178 409.438 373.258 406.455 376.877 405.825C380.495 405.194 386.548 402.651 388.741 397.869C391.044 392.839 398.101 399.196 398.101 399.196Z" fill="#113C68"/>
<path d="M398.815 399.901C398.815 399.901 395.054 401.159 392.117 401.159C388.839 401.159 385.864 400.266 385.864 400.266C385.864 400.266 385.156 393.412 381.257 378.316C379.213 370.405 376.294 360.228 372.144 347.586C360.665 312.644 357.176 292.204 356.856 290.271C356.838 290.169 356.832 290.118 356.832 290.118L356.868 290.1L392.159 274.601C392.159 274.601 387.797 322.755 393.363 341.241C394.143 343.823 394.809 346.836 395.383 350.096C398.896 370.175 398.815 399.901 398.815 399.901Z" fill="#2A4E96"/>
<path d="M381.257 378.316C379.213 370.405 376.294 360.228 372.144 347.586C360.665 312.644 357.176 292.204 356.856 290.271C356.859 290.214 356.862 290.157 356.868 290.1L392.159 274.601C392.159 274.601 387.797 322.755 393.363 341.241C394.143 343.823 381.257 378.316 381.257 378.316Z" fill="#233862"/>
<path d="M370.537 399.196C370.537 399.196 369.906 409.345 367.943 409.492C367.683 409.51 357.988 409.51 357.988 409.51L345.613 409.438C345.613 409.438 345.694 406.455 349.312 405.825C352.93 405.194 358.983 402.651 361.176 397.869C363.48 392.839 370.537 399.196 370.537 399.196Z" fill="#15447C"/>
<path d="M350.528 275.736C350.528 275.736 350.068 306.942 355.467 345.258C360.862 383.573 359.034 399.835 359.034 399.835C359.034 399.835 362.742 401.037 364.239 401.159C368.051 401.47 371.962 400.266 371.962 400.266C371.962 400.266 379.688 361.938 377.471 342.759C375.257 323.58 388.051 276.953 388.051 276.953L350.528 275.736Z" fill="#2A4E96"/>
<path d="M375.553 202.712L368.663 207.231L362.389 205.456C361.242 203.818 360.94 200.665 360.922 197.93C360.904 195.216 361.167 192.918 361.167 192.918L370.462 188.814L373.931 187.284C373.922 187.338 373.662 190.132 373.623 190.542C372.975 197.787 375.553 202.712 375.553 202.712Z" fill="#FFB27D"/>
<path d="M350.37 284.413C358.944 292.694 391.394 291.302 393.396 282.177C395.391 273.052 391.215 204.502 376.569 200.199C373.53 199.305 357.28 204.559 357.28 204.559C357.28 204.559 354.732 211.23 353.058 219.727C352.736 221.38 351.786 238.897 351.078 255.287C350.746 262.95 350.468 270.371 350.325 275.802C350.193 280.892 350.187 284.233 350.372 284.416L350.37 284.413Z" fill="#F99746"/>
<path d="M372.927 190.67C371.042 193.859 364.427 196.651 360.919 197.93C360.901 195.216 361.164 192.918 361.164 192.918L370.459 188.814C372.515 188.787 373.766 189.248 372.924 190.67H372.927Z" fill="#FCA56B"/>
<path d="M357.663 192.353C357.663 192.353 372.637 197.025 375.404 187.652C378.17 178.279 381.965 172.568 372.52 169.187C363.076 165.807 360.154 168.835 358.472 171.737C356.787 174.642 353.841 190.895 357.666 192.35L357.663 192.353Z" fill="#FFB27D"/>
<path d="M359.058 170.834C359.058 170.834 360.014 181.743 362.267 181.268C364.522 180.793 367.005 179.782 366.674 183.07C366.342 186.358 368.867 191.994 372.117 191.982C379.091 191.953 386.67 174.053 384.758 170.658C379.249 160.864 351.093 158.885 359.055 170.834H359.058Z" fill="#163560"/>
<path d="M361.26 200.432C361.454 200.351 372.407 195.434 373.689 195.859C374.97 196.283 376.566 200.196 376.566 200.196L357.277 204.559C357.277 204.559 358.795 201.472 361.26 200.432Z" fill="#ED7D2B"/>
<path d="M293.059 253.521L354.469 311.359C355.673 312.492 357.19 312.854 357.842 312.163L359.915 309.96C360.567 309.267 360.115 307.776 358.911 306.64L297.502 248.802C296.298 247.669 294.78 247.307 294.129 247.998L292.055 250.2C291.404 250.894 291.855 252.385 293.059 253.521Z" fill="#1F4D84"/>
<path d="M327.519 285.979L354.466 311.359C355.67 312.492 357.187 312.853 357.839 312.163L359.912 309.96C360.564 309.267 360.112 307.776 358.908 306.64L331.962 281.259L327.519 285.979Z" fill="#739AF0"/>
<path d="M296.184 184.639C277.971 165.272 247.511 164.345 228.154 182.568C227.897 182.807 227.646 183.049 227.398 183.297C208.769 201.591 208.1 231.512 226.074 250.625C244.287 269.989 274.75 270.921 294.114 252.702C300.454 246.736 304.819 239.456 307.176 231.685C312.031 215.719 308.437 197.667 296.184 184.642V184.639ZM291.508 249.934C280.242 260.541 264.891 264.101 250.881 260.783C242.725 258.85 235.023 254.588 228.847 248.022C212.071 230.182 212.922 202.117 230.756 185.335C237.32 179.158 245.27 175.371 253.535 173.939C267.717 171.483 282.82 175.975 293.421 187.245C310.2 205.088 309.345 233.152 291.511 249.934H291.508Z" fill="#1F4D84"/>
<g opacity="0.5">
<path d="M228.841 248.019C235.017 254.585 242.722 258.85 250.878 260.783C264.888 264.098 280.239 260.538 291.505 249.931C309.336 233.149 310.194 205.082 293.415 187.242C282.814 175.972 267.711 171.48 253.528 173.936C245.264 175.365 237.314 179.155 230.75 185.329C212.919 202.111 212.062 230.179 228.838 248.016L228.841 248.019Z" fill="#B3CFF9"/>
</g>
<path d="M350.322 275.799C384.158 251.68 381.346 219.494 381.346 219.494C368.98 226.473 356.706 241.901 351.078 255.284C350.746 262.947 350.468 270.368 350.325 275.799H350.322Z" fill="#ED7D2B"/>
<path d="M316.928 264.815C314.541 264.265 312.939 262.46 312.608 262.143C312.608 262.143 311.589 262.212 312.775 264.385C312.874 264.567 313.095 265.033 313.259 265.362C313.328 265.497 313.232 265.655 313.083 265.664C311.705 265.769 310.322 265.225 307.669 265.778C307.302 265.855 307.197 266.731 307.212 267.105C307.236 267.738 307.191 268.447 307.926 269.415C308.353 269.98 309.545 270.587 312.201 271.657C313.214 272.063 316.106 271.755 318.816 270.826L320.982 269.821L320.31 265.793L319.766 265.906C318.903 266.088 317.833 265.033 316.931 264.812L316.928 264.815Z" fill="#FFB27D"/>
<path d="M370.844 204.559C370.844 204.559 401.247 210.351 361.899 254.394C355.607 261.438 321.607 270.608 321.607 270.608C321.607 270.608 318.159 267.673 319.898 265.297C319.898 265.297 343.307 248.291 348.457 245.589C350.776 244.372 357.45 218.448 361.227 212.204C365.003 205.961 370.844 204.562 370.844 204.562V204.559Z" fill="#F99746"/>
<path d="M312.246 220.985C312.246 220.985 311.251 219.085 311.057 218.08C310.863 217.076 309.611 214.153 309.094 213.636C308.888 213.43 308.207 213.696 308.126 214.583C308.09 214.969 308.281 215.671 308.613 216.508C309.157 217.868 309.067 219.715 309.255 220.331C309.728 221.864 312.243 220.985 312.243 220.985H312.246Z" fill="#FFB27D"/>
</g>
<defs>
<clipPath id="clip0_3990_3094">
<rect width="561" height="410" fill="white"/>
</clipPath>
</defs>
</svg>
