<svg width="521" height="413" viewBox="0 0 521 413" fill="none" xmlns="http://www.w3.org/2000/svg">
<g clip-path="url(#clip0_3996_5092)">
<path fill-rule="evenodd" clip-rule="evenodd" d="M75.0273 229.372C95.2457 232.372 109.199 251.186 106.199 271.389C103.198 291.603 84.3809 305.554 64.1736 302.554C43.9553 299.555 30.0021 280.741 33.0023 260.537C36.0025 240.323 54.82 226.372 75.0273 229.372ZM357.941 0.242564C370.129 2.05116 378.545 13.388 376.736 25.574C374.927 37.7599 363.588 46.1743 351.4 44.3657C339.211 42.5571 330.795 31.2203 332.604 19.0343C334.413 6.84836 345.752 -1.56603 357.941 0.242564ZM421.375 57.2575C428.898 58.3713 434.093 65.3741 432.979 72.8953C431.865 80.4164 424.861 85.6106 417.338 84.4968C409.816 83.3829 404.62 76.3801 405.734 68.859C406.849 61.3379 413.853 56.1437 421.375 57.2575ZM117.637 305.488C126.075 306.734 131.91 314.597 130.653 323.033C129.406 331.47 121.542 337.303 113.104 336.046C104.665 334.8 98.8305 326.937 100.088 318.501C101.334 310.064 109.199 304.23 117.637 305.488ZM455.679 58.636C459.562 59.2095 462.242 62.8267 461.669 66.7085C461.095 70.5904 457.477 73.2702 453.595 72.6968C449.712 72.1233 447.032 68.5061 447.605 64.6242C448.179 60.7424 451.797 58.0626 455.679 58.636ZM319.048 50.1775C358.989 56.0996 393.778 75.0347 419.765 102.031C425.456 96.6055 433.509 93.7713 441.891 95.0065C456.33 97.1459 466.301 110.589 464.161 125.025C462.86 133.792 457.4 140.905 450.076 144.666C465.937 175.963 472.6 212.312 467.062 249.653C462.529 280.255 450.341 307.826 432.747 330.731C444.351 338.759 451.058 352.919 448.852 367.818C445.752 388.716 426.306 403.141 405.404 400.042C392.3 398.101 381.744 389.731 376.449 378.615C344.285 395.929 306.452 403.395 267.537 397.627C177.685 384.305 113.887 305.179 117.791 216.403C89.7196 202.442 72.5125 171.574 77.3547 138.887C83.3772 98.2377 121.222 70.1824 161.868 76.2037C170.78 77.527 179.086 80.3723 186.554 84.4416C222.953 56.5958 270.14 42.9321 319.048 50.1775Z" fill="#EEF5FF"/>
<path d="M278.336 388.518C277.762 388.518 277.189 388.518 276.604 388.518L276.626 386.235C278.148 386.257 279.659 386.246 281.149 386.213L281.193 388.496C280.244 388.518 279.284 388.518 278.325 388.518H278.336ZM269.721 388.275C268.199 388.187 266.655 388.077 265.144 387.944L265.342 385.672C266.842 385.805 268.354 385.915 269.854 386.003L269.721 388.275ZM288.087 388.209L287.943 385.937C289.443 385.838 290.954 385.717 292.454 385.573L292.675 387.845C291.153 387.988 289.609 388.121 288.098 388.22L288.087 388.209ZM258.283 387.172C256.772 386.963 255.239 386.731 253.739 386.478L254.114 384.228C255.592 384.481 257.103 384.702 258.581 384.912L258.272 387.172H258.283ZM299.503 387.018L299.183 384.757C300.672 384.548 302.172 384.305 303.65 384.04L304.047 386.29C302.547 386.555 301.014 386.797 299.514 387.018H299.503ZM246.966 385.187C245.477 384.867 243.966 384.515 242.488 384.14L243.039 381.923C244.495 382.287 245.973 382.629 247.44 382.949L246.955 385.176L246.966 385.187ZM310.798 384.945L310.301 382.717C311.768 382.386 313.246 382.033 314.702 381.658L315.276 383.864C313.798 384.25 312.298 384.614 310.809 384.945H310.798ZM235.848 382.32C234.381 381.879 232.902 381.405 231.458 380.919L232.186 378.758C233.619 379.243 235.075 379.695 236.509 380.136L235.848 382.32ZM321.894 381.989L321.221 379.806C322.655 379.364 324.1 378.89 325.523 378.405L326.262 380.566C324.817 381.063 323.35 381.537 321.894 381.989ZM224.95 378.57C223.527 378.019 222.093 377.435 220.681 376.828L221.574 374.733C222.964 375.317 224.376 375.902 225.777 376.442L224.95 378.57ZM332.726 378.162L331.887 376.045C333.277 375.494 334.678 374.909 336.046 374.314L336.95 376.409C335.56 377.015 334.138 377.611 332.726 378.173V378.162ZM214.405 373.972C213.026 373.31 211.647 372.615 210.291 371.909L211.349 369.891C212.684 370.586 214.041 371.27 215.398 371.932L214.405 373.983V373.972ZM343.204 373.509L342.201 371.457C343.546 370.796 344.892 370.101 346.216 369.406L347.286 371.424C345.94 372.141 344.572 372.836 343.204 373.509ZM204.246 368.568C202.922 367.796 201.599 367.002 200.308 366.186L201.522 364.256C202.79 365.05 204.103 365.844 205.393 366.605L204.246 368.579V368.568ZM353.286 368.05L352.128 366.087C353.418 365.326 354.709 364.532 355.977 363.727L357.202 365.646C355.922 366.462 354.599 367.267 353.297 368.05H353.286ZM194.551 362.392C193.293 361.521 192.036 360.628 190.811 359.712L192.168 357.882C193.381 358.775 194.617 359.668 195.852 360.518L194.551 362.392ZM362.915 361.83L361.603 359.966C362.827 359.106 364.062 358.213 365.254 357.308L366.621 359.128C365.408 360.043 364.151 360.948 362.904 361.83H362.915ZM185.362 355.489C184.182 354.529 183.002 353.526 181.844 352.533L183.344 350.813C184.48 351.794 185.638 352.776 186.807 353.724L185.362 355.489ZM372.037 354.871L370.581 353.118C371.739 352.158 372.898 351.177 374.023 350.184L375.534 351.894C374.387 352.897 373.218 353.901 372.037 354.871ZM176.748 347.89C175.645 346.843 174.542 345.751 173.472 344.67L175.093 343.071C176.152 344.141 177.233 345.211 178.314 346.247L176.737 347.901L176.748 347.89ZM380.597 347.218L379.008 345.575C380.089 344.527 381.17 343.457 382.207 342.376L383.84 343.964C382.781 345.056 381.678 346.148 380.586 347.207L380.597 347.218ZM168.751 339.641C167.736 338.506 166.721 337.337 165.74 336.179L167.482 334.712C168.453 335.859 169.446 337.006 170.45 338.12L168.751 339.641ZM388.538 338.925L386.829 337.414C387.822 336.289 388.814 335.131 389.774 333.984L391.528 335.44C390.557 336.609 389.542 337.789 388.538 338.925ZM161.416 330.808C160.489 329.595 159.574 328.36 158.68 327.125L160.533 325.79C161.405 327.003 162.309 328.227 163.225 329.418L161.416 330.808ZM395.807 330.025L393.987 328.646C394.892 327.444 395.796 326.22 396.657 324.996L398.521 326.309C397.638 327.555 396.723 328.801 395.807 330.025ZM154.787 321.434C153.959 320.155 153.132 318.854 152.349 317.552L154.301 316.372C155.073 317.652 155.89 318.942 156.706 320.199L154.798 321.445L154.787 321.434ZM402.37 320.596L400.451 319.372C401.267 318.104 402.061 316.813 402.834 315.523L404.797 316.692C404.014 318.004 403.198 319.317 402.381 320.607L402.37 320.596ZM148.919 311.586C148.191 310.252 147.474 308.884 146.79 307.528L148.83 306.502C149.503 307.837 150.209 309.182 150.926 310.505L148.919 311.597V311.586ZM408.183 310.682L406.176 309.612C406.882 308.289 407.588 306.932 408.249 305.587L410.29 306.601C409.617 307.969 408.9 309.347 408.183 310.693V310.682ZM143.834 301.319C143.216 299.929 142.609 298.518 142.036 297.106L144.143 296.246C144.705 297.636 145.301 299.025 145.918 300.393L143.834 301.319ZM413.202 300.338L411.117 299.422C411.724 298.044 412.309 296.643 412.871 295.243L414.989 296.092C414.415 297.514 413.82 298.937 413.213 300.338H413.202ZM139.565 290.677C139.058 289.243 138.561 287.777 138.098 286.321L140.271 285.626C140.734 287.06 141.22 288.493 141.716 289.916L139.565 290.677ZM417.393 289.618L415.243 288.868C415.739 287.446 416.213 286.001 416.665 284.556L418.838 285.24C418.386 286.707 417.901 288.174 417.393 289.618ZM136.146 279.704C135.749 278.237 135.374 276.738 135.021 275.249L137.238 274.73C137.58 276.186 137.955 277.664 138.341 279.12L136.135 279.715L136.146 279.704ZM420.725 278.612L418.519 278.039C418.894 276.583 419.258 275.105 419.588 273.65L421.817 274.157C421.475 275.646 421.111 277.146 420.725 278.623V278.612ZM133.598 268.511C133.322 267.011 133.057 265.489 132.826 263.978L135.076 263.636C135.307 265.125 135.561 266.625 135.837 268.092L133.598 268.511ZM423.184 267.397L420.934 267C421.199 265.522 421.441 264.022 421.662 262.533L423.923 262.864C423.703 264.375 423.46 265.897 423.184 267.397ZM131.943 257.152C131.778 255.641 131.645 254.097 131.524 252.575L133.796 252.41C133.907 253.909 134.05 255.42 134.204 256.909L131.932 257.152H131.943ZM424.762 256.027L422.489 255.806C422.633 254.318 422.765 252.796 422.864 251.296L425.137 251.45C425.037 252.972 424.905 254.516 424.762 256.027ZM131.171 245.694C131.127 244.271 131.105 242.826 131.105 241.404V241.095H133.388V241.393C133.388 242.793 133.41 244.216 133.443 245.616L131.16 245.683L131.171 245.694ZM425.445 244.558L423.162 244.514C423.184 243.488 423.195 242.44 423.195 241.404C423.195 240.929 423.195 240.455 423.195 239.992L425.479 239.97C425.479 240.444 425.479 240.929 425.479 241.404C425.479 242.451 425.467 243.51 425.445 244.558ZM133.565 234.324L131.281 234.213C131.359 232.692 131.458 231.148 131.568 229.626L133.84 229.802C133.719 231.302 133.62 232.813 133.554 234.313L133.565 234.324ZM422.975 233.21C422.886 231.71 422.787 230.199 422.655 228.699L424.927 228.501C425.059 230.023 425.17 231.567 425.258 233.089L422.986 233.21H422.975ZM134.546 223.064L132.285 222.777C132.473 221.266 132.693 219.734 132.936 218.234L135.186 218.587C134.954 220.064 134.734 221.575 134.546 223.064ZM421.905 221.961C421.706 220.472 421.475 218.973 421.232 217.484L423.482 217.109C423.736 218.609 423.956 220.142 424.166 221.652L421.905 221.95V221.961ZM136.399 211.915L134.171 211.452C134.48 209.963 134.822 208.452 135.175 206.963L137.392 207.492C137.039 208.948 136.708 210.437 136.41 211.904L136.399 211.915ZM419.963 210.823C419.644 209.356 419.302 207.878 418.949 206.412L421.166 205.86C421.53 207.338 421.883 208.849 422.203 210.338L419.975 210.812L419.963 210.823ZM139.124 200.942L136.929 200.302C137.359 198.835 137.811 197.358 138.274 195.913L140.447 196.619C139.984 198.041 139.532 199.497 139.113 200.942H139.124ZM417.151 199.872C416.721 198.438 416.257 196.983 415.783 195.56L417.945 194.843C418.43 196.288 418.894 197.766 419.335 199.221L417.151 199.872ZM142.709 190.201L140.58 189.395C141.12 187.962 141.694 186.528 142.278 185.117L144.385 185.988C143.812 187.377 143.249 188.8 142.72 190.201H142.709ZM413.5 189.175C412.959 187.774 412.386 186.374 411.812 184.995L413.908 184.102C414.504 185.503 415.077 186.925 415.629 188.348L413.5 189.175ZM147.132 179.768L145.069 178.798C145.72 177.419 146.404 176.029 147.099 174.662L149.128 175.699C148.444 177.044 147.771 178.412 147.132 179.768ZM409.022 178.82C408.371 177.474 407.698 176.118 407.003 174.783L409.033 173.736C409.738 175.092 410.422 176.471 411.084 177.838L409.033 178.82H409.022ZM152.36 169.71L150.375 168.586C151.136 167.262 151.919 165.928 152.713 164.626L154.654 165.818C153.871 167.097 153.088 168.409 152.349 169.721L152.36 169.71ZM403.749 168.839C402.999 167.549 402.216 166.237 401.422 164.968L403.363 163.766C404.168 165.057 404.962 166.38 405.723 167.692L403.749 168.839ZM158.349 160.105L156.463 158.826C157.324 157.569 158.206 156.3 159.111 155.065L160.953 156.4C160.07 157.613 159.199 158.859 158.349 160.105ZM397.705 159.3C396.855 158.065 395.973 156.83 395.079 155.617L396.921 154.26C397.826 155.484 398.719 156.741 399.58 157.999L397.705 159.289V159.3ZM165.067 150.996L163.291 149.573C164.24 148.382 165.232 147.191 166.214 146.033L167.946 147.511C166.975 148.658 166.004 149.827 165.067 151.007V150.996ZM390.943 150.246C389.994 149.077 389.024 147.919 388.042 146.783L389.774 145.294C390.767 146.452 391.759 147.632 392.719 148.812L390.943 150.246ZM172.479 142.438L170.814 140.883C171.85 139.769 172.931 138.655 174.001 137.575L175.623 139.185C174.564 140.244 173.505 141.346 172.479 142.438ZM383.498 141.743C382.461 140.652 381.402 139.571 380.332 138.512L381.942 136.891C383.023 137.961 384.104 139.075 385.152 140.177L383.498 141.743ZM180.52 134.487L178.976 132.8C180.101 131.774 181.259 130.748 182.417 129.756L183.906 131.487C182.77 132.469 181.634 133.472 180.52 134.487ZM375.402 133.847C374.287 132.844 373.14 131.84 371.993 130.87L373.471 129.127C374.629 130.109 375.799 131.134 376.935 132.16L375.402 133.847ZM189.146 127.186L187.745 125.389C188.947 124.451 190.183 123.514 191.407 122.621L192.753 124.462C191.539 125.345 190.326 126.271 189.146 127.186ZM366.721 126.602C365.529 125.686 364.305 124.771 363.092 123.889L364.426 122.036C365.662 122.929 366.897 123.856 368.111 124.782L366.721 126.591V126.602ZM198.312 120.581L197.054 118.684C198.323 117.846 199.624 117.007 200.915 116.202L202.117 118.143C200.838 118.937 199.558 119.753 198.312 120.581ZM357.488 120.04C356.231 119.213 354.941 118.408 353.661 117.625L354.852 115.673C356.154 116.467 357.466 117.294 358.746 118.132L357.499 120.04H357.488ZM207.952 114.714L206.838 112.718C208.173 111.979 209.53 111.251 210.875 110.556L211.923 112.585C210.588 113.269 209.254 113.986 207.941 114.714H207.952ZM347.771 114.228C346.447 113.512 345.102 112.795 343.756 112.111L344.793 110.082C346.149 110.777 347.528 111.493 348.863 112.232L347.771 114.228ZM218.012 109.619L217.063 107.545C218.442 106.917 219.854 106.288 221.255 105.704L222.137 107.81C220.758 108.395 219.368 109.001 218.012 109.619ZM337.623 109.189C336.255 108.571 334.843 107.964 333.454 107.391L334.325 105.285C335.737 105.869 337.16 106.476 338.561 107.104L337.623 109.189ZM228.435 105.329L227.652 103.189C229.086 102.66 230.542 102.153 231.987 101.678L232.704 103.84C231.281 104.314 229.847 104.81 228.435 105.329ZM327.111 104.954C325.688 104.446 324.243 103.95 322.81 103.498L323.504 101.326C324.96 101.8 326.427 102.296 327.872 102.814L327.1 104.965L327.111 104.954ZM239.201 101.866L238.583 99.6714C240.05 99.2633 241.55 98.8663 243.028 98.5024L243.569 100.719C242.113 101.072 240.635 101.469 239.19 101.866H239.201ZM316.313 101.568C314.868 101.171 313.39 100.796 311.934 100.454L312.463 98.2377C313.952 98.5906 315.452 98.9766 316.919 99.3736L316.324 101.579L316.313 101.568ZM250.209 99.2523L249.768 97.0136C251.268 96.7158 252.779 96.4512 254.29 96.1975L254.654 98.4472C253.176 98.6899 251.676 98.9656 250.198 99.2523H250.209ZM305.294 99.0428C303.816 98.7671 302.315 98.5024 300.837 98.2708L301.19 96.0211C302.702 96.2527 304.224 96.5173 305.724 96.8041L305.305 99.0428H305.294ZM261.382 97.5099L261.118 95.2491C262.629 95.0727 264.173 94.9183 265.695 94.7859L265.883 97.0577C264.383 97.1901 262.872 97.3334 261.382 97.5099ZM294.109 97.3886C292.62 97.2231 291.098 97.0908 289.609 96.9695L289.785 94.6977C291.307 94.819 292.841 94.9624 294.363 95.1168L294.12 97.3886H294.109ZM272.655 96.6497L272.567 94.3669C274.089 94.3117 275.633 94.2786 277.156 94.2566L277.178 96.5394C275.678 96.5504 274.155 96.5835 272.655 96.6386V96.6497ZM282.825 96.6056C281.325 96.5614 279.803 96.5394 278.303 96.5394V94.2566C279.825 94.2566 281.369 94.2786 282.891 94.3228L282.825 96.6056Z" fill="white"/>
<path d="M91.5506 169.92C91.5064 165.586 90.4365 159.929 88.7379 153.742L82.2742 162.454L87.8113 150.522C85.87 144.037 83.3441 137.134 80.6858 130.682L74.7736 141.743L78.1599 124.76C77.3657 122.974 76.5716 121.242 75.7884 119.588C74.2662 116.379 71.1116 109.784 67.1407 104.413L64.5045 113.291L63.931 100.587C58.3387 94.8522 51.7647 93.1869 46.0179 105.605C43.9773 110.016 43.5361 114.901 44.231 119.985L59.1769 132.248L45.9297 127.297C47.7828 133.108 50.783 138.997 54.2465 144.567L70.7697 155.131L58.482 150.941C62.6515 156.83 67.0856 162.145 70.8469 166.325L76.8142 168.255L73.4831 169.181C76.0752 171.938 78.1489 173.945 79.2629 174.971C82.7264 178.136 85.0979 178.544 86.5428 178.257C87.4032 178.147 88.5503 177.849 89.521 177.066C90.4475 176.559 91.5836 174.916 91.5395 169.92H91.5506Z" fill="#008890"/>
<path d="M144.904 180.187C145.334 179.161 145.621 178.246 145.632 177.419C145.731 173.504 141.286 174.905 141.286 174.905C137.569 176.603 134.425 178.941 131.789 181.665L129.516 192.086L129.494 184.278C126.671 187.83 124.564 191.811 123.064 195.737L125.479 204.372L122.17 198.295C121.343 200.887 120.792 203.401 120.461 205.706L122.788 210.492L120.185 208.264C120.008 210.702 120.119 212.786 120.483 214.264C122.358 221.917 127.983 218.807 127.983 218.807C133.013 217.186 136.73 212.907 138.738 207.757L131.127 211.76L139.775 204.372C140.348 201.868 140.536 199.266 140.304 196.729C140.249 196.134 140.227 195.56 140.227 194.998L133.598 199.133L140.447 192.064C141.065 187.94 142.852 184.554 144.165 181.819L140.359 183.087L144.904 180.187Z" fill="#008890"/>
<path d="M142.3 243.014C142.179 242.981 139.212 242.209 135.782 239.496C132.627 236.993 128.48 232.295 126.693 224.123C125.612 219.171 125.667 213.679 126.88 207.779C127.851 203.07 129.55 198.108 131.932 193.013C135.98 184.345 140.679 178.235 140.723 178.18L141.197 178.544C141.153 178.599 136.488 184.676 132.473 193.277C128.766 201.207 124.862 212.962 127.288 223.991C129.042 231.975 133.068 236.562 136.146 239.011C139.477 241.657 142.433 242.429 142.466 242.44L142.323 243.014H142.3Z" fill="#006B6B"/>
<path d="M59.0115 166.556L56.0444 157.569C55.89 157.425 55.7245 157.293 55.5701 157.15C50.7389 152.992 44.8487 149.959 38.8814 147.787L44.6723 157.602L34.5686 146.353C29.0425 144.71 23.6487 143.739 19.1263 143.243L22.8656 150.422L14.9238 142.901C12.7288 142.791 10.8978 142.802 9.58522 142.923C2.10675 143.563 -8.85725 153.113 12.3428 166.093C15.0452 167.747 17.902 169.302 20.836 170.747L32.9141 165.553L24.2113 172.346C28.4138 174.276 32.7266 175.985 36.9511 177.496L47.6063 171.453L39.0579 178.224C44.4847 180.077 49.702 181.577 54.3016 182.713L62.9162 177.993L58.1511 183.606C63.8207 184.852 68.1224 185.425 70.0196 185.304C74.4979 185.017 74.4869 180.97 74.189 178.897C73.792 177.309 72.9206 175.963 72.9206 175.963H72.9316C71.2109 173.228 67.0525 167.483 58.5372 159.752L59.0225 166.534L59.0115 166.556Z" fill="#008890"/>
<path d="M128.336 247.921L127.829 248.241C127.553 247.811 100.209 205.43 80.73 185.856C70.5822 175.655 51.897 167.792 38.0211 162.983C22.9649 157.767 10.1478 154.944 10.0154 154.911L10.1478 154.326C10.2801 154.36 23.1193 157.194 38.2196 162.41C47.0879 165.476 54.9855 168.762 61.6918 172.159C70.0858 176.416 76.6378 180.882 81.1601 185.425C100.684 205.044 128.061 247.48 128.336 247.91V247.921Z" fill="#006B6B"/>
<path d="M142.554 253.27C142.499 253.215 136.686 248.197 128.237 238.922C120.45 230.365 108.747 216.348 97.2752 198.119C85.8038 179.889 75.0163 156.389 67.9901 139.891C60.3792 122.014 55.4157 108.273 55.3605 108.13L55.923 107.931C55.9672 108.064 60.9308 121.805 68.5416 139.659C75.5568 156.135 86.3333 179.603 97.7826 197.799C109.232 215.984 120.902 229.979 128.678 238.514C137.105 247.767 142.896 252.774 142.951 252.818L142.565 253.27H142.554Z" fill="#006B6B"/>
<path d="M144.165 135.402C142.874 134.597 140.778 134.741 139.719 134.873C135.329 135.81 130.443 137.873 125.667 140.762L121.928 147.026L122.49 142.824C118.431 145.636 114.549 149.022 111.206 152.827L109.442 163.844L108.383 156.311C107.533 157.447 106.739 158.616 106.011 159.807C103.695 163.59 102.272 167.615 101.5 171.552L104.665 177.276L101.158 173.537C99.746 183.176 101.974 191.833 103.772 194.116C106.419 197.49 110.699 195.108 110.699 195.108C116.093 191.347 119.611 186.672 122.005 181.654L110.037 186.429L123.704 177.551C125.546 172.434 126.494 167.13 127.321 162.189L115.696 171.971L128.027 157.921C128.072 157.635 128.127 157.359 128.171 157.072C128.601 154.668 129.439 152.628 130.531 150.886L125.645 151.393L131.844 149.055C136.488 143.342 143.723 141.28 145.323 139.416C146.646 137.861 145.378 136.351 144.165 135.391V135.402Z" fill="#008890"/>
<path d="M143.734 249.542C143.668 249.498 136.929 244.58 129.186 236.11C124.641 231.137 120.637 225.92 117.284 220.616C113.104 213.977 109.938 207.173 107.875 200.39C105.526 192.649 105.382 184.72 107.445 176.824C109.089 170.516 112.144 164.23 116.523 158.12C123.957 147.732 132.77 141.401 132.859 141.335L133.201 141.821C133.112 141.887 124.376 148.173 116.986 158.473C110.192 167.957 103.198 182.9 108.438 200.203C113.059 215.455 122.501 227.916 129.616 235.691C137.315 244.117 144.01 248.991 144.076 249.046L143.723 249.531L143.734 249.542Z" fill="#006B6B"/>
<path d="M57.9305 197.523L65.5083 203.026L54.0369 198.483C49.6579 199.872 44.959 202.453 39.9734 206.798L49.0512 209.643L37.0725 209.489C36.5651 209.985 36.0687 210.492 35.5503 211.033C17.3946 230.056 22.8215 243.058 26.9467 243.223C28.5572 243.29 31.2265 241.724 34.2267 239.507L38.5726 224.95L37.4034 237.037C42.367 233 47.5291 228.148 49.9668 226.328C51.9632 224.84 54.3899 223.351 57.004 221.939L58.7578 213.602L59.5851 220.605C63.192 218.807 67.0084 217.208 70.4829 215.962L74.2442 209.18L72.7772 215.179C76.3841 214.01 79.4394 213.315 81.2484 213.337C81.2484 213.337 82.9911 213.404 84.5795 212.885C85.5502 212.532 86.576 211.937 87.2929 210.922V210.944C87.4473 210.713 87.5797 210.503 87.679 210.305C87.7782 210.106 87.8665 209.941 87.9327 209.797C88.0761 209.345 88.065 208.882 88.043 208.639C87.7893 207.107 86.3112 203.567 78.5239 200.655C72.8985 198.549 66.0047 196.167 57.9305 197.556V197.523Z" fill="#008890"/>
<path d="M123.67 250.557L123.086 250.7C123.075 250.634 121.442 244.172 116.578 235.934C112.089 228.336 103.86 217.638 90.1056 209.797C75.4355 201.438 59.8167 207.581 49.2829 214.209C37.8446 221.41 29.7815 230.718 29.7043 230.817L29.252 230.431C29.3293 230.332 37.4475 220.958 48.963 213.712C55.7355 209.445 62.3536 206.743 68.6188 205.662C76.4723 204.317 83.7963 205.53 90.3924 209.29C96.5141 212.786 102.084 217.131 106.916 222.193C110.787 226.251 114.207 230.784 117.085 235.658C121.994 243.962 123.637 250.491 123.648 250.557H123.67Z" fill="#006B6B"/>
<path d="M465.32 336.278C468.838 335.737 473.305 334.194 478.126 332.087L470.294 327.874L480.641 330.962C485.681 328.613 490.976 325.757 495.906 322.835L486.233 319.339L500.418 320.089C501.774 319.228 503.087 318.39 504.333 317.563C506.76 315.953 511.746 312.612 515.639 308.752L508.117 307.66L518.364 305.697C522.357 300.481 522.941 294.945 512.176 291.747C508.348 290.611 504.333 290.831 500.285 292L492.09 305.576L494.55 294.239C490.049 296.434 485.626 299.554 481.512 303.028L474.883 317.685L476.835 307.219C472.544 311.299 468.75 315.523 465.805 319.074L464.934 324.147L463.786 321.555C461.856 323.993 460.466 325.9 459.771 326.926C457.609 330.113 457.554 332.087 457.962 333.223C458.15 333.907 458.536 334.8 459.286 335.506C459.805 336.201 461.272 336.928 465.32 336.3V336.278Z" fill="#008890"/>
<path d="M463.29 380.787C464.172 381.008 464.956 381.14 465.617 381.052C468.805 380.666 467.151 377.225 467.151 377.225C465.342 374.413 463.058 372.141 460.544 370.321L451.819 369.704L458.15 368.767C454.929 366.892 451.455 365.646 448.09 364.896L441.373 367.873L445.917 364.466C443.711 364.102 441.605 363.947 439.696 363.947L436.09 366.395L437.59 364.024C435.582 364.168 433.917 364.51 432.758 364.973C426.769 367.399 429.957 371.601 429.957 371.601C431.865 375.494 435.781 378.008 440.204 379.023L436.057 373.321L443.072 379.464C445.167 379.629 447.307 379.486 449.337 378.99C449.811 378.879 450.274 378.791 450.738 378.714L446.601 373.828L453.153 378.548C456.573 378.559 459.54 379.618 461.911 380.357L460.433 377.424L463.323 380.765L463.29 380.787Z" fill="#008890"/>
<path d="M411.956 386.092C411.956 385.981 412.242 383.489 414.04 380.379C415.695 377.523 419.026 373.608 425.457 371.182C429.35 369.715 433.817 369.119 438.748 369.406C442.686 369.638 446.921 370.432 451.333 371.755C458.845 374.016 464.36 377.104 464.415 377.137L464.172 377.567C464.172 377.567 458.646 374.468 451.179 372.218C444.307 370.145 434.292 368.369 425.622 371.634C419.346 373.994 416.092 377.809 414.47 380.6C412.717 383.621 412.441 386.114 412.43 386.136L411.945 386.081L411.956 386.092Z" fill="#006B6B"/>
<path d="M464.217 309.469L471.155 305.995C471.243 305.852 471.342 305.708 471.43 305.554C474.232 301.143 475.997 296.003 477.067 290.897L469.776 296.753L477.718 287.225C478.401 282.549 478.556 278.05 478.423 274.322L473.03 278.204L478.203 270.871C478.037 269.073 477.806 267.595 477.563 266.537C476.162 260.548 467.106 252.774 459.077 271.51C458.051 273.903 457.135 276.396 456.297 278.954L461.944 288.14L455.403 281.877C454.334 285.516 453.451 289.221 452.723 292.827L458.889 300.757L452.381 294.614C451.51 299.235 450.914 303.646 450.539 307.517L455.392 313.946L450.274 310.748C449.932 315.49 449.977 319.052 450.296 320.574C451.058 324.169 454.345 323.695 455.988 323.21C457.223 322.702 458.227 321.831 458.227 321.831H458.238C460.246 320.122 464.415 316.074 469.688 308.256L464.239 309.447L464.217 309.469Z" fill="#008890"/>
<path d="M406.33 375.339L406.01 374.964C406.319 374.688 437.512 347.493 451.102 329.374C458.183 319.934 462.375 303.844 464.636 292.011C467.095 279.175 467.879 268.433 467.879 268.323L468.364 268.356C468.364 268.466 467.57 279.23 465.11 292.088C463.665 299.643 461.933 306.447 459.959 312.292C457.488 319.614 454.642 325.459 451.488 329.661C437.865 347.824 406.639 375.052 406.33 375.328V375.339Z" fill="#006B6B"/>
<path d="M403.672 387.514C403.672 387.514 407.102 382.154 413.632 374.203C419.655 366.87 429.659 355.72 443.105 344.251C456.551 332.782 474.353 321.258 486.928 313.604C500.539 305.311 511.117 299.665 511.227 299.61L511.459 300.04C511.349 300.095 500.793 305.741 487.181 314.023C474.629 321.666 456.848 333.179 443.425 344.615C430.012 356.051 420.03 367.178 414.018 374.501C407.499 382.43 404.124 387.724 404.091 387.768L403.683 387.503L403.672 387.514Z" fill="#006B6B"/>
<path d="M499.557 374.898C500.054 373.762 499.701 372.075 499.458 371.226C498.179 367.774 495.928 364.057 493.016 360.517L487.49 358.224L490.976 358.18C488.218 355.224 485.008 352.467 481.523 350.195L472.368 350.063L478.357 348.309C477.331 347.758 476.295 347.251 475.236 346.799C471.894 345.365 468.452 344.692 465.165 344.516L460.885 347.758L463.511 344.472C455.525 344.472 448.752 347.295 447.109 349.015C444.682 351.563 447.12 354.75 447.12 354.75C450.804 358.687 455.017 360.981 459.374 362.337L454.08 353.195L462.893 363.241C467.261 364.135 471.684 364.278 475.798 364.366L466.489 356.084L479.361 364.432C479.593 364.432 479.835 364.443 480.067 364.455C482.063 364.521 483.817 364.962 485.373 365.634L484.391 361.731L487.027 366.484C492.211 369.583 494.737 375.207 496.436 376.288C497.848 377.181 498.929 375.968 499.568 374.876L499.557 374.898Z" fill="#008890"/>
<path d="M406.838 388.021C406.871 387.966 410.058 381.912 416.026 374.622C419.533 370.343 423.295 366.484 427.199 363.131C432.097 358.951 437.248 355.577 442.509 353.107C448.521 350.283 454.94 349.236 461.591 349.975C466.908 350.57 472.379 352.302 477.85 355.136C487.159 359.944 493.336 366.351 493.402 366.417L493.049 366.759C492.983 366.693 486.851 360.341 477.607 355.566C469.103 351.177 456.142 347.251 442.719 353.548C430.883 359.095 421.872 368.237 416.401 374.92C410.466 382.165 407.301 388.176 407.268 388.231L406.838 387.999V388.021Z" fill="#006B6B"/>
<path d="M438.946 312.237L435.373 319.03L437.711 309.182C436.068 305.785 433.42 302.289 429.306 298.749L428.071 306.458L426.78 296.72C426.317 296.367 425.843 296.026 425.346 295.673C407.753 283.178 397.837 289.122 398.19 292.486C398.333 293.798 399.911 295.783 402.072 297.955L414.404 299.764L404.455 300.238C408.327 303.789 412.871 307.406 414.636 309.171C416.081 310.616 417.581 312.413 419.026 314.365L425.997 314.806L420.405 316.306C422.291 319.019 424.045 321.93 425.456 324.599L431.402 326.849L426.361 326.364C427.74 329.154 428.666 331.558 428.854 333.025C428.854 333.025 428.997 334.447 429.604 335.671C430.001 336.41 430.608 337.182 431.512 337.645H431.49C431.689 337.745 431.887 337.822 432.053 337.888C432.218 337.954 432.372 337.998 432.494 338.031C432.88 338.097 433.255 338.031 433.442 337.987C434.656 337.601 437.358 335.991 438.803 329.319C439.851 324.511 440.976 318.622 438.891 312.237H438.946Z" fill="#008890"/>
<path d="M403.639 371.865L403.451 371.413C403.451 371.413 408.558 369.307 414.669 364.388C420.305 359.856 428.015 351.904 432.758 339.818C437.821 326.926 430.983 314.972 424.365 307.208C417.162 298.771 408.658 293.335 408.569 293.279L408.834 292.86C408.922 292.915 417.493 298.396 424.74 306.888C428.997 311.884 431.986 316.935 433.597 321.897C435.615 328.117 435.494 334.204 433.222 340.005C431.104 345.387 428.236 350.416 424.695 354.948C421.861 358.565 418.585 361.885 414.967 364.796C408.801 369.759 403.694 371.865 403.639 371.887V371.865Z" fill="#006B6B"/>
<path d="M250.782 407.155C367.763 407.155 462.595 398.747 462.595 388.374C462.595 378.002 367.763 369.594 250.782 369.594C133.801 369.594 38.9697 378.002 38.9697 388.374C38.9697 398.747 133.801 407.155 250.782 407.155Z" fill="#CEDDEF"/>
<path d="M31.3478 205.232L59.6623 374.071C60.9859 380.511 66.3245 385.044 72.8434 385.463C73.053 385.485 286.939 380.247 286.939 380.247L259.011 200.732C258.559 198.571 256.695 197.071 254.444 197.071L42.4221 194.402C36.532 194.402 33.598 196.972 32.2633 199.718C31.2265 201.824 31.1272 204.019 31.3478 205.232Z" fill="#71A3D1"/>
<path d="M37.0614 199.618C37.0614 199.982 37.0835 200.357 37.1607 200.732L65.8502 373.222C66.865 378.129 69.3689 382.342 72.8434 385.463C73.1302 385.728 73.428 385.981 73.7368 386.224C77.7077 389.433 82.7926 391.297 88.3628 391.297H290.645C293.955 391.297 296.569 388.154 295.907 384.967L294.186 374.843L264.217 198.064C263.765 195.902 261.901 194.402 259.662 194.402H42.4221C39.5101 194.402 37.1276 196.85 37.0614 199.618Z" fill="#93BBE5"/>
<path d="M47.3526 203.831L47.3857 203.997L74.8067 368.822H283.487L255.514 203.831H47.3526Z" fill="#A9CBF7"/>
<path opacity="0.22" d="M205.625 374.843H182.064L76.8253 194.402H100.386L205.625 374.843Z" fill="#E5EEF6"/>
<path opacity="0.22" d="M167.935 374.843H158.846L53.5957 194.402H62.6846L167.935 374.843Z" fill="#E5EEF6"/>
<path d="M249.712 374.843H420.471C425.004 374.843 428.699 378.548 428.699 383.07C428.699 387.591 424.993 391.297 420.471 391.297H249.712C245.179 391.297 241.484 387.591 241.484 383.07C241.484 378.548 245.19 374.843 249.712 374.843Z" fill="#71A3D1"/>
<path d="M81.3366 374.843H255.349C259.882 374.843 263.577 378.548 263.577 383.07C263.577 387.591 259.871 391.297 255.349 391.297H81.3366C76.8142 391.297 73.1081 387.591 73.1081 383.07C73.1081 378.548 76.8142 374.843 81.3366 374.843Z" fill="#71A3D1"/>
<path d="M98.5106 378.151H113.865C115.288 378.151 116.435 379.298 116.435 380.721V381.735C116.435 383.147 115.288 384.305 113.865 384.305H98.5106C97.0987 384.305 95.9406 383.158 95.9406 381.735V380.721C95.9406 379.298 97.0877 378.151 98.5106 378.151Z" fill="#93BBE5"/>
<path d="M126.969 378.151H136.686C138.109 378.151 139.256 379.298 139.256 380.721V381.735C139.256 383.158 138.109 384.305 136.686 384.305H126.969C125.557 384.305 124.398 383.158 124.398 381.735V380.721C124.398 379.298 125.546 378.151 126.969 378.151Z" fill="#93BBE5"/>
<path d="M171.519 257.185C171.519 267.915 180.211 276.616 190.944 276.627C201.676 276.627 210.379 267.937 210.39 257.207C210.39 246.477 201.698 237.776 190.966 237.765C180.233 237.765 171.531 246.455 171.519 257.185Z" fill="white"/>
<path d="M113.379 372.759L97.4848 290.864L158.702 225.204L155.504 220.704L91.0542 288.868L107.125 371.876L113.379 372.759Z" fill="#EEF5FF"/>
<path d="M151.654 224.773L144.495 232.35H152.051L154.511 229.714L151.654 224.773Z" fill="#85B1E0"/>
<path d="M94.2199 305.245L99.1173 299.29L98.8085 297.724L92.6757 297.239L94.2199 305.245Z" fill="#85B1E0"/>
<path d="M131.822 374.303H142.389C142.83 374.303 143.194 374.656 143.194 375.108V383.081C143.194 383.522 142.841 383.875 142.4 383.875H131.833C131.392 383.875 131.039 383.522 131.039 383.081V375.108C131.039 374.667 131.392 374.314 131.833 374.314L131.822 374.303Z" fill="white"/>
<path d="M110.247 375.516C136.278 375.527 157.368 381.614 157.368 392.488L63.1147 392.444C63.1147 381.559 84.2155 375.494 110.247 375.505V375.516Z" fill="#EEF5FF"/>
<path d="M110.247 382.298C114.979 382.298 114.041 378.714 112.276 375.527C111.603 375.527 110.931 375.516 110.258 375.516C104.511 375.516 99.007 375.802 93.911 376.387C96.5362 378.129 103.529 382.298 110.247 382.298Z" fill="#85B1E0"/>
<path d="M150.176 230.596C154.147 234.423 160.467 234.313 164.295 230.343C168.122 226.384 168.012 220.053 164.041 216.238C160.07 212.411 153.75 212.521 149.922 216.491C146.095 220.462 146.205 226.77 150.176 230.596Z" fill="#D6E3F3"/>
<path d="M153.761 226.891C155.68 228.733 158.735 228.688 160.578 226.77C162.431 224.851 162.375 221.807 160.456 219.954C158.537 218.101 155.493 218.157 153.64 220.076C151.786 221.994 151.853 225.038 153.761 226.891Z" fill="#85B1E0"/>
<path d="M84.3699 289.828C84.3699 295.342 88.8372 299.808 94.3523 299.808C99.8674 299.808 104.335 295.342 104.335 289.828C104.335 284.314 99.8674 279.847 94.3523 279.847C88.8372 279.847 84.3699 284.314 84.3699 289.817V289.828Z" fill="#D6E3F3"/>
<path d="M89.521 289.828C89.521 292.486 91.6719 294.647 94.3412 294.647C97.0105 294.647 99.1614 292.497 99.1614 289.828C99.1614 287.17 96.9995 285.009 94.3412 285.009C91.6829 285.009 89.521 287.17 89.521 289.828Z" fill="#85B1E0"/>
<path d="M100.275 372.318C100.275 377.832 104.743 382.298 110.247 382.298C115.762 382.298 120.229 377.832 120.229 372.318C120.229 366.803 115.762 362.337 110.258 362.337C104.743 362.337 100.275 366.803 100.275 372.318Z" fill="#D6E3F3"/>
<path d="M105.427 372.318C105.427 374.975 107.577 377.137 110.247 377.137C112.905 377.137 115.067 374.975 115.067 372.318C115.067 369.66 112.916 367.498 110.247 367.498C107.577 367.498 105.427 369.66 105.427 372.318Z" fill="#85B1E0"/>
<path d="M167.046 222.177L156.44 233.17L160.933 237.503L171.539 226.511L167.046 222.177Z" fill="#EEF5FF"/>
<path d="M219.335 243.962C199.922 225.237 181.899 213.095 164.35 230.629C148.213 246.741 160.247 266.371 179.66 285.097L219.346 243.973L219.335 243.962Z" fill="#D6E3F3"/>
<path d="M149.922 216.491C146.095 220.462 146.205 226.77 150.176 230.596C154.147 234.423 160.467 234.313 164.295 230.343C168.122 226.384 168.012 220.053 164.041 216.238C160.07 212.411 153.75 212.521 149.922 216.491ZM94.3412 299.819C99.8563 299.819 104.324 295.353 104.324 289.839C104.324 284.325 99.8563 279.859 94.3412 279.859C88.8261 279.859 84.3589 284.325 84.3589 289.828C84.3589 295.331 88.8261 299.808 94.3412 299.808V299.819ZM100.275 372.318C100.275 377.832 104.743 382.298 110.247 382.298C115.762 382.298 120.229 377.832 120.229 372.318C120.229 366.804 115.762 362.337 110.258 362.337C104.743 362.337 100.275 366.804 100.275 372.318Z" fill="#EEF5FF"/>
<path d="M157.136 219.954C158.967 219.954 160.456 221.443 160.456 223.274C160.456 225.104 158.967 226.593 157.136 226.593C155.305 226.593 153.816 225.104 153.816 223.274C153.816 221.443 155.305 219.954 157.136 219.954Z" fill="white"/>
<path d="M94.3523 286.453C96.1833 286.453 97.6723 287.942 97.6723 289.773C97.6723 291.603 96.1833 293.092 94.3523 293.092C92.5212 293.092 91.0322 291.603 91.0322 289.773C91.0322 287.942 92.5212 286.453 94.3523 286.453Z" fill="white"/>
<path d="M110.258 368.998C112.089 368.998 113.578 370.487 113.578 372.317C113.578 374.148 112.089 375.637 110.258 375.637C108.427 375.637 106.938 374.148 106.938 372.317C106.938 370.487 108.427 368.998 110.258 368.998Z" fill="white"/>
<path d="M218.287 228.049C218.287 228.049 220.107 242.396 227.586 275.789C227.586 275.789 229.274 280.41 230.112 281.777C230.112 281.777 232.428 283.024 244.936 287.17C255.217 290.578 255.856 284.744 237.293 276.12L238.307 226.483C238.307 226.483 226.527 216.293 218.287 228.049Z" fill="#ED985F"/>
<path d="M227.74 275.767L228.38 282.516L249.459 290.258C249.459 290.258 255.978 291.46 253.319 286.718C250.65 281.943 240.888 276.638 237.281 276.109C237.281 276.109 246.227 281.105 248.135 284.601C248.135 284.601 238.561 279.848 227.729 275.756L227.74 275.767Z" fill="#357DED"/>
<path d="M242.642 231.655C242.642 231.655 248.665 244.8 265.806 274.433C265.806 274.433 268.806 278.337 270.008 279.384C270.008 279.384 272.6 279.881 285.759 280.09C296.591 280.267 295.455 274.51 275.159 271.83L261.283 224.167C261.283 224.167 246.999 217.969 242.642 231.655Z" fill="#ED985F"/>
<path d="M265.938 274.367L268.574 280.62L291.01 281.7C291.01 281.7 297.595 280.895 293.635 277.168C289.653 273.407 278.755 271.268 275.159 271.841C275.159 271.841 285.186 273.926 288.064 276.705C288.064 276.705 277.509 275.039 265.949 274.367H265.938Z" fill="#357DED"/>
<path d="M150.297 174.761C149.944 190.068 161.736 193.035 179.042 195.351C198.83 197.997 222.501 192.649 222.501 192.649C227.454 205.938 241.649 234.611 250.694 249.035L266.556 241.999C266.556 241.999 248.907 174.078 242.775 169.137C236.719 164.252 201.29 160.017 173.968 159.454C173.968 159.454 150.706 157.315 150.297 174.761Z" fill="#1B3770"/>
<path d="M129.45 153.102C129.45 153.102 126.241 166.942 129.947 179.206C134.37 193.862 151.786 195.406 169.203 196.63C189.113 198.03 210.577 192.219 210.577 192.219C211.096 203.699 219.335 235.228 222.49 251.958L238.02 250.722C238.02 250.722 240.966 170.604 231.645 163.855C225.347 159.289 197.407 158.693 170.119 159.851L163.578 149.276C141.528 151.161 129.45 153.102 129.45 153.102Z" fill="#2B478B"/>
<path d="M238.142 231.17C238.142 231.17 238.539 239.551 238.02 250.722L226.273 251.66C226.273 251.66 226.174 249.278 230.443 245.947C232.726 244.172 233.09 242.418 233.917 237.588C234.745 232.758 236.267 231.015 238.142 231.17Z" fill="#2B478B"/>
<path d="M170.119 159.851C170.119 159.851 155.548 166.148 146.371 163.193C142.51 161.947 134.778 152.507 134.778 152.507C134.778 152.507 159.75 149.452 163.567 149.265L170.108 159.84L170.119 159.851Z" fill="#1B3770"/>
<path d="M210.599 192.296C210.599 192.296 210.644 188.061 210.004 185.15C209.364 182.238 201.577 185.15 194.264 190.201C186.951 195.263 186.157 194.568 183.939 196.542C183.939 196.542 204.434 194.568 210.588 192.296H210.599Z" fill="#1B3770"/>
<path d="M131.932 88.2353C131.778 87.5075 131.734 86.7355 131.811 85.9415C132.153 82.192 135.186 79.1813 138.936 78.8725C139.477 78.8284 140.006 78.8395 140.525 78.8946C141.573 79.0159 142.609 78.5527 143.15 77.6484C144.507 75.3325 147.021 73.7776 149.9 73.7776C153.044 73.7776 155.746 75.6303 156.993 78.2881C157.434 79.2365 158.515 79.6776 159.486 79.2806C160.489 78.8836 161.592 78.6851 162.75 78.7292C166.832 78.9167 170.119 82.2802 170.207 86.3606C170.251 88.1581 169.677 89.8234 168.696 91.1578C168.1 91.9739 167.935 93.0436 168.255 94.003C168.563 94.9183 168.729 95.8888 168.729 96.9034C168.729 101.965 164.626 106.068 159.563 106.068C159.563 106.068 159.552 106.068 159.541 106.068C158.316 106.068 157.18 106.685 156.529 107.733C154.908 110.325 152.04 112.045 148.764 112.045C145.488 112.045 142.786 110.424 141.142 107.976C140.447 106.939 139.278 106.299 138.032 106.31C137.822 106.31 137.613 106.31 137.403 106.288C132.671 105.99 128.91 102.053 128.822 97.3114C128.777 94.8963 129.671 92.6796 131.171 91.0254C131.855 90.2645 132.153 89.2389 131.954 88.2353H131.932Z" fill="#20120C"/>
<path d="M158.835 92.2274C158.835 92.2274 159.331 99.8588 157.599 102.748C155.868 105.638 153.706 106.012 153.706 106.012C153.706 106.012 153.706 110.115 154.059 110.391C154.379 110.633 154.853 110.688 154.853 110.688C154.853 110.688 154.081 118.11 149.768 117.57C142.565 116.666 141.738 110.302 141.738 110.302C141.738 110.302 143.801 109.641 144.065 109.111C144.33 108.582 144.573 101.292 144.749 100.278C144.209 100.509 141.242 99.5611 141.396 97.4437C141.981 94.9955 144.363 96.0431 145.223 97.1018C145.223 97.1018 145.731 96.7379 145.985 95.1278C146.238 93.5177 147.176 93.3964 148.158 92.7678C149.139 92.1392 149.448 91.279 150.055 90.7828C151.235 89.3271 153.518 90.3747 153.518 90.3747C154.886 89.9667 155.636 89.3712 157.158 89.9115C158.162 90.2644 158.592 90.3858 158.835 92.2385V92.2274Z" fill="#FFB27D"/>
<path d="M153.706 106.012C153.706 106.012 148.257 108.428 145.19 101.932C145.19 101.932 146.437 109.74 153.761 108.284L153.706 106.012Z" fill="#ED985F"/>
<path d="M144.573 98.9546C144.639 98.9546 144.705 98.8995 144.738 98.8333C144.782 98.7341 144.738 98.6017 144.639 98.5576L142.709 97.6533C142.609 97.6092 142.477 97.6533 142.433 97.7526C142.389 97.8518 142.433 97.9842 142.532 98.0283L144.462 98.9326C144.462 98.9326 144.54 98.9546 144.584 98.9546H144.573Z" fill="#ED985F"/>
<path d="M154.345 99.9251C154.776 99.87 155.195 99.7046 155.261 99.2745C155.36 98.5576 154.345 96.1976 154.235 95.933C154.191 95.8227 154.07 95.7786 153.959 95.8227C153.849 95.8668 153.805 95.9881 153.849 96.0984C154.268 97.0578 154.908 98.7561 154.842 99.2083C154.787 99.5612 153.871 99.5502 153.452 99.495C153.342 99.484 153.231 99.5612 153.22 99.6715C153.209 99.7818 153.287 99.892 153.397 99.9031C153.485 99.9141 153.915 99.9692 154.345 99.9141V99.9251Z" fill="#ED985F"/>
<path d="M156.96 96.341C156.971 96.6939 156.717 96.9916 156.397 97.0137C156.077 97.0247 155.801 96.749 155.79 96.3851C155.779 96.0322 156.033 95.7344 156.353 95.7124C156.673 95.6903 156.949 95.977 156.96 96.341Z" fill="#363435"/>
<path d="M152.062 94.1794C152.117 94.1794 152.173 94.1464 152.206 94.0912C152.272 93.992 152.25 93.8707 152.15 93.8045C152.139 93.8045 150.75 92.8671 149.558 94.0361C149.481 94.1133 149.47 94.2456 149.558 94.3338C149.636 94.411 149.768 94.4221 149.856 94.3338C150.805 93.4075 151.875 94.1133 151.919 94.1464C151.963 94.1794 152.018 94.1905 152.062 94.1794Z" fill="#363435"/>
<path d="M157.368 93.9369C157.368 93.9369 157.456 93.9038 157.5 93.8707C157.577 93.7825 157.577 93.6502 157.489 93.573C156.805 92.9444 155.89 93.3193 155.504 93.606C155.415 93.6722 155.393 93.8045 155.46 93.9038C155.526 93.992 155.658 94.0141 155.757 93.9479C155.79 93.9148 156.607 93.3303 157.202 93.8817C157.246 93.9259 157.313 93.9479 157.368 93.9369Z" fill="#363435"/>
<path d="M151.463 97.3848C151.798 97.3729 152.059 97.0671 152.046 96.7019C152.032 96.3367 151.751 96.0503 151.416 96.0623C151.081 96.0742 150.82 96.3799 150.833 96.7451C150.846 97.1103 151.128 97.3967 151.463 97.3848Z" fill="#363435"/>
<path d="M154.136 101.998C154.246 101.976 154.334 101.877 154.312 101.767C154.301 101.656 154.191 101.568 154.081 101.59C154.015 101.59 151.544 101.91 150.75 100.642C150.683 100.543 150.562 100.51 150.463 100.576C150.364 100.642 150.33 100.763 150.397 100.862C151.312 102.34 153.915 102.031 154.125 102.009L154.136 101.998Z" fill="#ED985F"/>
<path d="M101.698 178.654C98.1908 180.066 93.4809 184.256 88.5504 188.954C88.1974 189.285 88.1753 189.848 88.4842 190.212C88.5614 190.3 88.6386 190.366 88.7379 190.41C89.0136 190.564 89.3666 190.564 89.6534 190.388L94.3192 187.532L87.1937 195.152C86.8517 195.516 86.8186 196.056 87.0944 196.464C87.1937 196.608 87.315 196.707 87.4474 196.784C87.8113 196.983 88.2856 196.961 88.6276 196.674L93.6574 192.472L87.9878 198.714C87.6238 199.111 87.668 199.74 88.0981 200.082C88.1423 200.115 88.1864 200.148 88.2305 200.17C88.5724 200.357 89.0136 200.313 89.3115 200.049L95.9185 194.204L92.6426 200.721C92.3227 201.35 92.5764 202.111 93.2051 202.431C93.4919 202.574 93.8007 202.596 94.0986 202.53C94.3853 202.453 94.6501 202.276 94.8266 202.012L101.985 191.403L101.765 194.204L99.8563 196.828C99.4261 197.303 99.2386 197.942 99.3379 198.571C99.382 198.813 99.5254 199.001 99.7129 199.1C99.9887 199.255 100.353 199.233 100.606 198.979L104.39 195.262C104.599 195.064 104.743 194.799 104.798 194.524C106.474 189.782 107.202 185.227 107.291 182.007L107.401 181.885L101.93 177.871C101.842 178.125 101.765 178.379 101.676 178.632L101.698 178.654Z" fill="#FFB27D"/>
<path d="M211.713 140.133C215.442 139.494 220.935 136.395 226.737 132.844C227.156 132.59 227.299 132.061 227.056 131.631C227.001 131.532 226.935 131.454 226.858 131.377C226.615 131.168 226.273 131.09 225.964 131.201L220.802 133.009L229.384 127.065C229.792 126.789 229.946 126.26 229.759 125.808C229.693 125.654 229.593 125.521 229.483 125.411C229.174 125.135 228.7 125.058 228.303 125.279L222.501 128.322L229.362 123.415C229.803 123.095 229.891 122.477 229.549 122.058C229.516 122.014 229.472 121.97 229.439 121.937C229.141 121.672 228.711 121.628 228.358 121.827L220.659 126.139L225.236 120.459C225.678 119.908 225.589 119.114 225.049 118.673C224.806 118.474 224.497 118.375 224.2 118.386C223.902 118.397 223.604 118.518 223.372 118.739L214.129 127.594L214.945 124.904L217.361 122.742C217.879 122.367 218.199 121.783 218.232 121.154C218.243 120.912 218.144 120.702 217.979 120.559C217.747 120.349 217.383 120.294 217.085 120.481L212.607 123.316C212.364 123.47 212.166 123.691 212.044 123.955C209.397 128.234 207.721 132.524 206.959 135.667L206.827 135.755C208.327 137.443 209.827 139.141 211.327 140.828C211.46 140.597 211.603 140.365 211.736 140.133H211.713Z" fill="#FFB27D"/>
<path d="M150.573 115.342L156.265 109.652C156.364 109.553 156.485 109.486 156.618 109.464L157.136 109.365C157.588 109.277 158.041 109.453 158.305 109.828L160.975 113.523C161.173 113.798 161.493 113.975 161.846 113.975L165.993 114.074C166.931 114.096 167.835 114.416 168.585 114.978C173.306 118.529 190.999 131.995 193.403 136.285L199.095 132.204L197.915 130.759C197.507 130.263 197.551 129.535 198.014 129.083L202.305 124.904C202.636 124.573 203.165 124.551 203.529 124.848L220.924 138.744C221.365 139.097 221.453 139.725 221.133 140.188L217.251 145.736C216.876 146.265 216.181 146.452 215.585 146.177L214.416 145.625C214.416 145.625 205.514 160.943 202.161 163.425C202.161 163.425 195.014 170.868 186.984 163.425L168.74 146.066L164.945 153.797H129.197L127.884 148.107L110.787 187.94C110.478 188.657 109.64 188.988 108.923 188.679L88.7268 179.878C88.0319 179.581 87.7452 178.765 88.0761 178.081L90.4696 173.295C90.7454 172.743 91.4072 172.512 91.9587 172.765L93.8779 173.625L111.295 129.039C112.453 126.073 114.118 123.316 116.258 120.945C118.299 118.695 121.056 116.445 124.476 115.497C124.696 115.431 124.928 115.364 125.149 115.287L136.488 111.317L139.73 108.825C140.061 108.571 140.514 108.56 140.856 108.792L150.562 115.331L150.573 115.342Z" fill="#F89D13"/>
<path d="M160.313 113.898C159.905 114.923 159.486 115.949 159.077 116.963C158.427 118.585 157.776 120.206 157.114 121.816C156.96 122.191 156.816 122.566 156.662 122.93C156.938 122.852 157.213 122.786 157.489 122.709C156.75 121.904 156.011 121.099 155.261 120.283C154.081 119.004 152.912 117.724 151.731 116.434C151.456 116.136 151.191 115.85 150.915 115.552C150.739 115.353 150.397 115.364 150.209 115.552C149.47 116.313 148.72 117.074 147.981 117.824C146.801 119.026 145.632 120.228 144.451 121.43C144.187 121.706 143.911 121.981 143.646 122.257C143.911 122.29 144.165 122.323 144.429 122.356C144.209 121.981 143.988 121.606 143.756 121.22C143.227 120.316 142.687 119.412 142.157 118.507C141.506 117.416 140.867 116.313 140.216 115.221C139.653 114.273 139.102 113.324 138.539 112.376C138.263 111.913 138.01 111.449 137.723 110.997C137.723 110.997 137.723 110.986 137.712 110.975C137.58 110.744 137.271 110.666 137.039 110.799C136.807 110.931 136.73 111.24 136.863 111.472C137.083 111.846 137.304 112.221 137.535 112.607L139.135 115.32C139.786 116.412 140.425 117.515 141.076 118.607C141.639 119.555 142.19 120.503 142.753 121.452C143.028 121.915 143.282 122.378 143.569 122.83C143.569 122.83 143.569 122.841 143.58 122.852C143.745 123.128 144.132 123.183 144.363 122.952C145.102 122.191 145.852 121.43 146.591 120.68C147.771 119.478 148.941 118.276 150.121 117.074C150.386 116.798 150.661 116.522 150.926 116.247H150.22C150.959 117.052 151.698 117.857 152.448 118.673C153.629 119.952 154.798 121.231 155.978 122.522C156.254 122.819 156.518 123.106 156.794 123.404C156.915 123.536 157.114 123.58 157.279 123.536C157.456 123.481 157.555 123.36 157.621 123.194C158.03 122.169 158.449 121.143 158.857 120.129C159.508 118.507 160.158 116.886 160.82 115.276C160.975 114.901 161.118 114.526 161.272 114.162C161.372 113.909 161.162 113.622 160.93 113.556C160.644 113.479 160.423 113.655 160.324 113.898H160.313Z" fill="#D17E11"/>
<path d="M150.319 116.357C150.353 116.445 150.397 116.533 150.43 116.611C150.452 116.655 150.474 116.699 150.485 116.743C150.496 116.765 150.507 116.798 150.518 116.82C150.441 116.633 150.496 116.765 150.518 116.798C150.573 116.941 150.639 117.085 150.694 117.228C151.047 118.088 151.389 118.96 151.731 119.831C152.746 122.488 153.662 125.179 154.412 127.914C154.82 129.381 155.173 130.87 155.437 132.381C155.504 132.734 155.559 133.086 155.614 133.45C155.614 133.494 155.625 133.539 155.636 133.583C155.636 133.594 155.658 133.748 155.636 133.627C155.647 133.715 155.658 133.803 155.669 133.891C155.691 134.068 155.713 134.233 155.724 134.41C155.79 135.071 155.835 135.733 155.835 136.406C155.835 138.071 155.537 139.67 155.217 141.302C154.842 143.188 154.356 145.052 153.805 146.894C153.143 149.143 152.393 151.371 151.533 153.554C151.522 153.588 151.511 153.621 151.489 153.654C151.389 153.896 151.599 154.194 151.831 154.26C152.117 154.337 152.338 154.161 152.437 153.918C153.187 152.077 153.816 150.191 154.412 148.294C154.974 146.508 155.471 144.699 155.89 142.868C156.309 141.038 156.673 139.152 156.794 137.277C156.882 135.921 156.75 134.553 156.563 133.208C156.342 131.708 156.022 130.219 155.647 128.741C154.919 125.907 154.004 123.128 152.978 120.382C152.614 119.401 152.228 118.419 151.842 117.449C151.632 116.941 151.433 116.423 151.202 115.927C151.202 115.905 151.18 115.883 151.18 115.861C151.069 115.618 150.717 115.563 150.507 115.684C150.253 115.828 150.22 116.114 150.33 116.357H150.319Z" fill="#D17E11"/>
<path d="M166.424 125.62C166.49 125.687 166.556 125.753 166.611 125.83C166.688 125.918 166.765 126.006 166.832 126.095C166.876 126.15 166.92 126.205 166.964 126.26C166.986 126.282 167.063 126.392 166.997 126.304C166.931 126.216 167.019 126.337 167.041 126.359C167.615 127.12 168.111 127.936 168.541 128.796C168.685 129.072 168.806 129.359 168.938 129.635C168.949 129.668 168.972 129.701 168.983 129.734C169.005 129.8 168.949 129.646 168.972 129.701C168.972 129.712 168.983 129.734 168.994 129.745C169.027 129.822 169.06 129.91 169.093 129.988C169.159 130.153 169.214 130.307 169.28 130.473C169.534 131.179 169.744 131.895 169.909 132.623C169.997 133.02 170.075 133.428 170.141 133.825C170.152 133.925 170.174 134.035 170.185 134.134C170.185 134.156 170.185 134.178 170.185 134.2C170.174 134.101 170.185 134.178 170.185 134.2C170.185 134.266 170.196 134.333 170.207 134.388C170.229 134.608 170.251 134.818 170.273 135.038C170.35 135.998 170.361 136.957 170.295 137.906C170.284 138.159 170.262 138.402 170.229 138.656C170.218 138.777 170.207 138.898 170.185 139.008C170.185 139.075 170.174 139.141 170.163 139.218C170.163 139.251 170.163 139.284 170.152 139.317C170.152 139.262 170.152 139.317 170.152 139.339C170.075 139.891 169.975 140.453 169.854 140.994C169.6 142.185 169.247 143.354 168.828 144.489C168.718 144.798 168.596 145.096 168.475 145.394C168.376 145.636 168.585 145.934 168.817 146C169.104 146.077 169.324 145.901 169.424 145.658C170.339 143.409 170.979 141.06 171.222 138.645C171.409 136.748 171.332 134.84 170.979 132.976C170.703 131.509 170.229 130.076 169.6 128.719C169.17 127.782 168.652 126.889 168.045 126.051C167.758 125.665 167.471 125.245 167.118 124.915C167.118 124.915 167.118 124.915 167.107 124.904C166.655 124.451 165.96 125.157 166.401 125.609L166.424 125.62Z" fill="#D17E11"/>
<path d="M192.686 136.152C191.76 137.012 190.844 137.884 189.94 138.766C188.23 140.431 186.543 142.118 184.976 143.905C184.259 144.71 183.553 145.548 182.98 146.463C182.836 146.695 182.936 147.004 183.156 147.136C183.388 147.28 183.697 147.191 183.829 146.96C183.928 146.794 184.039 146.64 184.149 146.474C184.204 146.386 184.27 146.309 184.326 146.232C184.359 146.188 184.392 146.144 184.425 146.1C184.436 146.088 184.447 146.066 184.458 146.055C184.546 145.945 184.425 146.1 184.48 146.033C184.789 145.636 185.109 145.25 185.44 144.875C186.212 143.982 187.017 143.122 187.844 142.273C189.333 140.74 190.855 139.24 192.4 137.773C192.719 137.465 193.05 137.167 193.37 136.858C193.569 136.682 193.558 136.34 193.37 136.152C193.172 135.954 192.863 135.965 192.664 136.152H192.686Z" fill="#D17E11"/>
<path d="M198.676 132.469C199.238 132.921 199.79 133.373 200.352 133.825C201.687 134.906 203.022 135.987 204.356 137.068C205.967 138.369 207.588 139.681 209.199 140.983C210.599 142.107 211.989 143.243 213.39 144.368C214.074 144.92 214.747 145.471 215.431 146.011C215.431 146.011 215.453 146.022 215.464 146.033C215.673 146.199 215.96 146.232 216.17 146.033C216.346 145.857 216.379 145.504 216.17 145.328C215.607 144.875 215.056 144.423 214.493 143.971C213.158 142.89 211.824 141.81 210.489 140.729C208.879 139.428 207.257 138.115 205.647 136.814C204.246 135.689 202.856 134.553 201.455 133.428C200.772 132.877 200.099 132.326 199.415 131.785C199.415 131.785 199.393 131.774 199.382 131.763C199.172 131.598 198.885 131.565 198.676 131.763C198.499 131.94 198.466 132.292 198.676 132.469Z" fill="#D17E11"/>
<path d="M94.264 174.034C94.8817 174.298 95.4994 174.552 96.1281 174.816C97.6172 175.445 99.1063 176.074 100.595 176.702C102.393 177.463 104.191 178.224 106 178.985C107.555 179.636 109.1 180.297 110.655 180.948C111.162 181.169 111.681 181.378 112.188 181.599C112.431 181.698 112.673 181.819 112.916 181.908C112.927 181.908 112.938 181.908 112.949 181.919C113.192 182.018 113.49 181.808 113.556 181.577C113.633 181.29 113.457 181.069 113.214 180.97C112.596 180.705 111.979 180.452 111.35 180.187C109.861 179.559 108.372 178.93 106.883 178.301C105.085 177.54 103.287 176.779 101.478 176.019C99.9225 175.368 98.3783 174.706 96.823 174.056C96.3156 173.835 95.7972 173.625 95.2898 173.405C95.0472 173.306 94.8045 173.184 94.5618 173.096C94.5508 173.096 94.5398 173.096 94.5288 173.085C94.2861 172.986 93.9883 173.195 93.9221 173.427C93.8449 173.714 94.0214 173.934 94.264 174.034Z" fill="#D17E11"/>
<path d="M321.74 251.627L294.407 272.415L303.264 279.671L332.296 261.761L321.74 251.627Z" fill="#F2725F"/>
<path d="M440.16 367.531C425.798 389.466 399.977 401.266 339.002 390.161C278.027 379.067 288.572 328.999 309.684 322.548C330.795 316.097 364.283 280.84 368.32 275.833C368.32 275.833 373.14 268.621 380.387 263.857C381.292 263.261 382.229 262.699 383.222 262.203C386.619 260.449 390.414 259.401 394.418 259.832C395.134 259.909 395.851 260.041 396.535 260.229C397.109 260.383 397.66 260.57 398.212 260.791C410.102 265.533 416.445 285.306 419.633 292.96C423.151 301.396 454.532 345.597 440.16 367.531Z" fill="#93BBE5"/>
<path d="M397.55 331.304C397.484 331.304 397.418 331.315 397.352 331.315C396.954 331.315 396.591 331.073 396.502 330.709C391.252 310.704 396.26 262.478 396.48 260.438C396.48 260.361 396.502 260.295 396.546 260.218C397.12 260.372 397.671 260.559 398.223 260.78C397.87 264.21 393.204 311.222 398.223 330.356C398.333 330.786 398.035 331.205 397.561 331.304H397.55Z" fill="#A9CBF7"/>
<path d="M383.222 262.203C379.99 268.268 352.04 320.563 345.852 327.345C345.675 327.533 345.421 327.632 345.168 327.632C344.98 327.632 344.782 327.577 344.616 327.467C344.241 327.202 344.186 326.717 344.484 326.386C349.988 320.365 374.122 275.591 380.398 263.868C381.303 263.272 382.24 262.71 383.233 262.214L383.222 262.203Z" fill="#A9CBF7"/>
<path d="M394.616 392.609C394.362 392.444 366.677 373.564 363.004 363.848C359.397 354.331 381.071 333.344 381.292 333.124C381.623 332.804 381.589 332.319 381.236 332.032C380.883 331.745 380.321 331.767 379.99 332.076C379.141 332.903 360.533 350.934 360.875 361.841C349.492 361.179 324.254 359.36 310.864 355.632C316.037 341.439 318.155 327.125 318.177 326.937C318.243 326.518 317.901 326.121 317.416 326.077C316.941 326.022 316.489 326.32 316.434 326.75C316.401 326.992 312.827 351.155 303.617 367.62C303.407 368.005 303.584 368.469 304.014 368.656C304.135 368.711 304.268 368.733 304.4 368.733C304.72 368.733 305.04 368.579 305.194 368.303C307.147 364.807 308.845 360.981 310.312 357.11C324.023 360.925 349.745 362.756 361.051 363.407C361.128 363.727 361.206 364.035 361.327 364.333C365.188 374.512 392.509 393.171 393.568 393.855C393.723 393.954 393.91 393.999 394.087 393.999C394.362 393.999 394.627 393.888 394.804 393.679C395.09 393.337 395.002 392.852 394.605 392.598L394.616 392.609Z" fill="#A9CBF7"/>
<path d="M352.999 298.353C353.628 297.536 372.942 275.756 393.359 292.96C398.697 303.966 410.753 317.519 413.301 319.262C415.849 321.004 407.499 339.2 352.999 329.904C334.678 326.86 307.775 329.705 318.442 321.964C329.108 314.222 347.892 304.925 352.999 298.353Z" fill="#A9CBF7"/>
<path d="M291.87 304.462C306.518 298.75 321.254 295.551 339.09 294.923C358.933 294.228 385.99 309.634 364.151 321.357C353.165 327.257 344.186 332.705 302.128 330.422C266.545 328.492 269.567 313.163 291.87 304.451V304.462Z" fill="#F89D13"/>
<path d="M377.85 302.455C380.872 302.984 387.071 303.172 391.219 306.844C394.131 309.425 395.653 332.771 378.556 334.414C360.191 336.179 350.175 331.492 349.083 327.665C347.991 323.838 349.26 297.448 377.839 302.455H377.85Z" fill="#F89D13"/>
<path d="M378.556 334.414C386.652 333.642 390.568 327.985 392.145 321.975C388.549 329.849 374.365 330.951 374.365 330.951C374.365 330.951 368.287 328.393 366.809 327.908C365.342 327.422 365.618 329.275 364.371 332.385C364.062 333.168 363.952 333.808 363.996 334.414C368.044 334.877 372.898 334.955 378.556 334.414Z" fill="#D17E11"/>
<path d="M245.113 386.5C255.272 385.474 259.596 374.909 259.596 374.909L271.806 380.136C271.806 380.136 272.843 384.426 271.596 396.293C271.596 396.293 269.832 398.52 262.585 397.947C255.338 397.373 239.642 400.031 230.663 394.859L231.171 390.745C231.171 390.745 230.829 387.944 245.124 386.5H245.113Z" fill="#20120C"/>
<path d="M295.036 331.007C295.808 337.745 277.299 386.081 277.299 386.081C265.177 384.515 254.952 376.078 254.952 376.078C257.588 371.821 273.085 317.784 277.189 314.012C286.278 305.642 294.341 324.842 295.036 331.007Z" fill="#F89D13"/>
<path d="M280.001 368.976C274.696 380.809 263.975 379.761 254.996 376.122C255.514 376.541 265.497 384.559 277.288 386.08C277.288 386.08 295.058 338.086 295.94 331.37C296.172 329.573 302.393 330.709 300.992 327.555L291.374 322.327C291.374 322.327 290.061 346.512 279.99 368.976H280.001Z" fill="#D17E11"/>
<path d="M336.917 400.737C337.722 396.866 338.318 391.561 338.318 391.561C341.605 386.103 354.874 392.08 354.874 392.08C352.337 397.263 358.437 403.725 354.389 406.118C350.341 408.512 352.988 411.368 347.484 412.36C338.02 414.07 332.439 411.765 332.439 411.765C332.439 411.765 331.413 410.717 331.898 407.585C332.318 404.883 336.112 404.597 336.917 400.737Z" fill="#20120C"/>
<path d="M368.199 311.983C371.872 314.895 380.928 318.986 380.928 318.986C380.928 318.986 373.383 323.96 373.383 340.458C373.383 356.956 355.26 397.307 355.26 397.307C355.26 397.307 354.51 395.587 347.164 393.966C339.829 392.344 336.487 392.775 336.487 392.775C338.539 377.236 348.344 343.645 348.764 325.625C349.172 307.616 364.548 309.072 368.21 311.983H368.199Z" fill="#F89D13"/>
<path d="M334.071 330.422C332.858 330.521 331.601 330.609 330.277 330.698C329.924 330.709 329.571 330.742 329.207 330.753C328.071 330.808 326.88 330.852 325.655 330.885C324.42 330.929 323.151 330.94 321.839 330.951C316.202 330.995 309.706 330.841 302.128 330.422C301.94 330.411 301.775 330.411 301.598 330.389C299.161 330.246 296.9 330.036 294.826 329.782C294.914 330.235 294.98 330.632 295.025 331.006C295.058 331.26 295.058 331.602 295.013 332.01C294.727 331.183 294.429 330.422 294.131 329.694C292.157 324.875 290.171 322.14 292.267 322.338C293.072 322.394 294.495 322.912 296.756 323.882C306.055 327.93 333.663 330.389 334.071 330.411V330.422Z" fill="#D17E11"/>
<path d="M395.157 249.443C392.575 267.805 390.005 286.167 387.424 304.528C379.174 303.37 370.901 302.234 362.584 301.11C354.654 300.04 346.745 298.981 338.87 297.956L338.77 260.857L338.748 247.899L358.746 236.121L363.577 233.276L375.479 233.309L380.233 237.213L395.146 249.465L395.157 249.443Z" fill="#2B478B"/>
<path d="M357.036 234.423L339.884 237.478C339.035 237.632 338.219 237.974 337.535 238.492L318.541 252.63L326.935 269.294L338.781 260.846L341.329 259.038L360.169 237.224L363.577 233.265L357.036 234.423Z" fill="#2B478B"/>
<path d="M427.42 294.305C427.122 298.275 424.376 301.65 420.559 302.775C419.71 303.029 418.849 303.161 417.989 303.161C417.636 303.172 417.294 303.161 416.952 303.128C414.349 302.885 411.9 301.606 410.235 299.455L394.947 275.514L412.496 265.655L425.986 286.542C427.067 288.207 427.596 290.17 427.519 292.155L427.442 293.941C427.442 294.063 427.442 294.195 427.42 294.305Z" fill="#F7BBA6"/>
<path d="M398.355 243.753C397.738 242.782 396.833 242.032 395.774 241.602L382.075 235.989L375.49 233.298L377.221 238.812L383.762 257.979L394.958 275.514L412.507 265.654L398.366 243.764L398.355 243.753Z" fill="#2B478B"/>
<path d="M425.302 287.391L412.022 263.592C412.022 263.592 414.923 253.138 413.544 252.41C410.864 251.009 408.338 260.306 408.338 260.306C408.338 260.306 400.462 257.593 399.161 258.674C397.859 259.755 394.219 267.496 396.315 269.68C398.41 271.863 403.297 274.554 403.297 274.554L413.147 297.14L425.302 287.38V287.391Z" fill="#F7BBA6"/>
<path d="M412.871 297.272L403.054 274.775C402.282 274.344 397.142 271.422 396.061 269.856L396.546 269.514C397.616 271.058 403.374 274.267 403.429 274.3L403.517 274.344L403.562 274.433L413.412 297.018L412.871 297.261V297.272Z" fill="#DC6A61"/>
<path d="M397.732 260.672L397.493 261.217L402.241 263.297L402.48 262.751L397.732 260.672Z" fill="#DC6A61"/>
<path d="M396.506 263.786L396.198 264.296L401.156 267.288L401.464 266.778L396.506 263.786Z" fill="#DC6A61"/>
<path opacity="0.3" d="M427.42 294.305C427.122 298.275 424.376 301.65 420.559 302.775C419.71 303.029 418.849 303.161 417.989 303.161C417.912 302.576 417.89 301.992 417.945 301.385C418.342 297.007 422.203 293.798 426.582 294.195C426.868 294.217 427.155 294.261 427.42 294.305Z" fill="#DC6A61"/>
<path d="M372.534 222.755L372.114 230.111L371.993 232.25L371.618 238.801C371.486 241.15 369.467 242.959 367.118 242.815L364.713 242.683C362.353 242.551 360.555 240.533 360.698 238.184L361.151 230.177L361.173 229.703L361.603 222.149L372.534 222.766V222.755Z" fill="#F7BBA6"/>
<path d="M375.137 224.178L380.244 216.933C383.012 213.238 379.45 208.882 376.659 207.548L367.03 202.927C364.085 201.515 358.768 202.563 358.062 207.879L357.555 214.076L375.126 224.167L375.137 224.178Z" fill="#20120C"/>
<path d="M358.889 228.92C362.827 230.806 370.603 229.549 373.008 224.542L377.089 217.175C379.494 212.168 377.376 206.169 372.368 203.765C367.36 201.361 361.36 203.478 358.955 208.485L355.768 216.282C353.363 221.289 354.797 226.957 358.878 228.92H358.889Z" fill="#F7BBA6"/>
<path d="M363.919 197.711C368.022 197.093 373.438 201.493 376.063 204.559C376.449 203.567 377.012 203.964 377.012 203.964C382.152 208.287 378.479 211.992 378.479 211.992C378.479 211.992 378.446 211.992 378.413 211.992C378.413 213.558 377.905 216.668 374.784 221.233C374.784 221.233 375.788 215.157 377.266 211.959C374.133 211.816 365.199 210.9 361.261 207.173L360.533 205.783C360.345 205.452 360.169 205.11 360.048 204.736C360.048 204.736 358.095 198.582 363.908 197.7L363.919 197.711Z" fill="#20120C"/>
<path d="M372.644 224.542C373.78 225.512 375.479 225.38 376.449 224.244L377.409 223.119C377.718 222.755 377.916 222.336 378.005 221.895C378.126 221.3 378.038 220.682 377.762 220.142C377.762 220.142 377.806 220.053 377.177 219.381C377.155 219.359 377.133 219.337 377.111 219.315C376.924 219.16 376.725 219.028 376.516 218.929C376.449 218.896 376.383 218.862 376.306 218.84C376.251 218.818 376.185 218.796 376.129 218.785C376.074 218.763 376.019 218.752 375.964 218.741C375.887 218.719 375.81 218.708 375.732 218.697C375.302 218.631 374.861 218.675 374.453 218.829C374.023 218.984 373.626 219.237 373.306 219.612L372.953 220.031L372.346 220.737C371.375 221.873 371.508 223.571 372.644 224.542Z" fill="#F7BBA6"/>
<path d="M361.503 205.827C361.503 205.827 360.996 208.198 357.941 210.823C357.941 210.823 358.956 205.86 360.323 204.449C361.691 203.037 361.514 205.706 361.514 205.706V205.827H361.503Z" fill="#20120C"/>
<path d="M377.277 211.959C377.277 211.959 372.203 221.035 373.284 220.616C374.365 220.197 374.861 218.289 376.141 218.785C377.42 219.281 377.927 212.764 377.927 212.764L377.277 211.959Z" fill="#20120C"/>
<path d="M361.029 229.527C361.029 229.527 367.162 232.24 370.603 224.939C370.603 224.939 369.203 233.728 360.963 232.085L361.029 229.527Z" fill="#DB5C4F"/>
<path d="M372.975 223.362C372.876 223.362 372.776 223.329 372.71 223.252C372.611 223.119 372.633 222.943 372.754 222.832L375.115 220.969C375.247 220.869 375.424 220.892 375.534 221.013C375.633 221.145 375.611 221.322 375.49 221.432L373.129 223.296C373.129 223.296 373.03 223.351 372.975 223.362Z" fill="#89532E"/>
<path d="M359.772 219.756C359.286 219.392 358.878 218.885 359.11 218.311C359.485 217.352 362.375 215.179 362.706 214.925C362.838 214.826 363.026 214.859 363.114 214.981C363.213 215.113 363.18 215.3 363.059 215.389C361.867 216.282 359.893 217.914 359.661 218.51C359.474 218.984 360.621 219.612 361.173 219.833C361.327 219.888 361.393 220.065 361.338 220.219C361.283 220.373 361.106 220.439 360.952 220.384C360.831 220.34 360.268 220.098 359.783 219.734L359.772 219.756Z" fill="#89532E"/>
<path d="M359.066 213.525C358.801 213.955 358.9 214.495 359.286 214.738C359.672 214.981 360.213 214.826 360.478 214.396C360.742 213.966 360.643 213.426 360.257 213.183C359.871 212.94 359.33 213.095 359.066 213.525Z" fill="#363435"/>
<path d="M366.577 214.308C366.511 214.264 366.467 214.187 366.456 214.098C366.445 213.933 366.566 213.79 366.721 213.779C366.743 213.779 369.092 213.602 369.743 215.874C369.787 216.028 369.699 216.194 369.544 216.238C369.39 216.282 369.225 216.194 369.18 216.039C368.662 214.231 366.853 214.363 366.776 214.363C366.699 214.363 366.632 214.352 366.577 214.308Z" fill="#363435"/>
<path d="M360.246 210.294C360.246 210.294 360.158 210.194 360.136 210.128C360.103 209.974 360.202 209.808 360.356 209.775C361.647 209.478 362.496 210.58 362.761 211.209C362.827 211.363 362.761 211.529 362.606 211.595C362.452 211.661 362.287 211.595 362.22 211.441C362.198 211.385 361.614 210.095 360.489 210.349C360.4 210.371 360.312 210.349 360.246 210.294Z" fill="#363435"/>
<path d="M366.3 218.303C366.572 217.862 366.465 217.303 366.061 217.053C365.656 216.804 365.108 216.958 364.836 217.399C364.564 217.839 364.671 218.399 365.075 218.648C365.479 218.898 366.028 218.743 366.3 218.303Z" fill="#363435"/>
<path d="M358.569 222.458H358.558C358.426 222.347 358.404 222.16 358.503 222.039C358.602 221.906 358.79 221.884 358.911 221.983C358.989 222.039 361.812 224.145 363.654 223.152C363.798 223.075 363.974 223.13 364.051 223.274C364.129 223.417 364.073 223.594 363.93 223.671C361.768 224.84 358.79 222.645 358.547 222.469L358.569 222.458Z" fill="#89532E"/>
<path d="M391.274 303.988C391.252 304.308 390.965 304.55 390.645 304.528L340.359 300.768C340.193 300.757 340.072 300.613 340.094 300.459L340.226 298.76L391.384 302.587L391.274 303.988Z" fill="#93BBE5"/>
<path d="M385.064 301.319L386.663 301.44L386.608 302.223L384.81 302.091L384.854 301.496C384.854 301.385 384.954 301.308 385.064 301.319Z" fill="#93BBE5"/>
<path d="M382.99 301.165L384.59 301.286L384.534 302.069L382.737 301.937L382.781 301.341C382.781 301.231 382.88 301.154 382.99 301.165Z" fill="#93BBE5"/>
<path d="M380.906 300.999L382.505 301.121L382.45 301.904L380.652 301.771L380.696 301.176C380.696 301.066 380.795 300.988 380.906 300.999Z" fill="#93BBE5"/>
<path d="M372.225 300.36L373.824 300.481L373.769 301.264L371.971 301.132L372.015 300.536C372.015 300.426 372.114 300.349 372.225 300.36Z" fill="#93BBE5"/>
<path d="M370.14 300.194L371.739 300.315L371.684 301.098L369.886 300.966L369.931 300.371C369.931 300.26 370.03 300.183 370.14 300.194Z" fill="#93BBE5"/>
<path d="M345.697 298.375L347.297 298.496L347.241 299.279L345.443 299.147L345.488 298.551C345.488 298.441 345.587 298.364 345.697 298.375Z" fill="#93BBE5"/>
<path d="M343.612 298.22L345.212 298.342L345.157 299.125L343.359 298.992L343.403 298.397C343.403 298.286 343.502 298.209 343.612 298.22Z" fill="#93BBE5"/>
<path d="M374.376 300.514L380.354 300.966L380.299 301.749L374.122 301.286L374.166 300.69C374.166 300.58 374.265 300.503 374.376 300.514Z" fill="#93BBE5"/>
<path d="M336.851 297.713L342.829 298.165L342.774 298.948L336.608 298.485L336.652 297.889C336.652 297.779 336.752 297.702 336.862 297.713H336.851Z" fill="#93BBE5"/>
<path d="M347.98 298.54L369.214 300.128L369.158 300.911L347.727 299.312L347.771 298.717C347.771 298.606 347.87 298.529 347.98 298.54Z" fill="#93BBE5"/>
<path d="M332.803 297.404L337.149 297.735C337.259 297.735 337.336 297.834 337.325 297.944L337.281 298.54L332.296 298.165L332.318 297.823C332.34 297.581 332.549 297.393 332.792 297.415L332.803 297.404Z" fill="url(#paint0_linear_3996_5092)"/>
<path d="M326.791 296.952L331.137 297.283C331.248 297.283 331.325 297.382 331.314 297.492L331.27 298.088L326.284 297.713L326.306 297.371C326.328 297.128 326.538 296.941 326.78 296.963L326.791 296.952Z" fill="url(#paint1_linear_3996_5092)"/>
<path d="M320.78 296.511L325.126 296.842C325.236 296.842 325.313 296.941 325.302 297.051L325.258 297.647L320.273 297.272L320.295 296.93C320.317 296.687 320.526 296.5 320.769 296.522L320.78 296.511Z" fill="url(#paint2_linear_3996_5092)"/>
<path d="M314.769 296.059L319.114 296.389C319.225 296.389 319.302 296.489 319.291 296.599L319.247 297.194L314.261 296.82L314.283 296.478C314.305 296.235 314.515 296.048 314.757 296.07L314.769 296.059Z" fill="url(#paint3_linear_3996_5092)"/>
<path d="M309.761 295.684L312.033 295.849C312.143 295.849 312.221 295.948 312.21 296.059L312.165 296.654L309.253 296.434L309.276 296.092C309.298 295.849 309.507 295.662 309.75 295.684H309.761Z" fill="url(#paint4_linear_3996_5092)"/>
<path d="M306.22 295.419L308.492 295.584C308.603 295.584 308.68 295.684 308.669 295.794L308.625 296.389L305.713 296.169L305.735 295.827C305.757 295.584 305.966 295.397 306.209 295.419H306.22Z" fill="url(#paint5_linear_3996_5092)"/>
<path d="M302.889 295.165L305.161 295.331C305.272 295.331 305.349 295.43 305.338 295.54L305.294 296.136L302.382 295.915L302.404 295.573C302.426 295.331 302.635 295.143 302.878 295.165H302.889Z" fill="url(#paint6_linear_3996_5092)"/>
<path d="M289.94 254.406L343.491 258.409C344.23 258.464 344.848 259.016 344.98 259.754L351.962 299.632L295.664 295.419L288.715 255.751C288.583 255.012 289.19 254.351 289.94 254.406Z" fill="#A9CBF7"/>
<path d="M351.896 301.043C351.874 301.363 351.587 301.606 351.267 301.584L296.006 297.448C295.841 297.437 295.73 297.294 295.741 297.139L295.874 295.441L352.006 299.643L351.896 301.043Z" fill="#93BBE5"/>
<path d="M424.629 154.426H382.428C381.52 154.426 380.784 155.161 380.784 156.069V173.857C380.784 174.765 381.52 175.5 382.428 175.5H424.629C425.537 175.5 426.273 174.765 426.273 173.857V156.069C426.273 155.161 425.537 154.426 424.629 154.426Z" fill="#A9CBF7"/>
<path d="M452.955 187.499H397.605C396.551 187.499 395.697 188.353 395.697 189.407V207.47C395.697 208.524 396.551 209.378 397.605 209.378H452.955C454.009 209.378 454.863 208.524 454.863 207.47V189.407C454.863 188.353 454.009 187.499 452.955 187.499Z" fill="#93BBE5"/>
<path fill-rule="evenodd" clip-rule="evenodd" d="M289.774 62.0327C274.927 62.0327 263.235 71.3294 263.235 71.3294C263.235 71.3294 268.651 102.947 289.774 112.861C310.886 102.947 316.313 71.3294 316.313 71.3294C316.313 71.3294 304.621 62.0327 289.774 62.0327Z" fill="#A9CBF7"/>
<path d="M302.009 87.3232C303.59 80.5685 299.395 73.8113 292.639 72.2307C285.883 70.6502 279.124 74.8447 277.543 81.5994C275.962 88.3542 280.158 95.1113 286.914 96.6919C293.67 98.2724 300.428 94.078 302.009 87.3232Z" fill="#296ED3"/>
<path d="M287.822 90.86L282.902 85.9415L285.241 83.6035L287.822 86.1841L295.124 78.8835L297.462 81.2215L287.822 90.86Z" fill="white"/>
<path d="M373.703 102.98H339.984V131.421H373.703V102.98Z" fill="#A9CBF7"/>
<path d="M370.681 108.747H343.006V97.5981C343.006 89.9667 349.216 83.7579 356.849 83.7579C364.482 83.7579 370.692 89.9667 370.692 97.5981V108.747H370.681ZM348.389 103.366H365.298V97.5981C365.298 92.9333 361.503 89.1396 356.838 89.1396C352.172 89.1396 348.378 92.9333 348.378 97.5981V103.366H348.389Z" fill="#A9CBF7"/>
<path fill-rule="evenodd" clip-rule="evenodd" d="M360.919 114.548C360.919 112.299 359.088 110.468 356.838 110.468C354.588 110.468 352.757 112.299 352.757 114.548C352.757 116.103 353.628 117.449 354.907 118.143V123.922H358.768V118.143C360.047 117.46 360.919 116.103 360.919 114.548Z" fill="white"/>
<path d="M218.442 42.8439H185.186C179.34 42.8439 174.608 47.5749 174.608 53.4198V71.2742C174.608 76.733 178.744 81.2214 184.05 81.7949C184.094 85.754 183.057 88.5 183.057 88.5L196.139 81.8611H218.431C224.277 81.8611 229.009 77.13 229.009 71.2852V53.4308C229.009 47.5859 224.277 42.8549 218.431 42.8549L218.442 42.8439Z" fill="#A9CBF7"/>
<path d="M186.929 65.0434C188.098 65.0434 189.046 64.0954 189.046 62.926C189.046 61.7566 188.098 60.8086 186.929 60.8086C185.759 60.8086 184.811 61.7566 184.811 62.926C184.811 64.0954 185.759 65.0434 186.929 65.0434Z" fill="white"/>
<path d="M201.819 65.0434C202.989 65.0434 203.937 64.0954 203.937 62.926C203.937 61.7566 202.989 60.8086 201.819 60.8086C200.65 60.8086 199.702 61.7566 199.702 62.926C199.702 64.0954 200.65 65.0434 201.819 65.0434Z" fill="white"/>
<path d="M216.699 65.0434C217.869 65.0434 218.817 64.0954 218.817 62.926C218.817 61.7566 217.869 60.8086 216.699 60.8086C215.53 60.8086 214.581 61.7566 214.581 62.926C214.581 64.0954 215.53 65.0434 216.699 65.0434Z" fill="white"/>
<path d="M297.109 169.589H330.365C336.211 169.589 340.943 174.32 340.943 180.165V198.019C340.943 203.478 336.807 207.967 331.501 208.54C331.457 212.499 332.494 215.245 332.494 215.245L319.412 208.606H297.12C291.274 208.606 286.542 203.875 286.542 198.03V180.176C286.542 174.331 291.274 169.6 297.12 169.6L297.109 169.589Z" fill="#A9CBF7"/>
<path d="M326.516 189.66C326.516 190.829 327.464 191.777 328.633 191.777C329.803 191.777 330.751 190.829 330.751 189.66C330.751 188.491 329.803 187.543 328.633 187.543C327.464 187.543 326.516 188.491 326.516 189.66Z" fill="white"/>
<path d="M313.743 191.777C314.912 191.777 315.861 190.83 315.861 189.66C315.861 188.491 314.912 187.543 313.743 187.543C312.573 187.543 311.625 188.491 311.625 189.66C311.625 190.83 312.573 191.777 313.743 191.777Z" fill="white"/>
<path d="M296.745 189.66C296.745 190.829 297.694 191.777 298.863 191.777C300.032 191.777 300.981 190.829 300.981 189.66C300.981 188.491 300.032 187.543 298.863 187.543C297.694 187.543 296.745 188.491 296.745 189.66Z" fill="white"/>
<path d="M386 170V161H388.239V164.612H391.89V161H394.125V170H391.89V166.383H388.239V170H386Z" fill="#1B3770"/>
<path d="M395.226 162.767V161H403.057V162.767H400.248V170H398.04V162.767H395.226Z" fill="#1B3770"/>
<path d="M404.15 161H406.923L409.276 166.572H409.384L411.737 161H414.51V170H412.329V164.472H412.252L410.027 169.943H408.633L406.408 164.441H406.331V170H404.15V161Z" fill="#1B3770"/>
<path d="M415.907 170V161H418.146V168.233H422V170H415.907Z" fill="#1B3770"/>
<path d="M418.689 197.758H415.582C415.54 197.44 415.455 197.154 415.327 196.899C415.199 196.643 415.029 196.425 414.817 196.244C414.606 196.063 414.356 195.925 414.066 195.83C413.78 195.731 413.463 195.682 413.115 195.682C412.498 195.682 411.965 195.832 411.518 196.133C411.074 196.433 410.733 196.868 410.492 197.436C410.256 198.005 410.138 198.693 410.138 199.5C410.138 200.34 410.258 201.045 410.499 201.613C410.743 202.177 411.085 202.604 411.524 202.892C411.967 203.176 412.491 203.318 413.096 203.318C413.436 203.318 413.744 203.275 414.022 203.189C414.304 203.102 414.55 202.977 414.762 202.812C414.977 202.643 415.153 202.439 415.29 202.2C415.431 201.957 415.528 201.683 415.582 201.378L418.689 201.397C418.635 201.957 418.471 202.509 418.198 203.053C417.929 203.596 417.558 204.093 417.086 204.542C416.613 204.987 416.038 205.341 415.358 205.605C414.683 205.868 413.908 206 413.034 206C411.882 206 410.851 205.749 409.939 205.246C409.032 204.74 408.315 204.002 407.789 203.034C407.263 202.066 407 200.888 407 199.5C407 198.108 407.267 196.928 407.802 195.96C408.336 194.992 409.059 194.256 409.97 193.754C410.882 193.251 411.903 193 413.034 193C413.805 193 414.517 193.107 415.172 193.321C415.826 193.531 416.402 193.84 416.899 194.248C417.396 194.652 417.8 195.148 418.111 195.737C418.422 196.326 418.614 197 418.689 197.758Z" fill="white"/>
<path d="M427.328 196.967C427.287 196.514 427.102 196.161 426.775 195.91C426.452 195.655 425.99 195.527 425.389 195.527C424.992 195.527 424.66 195.579 424.395 195.682C424.13 195.785 423.931 195.927 423.799 196.108C423.666 196.285 423.598 196.489 423.594 196.72C423.585 196.909 423.623 197.076 423.705 197.22C423.792 197.364 423.917 197.492 424.078 197.603C424.244 197.71 424.443 197.805 424.675 197.887C424.907 197.97 425.168 198.042 425.458 198.104L426.551 198.351C427.181 198.487 427.736 198.668 428.217 198.894C428.702 199.121 429.108 199.391 429.435 199.704C429.766 200.017 430.017 200.377 430.187 200.785C430.357 201.193 430.444 201.65 430.448 202.157C430.444 202.956 430.241 203.642 429.839 204.214C429.437 204.787 428.859 205.226 428.105 205.53C427.355 205.835 426.45 205.988 425.389 205.988C424.325 205.988 423.397 205.829 422.605 205.512C421.814 205.195 421.199 204.713 420.76 204.066C420.321 203.419 420.095 202.602 420.082 201.613H423.028C423.053 202.021 423.163 202.361 423.357 202.633C423.552 202.904 423.819 203.11 424.159 203.25C424.503 203.391 424.901 203.461 425.352 203.461C425.766 203.461 426.119 203.405 426.409 203.294C426.703 203.183 426.928 203.028 427.086 202.83C427.243 202.633 427.324 202.406 427.328 202.151C427.324 201.912 427.25 201.708 427.105 201.539C426.96 201.366 426.736 201.218 426.433 201.094C426.135 200.966 425.754 200.849 425.29 200.742L423.96 200.433C422.858 200.182 421.99 199.776 421.356 199.216C420.723 198.651 420.408 197.889 420.412 196.93C420.408 196.147 420.619 195.461 421.046 194.872C421.472 194.283 422.063 193.824 422.817 193.494C423.571 193.165 424.43 193 425.396 193C426.382 193 427.237 193.167 427.962 193.5C428.691 193.83 429.257 194.293 429.659 194.891C430.06 195.488 430.265 196.18 430.274 196.967H427.328Z" fill="white"/>
<path d="M438.88 196.967C438.839 196.514 438.655 196.161 438.327 195.91C438.004 195.655 437.542 195.527 436.942 195.527C436.544 195.527 436.212 195.579 435.947 195.682C435.682 195.785 435.483 195.927 435.351 196.108C435.218 196.285 435.15 196.489 435.146 196.72C435.137 196.909 435.175 197.076 435.258 197.22C435.345 197.364 435.469 197.492 435.63 197.603C435.796 197.71 435.995 197.805 436.227 197.887C436.459 197.97 436.72 198.042 437.01 198.104L438.104 198.351C438.733 198.487 439.289 198.668 439.769 198.894C440.254 199.121 440.66 199.391 440.987 199.704C441.319 200.017 441.569 200.377 441.739 200.785C441.909 201.193 441.996 201.65 442 202.157C441.996 202.956 441.793 203.642 441.391 204.214C440.989 204.787 440.411 205.226 439.657 205.53C438.907 205.835 438.002 205.988 436.942 205.988C435.877 205.988 434.949 205.829 434.158 205.512C433.366 205.195 432.751 204.713 432.312 204.066C431.873 203.419 431.647 202.602 431.635 201.613H434.58C434.605 202.021 434.715 202.361 434.91 202.633C435.104 202.904 435.372 203.11 435.711 203.25C436.055 203.391 436.453 203.461 436.904 203.461C437.319 203.461 437.671 203.405 437.961 203.294C438.255 203.183 438.481 203.028 438.638 202.83C438.796 202.633 438.876 202.406 438.88 202.151C438.876 201.912 438.802 201.708 438.657 201.539C438.512 201.366 438.288 201.218 437.986 201.094C437.687 200.966 437.306 200.849 436.842 200.742L435.512 200.433C434.41 200.182 433.542 199.776 432.909 199.216C432.275 198.651 431.96 197.889 431.964 196.93C431.96 196.147 432.171 195.461 432.598 194.872C433.025 194.283 433.615 193.824 434.369 193.494C435.123 193.165 435.983 193 436.948 193C437.934 193 438.789 193.167 439.514 193.5C440.243 193.83 440.809 194.293 441.211 194.891C441.613 195.488 441.818 196.18 441.826 196.967H438.88Z" fill="white"/>
</g>
<defs>
<linearGradient id="paint0_linear_3996_5092" x1="337.313" y1="298.022" x2="332.32" y2="297.648" gradientUnits="userSpaceOnUse">
<stop stop-color="#99CEFF"/>
<stop offset="1" stop-color="#D5E9FF"/>
</linearGradient>
<linearGradient id="paint1_linear_3996_5092" x1="331.308" y1="297.573" x2="326.314" y2="297.199" gradientUnits="userSpaceOnUse">
<stop stop-color="#99CEFF"/>
<stop offset="1" stop-color="#D5E9FF"/>
</linearGradient>
<linearGradient id="paint2_linear_3996_5092" x1="325.291" y1="297.122" x2="320.308" y2="296.749" gradientUnits="userSpaceOnUse">
<stop stop-color="#99CEFF"/>
<stop offset="1" stop-color="#D5E9FF"/>
</linearGradient>
<linearGradient id="paint3_linear_3996_5092" x1="319.285" y1="296.673" x2="314.291" y2="296.299" gradientUnits="userSpaceOnUse">
<stop stop-color="#99CEFF"/>
<stop offset="1" stop-color="#D5E9FF"/>
</linearGradient>
<linearGradient id="paint4_linear_3996_5092" x1="334.426" y1="-0.763437" x2="331.511" y2="-0.981622" gradientUnits="userSpaceOnUse">
<stop stop-color="#99CEFF"/>
<stop offset="1" stop-color="#D5E9FF"/>
</linearGradient>
<linearGradient id="paint5_linear_3996_5092" x1="308.66" y1="295.878" x2="305.745" y2="295.66" gradientUnits="userSpaceOnUse">
<stop stop-color="#99CEFF"/>
<stop offset="1" stop-color="#D5E9FF"/>
</linearGradient>
<linearGradient id="paint6_linear_3996_5092" x1="305.327" y1="295.628" x2="302.412" y2="295.41" gradientUnits="userSpaceOnUse">
<stop stop-color="#99CEFF"/>
<stop offset="1" stop-color="#D5E9FF"/>
</linearGradient>
<clipPath id="clip0_3996_5092">
<rect width="521" height="413" fill="white"/>
</clipPath>
</defs>
</svg>
