<svg width="563" height="410" viewBox="0 0 563 410" fill="none" xmlns="http://www.w3.org/2000/svg">
<g clip-path="url(#clip0_3992_3678)">
<path d="M27.0179 407.745C27.0179 407.745 -14.6599 355.236 12.1554 280.492C34.741 217.539 99.2307 258.005 81.5707 178.422C65.5501 106.232 81.8519 43.6652 230.786 11.0921C326.919 -9.93354 476.916 -17.1662 443.255 141.954C431.271 198.604 623.551 151.511 542.936 407.747H27.0179V407.745Z" fill="#EBF3FA"/>
<path d="M444.005 336.825C441.434 322.82 417.976 325.178 417.976 325.178C417.976 325.178 400.297 347.843 395.684 348.034C391.073 348.225 407.017 325.704 407.017 325.704C398.245 324.112 374.812 333.082 374.812 333.082C374.812 333.082 373.913 361.164 369.397 360.216C364.882 359.264 371.461 335.39 371.461 335.39C362.689 337.247 353.875 346.57 353.875 346.57C342.539 362.006 362.937 375.768 362.937 375.768C362.937 375.768 362.415 385.494 355.503 396.124C355.503 396.124 353.98 398.066 352.317 401.444L354.649 401.637C354.892 401.027 355.152 400.441 355.433 399.878C355.433 399.873 355.433 399.871 355.438 399.869C355.443 399.861 355.448 399.852 355.45 399.845C355.641 399.497 355.912 399.003 356.251 398.403C356.251 398.403 356.251 398.403 356.251 398.4C357.08 397.063 357.647 396.074 358.014 395.354C358.014 395.354 358.014 395.349 358.017 395.346C360.516 391.144 364.067 385.689 366.219 384.662C366.219 384.662 365.99 384.278 365.809 383.549C365.94 383.904 366.076 384.273 366.219 384.662C369.5 393.554 389.35 396.641 400.664 395.284C411.978 393.926 407.389 390.386 401.822 384.793C396.256 379.201 383.593 379.501 380.052 377.193C376.511 374.888 382.096 373.341 389.464 374.528C396.832 375.715 399.925 383.444 411.809 385.58C423.695 387.718 434.695 365.934 434.695 365.934C426.209 367.815 411.757 362.015 411.423 359.114C411.09 356.213 433.029 358.325 436.523 357.753C440.016 357.181 446.576 350.83 444.005 336.825Z" fill="#CDE0FB"/>
<path d="M28.6192 375.069C17.5766 358.301 43.7652 337.805 43.7652 337.805C43.7652 337.805 83.8726 343.626 88.7529 339.319C93.6356 335.013 55.4345 327.645 55.4345 327.645C62.8145 317.463 95.4228 303.723 95.4228 303.723C95.4228 303.723 123.725 331.44 127.397 326.064C131.069 320.689 101.085 302.8 101.085 302.8C111.825 296.13 129.895 297.017 129.895 297.017C156.488 301.668 149.144 335.593 149.144 335.593C149.144 335.593 159.159 344.987 176.569 349.061C176.569 349.061 180.015 349.552 185.003 351.369L182.817 353.843C181.976 353.46 181.137 353.114 180.303 352.818C180.299 352.814 180.294 352.814 180.289 352.814C180.277 352.809 180.265 352.804 180.253 352.802C179.722 352.632 178.962 352.396 178.032 352.113C178.032 352.113 178.03 352.113 178.028 352.113C178.028 352.113 178.025 352.113 178.023 352.113C175.876 351.56 174.332 351.104 173.257 350.73C173.255 350.73 173.25 350.728 173.247 350.725C166.601 348.885 142.61 382.626 129.766 392.288C116.922 401.95 118.139 393.864 118.352 382.736C118.566 371.608 131.748 359.553 133.107 353.748C134.465 347.943 127.269 351.819 120.925 360.22C114.579 368.621 118.969 379.508 108.953 393.284C98.9376 407.061 66.489 395.62 66.489 395.62C76.9621 389.253 86.0221 369.241 83.5319 365.963C81.0417 362.685 60.7628 386.25 56.6475 389.077C52.5321 391.906 39.6618 391.842 28.6192 375.074V375.069Z" fill="#CDE0FB"/>
<path d="M361.098 193.877C361.098 193.877 383.752 147.668 396.422 151.771C409.093 155.871 361.098 193.877 361.098 193.877Z" fill="#CDE0FB"/>
<path d="M344.805 214.781C344.805 214.781 399.072 161.568 420.161 171.271C441.25 180.975 407.308 191.381 394.361 194.215C381.415 197.05 344.805 214.779 344.805 214.779V214.781Z" fill="#CDE0FB"/>
<path d="M178.23 204.604C178.23 204.604 155.576 158.395 142.905 162.498C130.235 166.598 178.23 204.604 178.23 204.604Z" fill="#DFEBFD"/>
<path d="M194.522 225.511C194.522 225.511 140.256 172.298 119.166 182C98.0774 191.705 132.02 202.111 144.967 204.945C157.913 207.779 194.522 225.508 194.522 225.508V225.511Z" fill="#DFEBFD"/>
<path d="M136.738 82.9034C144.488 65.5871 174.112 76.0546 174.112 76.0546C174.112 76.0546 189.842 110.983 195.75 112.687C201.659 114.392 188.131 80.1978 188.131 80.1978C199.989 80.9105 227.493 99.929 227.493 99.929C227.493 99.929 219.786 136.567 225.932 136.764C232.078 136.962 231.103 103.977 231.103 103.977C241.869 109.152 250.338 124.008 250.338 124.008C260.137 147.57 229.385 158.941 229.385 158.941C229.385 158.941 226.988 171.695 232.583 187.643C232.583 187.643 233.941 190.64 235.028 195.538L231.947 195.052C231.825 194.187 231.675 193.343 231.487 192.528C231.487 192.52 231.487 192.518 231.482 192.513C231.48 192.501 231.477 192.489 231.475 192.478C231.339 191.967 231.141 191.243 230.893 190.356C230.893 190.356 230.893 190.356 230.893 190.354C230.893 190.354 230.893 190.354 230.893 190.349C230.243 188.356 229.821 186.895 229.573 185.848C229.573 185.846 229.573 185.841 229.573 185.839C227.664 179.607 224.791 171.426 222.329 169.416C222.329 169.416 222.746 168.989 223.211 168.107C222.93 168.525 222.636 168.961 222.329 169.416C215.273 179.891 188.603 177.614 174.387 172.279C160.17 166.946 167.228 163.812 176.2 158.331C185.172 152.851 201.469 157.239 206.783 155.375C212.097 153.511 205.353 149.742 195.44 148.951C185.527 148.159 179.083 157.185 163.022 156.195C146.961 155.206 139.6 123.529 139.6 123.529C149.99 128.645 170.531 125.706 171.88 122.056C173.228 118.406 144.159 114.206 139.817 112.361C135.475 110.516 128.989 100.222 136.738 82.9058V82.9034Z" fill="#DFEBFD"/>
<path d="M376.558 143.806V402.546C376.558 405.053 374.526 407.089 372.016 407.089H172.697C170.188 407.089 168.153 405.053 168.153 402.546V143.806C168.153 141.296 170.188 139.263 172.697 139.263H372.016C374.526 139.263 376.558 141.296 376.558 143.806Z" fill="#F78248"/>
<path d="M189.647 139.263V407.089H172.697C170.188 407.089 168.153 405.053 168.153 402.546V143.806C168.153 141.296 170.188 139.263 172.697 139.263H189.647Z" fill="#EA642F"/>
<path d="M252.697 213.434V204.259H256.229V213.341C256.229 215.956 257.535 217.31 259.691 217.31C261.848 217.31 263.154 216.004 263.154 213.458V204.261H266.685V213.322C266.685 218.185 263.957 220.569 259.646 220.569C255.335 220.569 252.7 218.161 252.7 213.437L252.697 213.434Z" fill="#FFEDDC"/>
<path d="M269.18 217.975L271.268 215.475C272.712 216.667 274.225 217.425 276.06 217.425C277.504 217.425 278.376 216.85 278.376 215.866C278.376 214.972 277.826 214.512 275.142 213.825C271.909 213 269.824 212.104 269.824 208.871C269.824 205.958 272.161 204.032 275.44 204.032C277.778 204.032 279.772 204.766 281.402 206.073L279.567 208.733C278.147 207.746 276.746 207.15 275.395 207.15C274.044 207.15 273.331 207.77 273.331 208.595C273.331 209.651 274.02 209.994 276.794 210.705C280.049 211.553 281.884 212.724 281.884 215.568C281.884 218.755 279.453 220.545 275.991 220.545C273.56 220.545 271.108 219.697 269.18 217.975Z" fill="#FFEDDC"/>
<path d="M284.953 204.259H297.058V207.401H288.461V210.657H296.027V213.799H288.461V217.17H297.173V220.312H284.953V204.256V204.259Z" fill="#FFEDDC"/>
<path d="M300.313 204.259H307.651C309.69 204.259 311.273 204.833 312.328 205.887C313.222 206.781 313.703 208.042 313.703 209.603C313.703 212.195 312.304 213.823 310.265 214.581L314.185 220.314H310.057L306.573 215.177H303.845V220.314H300.313V204.259ZM307.422 212.056C309.142 212.056 310.126 211.138 310.126 209.739C310.126 208.225 309.073 207.446 307.353 207.446H303.845V212.056H307.422Z" fill="#FFEDDC"/>
<path d="M232.178 228.364H235.983L240.201 235.153L244.419 228.364H248.225V244.42H244.717V233.938L240.201 240.796H240.108L235.638 234.007V244.42H232.175V228.364H232.178Z" fill="#FFEDDC"/>
<path d="M257.58 228.247H260.835L267.712 244.417H264.021L262.553 240.815H255.767L254.299 244.417H250.698L257.575 228.247H257.58ZM261.295 237.697L259.162 232.491L257.03 237.697H261.295Z" fill="#FFEDDC"/>
<path d="M270.188 228.364H273.443L280.964 238.25V228.364H284.45V244.42H281.448L273.674 234.212V244.42H270.191V228.364H270.188Z" fill="#FFEDDC"/>
<path d="M288.048 237.537V228.362H291.58V237.444C291.58 240.059 292.888 241.413 295.042 241.413C297.197 241.413 298.505 240.105 298.505 237.559V228.362H302.036V237.42C302.036 242.284 299.308 244.667 294.997 244.667C290.686 244.667 288.051 242.26 288.051 237.535L288.048 237.537Z" fill="#FFEDDC"/>
<path d="M310.562 228.247H313.818L320.695 244.417H317.004L315.536 240.815H308.749L307.281 244.417H303.681L310.558 228.247H310.562ZM314.278 237.697L312.145 232.491L310.012 237.697H314.278Z" fill="#FFEDDC"/>
<path d="M323.171 228.364H326.702V241.208H334.704V244.42H323.171V228.364Z" fill="#FFEDDC"/>
<g opacity="0.7">
<path d="M236.891 309.466L240.535 307.456C240.84 307.291 241.212 307.313 241.495 307.508C241.857 307.761 242.234 307.999 242.622 308.224C243.347 308.643 244.083 309.001 244.834 309.289C245.186 309.425 245.42 309.754 245.425 310.128L245.506 314.479C245.51 314.944 245.875 315.327 246.344 315.358L250.312 315.628C250.762 315.656 251.158 315.346 251.239 314.905L251.942 310.96C252.002 310.574 252.316 310.278 252.714 310.226C254.392 310 256.031 309.506 257.568 308.762C257.94 308.583 258.395 308.684 258.659 309.001L260.223 310.87C260.523 311.222 261.042 311.301 261.433 311.046L264.71 308.843C264.777 308.798 264.838 308.75 264.889 308.688C265.136 308.412 265.189 307.997 265 307.661L263.502 304.936L263.135 304.273C263.592 303.692 264.016 303.067 264.395 302.412C264.908 301.527 265.327 300.609 265.651 299.685C265.777 299.332 266.101 299.089 266.476 299.086L269.978 299.024C270.457 299.012 270.851 298.643 270.879 298.166L271.087 295.131L271.144 294.261C271.177 293.787 270.846 293.36 270.379 293.279L267.083 292.69C266.7 292.626 266.402 292.328 266.347 291.949C266.166 290.821 265.866 289.713 265.451 288.654C265.422 288.559 265.387 288.476 265.348 288.385C265.334 288.356 265.325 288.325 265.317 288.294C265.21 287.944 265.329 287.567 265.613 287.331L268.642 284.788C268.677 284.762 268.708 284.726 268.737 284.695C269.009 284.39 269.044 283.927 268.816 283.579L266.626 280.309C266.361 279.913 265.842 279.786 265.42 280.015L261.619 282.113C261.3 282.294 260.902 282.254 260.618 282.023C259.987 281.517 259.308 281.05 258.581 280.628C258.195 280.404 257.806 280.199 257.411 280.013C257.092 279.858 256.882 279.539 256.877 279.186L256.798 275.004C256.791 274.544 256.431 274.161 255.967 274.13L252.042 273.867C251.568 273.834 251.144 274.161 251.058 274.635L250.503 277.755C250.429 278.175 250.081 278.482 249.661 278.511C248.005 278.606 246.375 278.966 244.831 279.562C244.469 279.71 244.047 279.603 243.792 279.298L241.5 276.566C241.192 276.199 240.659 276.125 240.258 276.389L236.998 278.571C236.605 278.833 236.484 279.353 236.71 279.758L236.796 279.918L238.538 283.083C238.724 283.422 238.681 283.832 238.431 284.13V284.135C237.83 284.843 237.284 285.615 236.803 286.447C236.546 286.89 236.317 287.341 236.105 287.801C235.962 288.123 235.647 288.328 235.297 288.335L231.742 288.397C231.256 288.404 230.855 288.786 230.824 289.267L230.562 293.177C230.555 293.289 230.572 293.396 230.598 293.496C230.693 293.82 230.97 294.078 231.315 294.142L233.948 294.607C234.27 294.667 234.537 294.895 234.647 295.196C234.675 295.274 234.694 295.36 234.701 295.448C234.837 297.572 235.395 299.644 236.343 301.553C236.508 301.875 236.453 302.261 236.226 302.536C236.193 302.574 236.157 302.61 236.117 302.645L233.662 304.705C233.307 305.003 233.231 305.52 233.488 305.911L233.538 305.987L235.669 309.179C235.94 309.58 236.467 309.704 236.889 309.473L236.891 309.466ZM256.86 288.499C257.304 288.957 257.725 289.472 258.109 290.051C258.838 291.157 259.379 293.153 259.291 294.478C259.281 294.619 259.27 294.759 259.258 294.9C258.385 303.391 248.012 306.061 243.161 298.893C242.529 297.954 242.043 296.409 241.936 295.115C241.915 294.814 241.91 294.526 241.931 294.271C242.019 293.067 242.293 291.978 242.718 291.005C245.146 285.472 252.395 283.958 256.863 288.502L256.86 288.499Z" fill="#EA642F"/>
</g>
<path d="M273.293 280.802L275.574 280.027C275.764 279.965 275.974 280.013 276.117 280.156C276.298 280.337 276.489 280.511 276.686 280.678C277.056 280.99 277.439 281.269 277.84 281.51C278.026 281.622 278.126 281.834 278.09 282.049L277.694 284.535C277.649 284.8 277.818 285.057 278.083 285.122L280.316 285.677C280.568 285.739 280.826 285.603 280.916 285.36L281.717 283.183C281.791 282.971 281.998 282.833 282.232 282.843C283.211 282.883 284.195 282.769 285.146 282.502C285.375 282.437 285.625 282.542 285.744 282.747L286.445 283.973C286.581 284.204 286.869 284.301 287.117 284.194L289.207 283.272C289.249 283.253 289.29 283.231 289.323 283.203C289.492 283.071 289.564 282.838 289.49 282.628L288.913 280.924L288.773 280.509C289.092 280.225 289.397 279.91 289.681 279.574C290.062 279.121 290.393 278.642 290.674 278.149C290.782 277.96 290.991 277.856 291.203 277.891L293.205 278.211C293.479 278.254 293.741 278.082 293.806 277.813L294.232 276.103L294.354 275.615C294.42 275.348 294.275 275.071 294.018 274.978L292.199 274.308C291.987 274.232 291.847 274.032 291.854 273.813C291.866 273.152 291.806 272.489 291.678 271.843C291.67 271.786 291.659 271.734 291.647 271.679C291.642 271.66 291.639 271.643 291.637 271.624C291.611 271.414 291.718 271.212 291.904 271.104L293.889 269.963C293.913 269.951 293.934 269.934 293.953 269.92C294.139 269.774 294.206 269.514 294.111 269.293L293.196 267.207C293.086 266.954 292.802 266.83 292.538 266.918L290.16 267.729C289.96 267.8 289.738 267.736 289.597 267.574C289.29 267.221 288.949 266.887 288.577 266.573C288.38 266.406 288.179 266.251 287.972 266.103C287.805 265.984 287.72 265.779 287.753 265.576L288.132 263.185C288.175 262.923 288.008 262.668 287.746 262.601L285.537 262.053C285.27 261.986 284.996 262.129 284.898 262.391L284.264 264.113C284.178 264.344 283.95 264.484 283.709 264.458C282.756 264.346 281.791 264.384 280.849 264.568C280.628 264.616 280.399 264.511 280.285 264.313L279.255 262.523C279.117 262.282 278.819 262.186 278.567 262.296L276.489 263.207C276.239 263.316 276.115 263.6 276.205 263.855L276.238 263.955L276.91 265.936C276.982 266.148 276.915 266.377 276.744 266.52C276.331 266.866 275.941 267.25 275.583 267.674C275.393 267.901 275.216 268.134 275.047 268.375C274.933 268.544 274.732 268.63 274.532 268.597L272.5 268.27C272.221 268.225 271.954 268.401 271.89 268.673L271.344 270.873C271.33 270.935 271.327 271 271.332 271.059C271.353 271.252 271.485 271.429 271.675 271.5L273.129 272.032C273.305 272.099 273.436 272.256 273.467 272.437C273.474 272.485 273.477 272.535 273.472 272.585C273.334 273.81 273.443 275.047 273.789 276.23C273.851 276.43 273.779 276.645 273.622 276.778C273.601 276.797 273.574 276.814 273.548 276.828L271.94 277.753C271.706 277.887 271.611 278.175 271.718 278.423L271.739 278.471L272.631 280.506C272.745 280.761 273.033 280.885 273.298 280.797L273.293 280.802ZM286.797 270.883C287.005 271.188 287.191 271.524 287.35 271.894C287.655 272.597 287.76 273.791 287.574 274.535C287.555 274.616 287.534 274.692 287.512 274.771C286.154 279.519 279.973 279.989 277.935 275.412C277.671 274.814 277.549 273.884 277.621 273.135C277.64 272.961 277.663 272.797 277.704 272.654C277.876 271.977 278.142 271.383 278.483 270.873C280.428 267.967 284.712 267.841 286.797 270.883Z" fill="#FFEDDC"/>
<path d="M279.98 341.631L285.892 338.758C286.387 338.525 286.969 338.587 287.403 338.92C287.955 339.347 288.527 339.755 289.123 340.141C290.229 340.861 291.363 341.485 292.524 342C293.067 342.244 293.41 342.782 293.386 343.373L293.16 350.241C293.129 350.973 293.672 351.61 294.411 351.698L300.645 352.449C301.352 352.532 302.001 352.072 302.165 351.383L303.595 345.221C303.721 344.618 304.238 344.177 304.87 344.124C307.534 343.905 310.16 343.261 312.643 342.215C313.243 341.962 313.953 342.16 314.342 342.677L316.653 345.755C317.096 346.334 317.911 346.503 318.548 346.132L323.897 342.928C324.007 342.863 324.107 342.789 324.191 342.699C324.605 342.284 324.722 341.631 324.45 341.087L322.31 336.668L321.786 335.593C322.553 334.713 323.273 333.762 323.926 332.758C324.805 331.404 325.542 329.993 326.13 328.563C326.357 328.017 326.888 327.661 327.479 327.685L333.01 327.874C333.765 327.895 334.416 327.342 334.499 326.594L335.073 321.826L335.233 320.46C335.324 319.714 334.838 319.013 334.108 318.848L328.961 317.649C328.363 317.518 327.915 317.02 327.86 316.422C327.667 314.627 327.286 312.858 326.716 311.153C326.678 311.001 326.628 310.865 326.578 310.722C326.557 310.674 326.547 310.624 326.538 310.574C326.397 310.014 326.616 309.427 327.081 309.079L332.066 305.313C332.126 305.275 332.176 305.222 332.223 305.175C332.676 304.714 332.772 303.99 332.438 303.422L329.252 298.083C328.866 297.439 328.058 297.196 327.377 297.522L321.212 300.521C320.692 300.781 320.07 300.686 319.639 300.295C318.686 299.444 317.652 298.652 316.541 297.93C315.953 297.546 315.352 297.191 314.745 296.864C314.251 296.595 313.949 296.073 313.97 295.515L314.187 288.914C314.213 288.187 313.675 287.555 312.945 287.467L306.776 286.733C306.03 286.642 305.334 287.122 305.16 287.865L304.028 292.743C303.876 293.398 303.306 293.856 302.639 293.868C300.02 293.885 297.42 294.318 294.935 295.131C294.351 295.334 293.696 295.131 293.319 294.628L289.929 290.132C289.473 289.529 288.637 289.37 287.986 289.751L282.668 292.924C282.027 293.303 281.791 294.116 282.117 294.774L282.239 295.034L284.729 300.168C284.996 300.719 284.893 301.363 284.476 301.809L284.472 301.813C283.471 302.881 282.546 304.052 281.719 305.327C281.278 306.007 280.88 306.698 280.506 307.406C280.254 307.899 279.741 308.2 279.189 308.183L273.574 307.99C272.807 307.961 272.145 308.531 272.056 309.287L271.322 315.432C271.303 315.609 271.318 315.78 271.351 315.94C271.477 316.457 271.89 316.889 272.431 317.018L276.546 317.964C277.049 318.085 277.451 318.467 277.599 318.948C277.637 319.075 277.659 319.211 277.663 319.349C277.704 322.71 278.416 326.024 279.756 329.111C279.992 329.631 279.87 330.238 279.491 330.651C279.436 330.708 279.374 330.763 279.308 330.813L275.269 333.86C274.682 334.301 274.523 335.111 274.897 335.748L274.971 335.871L278.071 341.078C278.469 341.731 279.286 341.972 279.973 341.638L279.98 341.631ZM313.181 310.197C313.844 310.953 314.466 311.802 315.023 312.746C316.084 314.548 316.772 317.742 316.525 319.821C316.498 320.045 316.467 320.264 316.436 320.484C314.37 333.805 297.792 337.168 290.727 325.466C289.807 323.936 289.166 321.456 289.104 319.406C289.097 318.932 289.109 318.476 289.164 318.076C289.399 316.186 289.921 314.488 290.672 312.991C294.954 304.464 306.509 302.669 313.181 310.197Z" fill="#EA642F"/>
<path d="M197.515 134.161C197.515 134.161 192.18 134.047 191.999 139.263H203.213C203.213 139.263 204.388 135.372 207.826 136.712V134.161H197.515Z" fill="#7999E2"/>
<path d="M197.515 134.161C197.515 134.161 207.011 135.067 207.374 143.21C207.736 151.354 207.374 167.64 207.374 167.64L214.608 164.925L220.396 167.64V142.848C220.396 142.848 219.853 135.429 212.075 134.161H197.513H197.515Z" fill="#AEC3FF"/>
<path d="M340.407 139.272H320.428C319.043 138.3 316.436 136.176 313.958 132.554C313.482 131.858 313.012 131.11 312.555 130.302C309.991 125.763 333.703 136.242 340.404 139.272H340.407Z" fill="#233862"/>
<path d="M328.089 183.738C328.625 184.361 328.69 185.052 328.416 185.788C328.416 185.791 328.416 185.796 328.411 185.798C327.908 187.159 326.264 188.673 324.357 190.184C324.114 190.377 323.897 190.554 323.709 190.718C323.659 190.761 323.609 190.804 323.564 190.847C323.526 190.88 323.488 190.916 323.452 190.947C321.672 192.566 322.334 192.942 319.136 196.23C315.488 199.975 312.995 200.025 312.288 199.674C311.69 199.376 312.924 197.386 314.289 195.15C314.356 195.043 314.42 194.933 314.487 194.823C314.668 194.525 314.849 194.225 315.031 193.925C316.632 191.231 316.234 189.96 315.888 185.931C315.607 182.658 310.932 167.623 310.932 167.623L317.881 166.477C317.881 166.477 319.887 178.437 322.177 180.291C323.402 181.281 324.779 181.302 325.959 182.039C326.042 182.089 326.123 182.141 326.204 182.196C326.874 182.647 327.555 183.111 328.091 183.736L328.089 183.738Z" fill="#FFB27D"/>
<path d="M328.089 183.738C328.625 184.361 328.69 185.052 328.416 185.788C328.416 185.791 328.416 185.796 328.411 185.798C327.796 187.159 326.195 188.663 324.35 190.17C324.11 190.368 323.897 190.549 323.707 190.718C323.657 190.761 323.607 190.804 323.561 190.847C323.523 190.88 323.485 190.916 323.449 190.947C321.669 192.566 322.332 192.942 319.134 196.23C315.486 199.975 312.993 200.025 312.285 199.674C311.687 199.376 312.922 197.386 314.287 195.15C314.995 194.897 318.278 193.588 320.776 190.437C322.975 187.669 324.455 184.103 325.954 182.041C326.037 182.091 326.118 182.144 326.199 182.198C326.869 182.649 327.551 183.114 328.087 183.738H328.089Z" fill="#233862"/>
<path d="M272.159 179.009C271.716 181.149 268.663 180.77 265.258 179.912C261.853 179.054 262.656 180.05 257.804 179.478C252.952 178.906 251.494 177.085 251.351 176.363C251.222 175.721 253.624 175.512 256.198 175.233C256.522 175.199 256.846 175.161 257.173 175.123C260.08 174.78 262.222 172.918 264.872 171.397C267.381 169.955 271.153 164.038 271.153 164.038L277.809 164.613C277.809 164.613 274.277 169.898 272.91 172.196C272.104 173.547 272.135 175.342 272.223 176.73C272.269 177.483 272.314 178.255 272.157 179.009H272.159Z" fill="#FFB27D"/>
<path d="M265.258 179.91C261.853 179.052 262.656 180.048 257.804 179.476C252.952 178.904 251.494 177.083 251.351 176.36C251.222 175.719 253.624 175.509 256.198 175.23L256.222 175.28C256.222 175.28 259.119 177.366 263.161 177.493C266.454 177.595 269.95 176.677 272.226 176.73C272.271 177.483 272.316 178.255 272.159 179.009C271.716 181.149 268.663 180.77 265.258 179.912V179.91Z" fill="#233862"/>
<path d="M320.566 172.963C320.566 172.963 320.101 173.264 319.41 173.647C318.586 174.1 317.437 174.668 316.377 174.966C315.243 175.283 314.085 175.364 313.253 175.373C312.531 175.378 312.057 175.331 312.057 175.331L304.083 153.392L302.642 149.425L301.109 145.203L300.576 143.735L297.978 136.59C297.978 136.59 304.324 120.313 310.796 128.073C311.582 129.017 312.321 130.395 313.012 132.083C313.484 133.234 313.932 134.531 314.361 135.937C314.68 136.993 314.99 138.109 315.288 139.27C316.093 142.428 316.808 145.921 317.433 149.425C319.513 161.127 320.566 172.961 320.566 172.961V172.963Z" fill="#233862"/>
<path d="M363.149 137.344C362.79 138.252 362.156 138.884 361.305 139.275H331.873C324.791 137.808 318.021 134.569 313.961 132.557C313.625 132.388 313.31 132.23 313.015 132.087C311.628 131.398 310.672 130.929 310.281 130.848C307.82 130.335 306.557 134.345 304.472 139.277C304.045 140.281 303.59 141.32 303.08 142.371C302.715 143.12 302.032 144.09 301.109 145.21C300.938 145.418 300.761 145.628 300.576 145.844C293.42 154.205 274.999 169.774 274.999 169.774C274.999 169.774 274.783 169.774 274.432 169.766C273.305 169.745 270.793 169.643 269.592 169.18C268.901 168.913 268.387 168.617 268.024 168.365C267.495 167.988 267.279 167.695 267.279 167.695C267.279 167.695 289.321 124.58 300.735 112.835C300.902 112.661 301.064 112.499 301.226 112.344C302.472 111.126 303.578 110.323 304.498 110.032C308.387 108.806 333.541 110.172 333.541 110.172L334.344 108.866L335.688 108.771L335.919 108.754L337.039 108.673H337.042L338.588 108.563L340.886 108.401L347.103 107.958L348.101 107.886L359.594 107.069C359.594 107.069 360.118 108.251 360.826 110.213C361.102 110.978 361.407 111.86 361.72 112.838C363.771 119.257 366.164 129.73 363.152 137.344H363.149Z" fill="#2B478B"/>
<path d="M370.768 64.2092C365.025 59.3032 360.926 58.0899 360.357 50.3256C360.047 46.111 354.39 32.1654 344.82 33.3859C344.019 33.4884 343.214 33.5599 342.408 33.5266C341.291 33.4837 339.446 33.6315 337.545 34.7471C332.938 37.4456 324.453 62.3951 330.172 71.1629C331.196 72.7363 332.681 73.79 334.733 74.0975C334.973 74.2334 335.219 74.3716 335.471 74.5123H335.474C336.503 75.0915 337.633 75.7257 338.829 76.4051C345.592 80.2192 354.444 85.2611 358.979 87.8118H358.982C359.256 87.9668 359.513 88.1122 359.756 88.2481C360.283 88.5413 360.728 88.7892 361.074 88.9799C361.605 89.2707 361.915 89.4328 361.939 89.4328C361.939 89.4328 363.107 89.8834 364.744 90.2219C367.024 90.6963 370.217 90.9633 372.441 89.5067C373.32 88.9322 374.144 88.2195 374.878 87.3946C379.48 82.2455 380.693 72.6791 370.765 64.2068L370.768 64.2092Z" fill="#233862"/>
<path d="M342.299 69.9377C342.258 69.9639 346.709 71.5181 349.702 70.2166C352.517 68.996 354.676 64.3928 354.635 64.388C353.358 64.3189 351.966 63.1937 350.937 55.861L350.391 56.0517L341.229 59.277C341.229 59.277 341.87 62.2163 342.28 65.0126C342.623 67.3607 342.801 69.6087 342.301 69.9377H342.299Z" fill="#FFB27D"/>
<path d="M341.229 59.2794C341.229 59.2794 341.619 61.339 342.16 64.2807C347.417 63.3725 349.631 58.886 350.391 56.0516L341.229 59.277V59.2794Z" fill="#ED975D"/>
<path d="M339.847 62.1805C339.847 62.1805 352.364 60.5905 351.254 52.8072C350.143 45.0239 351.011 39.5768 342.973 40.2633C334.935 40.9499 333.808 44.1419 333.548 46.8285C333.289 49.5151 336.563 62.3927 339.849 62.1782L339.847 62.1805Z" fill="#FFB27D"/>
<path d="M334.032 42.5709C334.032 42.5709 341.989 49.5294 347.429 50.123C352.869 50.7189 354.945 48.9835 354.945 48.9835C354.945 48.9835 351.754 46.2945 349.853 41.9797C349.293 40.7067 348.096 39.8295 346.712 39.7007C342.825 39.3384 335.457 39.1334 334.032 42.5709Z" fill="#233862"/>
<path d="M339.041 41.9893C339.041 41.9893 336.346 44.5615 335.488 46.4757C334.661 48.3232 334.385 52.7572 335.021 54.5212C335.021 54.5212 330.906 46.3756 333.296 42.4494C335.831 38.2848 339.041 41.9893 339.041 41.9893Z" fill="#233862"/>
<path d="M331.637 88.291C331.837 113.617 331.599 108.323 334.351 110.745C335.014 111.329 336.887 111.686 339.356 111.867C347.115 112.437 360.766 111.255 361.295 109.822C363.121 104.868 361.867 103.319 363.416 95.7263C363.578 94.9181 363.776 94.0456 364.01 93.0945C365.292 87.8834 366.516 86.1145 362.158 77.6947C358.205 70.0688 354.085 63.8731 353.711 64.0924C343.094 70.2952 342.28 65.0126 342.28 65.0126C342.28 65.0126 331.542 75.9355 331.64 88.2886L331.637 88.291Z" fill="#AEC3FF"/>
<path d="M320.566 172.963C320.566 172.963 320.101 173.264 319.41 173.647C318.586 174.1 317.437 174.668 316.377 174.966C315.243 175.283 314.085 175.364 313.253 175.373C312.531 175.378 312.057 175.33 312.057 175.33L304.083 153.392L306.419 149.425L312.4 139.27L314.361 135.937C314.68 136.993 314.99 138.109 315.288 139.27C316.093 142.428 316.808 145.921 317.433 149.425C319.513 161.127 320.566 172.961 320.566 172.961V172.963Z" fill="#2B478B"/>
<path d="M342.277 65.0126C342.277 65.0126 331.387 66.7814 330.076 71.4561C328.766 76.1333 321.055 103.624 321.055 103.624C321.055 103.624 326.578 104.656 329.149 102.12C331.723 99.5833 338.205 78.4718 338.205 78.4718L342.275 65.0126H342.277Z" fill="#AEC3FF"/>
<path d="M339.356 111.867C347.115 112.437 360.766 111.255 361.295 109.822C363.121 104.868 361.867 103.319 363.416 95.7262L359.747 85.1538C359.747 85.1538 360.283 96.9015 356.799 99.9671C353.32 103.03 342.582 105.829 340.881 108.399C340.061 109.631 339.518 110.871 339.356 111.867Z" fill="#95B3EF"/>
<path d="M348.285 106.99C348.285 106.99 340.64 105.231 339.399 105.901C338.157 106.573 335.121 109.026 334.737 109.884C334.354 110.742 337.492 109.25 338.512 108.983C339.172 108.811 340.902 109.426 341.76 109.719C345.365 110.95 347.584 110.346 347.584 110.346L348.285 106.99Z" fill="#FFB27D"/>
<path d="M353.715 64.0876C353.715 64.0876 363.993 64.7933 367.517 69.7851C372.479 76.8127 382.208 106.675 376.484 110.609C370.038 115.038 347.279 111.574 347.279 111.574C347.279 111.574 346.545 108.025 347.613 106.315C348.68 104.608 365.84 101.96 366.638 101.173C367.434 100.387 356.858 85.6711 356.875 83.2968C356.892 80.9225 353.718 64.0876 353.718 64.0876H353.715Z" fill="#AEC3FF"/>
<path d="M339.013 108.032C339.013 108.032 337.394 110.091 336.865 110.335C336.339 110.578 335.998 110.513 335.998 110.513L337.092 108.575L339.01 108.032H339.013Z" fill="#FFB27D"/>
<path d="M339.399 105.903L334.718 108.137C334.718 108.137 334.914 108.463 335.488 108.442C336.062 108.42 337.516 107.901 337.516 107.901L339.399 105.905V105.903Z" fill="#FFB27D"/>
<path d="M337.864 112.521L300.964 112.261L290.057 84.5674L326.902 84.8272L337.864 112.521Z" fill="#F99746"/>
<path d="M300.537 111.181L349.266 111.526L349.259 112.602L300.964 112.261L300.537 111.181Z" fill="#ED7D2B"/>
<path d="M310.377 98.5202C310.105 97.5475 310.672 96.7656 311.642 96.7704C312.612 96.7776 313.62 97.5714 313.889 98.544C314.161 99.5166 313.594 100.299 312.624 100.294C311.654 100.287 310.646 99.4928 310.377 98.5202Z" fill="white"/>
<path d="M141.073 407.087H290.16C300.529 407.087 308.935 398.678 308.935 388.305V387.52C308.935 377.147 300.529 368.738 290.16 368.738H141.073C130.704 368.738 122.298 377.147 122.298 387.52V388.305C122.298 398.678 130.704 407.087 141.073 407.087Z" fill="#2B478B"/>
<path d="M225.567 382.812L225.434 391.194C225.315 398.608 231.229 404.715 238.64 404.834L337.726 406.417L337.752 404.746C332.192 401.854 328.439 395.997 328.547 389.306L328.594 386.357C328.701 379.663 332.64 373.932 338.288 371.217V371.184L239.203 369.601C231.792 369.482 225.687 375.398 225.567 382.812Z" fill="#FFEDDC"/>
<path d="M340.318 407.087H235.931C229.199 407.087 223.923 398.658 223.923 387.899C223.923 377.141 229.197 368.712 235.931 368.712H340.318C341.186 368.712 341.889 369.415 341.889 370.283C341.889 371.15 341.186 371.853 340.318 371.853H235.931C231.124 371.853 227.064 379.203 227.064 387.902C227.064 396.6 231.124 403.95 235.931 403.95H340.318C341.186 403.95 341.889 404.653 341.889 405.521C341.889 406.388 341.186 407.092 340.318 407.092V407.087Z" fill="#1B3770"/>
<path d="M330.36 378.941H254.985V379.167H330.36V378.941Z" fill="#E8C2A3"/>
<path d="M329.083 382.431H295.004V382.657H329.083V382.431Z" fill="#E8C2A3"/>
<path d="M329.083 394.34H269.633V394.567H329.083V394.34Z" fill="#E8C2A3"/>
<path d="M274.485 379.053C274.485 379.053 277.647 380.376 278.023 384.846C278.4 389.315 278.023 391.697 278.023 391.697L274.206 389.88L270.35 391.697V384.71C270.35 384.71 270.21 379.053 264.948 379.053H274.485Z" fill="#F78248"/>
<path d="M169.232 228.669C169.232 228.669 176.998 226.107 182.968 233.292C188.937 240.477 197.685 250.184 195.414 252.93C193.143 255.676 192.69 257.941 195.947 259.705C199.203 261.469 200.923 263.807 196.129 271.14C193 275.927 192.333 269.555 182.834 269.87C173.333 270.184 166.068 265.39 162.891 268.024C150.905 277.968 152.649 228.395 169.235 228.667L169.232 228.669Z" fill="#233862"/>
<path d="M166.265 265.347C166.265 265.347 144.435 275.677 140.234 275.493C136.033 275.31 108.936 266.473 108.936 266.473L109.597 270.928C109.597 270.928 129.57 282.421 136.555 283.074C143.43 283.715 166.94 276.902 169.208 275.462C171.477 274.022 172.861 266.806 166.265 265.35V265.347Z" fill="#ED985F"/>
<path d="M163.547 275.472C165.579 276.883 168.127 278.046 171.327 278.783C183.318 281.555 187.915 271.414 189.64 264.456C188.005 263.519 186.466 263.314 185.577 263.207C184.709 263.104 183.799 263.037 183.044 262.999C181.697 261.967 179.691 257.745 179.248 251.19L178.683 251.34L169.232 253.929C169.232 253.929 169.666 256.935 169.878 259.774C170.042 261.998 170.069 264.122 169.647 264.642C168.911 264.801 168.467 264.906 168.467 264.906C168.467 264.906 168.467 264.909 168.463 264.916C168.336 265.123 165.593 269.633 163.549 275.472H163.547Z" fill="#FFB27D"/>
<path d="M169.232 253.931C169.232 253.931 169.666 256.935 169.878 259.776C175.232 259.24 177.718 254.141 178.685 251.342L169.235 253.929L169.232 253.931Z" fill="#ED985F"/>
<path d="M167.633 256.754C167.633 256.754 180.342 256.053 179.784 248.141C179.226 240.231 180.489 234.813 172.351 234.925C164.214 235.039 162.851 238.169 162.396 240.853C161.94 243.54 164.311 256.73 167.633 256.751V256.754Z" fill="#FFB27D"/>
<path d="M162.458 236.429C164.249 233.909 165.77 234.324 166.651 234.979C173.317 230.665 178.192 235.988 178.192 235.988C179.448 241.602 183.773 244.56 183.773 244.56C183.773 244.56 181.562 246.155 176.128 245.166C174.47 244.863 172.931 243.809 171.594 242.493C174.012 245.957 177.136 248.355 177.136 248.355C170.555 245.866 167.359 237.184 167.038 236.267C166.313 237.018 164.893 238.641 164.533 240.157C164.045 242.217 161.938 245.437 160.72 245.383C160.72 245.383 159.77 240.21 162.455 236.431L162.458 236.429Z" fill="#233862"/>
<path d="M162.548 274.859C161.862 280.986 162.882 283.689 169.235 297.839C174.601 309.799 168.51 320.567 168.51 320.567C168.51 320.567 181.566 331.068 190.941 335.132C196.15 337.395 200.225 337.664 200.289 333.042C200.361 327.812 197.904 321.216 195.845 315.068C194.067 309.766 192.583 304.796 193.262 301.322C194.41 295.453 198.152 272.006 194.41 264.458C193.066 261.745 187.793 261.502 182.007 261.741C180.206 262.902 173.345 267.297 170.526 266.749C170.495 266.744 170.443 266.73 170.369 266.713C169.042 266.38 169.042 265.588 169.647 264.642C169.649 264.639 167.042 264.668 163.546 265.619C159.567 266.704 155.792 269.657 155.792 269.657C155.792 269.657 158.521 273.157 162.548 274.859Z" fill="#FFEDDC"/>
<path d="M166.942 348.203C165.224 348.01 163.675 347.068 162.715 345.629C162.562 345.4 162.4 345.154 162.226 344.892C158.628 339.445 157.229 322.763 149.139 304.989C147.168 300.662 140.094 299.885 138.166 294.993C138.166 294.993 133.419 279.14 147.252 278.671C161.087 278.204 184.304 322.784 184.671 327.459C185.026 331.988 193.817 351.235 166.942 348.203Z" fill="#1B3770"/>
<path d="M111.953 347.839H131.646C131.646 347.839 132.382 344.697 131.088 342.558C129.945 340.668 130.383 339.588 131.229 338.024C130.338 338.389 129.182 338.723 127.912 338.649C126.93 338.591 125.894 338.146 124.983 337.619C124.135 338.584 120.506 342.699 119.374 343.514C118.087 344.439 112.349 344.11 111.953 347.839Z" fill="#233862"/>
<path d="M137.715 283.255C136.529 292.147 131.899 320.217 123.73 333.91C121.097 338.324 130.364 340.799 130.414 340.787C131.658 340.463 133.729 338.479 134.682 337.619C141.314 331.64 154.775 314.71 154.775 301.139C154.775 294.521 154.892 281.882 150.08 278.668C147.118 276.69 138.185 279.722 137.713 283.255H137.715Z" fill="#1B3770"/>
<path d="M151.181 295.086C153.112 299.978 158.533 299.379 160.503 303.706C160.587 303.887 160.668 304.073 160.751 304.254C161.764 306.5 162.717 308.743 163.623 310.965C165.508 315.599 168.315 325.294 170.421 333.149C171.853 338.479 172.964 342.963 173.243 344.439C173.676 346.709 174.42 348.456 174.42 348.456C204.583 353.112 200.78 332.32 199.124 327.461C197.615 323.022 171.327 277.193 157.491 277.662C143.656 278.13 151.181 295.086 151.181 295.086Z" fill="#2B478B"/>
<path d="M126.408 347.839H146.101C146.101 347.839 146.837 344.697 145.543 342.558C144.4 340.668 144.838 339.588 145.684 338.024C144.793 338.389 143.637 338.723 142.367 338.649C141.385 338.591 140.349 338.146 139.438 337.619C138.59 338.584 134.961 342.699 133.829 343.514C132.542 344.439 126.804 344.11 126.408 347.839Z" fill="#1E3D7C"/>
<path d="M160.751 304.254C161.764 306.5 162.717 308.743 163.623 310.965C165.508 315.599 168.315 325.294 170.421 333.149C170.438 333.183 170.457 333.214 170.474 333.247C178.316 321.013 167.016 297.837 167.016 297.837C164.321 299.072 162.257 301.365 160.751 304.254Z" fill="#1E3D7C"/>
<path d="M149.211 282.626C148.024 291.517 146.356 320.217 138.187 333.912C135.554 338.327 144.821 340.801 144.871 340.789C146.115 340.465 148.186 338.482 149.139 337.621C155.771 331.643 169.232 314.712 169.232 301.141C169.232 294.523 161.469 282.416 156.657 279.202C153.695 277.224 149.68 279.095 149.208 282.628L149.211 282.626Z" fill="#2B478B"/>
<path d="M105.453 255.984L109.535 248.615L112.74 257.562L131.913 275.04L113.157 278.866L105.453 255.984Z" fill="#EA642F"/>
<path d="M128.176 260.899L135.659 283.758L113.157 278.866L105.453 255.984L128.176 260.899Z" fill="#F78248"/>
<path d="M127.311 260.36L106.377 255.659L105.453 255.984L127.159 260.677L127.311 260.36Z" fill="#FCECDB"/>
<path d="M127.311 260.36L127.562 260.766L127.159 260.677L127.311 260.36Z" fill="#EAC5A4"/>
<path d="M105.453 255.984L109.868 248.975L112.754 257.09L106.377 255.659L105.453 255.984Z" fill="#EFDECE"/>
<path d="M121.48 264.868C122.19 264.732 123.713 264.158 125.255 263.733C124.795 263.376 124.283 262.937 124.14 262.487C123.866 261.617 123.682 261.338 124.597 261.614C125.515 261.888 128.722 263.362 128.722 263.362C128.722 263.362 128.715 263.364 128.715 263.366C130.538 263.898 132.216 266.475 132.216 266.475C132.216 266.475 154.777 274.408 157.491 274.544C161.69 274.754 189.64 264.458 189.64 264.458C196.236 265.915 194.756 274.022 192.487 275.462C190.219 276.902 170.107 284.22 158.187 284.359C152.151 284.428 130.19 270.308 130.19 270.308C130.19 270.308 127.624 269.135 125.605 269.502C123.589 269.87 118.914 269.502 117.906 267.853C116.898 266.203 120.289 265.102 121.48 264.873V264.868Z" fill="#FFB27D"/>
<path d="M175.24 269.536C175.24 269.536 177.739 277.453 186.325 279.252C186.325 279.252 200.501 274.883 193.443 265.221C193.443 265.221 186.463 260.034 175.24 269.533V269.536Z" fill="#FFEDDC"/>
<path d="M106.832 265.464C106.828 265.247 106.849 265.03 106.906 264.823C106.906 264.823 108.929 261.624 109.592 261.493C111.61 261.095 111.61 263.75 111.181 265.467C110.883 266.661 110.447 268.387 109.835 269.007L110.693 271.553C106.587 269.874 106.832 265.467 106.832 265.467V265.464Z" fill="#FFB27D"/>
<path d="M190.941 335.13C196.15 337.392 200.225 337.662 200.289 333.039C200.361 327.809 197.904 321.213 195.845 315.065C195.845 315.065 193.009 317.022 186.904 312.543C182.088 309.012 188.16 327.261 190.941 335.13Z" fill="#2B478B"/>
<path d="M76.028 397.201C76.028 397.613 76.0518 398.023 76.1042 398.422C76.2591 399.702 76.6547 400.908 77.2433 401.993C77.7055 402.839 78.2846 403.611 78.9614 404.286C80.7772 406.1 83.2793 407.22 86.0459 407.22H226.938C232.471 407.22 236.958 402.734 236.958 397.199C236.958 394.431 235.838 391.926 234.022 390.111C232.209 388.295 229.704 387.175 226.938 387.175H86.0435C80.5103 387.175 76.0256 391.661 76.0256 397.199L76.028 397.201Z" fill="#F78248"/>
<path d="M86.7727 385.363H135.08C135.926 385.363 136.617 384.671 136.617 383.825C136.617 382.979 135.926 382.288 135.08 382.288H86.7727C85.9267 382.288 85.2357 382.979 85.2357 383.825C85.2357 384.671 85.9267 385.363 86.7727 385.363Z" fill="#F78248"/>
<path d="M89.4416 387.177H94.6769V385.363H89.4416V387.177Z" fill="#EA642F"/>
<path d="M77.2433 401.995C77.7055 402.841 78.2846 403.614 78.9614 404.288C80.7772 406.102 83.2793 407.223 86.0459 407.223H115.89V401.995H77.2433Z" fill="#EA642F"/>
<path d="M255.607 394.264V400.136C255.607 400.779 255.521 401.404 255.359 401.995C254.544 405.008 251.794 407.223 248.525 407.223H101.761C98.492 407.223 95.7397 405.008 94.9271 401.995C94.7675 401.404 94.6793 400.779 94.6793 400.136V394.264C94.6793 390.35 97.8486 387.177 101.761 387.177H248.525C252.438 387.177 255.607 390.35 255.607 394.264Z" fill="#F99746"/>
<path d="M255.359 401.995C254.544 405.008 251.794 407.223 248.525 407.223H101.761C98.492 407.223 95.7397 405.008 94.9271 401.995H255.361H255.359Z" fill="#EF873A"/>
<path d="M241.03 397.234C241.03 400.348 242.162 403.13 243.945 404.972C243.985 405.013 244.023 405.053 244.064 405.094C245.441 406.467 247.19 407.29 249.092 407.29C252.064 407.29 259.427 402.806 263.99 399.828C266.264 398.343 267.843 397.232 267.843 397.232C267.843 397.232 266.264 396.121 263.99 394.638C259.427 391.659 252.064 387.175 249.092 387.175C248.232 387.175 247.405 387.344 246.626 387.651C245.315 388.178 244.147 389.113 243.228 390.333C242.212 391.673 241.49 393.363 241.188 395.239C241.185 395.261 241.181 395.282 241.181 395.304C241.083 395.926 241.03 396.572 241.03 397.234Z" fill="#CDE0FB"/>
<path d="M241.03 397.234C241.03 400.348 242.162 403.13 243.945 404.972L266.533 397.199L241.178 395.303C241.08 395.926 241.028 396.572 241.028 397.234H241.03Z" fill="#A6C7ED"/>
<path d="M243.228 390.336L265.761 396.491L246.623 387.654C245.313 388.181 244.145 389.115 243.225 390.336H243.228Z" fill="#E3F0FF"/>
<path d="M262.52 397.234C262.52 398.431 263.132 399.451 263.99 399.83C266.263 398.345 267.843 397.234 267.843 397.234C267.843 397.234 266.263 396.124 263.99 394.641C263.132 395.015 262.52 396.035 262.52 397.234Z" fill="#2E3552"/>
<path d="M419.821 255.173C419.821 255.173 419.137 253.636 418.694 252.906C418.25 252.177 416.358 250.043 416.037 250.527C415.715 251.011 414.426 254.262 415.11 255.173C415.793 256.084 415.064 257.669 418.47 258.63L419.821 255.173Z" fill="#FFB27D"/>
<path d="M457.65 245.456C457.65 245.456 440.223 260.008 433.43 258.661C428.116 257.607 419.964 254.811 419.964 254.811L418.334 258.982C418.334 258.982 425.647 268.906 433.27 268.971C445.187 269.073 453.992 263.81 453.992 263.81L457.652 245.456H457.65Z" fill="#95B3EF"/>
<path d="M488.209 398.941C488.209 398.941 487.704 407.104 486.124 407.22C485.914 407.237 478.117 407.237 478.117 407.237L468.164 407.18C468.164 407.18 468.228 404.782 471.137 404.274C474.047 403.766 478.918 401.721 480.679 397.873C482.533 393.825 488.206 398.941 488.206 398.941H488.209Z" fill="#1C3D72"/>
<path d="M488.783 399.506C488.783 399.506 485.757 400.519 483.395 400.519C480.76 400.519 478.365 399.802 478.365 399.802C478.365 399.802 477.795 394.29 474.659 382.147C473.015 375.782 470.668 367.598 467.329 357.431C458.098 329.328 455.288 312.886 455.033 311.33C455.019 311.249 455.014 311.208 455.014 311.208L455.045 311.194L483.429 298.726C483.429 298.726 479.921 337.459 484.396 352.325C485.023 354.404 485.559 356.826 486.021 359.448C488.847 375.596 488.783 399.506 488.783 399.506Z" fill="#2B478B"/>
<path d="M474.659 382.147C473.015 375.782 470.668 367.598 467.329 357.431C458.098 329.328 455.288 312.886 455.033 311.33C455.036 311.284 455.038 311.239 455.045 311.194L483.429 298.726C483.429 298.726 479.921 337.459 484.396 352.325C485.023 354.404 474.659 382.147 474.659 382.147Z" fill="#233862"/>
<path d="M466.04 398.941C466.04 398.941 465.535 407.104 463.955 407.22C463.746 407.237 455.949 407.237 455.949 407.237L445.995 407.18C445.995 407.18 446.059 404.782 448.969 404.274C451.878 403.766 456.749 401.721 458.51 397.873C460.364 393.825 466.038 398.941 466.038 398.941H466.04Z" fill="#1C3D72"/>
<path d="M449.946 299.639C449.946 299.639 449.577 324.739 453.918 355.555C458.26 386.374 456.787 399.454 456.787 399.454C456.787 399.454 459.768 400.422 460.974 400.519C464.041 400.77 467.184 399.799 467.184 399.799C467.184 399.799 473.396 368.971 471.616 353.545C469.834 338.119 480.124 300.617 480.124 300.617L449.944 299.639H449.946Z" fill="#2B478B"/>
<path d="M470.075 240.903L464.534 244.539L459.487 243.111C458.565 241.795 458.32 239.256 458.308 237.058C458.293 234.877 458.505 233.027 458.505 233.027L465.981 229.725L468.771 228.495C468.764 228.538 468.554 230.786 468.523 231.115C468.001 236.944 470.075 240.903 470.075 240.903Z" fill="#FFB27D"/>
<path d="M449.82 306.617C456.716 313.277 482.816 312.157 484.425 304.819C486.031 297.479 482.671 242.343 470.89 238.882C468.445 238.162 455.377 242.388 455.377 242.388C455.377 242.388 453.325 247.754 451.981 254.587C451.721 255.917 450.959 270.005 450.387 283.188C450.12 289.353 449.896 295.322 449.781 299.689C449.677 303.782 449.672 306.471 449.82 306.617Z" fill="#AFCDFB"/>
<path d="M467.963 231.218C466.445 233.783 461.127 236.028 458.308 237.056C458.293 234.875 458.505 233.025 458.505 233.025L465.981 229.723C467.632 229.702 468.64 230.071 467.963 231.215V231.218Z" fill="#FCA56B"/>
<path d="M455.684 232.569C455.684 232.569 467.727 236.329 469.953 228.789C472.176 221.248 475.229 216.657 467.634 213.937C460.038 211.219 457.688 213.653 456.335 215.987C454.981 218.323 452.61 231.396 455.684 232.567V232.569Z" fill="#FFB27D"/>
<path d="M456.806 215.262C456.806 215.262 457.574 224.035 459.387 223.656C461.201 223.275 463.197 222.459 462.933 225.105C462.668 227.749 464.696 232.283 467.313 232.274C472.922 232.25 479.018 217.851 477.481 215.122C473.051 207.243 450.403 205.653 456.806 215.265V215.262Z" fill="#163560"/>
<path d="M458.579 239.07C458.734 239.006 467.546 235.051 468.576 235.392C469.605 235.733 470.89 238.879 470.89 238.879L455.374 242.388C455.374 242.388 456.594 239.904 458.577 239.07H458.579Z" fill="#95B3EF"/>
<path d="M403.724 281.77L453.115 328.291C454.083 329.204 455.305 329.492 455.827 328.937L457.495 327.166C458.019 326.608 457.655 325.406 456.687 324.496L407.296 277.975C406.328 277.062 405.106 276.773 404.584 277.329L402.916 279.1C402.392 279.655 402.756 280.859 403.724 281.77Z" fill="#1F4D84"/>
<path d="M431.442 307.875L453.115 328.288C454.083 329.201 455.305 329.49 455.827 328.934L457.495 327.163C458.019 326.605 457.655 325.404 456.687 324.493L435.014 304.08L431.442 307.875Z" fill="#F78248"/>
<path d="M406.238 226.366C391.59 210.788 367.091 210.044 351.521 224.7C351.313 224.893 351.111 225.089 350.913 225.287C335.929 240.002 335.393 264.067 349.85 279.441C364.501 295.017 389 295.765 404.572 281.109C409.669 276.311 413.182 270.456 415.079 264.205C418.982 251.364 416.094 236.844 406.238 226.366ZM402.478 278.885C393.415 287.417 381.069 290.28 369.8 287.613C363.24 286.058 357.044 282.628 352.076 277.348C338.584 262.999 339.27 240.426 353.613 226.929C358.893 221.959 365.285 218.915 371.933 217.763C383.34 215.787 395.488 219.401 404.012 228.467C417.509 242.817 416.818 265.39 402.475 278.888L402.478 278.885Z" fill="#1F4D84"/>
<g opacity="0.5">
<path d="M352.076 277.345C357.044 282.628 363.24 286.056 369.8 287.613C381.067 290.28 393.413 287.415 402.478 278.885C416.821 265.388 417.507 242.813 404.012 228.464C395.486 219.398 383.338 215.787 371.933 217.763C365.285 218.912 358.891 221.959 353.613 226.927C339.27 240.424 338.584 262.999 352.076 277.345Z" fill="#B3CFF9"/>
</g>
<path d="M449.781 299.689C476.997 280.289 474.733 254.401 474.733 254.401C464.787 260.012 454.917 272.423 450.387 283.186C450.12 289.351 449.896 295.32 449.781 299.687V299.689Z" fill="#95B3EF"/>
<path d="M422.921 290.855C421.003 290.411 419.713 288.96 419.444 288.707C419.444 288.707 418.624 288.762 419.578 290.509C419.659 290.655 419.835 291.031 419.968 291.296C420.023 291.405 419.947 291.529 419.825 291.539C418.717 291.622 417.605 291.184 415.472 291.63C415.176 291.692 415.093 292.397 415.102 292.697C415.121 293.205 415.086 293.777 415.677 294.557C416.02 295.01 416.98 295.499 419.115 296.359C419.93 296.686 422.256 296.44 424.436 295.689L426.178 294.883L425.637 291.644L425.199 291.734C424.503 291.88 423.643 291.031 422.918 290.852L422.921 290.855Z" fill="#FFB27D"/>
<path d="M466.288 242.388C466.288 242.388 490.742 247.047 459.094 282.471C454.033 288.137 426.686 295.513 426.686 295.513C426.686 295.513 423.912 293.153 425.311 291.241C425.311 291.241 444.139 277.562 448.283 275.388C450.146 274.411 455.515 253.557 458.553 248.534C461.591 243.511 466.288 242.386 466.288 242.386V242.388Z" fill="#AFCDFB"/>
<path d="M419.158 255.602C419.158 255.602 418.357 254.074 418.203 253.266C418.045 252.46 417.04 250.107 416.625 249.693C416.458 249.526 415.91 249.74 415.846 250.453C415.817 250.763 415.97 251.328 416.239 252C416.678 253.094 416.604 254.58 416.756 255.075C417.135 256.308 419.158 255.602 419.158 255.602Z" fill="#FFB27D"/>
<path d="M112.761 368.738H231.108C236.891 368.738 241.579 364.049 241.579 358.263C241.579 352.477 236.891 347.788 231.108 347.788H112.761C106.978 347.788 102.29 352.477 102.29 358.263C102.29 364.049 106.978 368.738 112.761 368.738Z" fill="#699DEE"/>
<path d="M179.362 355.467L179.262 360.039C179.174 364.082 183.587 367.415 189.118 367.479L263.066 368.342L263.085 367.431C258.936 365.853 256.136 362.659 256.215 359.009L256.25 357.4C256.331 353.748 259.27 350.623 263.485 349.142V349.123L189.537 348.26C184.006 348.196 179.45 351.421 179.362 355.467Z" fill="#FFEDDC"/>
<path d="M265.001 368.709H187.097C182.072 368.709 178.137 364.111 178.137 358.242C178.137 352.373 182.074 347.774 187.097 347.774H265.001C265.646 347.774 266.173 348.158 266.173 348.63C266.173 349.102 265.649 349.486 265.001 349.486H187.097C183.511 349.486 180.48 353.495 180.48 358.239C180.48 362.983 183.511 366.993 187.097 366.993H265.001C265.646 366.993 266.173 367.377 266.173 367.849C266.173 368.321 265.649 368.704 265.001 368.704V368.709Z" fill="#4B87DD"/>
<path d="M257.568 353.343H201.316V353.488H257.568V353.343Z" fill="#E8C2A3"/>
<path d="M256.615 355.248H231.182V355.393H256.615V355.248Z" fill="#E8C2A3"/>
<path d="M256.617 361.746H212.249V361.891H256.617V361.746Z" fill="#E8C2A3"/>
<path d="M560.46 407.087H0.88884C0.397947 407.087 0 407.485 0 407.976V409.108C0 409.6 0.397947 409.998 0.88884 409.998H560.46C560.951 409.998 561.349 409.6 561.349 409.108V407.976C561.349 407.485 560.951 407.087 560.46 407.087Z" fill="#2E3552"/>
</g>
<defs>
<clipPath id="clip0_3992_3678">
<rect width="562.745" height="410" fill="white"/>
</clipPath>
</defs>
</svg>
