<svg width="561" height="413" viewBox="0 0 561 413" fill="none" xmlns="http://www.w3.org/2000/svg">
<g clip-path="url(#clip0_3991_3493)">
<path d="M60.5205 411.517C60.5205 411.517 -29.9897 334.043 38.8149 260.615C112.072 182.439 47.1687 82.0756 146.61 41.5817C254.119 -2.19808 281.779 74.9097 326.788 63.0706C416.558 39.4552 530.423 51.0842 511.478 165.793C487.696 309.787 585.269 291.421 527.317 412L60.5227 411.52L60.5205 411.517Z" fill="#EBF3FA"/>
<path d="M330.272 161.173C330.272 161.173 346.419 92.673 400.89 85.1435C400.89 85.1435 411.488 83.8418 415.018 95.5209C418.548 107.202 397.474 107.286 384.45 111.985C371.426 116.683 341.059 136.602 330.272 161.173Z" fill="#D2E0FF"/>
<path d="M329.034 148.353C329.034 148.353 323.372 91.6135 363.122 71.4771C363.122 71.4771 370.899 67.6847 376.678 75.7009C382.457 83.7195 366.334 89.3409 357.592 96.3767C348.85 103.412 330.828 126.682 329.034 148.353Z" fill="#D2E0FF"/>
<g opacity="0.8">
<path d="M206.544 201.306C206.544 201.306 229.908 188.211 219.006 170.438C219.006 170.438 210.283 159.526 200.937 156.719C200.937 156.719 205.921 183.222 200.937 183.845C195.953 184.469 197.51 153.914 197.51 153.914C197.51 153.914 172.901 142.067 163.244 143.002C163.244 143.002 178.508 168.88 173.524 168.256C168.54 167.633 151.406 141.441 151.406 141.441C151.406 141.441 126.174 136.764 122.124 151.73C118.074 166.696 124.617 174.18 128.353 175.115C132.092 176.05 156.078 175.738 155.456 178.857C154.833 181.975 138.633 186.964 129.601 184.157C129.601 184.157 139.569 208.788 152.653 207.542C165.737 206.295 169.787 198.188 177.885 197.564C185.985 196.941 191.903 199.123 187.853 201.306C183.803 203.488 170.096 202.021 163.556 207.587C157.015 213.153 151.717 216.584 163.867 219.077C176.017 221.572 197.821 220.012 202.183 210.658L206.544 201.304V201.306Z" fill="#AEC3FF"/>
<path d="M133.649 156.409C133.649 156.409 199.067 177.613 206.544 201.309C206.544 201.309 206.233 211.909 212.774 224.07V228.747C212.774 228.747 205.921 212.846 202.183 210.663C202.183 210.663 216.824 190.085 133.649 156.409Z" fill="#AEC3FF"/>
<path d="M212.774 224.068C212.774 224.068 222.862 239.403 217.111 258.067L214.515 257.37C214.515 257.37 217.034 236.811 211.756 226.472C206.477 216.133 212.774 224.07 212.774 224.07V224.068Z" fill="#AEC3FF"/>
</g>
<g opacity="0.5">
<path d="M219.523 307.035C219.523 307.035 234.827 261.14 198.698 250.665C198.698 250.665 173.806 246.697 157.92 254.313C157.92 254.313 196.741 283.643 190.842 290.537C184.943 297.429 149.937 254.733 149.937 254.733C149.937 254.733 102.695 268.833 90.9332 281.823C90.9332 281.823 142.726 297.822 135.313 303.048C127.901 308.276 73.2339 294.133 73.2339 294.133C73.2339 294.133 33.8618 318.567 46.6202 343.477C59.3762 368.386 77.1953 370.423 83.3218 367.127C89.4483 363.831 121.101 334.25 124.054 339.171C127.007 344.093 111.43 370.45 95.9604 377.687C95.9604 377.687 139.167 398.459 155.125 380.885C171.083 363.311 166.652 347.561 176.709 336.882C186.768 326.202 197.321 321.919 194.562 329.758C191.803 337.596 171.718 352.303 169.74 367.688C167.759 383.076 164.851 394.096 184.103 382.654C203.354 371.212 230.581 342.618 225.051 324.824L219.523 307.03V307.035Z" fill="#D2E0FF"/>
<path d="M67.6893 335.71C67.6893 335.71 180.778 284.482 219.523 307.035C219.523 307.035 232.693 323.197 225.051 324.829C225.051 324.829 219.626 279.548 67.6869 335.71H67.6893Z" fill="#D2E0FF"/>
</g>
<path d="M386.766 311.939C386.766 311.939 391.276 284.491 412.455 288.859C412.455 288.859 426.177 293.522 432.217 301.658C432.217 301.658 404.616 306.157 405.771 311.246C406.925 316.336 436.164 304.014 436.164 304.014C436.164 304.014 456.414 323.863 458.914 333.624C458.914 333.624 428.289 327.864 430.658 332.512C433.026 337.16 464.617 344.637 464.617 344.637C464.617 344.637 478.096 367.628 464.935 376.874C451.775 386.12 442.168 382.376 439.934 379.056C437.701 375.736 429.525 352.198 426.706 353.909C423.887 355.621 424.749 373.204 430.677 381.036C430.677 381.036 403.139 380.005 399.73 366.787C396.322 353.566 402.794 346.746 400.54 338.615C398.286 330.484 394.066 325.474 393.369 330.201C392.672 334.928 398.947 347.796 395.834 356.153C392.72 364.51 391.247 370.896 384.522 359.909C377.797 348.925 371.608 327.077 379.186 319.51L386.764 311.944L386.766 311.939Z" fill="#BBD0FF"/>
<path d="M456.306 367.264C456.306 367.264 412.513 310.865 386.768 311.939C386.768 311.939 376.544 315.99 362.375 313.9L357.815 315.554C357.815 315.554 375.739 316.628 379.191 319.507C379.191 319.507 394.078 297.932 456.306 367.266V367.264Z" fill="#BBD0FF"/>
<path d="M362.375 313.898C362.375 313.898 343.859 309.463 327.695 321.679L329.292 323.968C329.292 323.968 348.445 314.241 360.392 315.741C372.338 317.242 362.375 313.898 362.375 313.898Z" fill="#BBD0FF"/>
<path d="M378.534 198.262C378.534 198.262 349.976 182.254 363.302 160.53C363.302 160.53 373.965 147.19 385.387 143.76C385.387 143.76 379.294 176.155 385.387 176.918C391.48 177.68 389.576 140.329 389.576 140.329C389.576 140.329 419.657 125.845 431.462 126.989C431.462 126.989 412.803 158.622 418.896 157.86C424.989 157.098 445.931 125.083 445.931 125.083C445.931 125.083 476.774 119.366 481.725 137.661C486.675 155.956 478.678 165.102 474.109 166.245C469.539 167.389 440.219 167.008 440.98 170.819C441.742 174.631 461.542 180.729 472.585 177.299C472.585 177.299 460.399 207.407 444.408 205.883C428.414 204.358 423.465 194.448 413.564 193.686C403.663 192.924 396.428 195.592 401.378 198.26C406.329 200.928 423.082 199.135 431.079 205.938C439.076 212.741 445.55 216.934 430.698 219.983C415.847 223.032 389.192 221.127 383.861 209.692L378.53 198.257L378.534 198.262Z" fill="#D2E0FF"/>
<path d="M467.64 143.378C467.64 143.378 387.674 169.294 378.534 198.262C378.534 198.262 378.915 211.221 370.918 226.084V231.801C370.918 231.801 379.296 212.365 383.866 209.697C383.866 209.697 365.97 184.543 467.64 143.381V143.378Z" fill="#D2E0FF"/>
<path d="M370.921 226.084C370.921 226.084 358.589 244.828 365.62 267.644L368.794 266.791C368.794 266.791 365.714 241.661 372.166 229.02C378.618 216.38 370.923 226.084 370.923 226.084H370.921Z" fill="#D2E0FF"/>
<path d="M400.437 118.997H186.969V411.181H400.437V118.997Z" fill="#739AF0"/>
<path d="M391.343 126.881H196.066V403.128H391.343V126.881Z" fill="#F3FAFF"/>
<path d="M253.219 118.997V128.95C253.219 134.446 257.666 138.903 263.153 138.903H316.517C322.004 138.903 326.452 134.446 326.452 128.95V118.997H253.219Z" fill="#2B478B"/>
<path d="M242.894 364.028H218.733V366.475H242.894V364.028Z" fill="#AEC3FF"/>
<path d="M272.65 364.028H248.489V366.475H272.65V364.028Z" fill="#AEC3FF"/>
<path d="M252.239 369.457H218.733V371.905H252.239V369.457Z" fill="#AEC3FF"/>
<path d="M246.79 160.257H255.635C258.095 160.257 260.001 160.947 261.273 162.22C262.351 163.299 262.931 164.821 262.931 166.701C262.931 169.827 261.244 171.79 258.785 172.703L263.51 179.619H258.536L254.335 173.422H251.046V179.619H246.79V160.255V160.257ZM255.357 169.661C257.429 169.661 258.62 168.554 258.62 166.866C258.62 165.039 257.348 164.1 255.276 164.1H251.049V169.659H255.36L255.357 169.661Z" fill="#8C9DF4"/>
<path d="M266.47 171.323V160.257H270.726V171.212C270.726 174.367 272.302 175.997 274.899 175.997C277.495 175.997 279.071 174.42 279.071 171.349V160.257H283.327V171.183C283.327 177.047 280.038 179.924 274.841 179.924C269.644 179.924 266.468 177.018 266.468 171.32L266.47 171.323Z" fill="#8C9DF4"/>
<path d="M287.669 160.257H291.925V175.748H301.57V179.622H287.669V160.257Z" fill="#8C9DF4"/>
<path d="M304.777 160.257H319.37V164.047H309.006V167.976H318.127V171.766H309.006V175.832H319.509V179.622H304.779V160.257H304.777Z" fill="#8C9DF4"/>
<path d="M321.968 176.798L324.483 173.782C326.224 175.22 328.049 176.134 330.26 176.134C332.001 176.134 333.053 175.441 333.053 174.252C333.053 173.173 332.389 172.619 329.156 171.79C325.259 170.795 322.744 169.716 322.744 165.814C322.744 162.302 325.563 159.977 329.515 159.977C332.334 159.977 334.739 160.861 336.7 162.438L334.49 165.648C332.777 164.459 331.091 163.74 329.46 163.74C327.829 163.74 326.972 164.488 326.972 165.483C326.972 166.756 327.8 167.171 331.144 168.029C335.067 169.052 337.28 170.462 337.28 173.892C337.28 177.737 334.351 179.895 330.176 179.895C327.247 179.895 324.289 178.871 321.968 176.798Z" fill="#8C9DF4"/>
<path d="M344.491 184.186H239.579V185.54H344.491V184.186Z" fill="#8C9DF4"/>
<path d="M371.809 229.536H336.492V194.187H371.809V229.536ZM338.154 227.87H370.145V195.85H338.154V227.87Z" fill="#AFCDFB"/>
<path d="M355.027 222.431C354.287 222.431 353.581 222.1 353.104 221.524L342.206 208.328C341.327 207.264 341.478 205.691 342.539 204.811C343.6 203.931 345.174 204.082 346.053 205.144L354.697 215.611L370.331 189.344C371.038 188.16 372.568 187.772 373.752 188.477C374.935 189.184 375.323 190.716 374.619 191.9L357.171 221.21C356.756 221.908 356.028 222.359 355.219 222.421C355.154 222.426 355.092 222.428 355.027 222.428V222.431Z" fill="#F99746"/>
<path d="M309.236 199.403H230.777V202.853H309.236V199.403Z" fill="#AEC3FF"/>
<path d="M303.086 214.807H230.777V218.257H303.086V214.807Z" fill="#AEC3FF"/>
<path d="M309.236 207.105H287.849V210.555H309.236V207.105Z" fill="#AEC3FF"/>
<path d="M281.923 207.105H230.777V210.555H281.923V207.105Z" fill="#AEC3FF"/>
<path d="M213.212 202.486L209.701 203.462L208.978 200.674L214.215 199H216.611V218.657H213.212V202.483V202.486Z" fill="#AEC3FF"/>
<path d="M218.855 217.418C218.855 216.732 219.41 216.176 220.095 216.176C220.78 216.176 221.336 216.732 221.336 217.418C221.336 218.104 220.78 218.66 220.095 218.66C219.41 218.66 218.855 218.104 218.855 217.418Z" fill="#AEC3FF"/>
<path d="M372.082 282.341H336.765V246.992H372.082V282.341ZM338.427 280.675H370.418V248.656H338.427V280.675Z" fill="#AFCDFB"/>
<path d="M355.3 275.236C354.56 275.236 353.853 274.905 353.377 274.33L342.479 261.133C341.6 260.069 341.751 258.496 342.812 257.617C343.873 256.737 345.447 256.888 346.326 257.95L354.97 268.416L370.604 242.15C371.311 240.966 372.841 240.577 374.024 241.282C375.208 241.989 375.596 243.521 374.892 244.705L357.444 274.016C357.029 274.713 356.301 275.164 355.492 275.226C355.427 275.231 355.365 275.234 355.3 275.234V275.236Z" fill="#F99746"/>
<path d="M208.827 268.78L215.492 263.104C218.148 260.86 219.116 259.616 219.116 257.871C219.116 255.96 217.76 254.853 215.99 254.853C214.22 254.853 213.004 255.821 211.509 257.76L209.102 255.879C210.956 253.275 212.781 251.808 216.239 251.808C220.028 251.808 222.629 254.134 222.629 257.65C222.629 260.697 220.998 262.329 217.595 265.153L213.612 268.476H222.823V271.465H208.827V268.78Z" fill="#AEC3FF"/>
<path d="M225.127 270.233C225.127 269.552 225.678 269.001 226.358 269.001C227.039 269.001 227.589 269.552 227.589 270.233C227.589 270.914 227.039 271.465 226.358 271.465C225.678 271.465 225.127 270.914 225.127 270.233Z" fill="#AEC3FF"/>
<path d="M313.873 252.208H231.426V255.658H313.873V252.208Z" fill="#AEC3FF"/>
<path d="M307.409 267.615H231.426V271.065H307.409V267.615Z" fill="#AEC3FF"/>
<path d="M313.873 259.913H291.398V263.363H313.873V259.913Z" fill="#AEC3FF"/>
<path d="M285.171 259.913H231.426V263.363H285.171V259.913Z" fill="#AEC3FF"/>
<path d="M372.082 335.537H336.765V300.188H372.082V335.537ZM338.427 333.871H370.418V301.852H338.427V333.871Z" fill="#AFCDFB"/>
<path d="M355.3 328.432C354.56 328.432 353.853 328.101 353.377 327.526L342.479 314.329C341.6 313.267 341.751 311.692 342.812 310.813C343.873 309.933 345.447 310.084 346.326 311.146L354.97 321.612L370.604 295.346C371.311 294.162 372.841 293.773 374.024 294.478C375.208 295.183 375.596 296.717 374.892 297.901L357.444 327.212C357.029 327.909 356.301 328.362 355.492 328.425C355.427 328.43 355.365 328.432 355.3 328.432Z" fill="#F99746"/>
<path d="M313.873 305.407H231.426V308.857H313.873V305.407Z" fill="#AEC3FF"/>
<path d="M307.409 320.809H231.426V324.259H307.409V320.809Z" fill="#AEC3FF"/>
<path d="M313.873 313.107H291.398V316.556H313.873V313.107Z" fill="#AEC3FF"/>
<path d="M285.171 313.107H231.426V316.556H285.171V313.107Z" fill="#AEC3FF"/>
<path d="M208.58 321.145L210.908 318.977C212.261 320.576 213.777 321.471 215.89 321.471C217.758 321.471 219.166 320.332 219.166 318.544C219.166 316.755 217.461 315.617 214.807 315.617H213.265L212.723 313.531L217.839 308.085H209.636V305.186H222.169V307.679L216.891 313.1C219.894 313.533 222.466 315.077 222.466 318.491C222.466 321.904 219.76 324.479 215.835 324.479C212.532 324.479 210.177 323.098 208.58 321.147V321.145Z" fill="#AEC3FF"/>
<path d="M223.422 323.271C223.422 322.604 223.961 322.065 224.627 322.065C225.293 322.065 225.831 322.604 225.831 323.271C225.831 323.937 225.293 324.477 224.627 324.477C223.961 324.477 223.422 323.937 223.422 323.271Z" fill="#AEC3FF"/>
<path d="M308.077 371.843C300.993 371.843 294.821 366.809 293.403 359.871C293.29 359.315 293.647 358.773 294.203 358.661C294.756 358.548 295.3 358.905 295.412 359.461C296.636 365.447 301.963 369.791 308.077 369.791C314.192 369.791 319.446 365.497 320.716 359.583C320.835 359.03 321.382 358.677 321.935 358.795C322.488 358.915 322.843 359.459 322.723 360.015C321.252 366.871 315.092 371.845 308.077 371.845V371.843Z" fill="#AEC3FF"/>
<path d="M294.38 355.206C294.315 355.206 294.251 355.201 294.183 355.187C293.628 355.079 293.264 354.54 293.372 353.984C294.73 346.957 300.916 341.856 308.077 341.856C315.238 341.856 320.934 346.516 322.605 353.188C322.744 353.737 322.409 354.295 321.861 354.434C321.312 354.571 320.754 354.238 320.615 353.689C319.171 347.931 314.014 343.911 308.077 343.911C302.14 343.911 296.559 348.312 295.386 354.374C295.29 354.866 294.861 355.206 294.38 355.206Z" fill="#AEC3FF"/>
<path d="M308.077 378.164C296.337 378.164 286.783 368.604 286.783 356.851C286.783 345.097 296.334 335.537 308.077 335.537C319.82 335.537 329.371 345.097 329.371 356.851C329.371 368.604 319.82 378.164 308.077 378.164ZM308.077 338.457C297.944 338.457 289.7 346.708 289.7 356.851C289.7 366.993 297.944 375.244 308.077 375.244C318.211 375.244 326.454 366.993 326.454 356.851C326.454 346.708 318.211 338.457 308.077 338.457Z" fill="#AEC3FF"/>
<path d="M312.292 354.18H303.859V355.532H312.292V354.18Z" fill="#AEC3FF"/>
<path d="M312.292 359.711H303.859V361.063H312.292V359.711Z" fill="#AEC3FF"/>
<path d="M314.285 356.851H301.872V358.203H314.285V356.851Z" fill="#AEC3FF"/>
<path d="M169.931 265.199C169.931 265.199 170.595 263.705 171.023 262.998C171.452 262.291 173.289 260.22 173.6 260.69C173.912 261.16 175.162 264.314 174.498 265.199C173.835 266.083 174.542 267.62 171.241 268.553L169.931 265.199Z" fill="#FFB27D"/>
<path d="M133.242 255.773C133.242 255.773 150.141 269.893 156.732 268.586C161.884 267.565 169.792 264.849 169.792 264.849L171.373 268.898C171.373 268.898 164.281 278.527 156.888 278.59C145.329 278.688 136.791 273.582 136.791 273.582L133.242 255.773Z" fill="#6980E2"/>
<path d="M103.603 404.703C103.603 404.703 104.094 412.624 105.624 412.739C105.828 412.753 113.389 412.753 113.389 412.753L123.043 412.698C123.043 412.698 122.981 410.37 120.157 409.879C117.336 409.387 112.613 407.403 110.903 403.67C109.104 399.744 103.6 404.706 103.6 404.706L103.603 404.703Z" fill="#1C4B8E"/>
<path d="M103.047 405.255C103.047 405.255 105.981 406.238 108.273 406.238C110.829 406.238 113.152 405.54 113.152 405.54C113.152 405.54 113.705 400.192 116.744 388.41C118.34 382.234 120.615 374.293 123.853 364.426C132.808 337.155 135.529 321.202 135.778 319.692C135.792 319.613 135.797 319.572 135.797 319.572L135.768 319.56L108.24 307.461C108.24 307.461 111.643 345.044 107.301 359.471C106.692 361.487 106.173 363.836 105.725 366.382C102.983 382.052 103.047 405.252 103.047 405.252V405.255Z" fill="#FFA561"/>
<path d="M116.744 388.41C118.34 382.234 120.615 374.293 123.853 364.426C132.808 337.155 135.529 321.202 135.778 319.692C135.775 319.646 135.773 319.605 135.768 319.56L108.24 307.461C108.24 307.461 111.643 345.044 107.301 359.471C106.692 361.487 116.744 388.407 116.744 388.407V388.41Z" fill="#F4904D"/>
<path d="M125.106 404.703C125.106 404.703 125.597 412.624 127.127 412.739C127.331 412.753 134.892 412.753 134.892 412.753L144.546 412.698C144.546 412.698 144.484 410.37 141.663 409.879C138.841 409.387 134.118 407.403 132.408 403.67C130.609 399.744 125.106 404.706 125.106 404.706V404.703Z" fill="#1C4B8E"/>
<path d="M140.712 308.348C140.712 308.348 141.069 332.704 136.858 362.606C132.648 392.509 134.075 405.204 134.075 405.204C134.075 405.204 131.182 406.142 130.015 406.238C127.041 406.48 123.992 405.54 123.992 405.54C123.992 405.54 117.966 375.625 119.693 360.657C121.42 345.689 111.442 309.298 111.442 309.298L140.712 308.348Z" fill="#FFA561"/>
<path d="M121.192 251.353L126.566 254.879L131.462 253.493C132.358 252.216 132.592 249.754 132.607 247.62C132.619 245.503 132.415 243.708 132.415 243.708L125.165 240.505L122.461 239.312C122.469 239.355 122.672 241.534 122.701 241.853C123.206 247.508 121.197 251.35 121.197 251.35L121.192 251.353Z" fill="#FFB27D"/>
<path d="M140.836 315.118C134.147 321.581 108.836 320.495 107.275 313.373C105.718 306.251 108.975 252.75 120.402 249.389C122.773 248.692 135.447 252.793 135.447 252.793C135.447 252.793 137.435 258 138.741 264.631C138.994 265.92 139.732 279.594 140.285 292.383C140.544 298.364 140.762 304.156 140.872 308.396C140.973 312.368 140.98 314.976 140.834 315.118H140.836Z" fill="#8C9DF4"/>
<path d="M123.24 241.956C124.71 244.444 129.872 246.623 132.604 247.62C132.616 245.503 132.413 243.708 132.413 243.708L125.163 240.505C123.561 240.484 122.584 240.843 123.24 241.953V241.956Z" fill="#FCA56B"/>
<path d="M135.148 243.269C135.148 243.269 123.467 246.915 121.309 239.602C119.151 232.285 116.191 227.829 123.558 225.192C130.925 222.555 133.203 224.916 134.518 227.182C135.831 229.45 138.132 242.133 135.148 243.272V243.269Z" fill="#FFB27D"/>
<path d="M134.058 226.475C134.058 226.475 133.313 234.987 131.553 234.618C129.795 234.249 127.857 233.458 128.116 236.025C128.375 238.592 126.406 242.991 123.87 242.979C118.431 242.958 112.52 228.984 114.009 226.336C118.306 218.691 140.271 217.147 134.061 226.475H134.058Z" fill="#163560"/>
<path d="M132.341 249.574C132.19 249.512 123.645 245.674 122.646 246.004C121.647 246.335 120.402 249.389 120.402 249.389L135.447 252.793C135.447 252.793 134.264 250.384 132.341 249.574Z" fill="#6980E2"/>
<path d="M185.54 291.009L137.639 336.148C136.7 337.033 135.517 337.316 135.007 336.774L133.39 335.055C132.882 334.516 133.234 333.349 134.173 332.464L182.074 287.322C183.013 286.438 184.196 286.155 184.706 286.697L186.323 288.416C186.831 288.955 186.479 290.122 185.54 291.007V291.009Z" fill="#1F4D84"/>
<path d="M158.66 316.34L137.639 336.148C136.7 337.033 135.517 337.316 135.007 336.774L133.39 335.055C132.882 334.516 133.234 333.349 134.173 332.464L155.195 312.656L158.66 316.34Z" fill="#739AF0"/>
<path d="M174.53 273.965C176.369 280.03 179.775 285.712 184.718 290.369C199.821 304.589 223.583 303.863 237.79 288.749C251.81 273.831 251.288 250.478 236.758 236.2C236.566 236.008 236.367 235.819 236.168 235.632C221.068 221.412 197.309 222.133 183.102 237.25C173.543 247.416 170.741 261.505 174.527 273.965H174.53ZM185.262 239.283C193.53 230.485 205.311 226.98 216.373 228.898C222.821 230.015 229.022 232.971 234.142 237.792C248.053 250.89 248.718 272.793 235.632 286.716C230.813 291.841 224.806 295.168 218.443 296.676C207.514 299.265 195.541 296.487 186.752 288.209C172.841 275.111 172.173 253.208 185.262 239.283Z" fill="#1F4D84"/>
<g opacity="0.5">
<path d="M235.632 286.716C230.813 291.841 224.806 295.169 218.44 296.679C207.514 299.265 195.539 296.487 186.749 288.21C172.839 275.111 172.173 253.208 185.259 239.283C193.527 230.485 205.308 226.98 216.371 228.898C222.819 230.015 229.019 232.971 234.14 237.792C248.05 250.89 248.716 272.793 235.63 286.716H235.632Z" fill="#B3CFF9"/>
</g>
<path d="M140.872 308.396C114.479 289.571 116.673 264.451 116.673 264.451C126.32 269.897 135.893 281.938 140.285 292.383C140.544 298.364 140.762 304.156 140.872 308.396Z" fill="#6980E2"/>
<path d="M166.923 299.824C168.784 299.395 170.034 297.985 170.293 297.738C170.293 297.738 171.088 297.793 170.164 299.488C170.087 299.63 169.914 299.994 169.785 300.253C169.732 300.358 169.807 300.481 169.924 300.49C170.997 300.572 172.077 300.147 174.146 300.579C174.431 300.639 174.515 301.322 174.503 301.615C174.484 302.108 174.52 302.662 173.948 303.42C173.615 303.861 172.683 304.333 170.611 305.167C169.821 305.486 167.565 305.246 165.45 304.518L163.759 303.734L164.284 300.591L164.708 300.68C165.381 300.821 166.216 299.996 166.921 299.824H166.923Z" fill="#FFB27D"/>
<path d="M124.864 252.796C124.864 252.796 101.148 257.314 131.84 291.69C136.75 297.187 163.271 304.345 163.271 304.345C163.271 304.345 165.96 302.053 164.605 300.2C164.605 300.2 146.345 286.927 142.326 284.817C140.518 283.868 135.311 263.633 132.365 258.76C129.419 253.886 124.864 252.796 124.864 252.796Z" fill="#8C9DF4"/>
<path d="M170.573 265.616C170.573 265.616 171.349 264.132 171.5 263.348C171.651 262.567 172.628 260.282 173.03 259.882C173.191 259.721 173.722 259.93 173.785 260.62C173.811 260.922 173.665 261.469 173.404 262.121C172.98 263.183 173.049 264.624 172.901 265.103C172.534 266.299 170.571 265.614 170.571 265.614L170.573 265.616Z" fill="#FFB27D"/>
<path d="M248.901 401.544C248.901 401.947 248.924 402.347 248.975 402.738C249.126 403.989 249.514 405.166 250.088 406.228C250.539 407.055 251.106 407.808 251.765 408.469C253.537 410.241 255.98 411.336 258.684 411.336H396.286C401.69 411.336 406.073 406.952 406.073 401.544C406.073 398.837 404.978 396.39 403.206 394.618C401.436 392.844 398.99 391.749 396.286 391.749H258.684C253.281 391.749 248.901 396.133 248.901 401.544Z" fill="#2B478B"/>
<path d="M259.398 389.977H306.578C307.404 389.977 308.08 389.301 308.08 388.474C308.08 387.647 307.404 386.971 306.578 386.971H259.398C258.572 386.971 257.896 387.647 257.896 388.474C257.896 389.301 258.572 389.977 259.398 389.977Z" fill="#2B478B"/>
<path d="M262.001 391.749H267.115V389.975H262.001V391.749Z" fill="#233862"/>
<path d="M250.089 406.228C250.539 407.055 251.106 407.808 251.765 408.469C253.537 410.241 255.98 411.336 258.684 411.336H287.832V406.228H250.089Z" fill="#233862"/>
<path d="M424.287 398.674V404.411C424.287 405.039 424.203 405.65 424.045 406.228C423.25 409.172 420.563 411.336 417.37 411.336H274.034C270.841 411.336 268.154 409.172 267.359 406.228C267.203 405.65 267.117 405.039 267.117 404.411V398.674C267.117 394.848 270.212 391.749 274.034 391.749H417.37C421.19 391.749 424.287 394.848 424.287 398.674Z" fill="#F99746"/>
<path d="M424.045 406.228C423.25 409.172 420.563 411.336 417.37 411.336H274.034C270.842 411.336 268.154 409.172 267.359 406.228H424.047H424.045Z" fill="#EF873A"/>
<path d="M410.051 401.577C410.051 404.619 411.155 407.338 412.896 409.138C412.937 409.179 412.973 409.217 413.014 409.258C414.36 410.6 416.067 411.403 417.924 411.403C420.826 411.403 428.016 407.021 432.473 404.111C434.694 402.661 436.236 401.575 436.236 401.575C436.236 401.575 434.694 400.489 432.473 399.039C428.016 396.126 420.824 391.744 417.924 391.744C417.083 391.744 416.276 391.91 415.514 392.212C414.235 392.727 413.095 393.638 412.197 394.832C411.205 396.143 410.501 397.792 410.204 399.624C410.202 399.645 410.197 399.667 410.197 399.688C410.101 400.295 410.051 400.928 410.051 401.575V401.577Z" fill="#8C9DF4"/>
<path d="M410.051 401.577C410.051 404.619 411.155 407.338 412.896 409.138L434.957 401.541L410.195 399.691C410.099 400.297 410.048 400.93 410.048 401.577H410.051Z" fill="#6980E2"/>
<path d="M412.197 394.837L434.205 400.851L415.514 392.214C414.235 392.729 413.095 393.64 412.197 394.834V394.837Z" fill="#9FB1FF"/>
<path d="M431.039 401.577C431.039 402.747 431.637 403.744 432.476 404.114C434.696 402.663 436.238 401.577 436.238 401.577C436.238 401.577 434.696 400.491 432.476 399.041C431.637 399.408 431.039 400.405 431.039 401.577Z" fill="#182D4C"/>
<path d="M470.07 222.531C466.425 220.64 463.506 221.829 463.506 221.829C452.352 220.518 449.099 233.537 449.25 238.015C449.399 242.493 449.911 247.304 444.932 253.124C430.545 269.933 460.677 270.674 460.677 270.674C460.931 257.245 477.016 262.145 476.312 263.504C496.931 268.457 478.362 226.834 470.073 222.529L470.07 222.531Z" fill="#163560"/>
<path d="M427.051 275.833C427.051 275.833 425.089 272.843 423.508 272.786C421.928 272.728 419.001 271.906 419.236 272.493C419.47 273.078 421.286 273.138 421.461 273.491C421.636 273.843 418.769 274.37 417.947 274.428C417.128 274.486 415.195 274.428 415.255 274.838C415.313 275.248 418.738 276.947 421.152 276.712C423.568 276.478 426.553 277.415 426.553 277.415L427.051 275.833Z" fill="#FFB27D"/>
<path d="M455.415 276.799C455.415 276.799 454.349 278.911 452.414 281.339C450.084 284.261 446.491 287.636 441.979 288.303C439.823 288.622 437.716 288.157 435.778 287.296C435.773 287.296 435.771 287.296 435.771 287.296C430.291 284.861 426.172 279.263 426.172 279.263C425.207 276.626 426.787 274.838 426.787 274.838C426.787 274.838 437.852 277.329 438.906 276.801C439.96 276.274 446.439 261.888 447.605 259.491C450.086 254.397 454.021 252.937 454.021 252.937L455.415 276.801V276.799Z" fill="#FFA561"/>
<path d="M452.414 281.341C450.084 284.264 446.491 287.639 441.979 288.305C439.823 288.624 437.716 288.159 435.778 287.299C435.994 287.327 441.466 288.003 443.646 284.098C445.871 280.114 448.278 273.786 451.583 275.895C453.008 276.806 452.946 279.069 452.414 281.344V281.341Z" fill="#F4904D"/>
<path d="M496.696 396.347C496.696 396.347 500.073 399.432 499.414 401.623C498.756 403.814 495.709 405.276 495.297 407.954C494.885 410.632 493.238 412.094 491.758 412.094H484.69C484.69 412.094 483.598 410.21 486.235 409.642C488.869 409.073 489.863 405.926 489.698 403.004C489.533 400.082 489.944 396.186 489.944 396.186L495.544 394.887L496.696 396.347Z" fill="#1C4B8E"/>
<path d="M468.118 397.656C468.118 397.656 469.333 410.72 467.85 411.451L448.881 411.413C448.881 411.413 448.881 409.222 451.928 408.735C454.974 408.249 460.327 406.463 461.233 402.486C462.138 398.509 468.118 397.658 468.118 397.658V397.656Z" fill="#1C4B8E"/>
<path d="M482.712 267.987C482.712 267.987 482.994 271.976 482.712 276.763C482.522 279.937 479.318 284.187 478.863 285.237C477.72 287.874 476.434 288.303 476.434 288.303L466.473 290.746L462.972 291.604L451.928 288.303C451.928 288.303 446.898 274.251 448.917 266.34C450.937 258.429 454.024 252.935 454.024 252.935C454.024 252.935 461.511 249.977 474.77 252.187L482.714 267.987H482.712Z" fill="#FFA561"/>
<path d="M479.797 278.057C479.607 281.231 479.318 284.185 478.863 285.237C477.72 287.874 476.434 288.303 476.434 288.303L466.473 290.746L462.148 289.473C462.148 289.473 476.587 287.282 474.987 274.848L479.797 278.057Z" fill="#F2CCAA"/>
<path d="M452.63 290.436C452.63 290.436 447.159 307.476 446.81 313.277C446.458 319.078 457.264 395.685 457.7 398.358C458.11 400.877 461.235 402.483 461.235 402.483C461.235 402.483 462.672 403.332 464.725 402.752C467.572 401.947 468.471 400.983 468.471 400.983C468.471 400.983 472.727 346.346 470.092 326.831C467.457 307.313 467.426 290.436 467.426 290.436H452.627H452.63Z" fill="#6980E2"/>
<path d="M475.799 289.928C475.799 289.928 484.141 301.133 484.92 308.705C485.698 316.278 486.139 342.882 487.796 350.266C489.454 357.649 495.542 371.857 495.542 394.884C495.542 394.884 494.909 396.203 492.955 396.908C492.33 397.133 491.494 397.351 490.68 397.538C489.068 397.907 487.415 397.119 486.68 395.637C482.565 387.343 469.455 360.593 468.782 355.038C468.305 351.109 464.167 325.1 455.137 309.839C452.97 306.176 456.467 291.604 456.467 291.604L475.799 289.928Z" fill="#8C9DF4"/>
<path d="M451.755 287.807C451.755 287.807 453.952 289.545 458.313 289.633C463.522 289.739 476.432 288.303 476.432 288.303C476.432 288.303 477.004 289.907 476.982 291.602C476.982 291.602 461.216 295.581 452.081 292.182C452.081 292.182 450.903 289.962 451.755 287.807Z" fill="#233862"/>
<path d="M457.063 294.126C455.753 294.126 454.685 292.917 454.685 291.434C454.685 289.95 455.75 288.742 457.063 288.742C458.375 288.742 459.441 289.95 459.441 291.434C459.441 292.917 458.375 294.126 457.063 294.126ZM457.063 289.528C456.186 289.528 455.473 290.381 455.473 291.431C455.473 292.481 456.186 293.335 457.063 293.335C457.94 293.335 458.651 292.481 458.651 291.431C458.651 290.381 457.937 289.528 457.063 289.528Z" fill="white"/>
<path d="M491.729 292.349L478.925 303.508C478 304.314 476.597 304.218 475.792 303.293L459.456 284.515C458.651 283.59 458.747 282.185 459.671 281.38L472.475 270.221C473.4 269.416 474.803 269.511 475.608 270.437L491.944 289.214C492.749 290.139 492.653 291.544 491.729 292.349Z" fill="#2B478B"/>
<path d="M472.789 290.94C472.607 290.988 465.987 291.767 465.987 293.136C465.987 294.718 467.927 296.839 469.757 296.739C470.497 296.698 473.912 293.555 473.912 293.555L472.789 290.94Z" fill="#FFB27D"/>
<path d="M469.39 251.463C468.638 249.634 468.197 246.851 468.209 243.404L467.709 243.502L459.3 245.168C459.3 245.168 459.492 247.817 459.496 250.31C459.496 250.331 459.496 250.351 459.496 250.372C459.506 252.539 458.033 254.714 461.506 255.572C462.579 255.838 470.969 255.298 469.388 251.461L469.39 251.463Z" fill="#FFB27D"/>
<path d="M459.302 245.17C459.302 245.17 459.494 247.819 459.499 250.312C464.203 250.18 466.691 245.885 467.709 243.502L459.3 245.168L459.302 245.17Z" fill="#E8945B"/>
<path d="M457.731 247.532C457.731 247.532 468.863 247.716 468.871 240.776C468.878 233.836 470.32 229.186 463.213 228.774C456.107 228.364 454.723 231.01 454.158 233.326C453.593 235.641 454.836 247.306 457.731 247.532Z" fill="#FFB27D"/>
<path d="M458.143 228.603C458.143 228.603 461.192 236.747 465.87 237.95C470.547 239.153 472.576 237.9 472.576 237.9C472.576 237.9 468.988 235.047 468.243 230.068C468.243 230.068 460.442 224.729 458.143 228.606V228.603Z" fill="#163560"/>
<path d="M458.898 229.265C458.898 229.265 456.637 230.111 455.707 231.76C454.797 233.374 454.024 235.51 454.203 238.132C454.203 238.132 451.906 232.597 454.488 229.466C457.223 226.146 458.9 229.265 458.9 229.265H458.898Z" fill="#163560"/>
<path d="M472.789 290.94C472.789 290.94 471.203 290.429 470.142 290.578C469.081 290.727 468.298 290.556 468.298 290.854C468.298 291.151 469.666 291.29 469.958 291.431C470.248 291.575 472.789 290.937 472.789 290.937V290.94Z" fill="#FFB27D"/>
<path d="M474.767 252.187C474.767 252.187 482.668 252.741 485.698 260.112C488.728 267.481 494.474 279.855 494.474 281.938C494.474 284.022 491.264 290.436 474.022 294.126C474.022 294.126 472.24 292.249 472.348 290.762C472.348 290.762 483.111 281.509 483.083 280.428C483.028 278.383 481.318 275.682 471.869 266.222C469.299 263.65 474.77 252.187 474.77 252.187H474.767Z" fill="#FFA561"/>
<path d="M207.33 33.086C207.33 33.086 200.99 32.0121 196.971 35.0517C192.952 38.0914 192.308 37.1085 190.04 38.9855C187.772 40.8625 190.093 43.0967 188.842 44.3504C187.592 45.6018 187.544 48.0157 189.398 48.6414C191.254 49.2671 190.004 52.6639 194.023 53.1122C198.042 53.558 196.241 55.4207 200.054 55.7035C203.864 55.9864 207.018 56.1182 209.028 56.962C211.037 57.8059 212.858 56.9333 213.432 55.4039C214.007 53.8721 215.614 55.8474 216.084 53.7546C216.553 51.6619 214.879 50.8348 215.815 49.1352C216.754 47.4356 219.07 35.3682 207.327 33.0884L207.33 33.086Z" fill="#233862"/>
<path d="M218.294 154.875C217.856 155.384 217.803 155.952 218.026 156.553C218.026 156.553 218.026 156.558 218.031 156.561C218.443 157.675 219.786 158.915 221.346 160.149C221.544 160.307 221.722 160.451 221.877 160.585C221.918 160.621 221.959 160.655 221.997 160.691C222.028 160.717 222.059 160.746 222.088 160.772C223.544 162.096 223.001 162.405 225.618 165.095C228.603 168.158 230.641 168.199 231.22 167.914C231.709 167.672 230.701 166.041 229.582 164.21C229.527 164.121 229.474 164.033 229.419 163.944C229.271 163.699 229.122 163.452 228.974 163.208C227.664 161.005 227.989 159.962 228.272 156.668C228.502 153.991 232.327 141.688 232.327 141.688L226.643 140.751C226.643 140.751 225.003 150.539 223.13 152.056C222.129 152.866 221.001 152.883 220.038 153.485C219.971 153.526 219.904 153.569 219.837 153.614C219.288 153.984 218.733 154.365 218.292 154.875H218.294Z" fill="#FFB27D"/>
<path d="M218.294 154.875C217.856 155.384 217.803 155.952 218.026 156.553C218.026 156.553 218.026 156.558 218.031 156.561C218.534 157.673 219.844 158.905 221.35 160.137C221.547 160.298 221.722 160.446 221.875 160.585C221.916 160.621 221.956 160.655 221.995 160.691C222.026 160.717 222.057 160.746 222.086 160.772C223.542 162.096 222.998 162.405 225.616 165.095C228.6 168.158 230.638 168.199 231.218 167.914C231.707 167.672 230.698 166.041 229.58 164.21C229.003 164.004 226.315 162.932 224.272 160.353C222.474 158.088 221.262 155.17 220.035 153.483C219.968 153.523 219.901 153.566 219.834 153.612C219.286 153.981 218.73 154.362 218.289 154.873L218.294 154.875Z" fill="#233862"/>
<path d="M264.04 151.004C264.404 152.756 266.897 152.445 269.682 151.742C272.468 151.04 271.809 151.855 275.778 151.387C279.746 150.92 280.939 149.429 281.056 148.837C281.162 148.312 279.198 148.142 277.09 147.912C276.824 147.883 276.558 147.852 276.293 147.823C273.914 147.542 272.163 146.018 269.996 144.774C267.943 143.594 264.859 138.752 264.859 138.752L259.415 139.222C259.415 139.222 262.303 143.546 263.422 145.428C264.08 146.536 264.056 148.005 263.982 149.139C263.944 149.755 263.908 150.385 264.037 151.004H264.04Z" fill="#FFB27D"/>
<path d="M269.682 151.742C272.468 151.04 271.809 151.855 275.778 151.387C279.746 150.92 280.939 149.429 281.056 148.837C281.162 148.312 279.198 148.142 277.09 147.911L277.071 147.952C277.071 147.952 274.702 149.659 271.397 149.762C268.703 149.846 265.843 149.093 263.984 149.136C263.946 149.753 263.91 150.383 264.039 151.001C264.404 152.754 266.897 152.442 269.682 151.74V151.742Z" fill="#233862"/>
<path d="M242.922 116.295L237.929 130.043L231.409 147.993C231.409 147.993 229.606 148.18 227.877 147.696C226.284 147.247 224.449 146.056 224.449 146.056C224.449 146.056 226.16 126.819 229.525 115.76C230.387 112.922 231.359 110.623 232.442 109.326C237.735 102.976 242.925 116.295 242.925 116.295H242.922Z" fill="#ED7D2B"/>
<path d="M237.591 94.5548C234.248 93.5024 224.744 94.9503 215.202 96.892L213.178 93.6031L192.526 92.136C192.526 92.136 186.059 106.454 189.618 116.909C190.308 118.937 193.616 119.008 193.616 119.008C193.616 119.008 205.715 119.14 209.703 119.112C219.968 119.04 231.378 111.896 232.858 111.589C235.282 111.086 236.286 115.938 238.748 121.02C241.21 126.102 261.716 143.445 261.716 143.445C261.716 143.445 264.849 143.455 266.14 142.959C267.527 142.427 268.032 141.743 268.032 141.743C268.032 141.743 245.131 96.9304 237.591 94.5548Z" fill="#F99746"/>
<path d="M206.671 61.7468C206.705 61.7684 203.064 63.0413 200.616 61.977C198.315 60.9773 196.55 57.2113 196.583 57.2089C197.627 57.1538 198.768 56.2309 199.608 50.2307L200.054 50.3865L207.548 53.0258C207.548 53.0258 207.023 55.4302 206.688 57.7195C206.405 59.6397 206.262 61.4807 206.671 61.7492V61.7468Z" fill="#FFB27D"/>
<path d="M207.548 53.0259C207.548 53.0259 207.229 54.7111 206.784 57.1203C202.485 56.3772 200.674 52.7071 200.051 50.3866L207.545 53.0259H207.548Z" fill="#ED975D"/>
<path d="M208.678 55.3991C208.678 55.3991 198.439 54.0974 199.35 47.7281C200.257 41.3587 199.548 36.9024 206.123 37.4633C212.697 38.0242 213.619 40.6372 213.832 42.8354C214.045 45.036 211.365 55.5717 208.681 55.3967L208.678 55.3991Z" fill="#FFB27D"/>
<path d="M213.432 39.3547C213.432 39.3547 206.925 45.048 202.475 45.5346C198.025 46.0213 196.329 44.6021 196.329 44.6021C196.329 44.6021 198.94 42.4015 200.494 38.8705C200.952 37.8301 201.931 37.1109 203.062 37.0054C206.24 36.7082 212.268 36.5404 213.432 39.3547Z" fill="#233862"/>
<path d="M209.337 38.8776C209.337 38.8776 211.543 40.9824 212.242 42.5501C212.917 44.0628 213.142 47.6897 212.623 49.1352C212.623 49.1352 215.988 42.4686 214.033 39.2564C211.962 35.85 209.334 38.88 209.334 38.88L209.337 38.8776Z" fill="#233862"/>
<path d="M215.389 76.7677C215.226 97.4914 215.42 93.1597 213.169 95.1421C212.628 95.6192 211.095 95.9116 209.076 96.0603C202.731 96.5277 191.563 95.5592 191.13 94.387C189.638 90.3334 190.663 89.0653 189.396 82.8517C189.264 82.1901 189.101 81.4757 188.909 80.6967C187.86 76.4321 186.859 74.9842 190.426 68.0946C193.659 61.8547 197.029 56.7823 197.335 56.9645C206.017 62.0417 206.685 57.7172 206.685 57.7172C206.685 57.7172 215.468 66.6563 215.389 76.7653V76.7677Z" fill="#8C9DF4"/>
<path d="M237.926 130.043L231.407 147.993C231.407 147.993 229.604 148.18 227.874 147.696C226.282 147.247 224.447 146.056 224.447 146.056C224.447 146.056 226.157 126.819 229.522 115.76L237.929 130.043H237.926Z" fill="#F99746"/>
<path d="M206.688 57.7171C206.688 57.7171 215.595 59.165 216.668 62.9909C217.739 66.8169 224.047 89.3145 224.047 89.3145C224.047 89.3145 219.53 90.1607 217.425 88.0823C215.32 86.0064 210.017 68.7298 210.017 68.7298L206.688 57.7147V57.7171Z" fill="#8C9DF4"/>
<path d="M209.078 96.0602C202.734 96.5276 191.566 95.5592 191.132 94.3869C189.64 90.3333 190.665 89.0652 189.398 82.8517L192.399 74.2002C192.399 74.2002 191.961 83.8129 194.811 86.3228C197.656 88.8303 206.439 91.1196 207.83 93.2219C208.501 94.2311 208.944 95.2451 209.078 96.0602Z" fill="#6980E2"/>
<path d="M201.776 92.0689C201.776 92.0689 208.029 90.6282 209.045 91.1771C210.06 91.7261 212.544 93.7349 212.857 94.4373C213.171 95.1397 210.604 93.9171 209.77 93.7014C209.231 93.5599 207.814 94.0633 207.114 94.3031C204.166 95.3099 202.35 94.816 202.35 94.816L201.778 92.0689H201.776Z" fill="#FFB27D"/>
<path d="M197.333 56.962C197.333 56.962 188.926 57.5397 186.045 61.6245C181.988 67.3754 174.029 91.8123 178.711 95.0318C183.985 98.6563 202.597 95.8205 202.597 95.8205C202.597 95.8205 203.196 92.9151 202.324 91.5175C201.452 90.1199 187.415 87.9529 186.764 87.3104C186.112 86.668 194.763 74.6245 194.749 72.6804C194.734 70.7362 197.33 56.9596 197.33 56.9596L197.333 56.962Z" fill="#8C9DF4"/>
<path d="M209.358 92.9224C209.358 92.9224 210.683 94.6076 211.114 94.8066C211.545 95.0055 211.823 94.9528 211.823 94.9528L210.927 93.3658L209.358 92.9224Z" fill="#FFB27D"/>
<path d="M209.042 91.1796L212.87 93.0062C212.87 93.0062 212.709 93.2723 212.24 93.2555C211.77 93.2364 210.582 92.8121 210.582 92.8121L209.042 91.1796Z" fill="#FFB27D"/>
<path d="M210.297 97.5393L240.479 97.3259L249.399 74.6653L219.264 74.8786L210.297 97.5393Z" fill="#233862"/>
<path d="M240.827 96.4437L200.973 96.7266L200.978 97.6064L240.479 97.3259L240.827 96.4437Z" fill="#233862"/>
<path d="M232.779 86.0831C233.002 85.2873 232.538 84.6472 231.745 84.652C230.952 84.6568 230.128 85.3064 229.905 86.1023C229.683 86.8982 230.147 87.5382 230.94 87.5334C231.733 87.5286 232.557 86.879 232.779 86.0831Z" fill="#EBF3FA"/>
<path d="M56.7848 411.264H78.8096C79.9903 410.262 77.9928 407.987 75.9068 407.834C75.0014 407.765 73.8542 407.956 72.5441 408.232C72.24 404.202 70.5107 386.089 63.9867 386.818C56.653 387.633 63.9866 394.796 66.0608 399.034C67.596 402.174 69.2174 406.679 69.9575 408.803C69.3611 408.932 68.7456 409.059 68.1157 409.174C67.1433 406.187 63.5268 396.138 58.9259 396.723C53.5251 397.409 55.695 401.438 59.5247 403.828C62.3341 405.588 65.7805 408.088 67.4211 409.294C66.032 409.522 64.583 409.673 63.1149 409.639C59.3427 409.55 57.5009 410.663 56.7872 411.262L56.7848 411.264Z" fill="#A8D29F"/>
<path d="M533.467 411.214H509.1C507.795 410.107 510.003 407.587 512.312 407.419C513.315 407.343 514.582 407.554 516.031 407.86C516.367 403.402 518.283 383.364 525.499 384.169C533.613 385.07 525.499 392.993 523.205 397.684C521.504 401.158 519.713 406.142 518.893 408.493C519.552 408.637 520.235 408.776 520.932 408.906C522.007 405.6 526.009 394.482 531.099 395.129C537.074 395.886 534.672 400.345 530.438 402.992C527.331 404.938 523.516 407.702 521.703 409.04C523.238 409.292 524.843 409.459 526.469 409.421C530.643 409.323 532.679 410.553 533.47 411.217L533.467 411.214Z" fill="#A8D29F"/>
<path d="M26.1422 411.181H560.324C560.697 411.181 561 411.492 561 411.876V412.302C561 412.686 560.697 412.998 560.324 412.998H26.1422C25.769 412.998 25.4634 412.686 25.4634 412.3V411.873C25.4634 411.49 25.7666 411.178 26.1399 411.178L26.1422 411.181Z" fill="#233862"/>
</g>
<defs>
<clipPath id="clip0_3991_3493">
<rect width="561" height="413" fill="white"/>
</clipPath>
</defs>
</svg>
